  0
SECTION
  2
HEADER
  9
$ACADVER
  1
AC1012
  9
$DWGCODEPAGE
  3
ansi_1252
  9
$LASTSAVEDBY
  1

  9
$INSBASE
 10
82.4117980000000045
 20
46.4255380000000031
 30
0.0
  9
$EXTMIN
 10
109.392876999999999
 20
76.7857240000000019
 30
0.0
  9
$EXTMAX
 10
308.641359000000023
 20
207.263934000000006
 30
0.0
  9
$LIMMIN
 10
0.0
 20
0.0
  9
$LIMMAX
 10
420.0
 20
297.0
  9
$ORTHOMODE
 70
     0
  9
$REGENMODE
 70
     1
  9
$FILLMODE
 70
     1
  9
$QTEXTMODE
 70
     0
  9
$MIRRTEXT
 70
     1
  9
$DRAGMODE
 70
     2
  9
$LTSCALE
 40
1.0
  9
$OSMODE
 70
  2551
  9
$ATTMODE
 70
     1
  9
$TEXTSIZE
 40
1.0
  9
$TRACEWID
 40
0.0500000000000000028
  9
$TEXTSTYLE
  7
STANDARD
  9
$CLAYER
  8
0
  9
$CELTYPE
  6
CONTINUOUS
  9
$CECOLOR
 62
   256
  9
$CELTSCALE
 40
1.0
  9
$DELOBJ
 70
     1
  9
$DISPSILH
 70
     0
  9
$DIMSCALE
 40
1.0
  9
$DIMASZ
 40
2.5
  9
$DIMEXO
 40
1.0
  9
$DIMDLI
 40
7.0
  9
$DIMRND
 40
0.0
  9
$DIMDLE
 40
0.0
  9
$DIMEXE
 40
1.0
  9
$DIMTP
 40
0.100000000000000006
  9
$DIMTM
 40
0.100000000000000006
  9
$DIMTXT
 40
3.5
  9
$DIMCEN
 40
0.0
  9
$DIMTSZ
 40
0.0
  9
$DIMTOL
 70
     0
  9
$DIMLIM
 70
     0
  9
$DIMTIH
 70
     0
  9
$DIMTOH
 70
     0
  9
$DIMSE1
 70
     0
  9
$DIMSE2
 70
     0
  9
$DIMTAD
 70
     1
  9
$DIMZIN
 70
     0
  9
$DIMBLK
  1

  9
$DIMASO
 70
     1
  9
$DIMSHO
 70
     1
  9
$DIMPOST
  1
<>
  9
$DIMAPOST
  1

  9
$DIMALT
 70
     0
  9
$DIMALTD
 70
     2
  9
$DIMALTF
 40
0.0393700000000000022
  9
$DIMLFAC
 40
1.0
  9
$DIMTOFL
 70
     1
  9
$DIMTVP
 40
0.0
  9
$DIMTIX
 70
     0
  9
$DIMSOXD
 70
     0
  9
$DIMSAH
 70
     0
  9
$DIMBLK1
  1

  9
$DIMBLK2
  1

  9
$DIMSTYLE
  2
GEN-ISO
  9
$DIMCLRD
 70
   256
  9
$DIMCLRE
 70
   256
  9
$DIMCLRT
 70
     2
  9
$DIMTFAC
 40
0.709999999999999964
  9
$DIMGAP
 40
0.599999999999999978
  9
$DIMJUST
 70
     0
  9
$DIMSD1
 70
     0
  9
$DIMSD2
 70
     0
  9
$DIMTOLJ
 70
     0
  9
$DIMTZIN
 70
     0
  9
$DIMALTZ
 70
     0
  9
$DIMALTTZ
 70
     0
  9
$DIMFIT
 70
     3
  9
$DIMUPT
 70
     0
  9
$DIMUNIT
 70
     2
  9
$DIMDEC
 70
     2
  9
$DIMTDEC
 70
     3
  9
$DIMALTU
 70
     2
  9
$DIMALTTD
 70
     4
  9
$DIMTXSTY
  7
STANDARD
  9
$DIMAUNIT
 70
     0
  9
$LUNITS
 70
     2
  9
$LUPREC
 70
     2
  9
$SKETCHINC
 40
0.100000000000000006
  9
$FILLETRAD
 40
2.5
  9
$AUNITS
 70
     0
  9
$AUPREC
 70
     0
  9
$MENU
  1
.
  9
$ELEVATION
 40
0.0
  9
$PELEVATION
 40
0.0
  9
$THICKNESS
 40
0.0
  9
$LIMCHECK
 70
     0
  9
$BLIPMODE
 70
     0
  9
$CHAMFERA
 40
2.5
  9
$CHAMFERB
 40
2.5
  9
$CHAMFERC
 40
0.0
  9
$CHAMFERD
 40
0.0
  9
$SKPOLY
 70
     0
  9
$TDCREATE
 40
2410739.66666700225
  9
$TDUPDATE
 40
2450899.43297581002
  9
$TDINDWG
 40
0.0832730671296296326
  9
$TDUSRTIMER
 40
0.0781920717999999987
  9
$USRTIMER
 70
     1
  9
$ANGBASE
 50
0.0
  9
$ANGDIR
 70
     0
  9
$PDMODE
 70
     0
  9
$PDSIZE
 40
0.0
  9
$PLINEWID
 40
0.0
  9
$COORDS
 70
     1
  9
$SPLFRAME
 70
     0
  9
$SPLINETYPE
 70
     6
  9
$SPLINESEGS
 70
     8
  9
$ATTDIA
 70
     1
  9
$ATTREQ
 70
     1
  9
$HANDLING
 70
     1
  9
$HANDSEED
  5
25F
  9
$SURFTAB1
 70
     6
  9
$SURFTAB2
 70
     6
  9
$SURFTYPE
 70
     6
  9
$SURFU
 70
     6
  9
$SURFV
 70
     6
  9
$UCSNAME
  2

  9
$UCSORG
 10
0.0
 20
0.0
 30
0.0
  9
$UCSXDIR
 10
1.0
 20
0.0
 30
0.0
  9
$UCSYDIR
 10
0.0
 20
1.0
 30
0.0
  9
$PUCSNAME
  2

  9
$PUCSORG
 10
0.0
 20
0.0
 30
0.0
  9
$PUCSXDIR
 10
1.0
 20
0.0
 30
0.0
  9
$PUCSYDIR
 10
0.0
 20
1.0
 30
0.0
  9
$USERI1
 70
     0
  9
$USERI2
 70
     0
  9
$USERI3
 70
     0
  9
$USERI4
 70
     0
  9
$USERI5
 70
     0
  9
$USERR1
 40
0.0
  9
$USERR2
 40
0.0
  9
$USERR3
 40
0.0
  9
$USERR4
 40
0.0
  9
$USERR5
 40
0.0
  9
$WORLDVIEW
 70
     1
  9
$SHADEDGE
 70
     3
  9
$SHADEDIF
 70
    70
  9
$TILEMODE
 70
     1
  9
$MAXACTVP
 70
    16
  9
$PINSBASE
 10
0.0
 20
0.0
 30
0.0
  9
$PLIMCHECK
 70
     0
  9
$PEXTMIN
 10
1.0E+20
 20
1.0E+20
 30
1.0E+20
  9
$PEXTMAX
 10
-1.0E+20
 20
-1.0E+20
 30
-1.0E+20
  9
$PLIMMIN
 10
0.0
 20
0.0
  9
$PLIMMAX
 10
12.0
 20
9.0
  9
$UNITMODE
 70
     0
  9
$VISRETAIN
 70
     0
  9
$PLINEGEN
 70
     0
  9
$PSLTSCALE
 70
     1
  9
$TREEDEPTH
 70
  3020
  9
$PICKSTYLE
 70
     1
  9
$CMLSTYLE
  2
STANDARD
  9
$CMLJUST
 70
     0
  9
$CMLSCALE
 40
1.0
  9
$SAVEIMAGES
 70
     0
  9
$AUTHOR
  1

  9
$COMMENTS
  1

  9
$KEYWORDS
  1

  9
$SUBJECT
  1

  9
$TITLE
  1

  9
$HYPERLINKBASE
  1

  9
$REVISIONNUMBER
  1

  9
$TDUCREATE
 40
2460535.57623714115
  9
$TDUUPDATE
 40
2460535.57623714115
  0
ENDSEC
  0
SECTION
  2
TABLES
  0
TABLE
  2
VPORT
  5
12
100
AcDbSymbolTable
 70
     2
  0
VPORT
  5
25E
100
AcDbSymbolTableRecord
100
AcDbViewportTableRecord
  2
*ACTIVE
 70
     0
 10
0.0
 20
0.0
 11
1.0
 21
1.0
 12
208.2943
 22
134.5784
 13
0.0
 23
0.0
 14
1.0
 24
1.0
 15
10.0
 25
10.0
 16
0.0
 26
0.0
 36
1.0
 17
0.0
 27
0.0
 37
0.0
 40
183.57824500000001
 41
1.4159
 42
50.0
 43
0.0
 44
0.0
 50
0.0
 51
0.0
 71
     0
 72
   100
 73
     1
 74
     1
 75
     0
 76
     0
 77
     0
 78
     0
  0
ENDTAB
  0
TABLE
  2
LTYPE
  5
E
100
AcDbSymbolTable
 70
     3
  0
LTYPE
  5
F
100
AcDbSymbolTableRecord
100
AcDbLinetypeTableRecord
  2
BYBLOCK
 70
     0
  3

 72
    65
 73
     0
 40
0.0
  0
LTYPE
  5
6
100
AcDbSymbolTableRecord
100
AcDbLinetypeTableRecord
  2
BYLAYER
 70
     0
  3

 72
    65
 73
     0
 40
0.0
  0
LTYPE
  5
5
100
AcDbSymbolTableRecord
100
AcDbLinetypeTableRecord
  2
CONTINUOUS
 70
    64
  3
Solid line
 72
    65
 73
     0
 40
0.0
  0
LTYPE
  5
62
100
AcDbSymbolTableRecord
100
AcDbLinetypeTableRecord
  2
GEN3
 70
    64
  3
-- -- -- -- -- -- -- -- -- -- -- -- -- -- --
 72
    65
 73
     2
 40
6.25
 49
5.0
 74
     0
 49
-1.25
 74
     0
  0
LTYPE
  5
40
100
AcDbSymbolTableRecord
100
AcDbLinetypeTableRecord
  2
GEN7
 70
    64
  3
____ . ____ . ____ . ____ . ____ . ____ . ____
 72
    65
 73
     4
 40
13.75
 49
10.0
 74
     0
 49
-1.25
 74
     0
 49
1.25
 74
     0
 49
-1.25
 74
     0
  0
ENDTAB
  0
TABLE
  2
LAYER
  5
B
100
AcDbSymbolTable
 70
     8
  0
LAYER
  5
4
100
AcDbSymbolTableRecord
100
AcDbLayerTableRecord
  2
0
 70
     0
 62
     7
  6
CONTINUOUS
  0
LAYER
  5
61
100
AcDbSymbolTableRecord
100
AcDbLayerTableRecord
  2
3
 70
    64
 62
     6
  6
GEN3
  0
LAYER
  5
3F
100
AcDbSymbolTableRecord
100
AcDbLayerTableRecord
  2
7
 70
    64
 62
     4
  6
GEN7
  0
LAYER
  5
55
100
AcDbSymbolTableRecord
100
AcDbLayerTableRecord
  2
6
 70
    64
 62
     2
  6
CONTINUOUS
  0
LAYER
  5
64
100
AcDbSymbolTableRecord
100
AcDbLayerTableRecord
  2
4
 70
    64
 62
     3
  6
CONTINUOUS
  0
LAYER
  5
78
100
AcDbSymbolTableRecord
100
AcDbLayerTableRecord
  2
8
 70
    64
 62
     1
  6
CONTINUOUS
  0
LAYER
  5
1E
100
AcDbSymbolTableRecord
100
AcDbLayerTableRecord
  2
5
 70
    64
 62
     3
  6
CONTINUOUS
  0
LAYER
  5
27
100
AcDbSymbolTableRecord
100
AcDbLayerTableRecord
  2
DEFPOINTS
 70
    64
 62
     7
  6
CONTINUOUS
  0
ENDTAB
  0
TABLE
  2
STYLE
  5
C
100
AcDbSymbolTable
 70
     1
  0
STYLE
  5
D
100
AcDbSymbolTableRecord
100
AcDbTextStyleTableRecord
  2
STANDARD
 70
    64
 40
0.0
 41
1.0
 50
0.0
 71
     0
 42
1.0
  3
GENISO.SHX
  4

  0
ENDTAB
  0
TABLE
  2
VIEW
  5
10
100
AcDbSymbolTable
 70
     0
  0
ENDTAB
  0
TABLE
  2
UCS
  5
11
100
AcDbSymbolTable
 70
     0
  0
ENDTAB
  0
TABLE
  2
APPID
  5
14
100
AcDbSymbolTable
 70
    25
  0
APPID
  5
15
100
AcDbSymbolTableRecord
100
AcDbRegAppTableRecord
  2
ACAD
 70
     0
  0
APPID
  5
AE
100
AcDbSymbolTableRecord
100
AcDbRegAppTableRecord
  2
GENIUS_GENOENT_13
 70
     0
  0
APPID
  5
AD
100
AcDbSymbolTableRecord
100
AcDbRegAppTableRecord
  2
GENIUS_GENOBJ_13
 70
     0
1001
GENIUS_GENODEF_13
1000
GENODEF
1001
GENIUS_GENOENT_13
1000
GENOENT
1001
GENIUS_GENOLIS_13
1000
GENOLIS
1001
GENIUS_GENOREF_13
1000
GENOREF
1001
GENIUS_GENOBJ-N-CRS_13
1000
GENOBJ-N-CRS
1001
GENIUS_GENOBJ-N-TIT_13
1070
     0
1001
GENIUS_GENTITLE_13
1070
     0
1001
GENIUS_GENZVEED_13
1070
     1
1001
GENIUS_GENOBJ-F-SPR_13
1070
     0
1001
GENIUS_GENOBJ-N-RSSYM_13
1070
     1
1001
GENIUS_GENSYMENT_13
1070
     1
1001
GENIUS_GEFSPRING_13
1070
     1
  0
APPID
  5
AC
100
AcDbSymbolTableRecord
100
AcDbRegAppTableRecord
  2
GENIUS_GENODEF_13
 70
     0
1001
GENIUS_GENOBJ_13
1000
GENOBJ
  0
APPID
  5
AF
100
AcDbSymbolTableRecord
100
AcDbRegAppTableRecord
  2
GENIUS_GENOLIS_13
 70
     0
1001
GENIUS_GENOBJ_13
1000
GENOBJ
  0
APPID
  5
B0
100
AcDbSymbolTableRecord
100
AcDbRegAppTableRecord
  2
GENIUS_GENOREF_13
 70
     0
1001
GENIUS_GENOBJ_13
1000
GENOBJ
  0
APPID
  5
B1
100
AcDbSymbolTableRecord
100
AcDbRegAppTableRecord
  2
GENIUS_GENOBJ-N-CRS_13
 70
     0
1001
GENIUS_GENOBJ_13
1000
GENOBJ
  0
APPID
  5
B6
100
AcDbSymbolTableRecord
100
AcDbRegAppTableRecord
  2
GENIUS_GENOBJ-N-RSSYM_13
 70
     0
1001
GENIUS_GENOBJ_13
1070
     1
  0
APPID
  5
B7
100
AcDbSymbolTableRecord
100
AcDbRegAppTableRecord
  2
GENIUS_GENSYMENT_13
 70
     0
1001
GENIUS_GENOBJ_13
1070
     1
  0
APPID
  5
B3
100
AcDbSymbolTableRecord
100
AcDbRegAppTableRecord
  2
GENIUS_GENTITLE_13
 70
     0
1001
GENIUS_GENOBJ_13
1000
GENOBJ
  0
APPID
  5
B4
100
AcDbSymbolTableRecord
100
AcDbRegAppTableRecord
  2
GENIUS_GENZVEED_13
 70
     0
1001
GENIUS_GENOBJ_13
1000
GENOBJ
  0
APPID
  5
B2
100
AcDbSymbolTableRecord
100
AcDbRegAppTableRecord
  2
GENIUS_GENOBJ-N-TIT_13
 70
     0
1001
GENIUS_GENOBJ_13
1070
     0
  0
APPID
  5
4E
100
AcDbSymbolTableRecord
100
AcDbRegAppTableRecord
  2
GENIUS_GENFIL_13
 70
     0
  0
APPID
  5
B5
100
AcDbSymbolTableRecord
100
AcDbRegAppTableRecord
  2
GENIUS_GENOBJ-F-SPR_13
 70
     0
1001
GENIUS_GENOBJ_13
1070
     0
  0
APPID
  5
B8
100
AcDbSymbolTableRecord
100
AcDbRegAppTableRecord
  2
GENIUS_GEFSPRING_13
 70
     0
1001
GENIUS_GENOBJ_13
1070
     1
  0
APPID
  5
B9
100
AcDbSymbolTableRecord
100
AcDbRegAppTableRecord
  2
GENIUS_GENOBJ-N-HTC_13
 70
     0
  0
APPID
  5
BA
100
AcDbSymbolTableRecord
100
AcDbRegAppTableRecord
  2
GENIUS_GENHATCH_13
 70
     0
  0
APPID
  5
2C
100
AcDbSymbolTableRecord
100
AcDbRegAppTableRecord
  2
GENIUS_GENDTOL_13
 70
     0
  0
APPID
  5
254
100
AcDbSymbolTableRecord
100
AcDbRegAppTableRecord
  2
GENIUS_GENCFG_13
 70
     0
1001
GENIUS_GEVCFG0_13
1000
GEV
1001
GENIUS_GENCFG0_13
1000
GEN@INFO_POS@XLATE
1001
GENIUS_GENCFG1_13
1000
GEN@INFO_POS
1001
GENIUS_GENCFG2_13
1000
GEN@LAYER@DEFS
1001
GENIUS_GENCFG3_13
1000
GEN@LAYER@ENTSORT
1001
GENIUS_GENCFG4_13
1000
GEN
  0
APPID
  5
255
100
AcDbSymbolTableRecord
100
AcDbRegAppTableRecord
  2
GENIUS_GEVCFG0_13
 70
     0
1001
GENIUS_GENCFG_13
1071
890904209
1000
255
1000
GEV
1070
     1
1000
GenCfgObject
1000
System
1070
     0
1002
{
1002
}
  0
APPID
  5
256
100
AcDbSymbolTableRecord
100
AcDbRegAppTableRecord
  2
GENIUS_GENCFG0_13
 70
     0
1001
GENIUS_GENCFG_13
1071
890904209
1000
256
1000
GEN@INFO_POS@XLATE
1070
     7
1000
GenCfgObject
1000
GenCfgShort
1000
GenCfgReal
1000
GenCfgBool
1000
GenCfgString
1000
GenCfgDim
1000
GenCfgAttrInf
1000
INFOPOINTS
1070
     0
1002
{
1000
GENINF13
1070
     0
1002
{
1000
5GENINF
1070
     4
1000
5
1002
{
1002
}
1000
6GENINF
1070
     4
1000
6
1002
{
1002
}
1000
7GENINF
1070
     4
1000
7
1002
{
1002
}
1000
9GENINF
1070
     4
1000
9
1002
{
1002
}
1000
11GENINF
1070
     4
1000
11
1002
{
1002
}
1000
16GENINF
1070
     4
1000
16
1002
{
1002
}
1000
17GENINF
1070
     4
1000
17
1002
{
1002
}
1000
18GENINF
1070
     4
1000
18
1002
{
1002
}
1000
19GENINF
1070
     4
1000
19
1002
{
1002
}
1000
20GENINF
1070
     4
1000
20
1002
{
1002
}
1000
21GENINF
1070
     4
1000
21
1002
{
1002
}
1000
22GENINF
1070
     4
1000
22
1002
{
1002
}
1000
23GENINF
1070
     4
1000
23
1002
{
1002
}
1000
0GENINF
1070
     4
1000
0
1002
{
1002
}
1002
}
1000
GENINFO
1070
     0
1002
{
1000
3GENINF
1070
     4
1000
3
1002
{
1002
}
1000
4GENINF
1070
     4
1000
4
1002
{
1002
}
1000
5GENINF
1070
     4
1000
5
1002
{
1002
}
1000
6GENINF
1070
     4
1000
6
1002
{
1002
}
1000
7GENINF
1070
     4
1000
7
1002
{
1002
}
1000
8GENINF
1070
     4
1000
8
1002
{
1002
}
1000
9GENINF
1070
     4
1000
9
1002
{
1002
}
1000
10GENINF
1070
     4
1000
10
1002
{
1002
}
1000
11GENINF
1070
     4
1000
11
1002
{
1002
}
1000
12GENINF
1070
     4
1000
12
1002
{
1002
}
1000
13GENINF
1070
     4
1000
13
1002
{
1002
}
1000
14GENINF
1070
     4
1000
14
1002
{
1002
}
1000
15GENINF
1070
     4
1000
15
1002
{
1002
}
1000
16GENINF
1070
     4
1000
16
1002
{
1002
}
1000
17GENINF
1070
     4
1000
17
1002
{
1002
}
1000
18GENINF
1070
     4
1000
18
1002
{
1002
}
1000
19GENINF
1070
     4
1000
19
1002
{
1002
}
1000
20GENINF
1070
     4
1000
20
1002
{
1002
}
1000
21GENINF
1070
     4
1000
21
1002
{
1002
}
1000
22GENINF
1070
     4
1000
22
1002
{
1002
}
1002
}
1000
DININFO
1070
     0
1002
{
1000
ST-NAME1
1070
     4
1000
5
1002
{
1002
}
1000
ST-NAME2
1070
     4
1000
6
1002
{
1002
}
1000
ST-NORM1
1070
     4
1000
7
1002
{
1002
}
1000
ST-NORM2
1070
     4
1000
8
1002
{
1002
}
1000
ST-MAT1
1070
     4
1000
9
1002
{
1002
}
1000
ST-MAT2
1070
     4
1000
10
1002
{
1002
}
1002
}
1002
}
1000
POS_NUMBERS
1070
     0
1002
{
1000
GENPOS13
1070
     0
1002
{
1000
1GENPOS
1070
     4
1000
1
1002
{
1002
}
1000
2GENPOS
1070
     4
1000
2
1002
{
1002
}
1000
5GENPOS
1070
     4
1000
5
1002
{
1002
}
1000
6GENPOS
1070
     4
1000
6
1002
{
1002
}
1000
7GENPOS
1070
     4
1000
7
1002
{
1002
}
1000
9GENPOS
1070
     4
1000
9
1002
{
1002
}
1000
11GENPOS
1070
     4
1000
11
1002
{
1002
}
1000
16GENPOS
1070
     4
1000
16
1002
{
1002
}
1000
17GENPOS
1070
     4
1000
17
1002
{
1002
}
1000
18GENPOS
1070
     4
1000
18
1002
{
1002
}
1000
19GENPOS
1070
     4
1000
19
1002
{
1002
}
1000
20GENPOS
1070
     4
1000
20
1002
{
1002
}
1000
21GENPOS
1070
     4
1000
21
1002
{
1002
}
1000
22GENPOS
1070
     4
1000
22
1002
{
1002
}
1000
23GENPOS
1070
     4
1000
23
1002
{
1002
}
1000
0GENPOS
1070
     4
1000
0
1002
{
1002
}
1002
}
1000
GENPOS
1070
     0
1002
{
1000
1GENPOS
1070
     4
1000
1
1002
{
1002
}
1000
2GENPOS
1070
     4
1000
2
1002
{
1002
}
1000
3GENPOS
1070
     4
1000
3
1002
{
1002
}
1000
4GENPOS
1070
     4
1000
4
1002
{
1002
}
1000
5GENPOS
1070
     4
1000
5
1002
{
1002
}
1000
6GENPOS
1070
     4
1000
6
1002
{
1002
}
1000
7GENPOS
1070
     4
1000
7
1002
{
1002
}
1000
8GENPOS
1070
     4
1000
8
1002
{
1002
}
1000
9GENPOS
1070
     4
1000
9
1002
{
1002
}
1000
10GENPOS
1070
     4
1000
10
1002
{
1002
}
1000
11GENPOS
1070
     4
1000
11
1002
{
1002
}
1000
12GENPOS
1070
     4
1000
12
1002
{
1002
}
1000
13GENPOS
1070
     4
1000
13
1002
{
1002
}
1000
14GENPOS
1070
     4
1000
14
1002
{
1002
}
1000
15GENPOS
1070
     4
1000
15
1002
{
1002
}
1000
16GENPOS
1070
     4
1000
16
1002
{
1002
}
1000
17GENPOS
1070
     4
1000
17
1002
{
1002
}
1000
18GENPOS
1070
     4
1000
18
1002
{
1002
}
1000
19GENPOS
1070
     4
1000
19
1002
{
1002
}
1000
20GENPOS
1070
     4
1000
20
1002
{
1002
}
1000
21GENPOS
1070
     4
1000
21
1002
{
1002
}
1000
22GENPOS
1070
     4
1000
22
1002
{
1002
}
1000
23GENPOS
1070
     4
1000
23
1002
{
1002
}
1002
}
1000
DIN985
1070
     0
1002
{
1000
POSITION
1070
     4
1000
1
1002
{
1002
}
1000
MENGE
1070
     4
1000
2
1002
{
1002
}
1000
BLATT
1070
     4
1000
3
1002
{
1002
}
1000
BENENN
1070
     4
1000
5
1002
{
1002
}
1000
BENENN2
1070
     4
1000
6
1002
{
1002
}
1000
NORM
1070
     4
1000
7
1002
{
1002
}
1000
NORM2
1070
     4
1000
8
1002
{
1002
}
1000
WERKSTOFF
1070
     4
1000
9
1002
{
1002
}
1000
WERKSTOFF2
1070
     4
1000
10
1002
{
1002
}
1002
}
1000
DIN986
1070
     0
1002
{
1000
POSITION
1070
     4
1000
1
1002
{
1002
}
1000
MENGE
1070
     4
1000
2
1002
{
1002
}
1000
BLATT
1070
     4
1000
3
1002
{
1002
}
1000
BENENN
1070
     4
1000
5
1002
{
1002
}
1000
BENENN2
1070
     4
1000
6
1002
{
1002
}
1000
NORM
1070
     4
1000
7
1002
{
1002
}
1000
NORM2
1070
     4
1000
8
1002
{
1002
}
1000
WERKSTOFF
1070
     4
1000
9
1002
{
1002
}
1000
WERKSTOFF2
1070
     4
1000
10
1002
{
1002
}
1002
}
1000
DIN987
1070
     0
1002
{
1000
POSITION
1070
     4
1000
1
1002
{
1002
}
1000
BLATT
1070
     4
1000
3
1002
{
1002
}
1000
BENENN
1070
     4
1000
5
1002
{
1002
}
1000
BENENN2
1070
     4
1000
6
1002
{
1002
}
1000
NORM
1070
     4
1000
7
1002
{
1002
}
1000
NORM2
1070
     4
1000
8
1002
{
1002
}
1000
WERKSTOFF
1070
     4
1000
9
1002
{
1002
}
1002
}
1002
}
  0
APPID
  5
257
100
AcDbSymbolTableRecord
100
AcDbRegAppTableRecord
  2
GENIUS_GENCFG1_13
 70
     0
1001
GENIUS_GENCFG_13
1071
890904209
1000
257
1000
GEN@INFO_POS
1070
     7
1000
GenCfgObject
1000
GenCfgShort
1000
GenCfgReal
1000
GenCfgBool
1000
GenCfgString
1000
GenCfgDim
1000
GenCfgAttrInf
1000
DescrText
1070
     4
1000
5,6,7,8
1002
{
1002
}
1000
Attrib
1070
     0
1002
{
1000
0
1070
     6
1002
{
1000
Prompt
1070
     4
1000
(genmsg gendwg 103)
1002
{
1002
}
1000
Value
1070
     4
1000

1002
{
1002
}
1000
EditFlag
1070
     1
1070
     0
1002
{
1002
}
1002
}
1000
1
1070
     6
1002
{
1000
Prompt
1070
     4
1000
(genmsg gendwg 31)
1002
{
1002
}
1000
Value
1070
     4
1000
1
1002
{
1002
}
1000
EditFlag
1070
     1
1070
     1
1002
{
1002
}
1002
}
1000
2
1070
     6
1002
{
1000
Prompt
1070
     4
1000
(genmsg gendwg 32)
1002
{
1002
}
1000
Value
1070
     4
1000
1
1002
{
1002
}
1000
EditFlag
1070
     1
1070
     1
1002
{
1002
}
1002
}
1000
3
1070
     6
1002
{
1000
Prompt
1070
     4
1000
(genmsg gendwg 33)
1002
{
1002
}
1000
Value
1070
     4
1000

1002
{
1002
}
1000
EditFlag
1070
     1
1070
     1
1002
{
1002
}
1002
}
1000
4
1070
     6
1002
{
1000
Prompt
1070
     4
1000
(genmsg gendwg 34)
1002
{
1002
}
1000
Value
1070
     4
1000

1002
{
1002
}
1000
EditFlag
1070
     1
1070
     1
1002
{
1002
}
1002
}
1000
5
1070
     6
1002
{
1000
Prompt
1070
     4
1000
(genmsg gendwg 35)
1002
{
1002
}
1000
Value
1070
     4
1000

1002
{
1002
}
1000
EditFlag
1070
     1
1070
     1
1002
{
1002
}
1002
}
1000
6
1070
     6
1002
{
1000
Prompt
1070
     4
1000
(genmsg gendwg 36)
1002
{
1002
}
1000
Value
1070
     4
1000

1002
{
1002
}
1000
EditFlag
1070
     1
1070
     1
1002
{
1002
}
1002
}
1000
7
1070
     6
1002
{
1000
Prompt
1070
     4
1000
(genmsg gendwg 37)
1002
{
1002
}
1000
Value
1070
     4
1000

1002
{
1002
}
1000
EditFlag
1070
     1
1070
     1
1002
{
1002
}
1002
}
1000
8
1070
     6
1002
{
1000
Prompt
1070
     4
1000
(genmsg gendwg 38)
1002
{
1002
}
1000
Value
1070
     4
1000

1002
{
1002
}
1000
EditFlag
1070
     1
1070
     1
1002
{
1002
}
1002
}
1000
9
1070
     6
1002
{
1000
Prompt
1070
     4
1000
(genmsg gendwg 39)
1002
{
1002
}
1000
Value
1070
     4
1000

1002
{
1002
}
1000
EditFlag
1070
     1
1070
     1
1002
{
1002
}
1002
}
1000
10
1070
     6
1002
{
1000
Prompt
1070
     4
1000
(genmsg gendwg 40)
1002
{
1002
}
1000
Value
1070
     4
1000

1002
{
1002
}
1000
EditFlag
1070
     1
1070
     1
1002
{
1002
}
1002
}
1000
11
1070
     6
1002
{
1000
Prompt
1070
     4
1000
(genmsg gendwg 41)
1002
{
1002
}
1000
Value
1070
     4
1000

1002
{
1002
}
1000
EditFlag
1070
     1
1070
     1
1002
{
1002
}
1002
}
1000
12
1070
     6
1002
{
1000
Prompt
1070
     4
1000
(genmsg gendwg 42)
1002
{
1002
}
1000
Value
1070
     4
1000

1002
{
1002
}
1000
EditFlag
1070
     1
1070
     1
1002
{
1002
}
1002
}
1000
13
1070
     6
1002
{
1000
Prompt
1070
     4
1000
(genmsg gendwg 43)
1002
{
1002
}
1000
Value
1070
     4
1000

1002
{
1002
}
1000
EditFlag
1070
     1
1070
     1
1002
{
1002
}
1002
}
1000
14
1070
     6
1002
{
1000
Prompt
1070
     4
1000
(genmsg gendwg 44)
1002
{
1002
}
1000
Value
1070
     4
1000

1002
{
1002
}
1000
EditFlag
1070
     1
1070
     1
1002
{
1002
}
1002
}
1000
15
1070
     6
1002
{
1000
Prompt
1070
     4
1000
(genmsg gendwg 45)
1002
{
1002
}
1000
Value
1070
     4
1000

1002
{
1002
}
1000
EditFlag
1070
     1
1070
     1
1002
{
1002
}
1002
}
1000
16
1070
     6
1002
{
1000
Prompt
1070
     4
1000
(genmsg gendwg 46)
1002
{
1002
}
1000
Value
1070
     4
1000

1002
{
1002
}
1000
EditFlag
1070
     1
1070
     1
1002
{
1002
}
1002
}
1000
17
1070
     6
1002
{
1000
Prompt
1070
     4
1000
(genmsg gendwg 47)
1002
{
1002
}
1000
Value
1070
     4
1000

1002
{
1002
}
1000
EditFlag
1070
     1
1070
     1
1002
{
1002
}
1002
}
1000
18
1070
     6
1002
{
1000
Prompt
1070
     4
1000
(genmsg gendwg 48)
1002
{
1002
}
1000
Value
1070
     4
1000

1002
{
1002
}
1000
EditFlag
1070
     1
1070
     1
1002
{
1002
}
1002
}
1000
19
1070
     6
1002
{
1000
Prompt
1070
     4
1000
(genmsg gendwg 99)
1002
{
1002
}
1000
Value
1070
     4
1000

1002
{
1002
}
1000
EditFlag
1070
     1
1070
     1
1002
{
1002
}
1002
}
1000
20
1070
     6
1002
{
1000
Prompt
1070
     4
1000
(genmsg gendwg 100)
1002
{
1002
}
1000
Value
1070
     4
1000

1002
{
1002
}
1000
EditFlag
1070
     1
1070
     1
1002
{
1002
}
1002
}
1000
21
1070
     6
1002
{
1000
Prompt
1070
     4
1000
(genmsg gendwg 101)
1002
{
1002
}
1000
Value
1070
     4
1000

1002
{
1002
}
1000
EditFlag
1070
     1
1070
     1
1002
{
1002
}
1002
}
1000
22
1070
     6
1002
{
1000
Prompt
1070
     4
1000
(genmsg gendwg 102)
1002
{
1002
}
1000
Value
1070
     4
1000

1002
{
1002
}
1000
EditFlag
1070
     1
1070
     1
1002
{
1002
}
1002
}
1000
23
1070
     6
1002
{
1000
Prompt
1070
     4
1000
(genmsg gendwg 30)
1002
{
1002
}
1000
Value
1070
     4
1000

1002
{
1002
}
1000
EditFlag
1070
     1
1070
     1
1002
{
1002
}
1002
}
1000
24
1070
     6
1002
{
1000
Prompt
1070
     4
1000
(genmsg gendwg 104)
1002
{
1002
}
1000
Value
1070
     4
1000

1002
{
1002
}
1000
EditFlag
1070
     1
1070
     1
1002
{
1002
}
1002
}
1002
}
1000
Xlate
1070
     0
1002
{
1000
>
1002
}
  0
APPID
  5
258
100
AcDbSymbolTableRecord
100
AcDbRegAppTableRecord
  2
GENIUS_GENCFG2_13
 70
     0
1001
GENIUS_GENCFG_13
1071
890904209
1000
258
1000
GEN@LAYER@DEFS
1070
     9
1000
GenCfgObject
1000
GenCfgShort
1000
GenCfgReal
1000
GenCfgBool
1000
GenCfgString
1000
GenCfgDim
1000
GenCfgAttrInf
1000
GenCfgLaySection
1000
GenCfgLayer
1000
Basic
1070
     0
1002
{
1000
0
1070
     8
1000
0
1002
{
1000
Color
1070
     1
1070
     7
1002
{
1002
}
1000
LType
1070
     4
1000
CONTINUOUS
1002
{
1002
}
1000
Base
1070
     3
1070
     0
1002
{
1002
}
1002
}
1000
1
1070
     8
1000
1
1002
{
1000
Color
1070
     1
1070
    14
1002
{
1002
}
1000
LType
1070
     4
1000
CONTINUOUS
1002
{
1002
}
1000
Base
1070
     3
1070
     0
1002
{
1002
}
1002
}
1000
2
1070
     8
1000
2
1002
{
1000
Color
1070
     1
1070
     5
1002
{
1002
}
1000
LType
1070
     4
1000
CONTINUOUS
1002
{
1002
}
1000
Base
1070
     3
1070
     0
1002
{
1002
}
1002
}
1000
3
1070
     8
1000
3
1002
{
1000
Color
1070
     1
1070
     6
1002
{
1002
}
1000
LType
1070
     4
1000
GEN3
1002
{
1002
}
1000
Base
1070
     3
1070
     0
1002
{
1002
}
1002
}
1000
4
1070
     8
1000
4
1002
{
1000
Color
1070
     1
1070
     3
1002
{
1002
}
1000
LType
1070
     4
1000
CONTINUOUS
1002
{
1002
}
1000
Base
1070
     3
1070
     0
1002
{
1002
}
1002
}
1000
5
1070
     8
1000
5
1002
{
1000
Color
1070
     1
1070
     3
1002
{
1002
}
1000
LType
1070
     4
1000
CONTINUOUS
1002
{
1002
}
1000
Base
1070
     3
1070
     0
1002
{
1002
}
1002
}
1000
6
1070
     8
1000
6
1002
{
1000
Color
1070
     1
1070
     2
1002
{
1002
}
1000
LType
1070
     4
1000
CONTINUOUS
1002
{
1002
}
1000
Base
1070
     3
1070
     0
1002
{
1002
}
1002
}
1000
7
1070
     8
1000
7
1002
{
1000
Color
1070
     1
1070
     4
1002
{
1002
}
1000
LType
1070
     4
1000
GEN7
1002
{
1002
}
1000
Base
1070
     3
1070
     0
1002
{
1002
}
1002
}
1000
8
1070
     8
1000
8
1002
{
1000
Color
1070
     1
1070
     1
1002
{
1002
}
1000
LType
1070
     4
1000
CONTINUOUS
1002
{
1002
}
1000
Base
1070
     3
1070
     0
1002
{
1002
}
1002
}
1000
3A
1070
     8
1000
3A
1002
{
1000
Color
1070
     1
1070
     6
1002
{
1002
}
1000
LType
1070
     4
1000
GEN3A
1002
{
1002
}
1000
Base
1070
     3
1070
     0
1002
{
1002
}
1002
}
1000
7A
1070
     8
1000
7A
1002
{
1000
Color
1070
     1
1070
     4
1002
{
1002
}
1000
LType
1070
     4
1000
GEN7A
1002
{
1002
}
1000
Base
1070
     3
1070
     0
1002
{
1002
}
1002
}
1000
2A
1070
     8
1000
2A
1002
{
1000
Color
1070
     1
1070
     7
1002
{
1002
}
1000
LType
1070
     4
1000
GEN7
1002
{
1002
}
1000
Base
1070
     3
1070
     0
1002
{
1002
}
1002
}
1000
4A
1070
     8
1000
4A
1002
{
1000
Color
1070
     1
1070
     3
1002
{
1002
}
1000
LType
1070
     4
1000
GEN4A
1002
{
1002
}
1000
Base
1070
     3
1070
     0
1002
{
1002
}
1002
}
1000
9
1070
     8
1000
9
1002
{
1000
Color
1070
     1
1070
   253
1002
{
1002
}
1000
LType
1070
     4
1000
CONTINUOUS
1002
{
1002
}
1000
Base
1070
     3
1070
     0
1002
{
1002
}
1002
}
1002
}
1000
Standard
1070
     0
1002
{
1000
0N
1070
     8
1000
0N
1002
{
1000
Color
1070
     1
1070
     7
1002
{
1002
}
1000
LType
1070
     4
1000
CONTINUOUS
1002
{
1002
}
1000
Base
1070
     3
1070
     0
1002
{
1002
}
1002
}
1000
1N
1070
     8
1000
1N
1002
{
1000
Color
1070
     1
1070
    14
1002
{
1002
}
1000
LType
1070
     4
1000
CONTINUOUS
1002
{
1002
}
1000
Base
1070
     3
1070
     0
1002
{
1002
}
1002
}
1000
2N
1070
     8
1000
2N
1002
{
1000
Color
1070
     1
1070
     5
1002
{
1002
}
1000
LType
1070
     4
1000
CONTINUOUS
1002
{
1002
}
1000
Base
1070
     3
1070
     0
1002
{
1002
}
1002
}
1000
3N
1070
     8
1000
3N
1002
{
1000
Color
1070
     1
1070
     6
1002
{
1002
}
1000
LType
1070
     4
1000
GEN3
1002
{
1002
}
1000
Base
1070
     3
1070
     0
1002
{
1002
}
1002
}
1000
4N
1070
     8
1000
4N
1002
{
1000
Color
1070
     1
1070
     3
1002
{
1002
}
1000
LType
1070
     4
1000
CONTINUOUS
1002
{
1002
}
1000
Base
1070
     3
1070
     0
1002
{
1002
}
1002
}
1000
5N
1070
     8
1000
5N
1002
{
1000
Color
1070
     1
1070
     3
1002
{
1002
}
1000
LType
1070
     4
1000
CONTINUOUS
1002
{
1002
}
1000
Base
1070
     3
1070
     0
1002
{
1002
}
1002
}
1000
6N
1070
     8
1000
6N
1002
{
1000
Color
1070
     1
1070
     2
1002
{
1002
}
1000
LType
1070
     4
1000
CONTINUOUS
1002
{
1002
}
1000
Base
1070
     3
1070
     0
1002
{
1002
}
1002
}
1000
7N
1070
     8
1000
7N
1002
{
1000
Color
1070
     1
1070
     4
1002
{
1002
}
1000
LType
1070
     4
1000
GEN7
1002
{
1002
}
1000
Base
1070
     3
1070
     0
1002
{
1002
}
1002
}
1000
8N
1070
     8
1000
8N
1002
{
1000
Color
1070
     1
1070
     1
1002
{
1002
}
1000
LType
1070
     4
1000
CONTINUOUS
1002
{
1002
}
1000
Base
1070
     3
1070
     0
1002
{
1002
}
1002
}
1000
3AN
1070
     8
1000
3AN
1002
{
1000
Color
1070
     1
1070
     6
1002
{
1002
}
1000
LType
1070
     4
1000
GEN3A
1002
{
1002
}
1000
Base
1070
     3
1070
     0
1002
{
1002
}
1002
}
1000
7AN
1070
     8
1000
7AN
1002
{
1000
Color
1070
     1
1070
     4
1002
{
1002
}
1000
LType
1070
     4
1000
GEN7A
1002
{
1002
}
1000
Base
1070
     3
1070
     0
1002
{
1002
}
1002
}
1000
2AN
1070
     8
1000
2AN
1002
{
1000
Color
1070
     1
1070
     7
1002
{
1002
}
1000
LType
1070
     4
1000
GEN7
1002
{
1002
}
1000
Base
1070
     3
1070
     0
1002
{
1002
}
1002
}
1000
4AN
1070
     8
1000
4AN
1002
{
1000
Color
1070
     1
1070
     3
1002
{
1002
}
1000
LType
1070
     4
1000
GEN4A
1002
{
1002
}
1000
Base
1070
     3
1070
     0
1002
{
1002
}
1002
}
1000
9N
1070
     8
1000
9N
1002
{
1000
Color
1070
     1
1070
   253
1002
{
1002
}
1000
LType
1070
     4
1000
CONTINUOUS
1002
{
1002
}
1000
Base
1070
     3
1070
     0
1002
{
1002
}
1002
}
1002
}
1000
Extra
1070
     0
1002
{
1000
Klin
1070
     8
1000
KLIN
1002
{
1000
Color
1070
     1
1070
     1
1002
{
1002
}
1000
LType
1070
     4
1000
CONTINUOUS
1002
{
1002
}
1000
Base
1070
     3
1070
     1
1002
{
1002
}
1002
}
1000
Info
1070
     8
1000
INFO
1002
{
1000
Color
1070
     1
1070
     4
1002
{
1002
}
1000
LType
1070
     4
1000
CONTINUOUS
1002
{
1002
}
1000
Base
1070
     3
1070
     1
1002
{
1002
}
1002
}
1000
Rahm2
1070
     8
1000
RAHM2
1002
{
1000
Color
1070
     1
1070
     1
1002
{
1002
}
1000
LType
1070
     4
1000
CONTINUOUS
1002
{
1002
}
1000
Base
1070
     3
1070
     1
1002
{
1002
}
1002
}
1000
Rahm3
1070
     8
1000
RAHM3
1002
{
1000
Color
1070
     1
1070
     2
1002
{
1002
}
1000
LType
1070
     4
1000
CONTINUOUS
1002
{
1002
}
1000
Base
1070
     3
1070
     1
1002
{
1002
}
1002
}
1000
Rahm5
1070
     8
1000
RAHM5
1002
{
1000
Color
1070
     1
1070
     7
1002
{
1002
}
1000
LType
1070
     4
1000
CONTINUOUS
1002
{
1002
}
1000
Base
1070
     3
1070
     1
1002
{
1002
}
1002
}
1000
View
1070
     8
1000
VIEW
1002
{
1000
Color
1070
     1
1070
     1
1002
{
1002
}
1000
LType
1070
     4
1000
CONTINUOUS
1002
{
1002
}
1000
Base
1070
     3
1070
     1
1002
{
1002
}
1002
}
1000
Behind
1070
     8
1000
BEHIND
1002
{
1000
Color
1070
     1
1070
   253
1002
{
1002
}
1000
LType
1070
     4
1000
CONTINUOUS
1002
{
1002
}
1000
Base
1070
     3
1070
     1
1002
{
1002
}
1002
}
1002
}
  0
APPID
  5
259
100
AcDbSymbolTableRecord
100
AcDbRegAppTableRecord
  2
GENIUS_GENCFG3_13
 70
     0
1001
GENIUS_GENCFG_13
1071
890904209
1000
259
1000
GEN@LAYER@ENTSORT
1070
    10
1000
GenCfgObject
1000
GenCfgShort
1000
GenCfgReal
1000
GenCfgBool
1000
GenCfgString
1000
GenCfgDim
1000
GenCfgAttrInf
1000
GenCfgLaySection
1000
GenCfgLayer
1000
GenCfgEntSort
1000
ALTR
1070
     9
1000
4
1002
{
1000
Class
1070
     4
1000

1002
{
1002
}
1000
Color
1070
     1
1070
     7
1002
{
1002
}
1000
LType
1070
     4
1000
GEN3A
1002
{
1002
}
1002
}
1000
BELI
1070
     9
1000
4
1002
{
1000
Class
1070
     4
1000

1002
{
1002
}
1000
Color
1070
     1
1070
   256
1002
{
1002
}
1000
LType
1070
     4
1000
BYLAYER
1002
{
1002
}
1002
}
1000
BHNV
1070
     9
1000
9
1002
{
1000
Class
1070
     4
1000
INV
1002
{
1002
}
1000
Color
1070
     1
1070
   256
1002
{
1002
}
1000
LType
1070
     4
1000
BYLAYER
1002
{
1002
}
1002
}
1000
BHNVS
1070
     9
1000
BEHIND
1002
{
1000
Class
1070
     4
1000
INV
1002
{
1002
}
1000
Color
1070
     1
1070
   256
1002
{
1002
}
1000
LType
1070
     4
1000
BYLAYER
1002
{
1002
}
1002
}
1000
BLID
1070
     9
1000
4A
1002
{
1000
Class
1070
     4
1000

1002
{
1002
}
1000
Color
1070
     1
1070
   256
1002
{
1002
}
1000
LType
1070
     4
1000
BYLAYER
1002
{
1002
}
1002
}
1000
BOAP
1070
     9
1000
4A
1002
{
1000
Class
1070
     4
1000

1002
{
1002
}
1000
Color
1070
     1
1070
   256
1002
{
1002
}
1000
LType
1070
     4
1000
BYLAYER
1002
{
1002
}
1002
}
1000
BOR2
1070
     9
1000
RAHM2
1002
{
1000
Class
1070
     4
1000
SPZ,SYM
1002
{
1002
}
1000
Color
1070
     1
1070
   256
1002
{
1002
}
1000
LType
1070
     4
1000
BYLAYER
1002
{
1002
}
1002
}
1000
BOR3
1070
     9
1000
RAHM3
1002
{
1000
Class
1070
     4
1000
SPZ,SYM
1002
{
1002
}
1000
Color
1070
     1
1070
   256
1002
{
1002
}
1000
LType
1070
     4
1000
BYLAYER
1002
{
1002
}
1002
}
1000
BOR5
1070
     9
1000
RAHM5
1002
{
1000
Class
1070
     4
1000
SPZ,SYM
1002
{
1002
}
1000
Color
1070
     1
1070
   256
1002
{
1002
}
1000
LType
1070
     4
1000
BYLAYER
1002
{
1002
}
1002
}
1000
BOR7
1070
     9
1000
RAHM5
1002
{
1000
Class
1070
     4
1000
SPZ,SYM
1002
{
1002
}
1000
Color
1070
     1
1070
     7
1002
{
1002
}
1000
LType
1070
     4
1000
CONTINUOUS
1002
{
1002
}
1002
}
1000
BPAP
1070
     9
1000
4A
1002
{
1000
Class
1070
     4
1000

1002
{
1002
}
1000
Color
1070
     1
1070
   256
1002
{
1002
}
1000
LType
1070
     4
1000
BYLAYER
1002
{
1002
}
1002
}
1000
BPEX
1070
     9
1000
4A
1002
{
1000
Class
1070
     4
1000

1002
{
1002
}
1000
Color
1070
     1
1070
   256
1002
{
1002
}
1000
LType
1070
     4
1000
BYLAYER
1002
{
1002
}
1002
}
1000
BTDI
1070
     9
1000
5
1002
{
1000
Class
1070
     4
1000
DIM,SYM
1002
{
1002
}
1000
Color
1070
     1
1070
   256
1002
{
1002
}
1000
LType
1070
     4
1000
BYLAYER
1002
{
1002
}
1002
}
1000
CAL2
1070
     9
1000
4
1002
{
1000
Class
1070
     4
1000
SYM
1002
{
1002
}
1000
Color
1070
     1
1070
   256
1002
{
1002
}
1000
LType
1070
     4
1000
BYLAYER
1002
{
1002
}
1002
}
1000
CAL3
1070
     9
1000
4
1002
{
1000
Class
1070
     4
1000
SYM
1002
{
1002
}
1000
Color
1070
     1
1070
     2
1002
{
1002
}
1000
LType
1070
     4
1000
BYLAYER
1002
{
1002
}
1002
}
1000
CAL5
1070
     9
1000
4
1002
{
1000
Class
1070
     4
1000
SYM
1002
{
1002
}
1000
Color
1070
     1
1070
     7
1002
{
1002
}
1000
LType
1070
     4
1000
BYLAYER
1002
{
1002
}
1002
}
1000
CAL7
1070
     9
1000
4
1002
{
1000
Class
1070
     4
1000
SYM
1002
{
1002
}
1000
Color
1070
     1
1070
     5
1002
{
1002
}
1000
LType
1070
     4
1000
BYLAYER
1002
{
1002
}
1002
}
1000
CENN
1070
     9
1000
7A
1002
{
1000
Class
1070
     4
1000
CEN
1002
{
1002
}
1000
Color
1070
     1
1070
   256
1002
{
1002
}
1000
LType
1070
     4
1000
BYLAYER
1002
{
1002
}
1002
}
1000
CENW
1070
     9
1000
7
1002
{
1000
Class
1070
     4
1000
CEN
1002
{
1002
}
1000
Color
1070
     1
1070
   256
1002
{
1002
}
1000
LType
1070
     4
1000
BYLAYER
1002
{
1002
}
1002
}
1000
CLIN
1070
     9
1000
KLIN
1002
{
1000
Class
1070
     4
1000
SPZ
1002
{
1002
}
1000
Color
1070
     1
1070
   256
1002
{
1002
}
1000
LType
1070
     4
1000
BYLAYER
1002
{
1002
}
1002
}
1000
CON1
1070
     9
1000
0
1002
{
1000
Class
1070
     4
1000
CON,BGD
1002
{
1002
}
1000
Color
1070
     1
1070
   256
1002
{
1002
}
1000
LType
1070
     4
1000
BYLAYER
1002
{
1002
}
1002
}
1000
CON2
1070
     9
1000
1
1002
{
1000
Class
1070
     4
1000
CON,BGD
1002
{
1002
}
1000
Color
1070
     1
1070
   256
1002
{
1002
}
1000
LType
1070
     4
1000
BYLAYER
1002
{
1002
}
1002
}
1000
CON3
1070
     9
1000
2
1002
{
1000
Class
1070
     4
1000
CON,BGD
1002
{
1002
}
1000
Color
1070
     1
1070
   256
1002
{
1002
}
1000
LType
1070
     4
1000
BYLAYER
1002
{
1002
}
1002
}
1000
CON4
1070
     9
1000
2
1002
{
1000
Class
1070
     4
1000
CON,BGD
1002
{
1002
}
1000
Color
1070
     1
1070
   256
1002
{
1002
}
1000
LType
1070
     4
1000
BYLAYER
1002
{
1002
}
1002
}
1000
DERP
1070
     9
1000
4
1002
{
1000
Class
1070
     4
1000

1002
{
1002
}
1000
Color
1070
     1
1070
   256
1002
{
1002
}
1000
LType
1070
     4
1000
BYLAYER
1002
{
1002
}
1002
}
1000
DETA
1070
     9
1000
4
1002
{
1000
Class
1070
     4
1000

1002
{
1002
}
1000
Color
1070
     1
1070
   256
1002
{
1002
}
1000
LType
1070
     4
1000
BYLAYER
1002
{
1002
}
1002
}
1000
DIAG
1070
     9
1000
5
1002
{
1000
Class
1070
     4
1000
SYM
1002
{
1002
}
1000
Color
1070
     1
1070
   256
1002
{
1002
}
1000
LType
1070
     4
1000
BYLAYER
1002
{
1002
}
1002
}
1000
DILI
1070
     9
1000
5
1002
{
1000
Class
1070
     4
1000
DIM,SYM
1002
{
1002
}
1000
Color
1070
     1
1070
   256
1002
{
1002
}
1000
LType
1070
     4
1000
BYLAYER
1002
{
1002
}
1002
}
1000
DITX
1070
     9
1000
5
1002
{
1000
Class
1070
     4
1000
DIM,SYM
1002
{
1002
}
1000
Color
1070
     1
1070
     2
1002
{
1002
}
1000
LType
1070
     4
1000
CONTINUOUS
1002
{
1002
}
1002
}
1000
DITO2
1070
     9
1000
5
1002
{
1000
Class
1070
     4
1000
DIM,SYM
1002
{
1002
}
1000
Color
1070
     1
1070
     3
1002
{
1002
}
1000
LType
1070
     4
1000
BYLAYER
1002
{
1002
}
1002
}
1000
DITO3
1070
     9
1000
5
1002
{
1000
Class
1070
     4
1000
DIM,SYM
1002
{
1002
}
1000
Color
1070
     1
1070
     2
1002
{
1002
}
1000
LType
1070
     4
1000
BYLAYER
1002
{
1002
}
1002
}
1000
DIXL
1070
     9
1000
5
1002
{
1000
Class
1070
     4
1000
DIM,SYM
1002
{
1002
}
1000
Color
1070
     1
1070
   256
1002
{
1002
}
1000
LType
1070
     4
1000
BYLAYER
1002
{
1002
}
1002
}
1000
EXMP
1070
     9
1000
4A
1002
{
1000
Class
1070
     4
1000

1002
{
1002
}
1000
Color
1070
     1
1070
   256
1002
{
1002
}
1000
LType
1070
     4
1000
BYLAYER
1002
{
1002
}
1002
}
1000
FEMN
1070
     9
1000
8
1002
{
1000
Class
1070
     4
1000

1002
{
1002
}
1000
Color
1070
     1
1070
   256
1002
{
1002
}
1000
LType
1070
     4
1000
BYLAYER
1002
{
1002
}
1002
}
1000
FEMPN
1070
     9
1000
8
1002
{
1000
Class
1070
     4
1000
SYM
1002
{
1002
}
1000
Color
1070
     1
1070
     3
1002
{
1002
}
1000
LType
1070
     4
1000
BYLAYER
1002
{
1002
}
1002
}
1000
FEMSP
1070
     9
1000
4A
1002
{
1000
Class
1070
     4
1000

1002
{
1002
}
1000
Color
1070
     1
1070
   256
1002
{
1002
}
1000
LType
1070
     4
1000
CONTINUOUS
1002
{
1002
}
1002
}
1000
FEMST
1070
     9
1000
4A
1002
{
1000
Class
1070
     4
1000
SYM
1002
{
1002
}
1000
Color
1070
     1
1070
     3
1002
{
1002
}
1000
LType
1070
     4
1000
BYLAYER
1002
{
1002
}
1002
}
1000
FEMVN
1070
     9
1000
2
1002
{
1000
Class
1070
     4
1000
CON
1002
{
1002
}
1000
Color
1070
     1
1070
   256
1002
{
1002
}
1000
LType
1070
     4
1000
BYLAYER
1002
{
1002
}
1002
}
1000
FEMVT
1070
     9
1000
2
1002
{
1000
Class
1070
     4
1000
SYM
1002
{
1002
}
1000
Color
1070
     1
1070
     3
1002
{
1002
}
1000
LType
1070
     4
1000
BYLAYER
1002
{
1002
}
1002
}
1000
FLAT
1070
     9
1000
0
1002
{
1000
Class
1070
     4
1000

1002
{
1002
}
1000
Color
1070
     1
1070
   256
1002
{
1002
}
1000
LType
1070
     4
1000
BYLAYER
1002
{
1002
}
1002
}
1000
FRAR
1070
     9
1000
4A
1002
{
1000
Class
1070
     4
1000

1002
{
1002
}
1000
Color
1070
     1
1070
   256
1002
{
1002
}
1000
LType
1070
     4
1000
BYLAYER
1002
{
1002
}
1002
}
1000
GRLI
1070
     9
1000
5
1002
{
1000
Class
1070
     4
1000
SYM
1002
{
1002
}
1000
Color
1070
     1
1070
   256
1002
{
1002
}
1000
LType
1070
     4
1000
BYLAYER
1002
{
1002
}
1002
}
1000
GVLI
1070
     9
1000
4A
1002
{
1000
Class
1070
     4
1000

1002
{
1002
}
1000
Color
1070
     1
1070
   256
1002
{
1002
}
1000
LType
1070
     4
1000
BYLAYER
1002
{
1002
}
1002
}
1000
HATC
1070
     9
1000
8
1002
{
1000
Class
1070
     4
1000
HTC,BGD
1002
{
1002
}
1000
Color
1070
     1
1070
   256
1002
{
1002
}
1000
LType
1070
     4
1000
BYLAYER
1002
{
1002
}
1002
}
1000
HIDN
1070
     9
1000
3A
1002
{
1000
Class
1070
     4
1000
HID,BGD
1002
{
1002
}
1000
Color
1070
     1
1070
   256
1002
{
1002
}
1000
LType
1070
     4
1000
BYLAYER
1002
{
1002
}
1002
}
1000
HIDW
1070
     9
1000
3
1002
{
1000
Class
1070
     4
1000
HID,BGD
1002
{
1002
}
1000
Color
1070
     1
1070
   256
1002
{
1002
}
1000
LType
1070
     4
1000
BYLAYER
1002
{
1002
}
1002
}
1000
HLIN
1070
     9
1000
4
1002
{
1000
Class
1070
     4
1000
BGD
1002
{
1002
}
1000
Color
1070
     1
1070
   256
1002
{
1002
}
1000
LType
1070
     4
1000
BYLAYER
1002
{
1002
}
1002
}
1000
HOCN
1070
     9
1000
7A
1002
{
1000
Class
1070
     4
1000
CEN
1002
{
1002
}
1000
Color
1070
     1
1070
   256
1002
{
1002
}
1000
LType
1070
     4
1000
BYLAYER
1002
{
1002
}
1002
}
1000
HOCW
1070
     9
1000
7
1002
{
1000
Class
1070
     4
1000
CEN
1002
{
1002
}
1000
Color
1070
     1
1070
   256
1002
{
1002
}
1000
LType
1070
     4
1000
BYLAYER
1002
{
1002
}
1002
}
1000
INFO
1070
     9
1000
INFO
1002
{
1000
Class
1070
     4
1000
SPZ,SYM
1002
{
1002
}
1000
Color
1070
     1
1070
   256
1002
{
1002
}
1000
LType
1070
     4
1000
BYLAYER
1002
{
1002
}
1002
}
1000
LADI
1070
     9
1000
4
1002
{
1000
Class
1070
     4
1000
BGD
1002
{
1002
}
1000
Color
1070
     1
1070
   256
1002
{
1002
}
1000
LType
1070
     4
1000
BYLAYER
1002
{
1002
}
1002
}
1000
LEAD
1070
     9
1000
5
1002
{
1000
Class
1070
     4
1000
SYM
1002
{
1002
}
1000
Color
1070
     1
1070
   256
1002
{
1002
}
1000
LType
1070
     4
1000
BYLAYER
1002
{
1002
}
1002
}
1000
N_BHNV
1070
     9
1000
9N
1002
{
1000
Class
1070
     4
1000
INV
1002
{
1002
}
1000
Color
1070
     1
1070
   256
1002
{
1002
}
1000
LType
1070
     4
1000
BYLAYER
1002
{
1002
}
1002
}
1000
N_CON1
1070
     9
1000
0N
1002
{
1000
Class
1070
     4
1000
CON,BGD
1002
{
1002
}
1000
Color
1070
     1
1070
   256
1002
{
1002
}
1000
LType
1070
     4
1000
BYLAYER
1002
{
1002
}
1002
}
1000
N_CON2
1070
     9
1000
1N
1002
{
1000
Class
1070
     4
1000
CON,BGD
1002
{
1002
}
1000
Color
1070
     1
1070
   256
1002
{
1002
}
1000
LType
1070
     4
1000
BYLAYER
1002
{
1002
}
1002
}
1000
N_CON3
1070
     9
1000
2N
1002
{
1000
Class
1070
     4
1000
CON,BGD
1002
{
1002
}
1000
Color
1070
     1
1070
   256
1002
{
1002
}
1000
LType
1070
     4
1000
BYLAYER
1002
{
1002
}
1002
}
1000
N_CON4
1070
     9
1000
2N
1002
{
1000
Class
1070
     4
1000
CON,BGD
1002
{
1002
}
1000
Color
1070
     1
1070
   256
1002
{
1002
}
1000
LType
1070
     4
1000
BYLAYER
1002
{
1002
}
1002
}
1000
N_CENN
1070
     9
1000
7AN
1002
{
1000
Class
1070
     4
1000
CEN
1002
{
1002
}
1000
Color
1070
     1
1070
   256
1002
{
1002
}
1000
LType
1070
     4
1000
BYLAYER
1002
{
1002
}
1002
}
1000
N_CENW
1070
     9
1000
7N
1002
{
1000
Class
1070
     4
1000
CEN
1002
{
1002
}
1000
Color
1070
     1
1070
   256
1002
{
1002
}
1000
LType
1070
     4
1000
BYLAYER
1002
{
1002
}
1002
}
1000
N_DILI
1070
     9
1000
5N
1002
{
1000
Class
1070
     4
1000
DIM,SYM
1002
{
1002
}
1000
Color
1070
     1
1070
   256
1002
{
1002
}
1000
LType
1070
     4
1000
BYLAYER
1002
{
1002
}
1002
}
1000
N_DITX
1070
     9
1000
5N
1002
{
1000
Class
1070
     4
1000
DIM,SYM
1002
{
1002
}
1000
Color
1070
     1
1070
     2
1002
{
1002
}
1000
LType
1070
     4
1000
CONTINUOUS
1002
{
1002
}
1002
}
1000
N_DIXL
1070
     9
1000
5N
1002
{
1000
Class
1070
     4
1000
DIM,SYM
1002
{
1002
}
1000
Color
1070
     1
1070
   256
1002
{
1002
}
1000
LType
1070
     4
1000
BYLAYER
1002
{
1002
}
1002
}
1000
N_HATC
1070
     9
1000
8N
1002
{
1000
Class
1070
     4
1000
HTC,BGD
1002
{
1002
}
1000
Color
1070
     1
1070
   256
1002
{
1002
}
1000
LType
1070
     4
1000
BYLAYER
1002
{
1002
}
1002
}
1000
N_HIDN
1070
     9
1000
3AN
1002
{
1000
Class
1070
     4
1000
HID,BGD
1002
{
1002
}
1000
Color
1070
     1
1070
   256
1002
{
1002
}
1000
LType
1070
     4
1000
BYLAYER
1002
{
1002
}
1002
}
1000
N_HIDW
1070
     9
1000
3N
1002
{
1000
Class
1070
     4
1000
HID,BGD
1002
{
1002
}
1000
Color
1070
     1
1070
   256
1002
{
1002
}
1000
LType
1070
     4
1000
BYLAYER
1002
{
1002
}
1002
}
1000
N_PHAN
1070
     9
1000
4AN
1002
{
1000
Class
1070
     4
1000

1002
{
1002
}
1000
Color
1070
     1
1070
   256
1002
{
1002
}
1000
LType
1070
     4
1000
BYLAYER
1002
{
1002
}
1002
}
1000
N_POSL
1070
     9
1000
5N
1002
{
1000
Class
1070
     4
1000
SYM
1002
{
1002
}
1000
Color
1070
     1
1070
   256
1002
{
1002
}
1000
LType
1070
     4
1000
BYLAYER
1002
{
1002
}
1002
}
1000
N_TCON
1070
     9
1000
0N
1002
{
1000
Class
1070
     4
1000
CON,BGD
1002
{
1002
}
1000
Color
1070
     1
1070
   256
1002
{
1002
}
1000
LType
1070
     4
1000
BYLAYER
1002
{
1002
}
1002
}
1000
N_THLI
1070
     9
1000
4N
1002
{
1000
Class
1070
     4
1000
BGD
1002
{
1002
}
1000
Color
1070
     1
1070
   256
1002
{
1002
}
1000
LType
1070
     4
1000
BYLAYER
1002
{
1002
}
1002
}
1000
N_TLEN
1070
     9
1000
0N
1002
{
1000
Class
1070
     4
1000
CON,BGD
1002
{
1002
}
1000
Color
1070
     1
1070
   256
1002
{
1002
}
1000
LType
1070
     4
1000
BYLAYER
1002
{
1002
}
1002
}
1000
N_TXT3
1070
     9
1000
6N
1002
{
1000
Class
1070
     4
1000
SYM
1002
{
1002
}
1000
Color
1070
     1
1070
   256
1002
{
1002
}
1000
LType
1070
     4
1000
BYLAYER
1002
{
1002
}
1002
}
1000
N_VPLI
1070
     9
1000
2AN
1002
{
1000
Class
1070
     4
1000

1002
{
1002
}
1000
Color
1070
     1
1070
   256
1002
{
1002
}
1000
LType
1070
     4
1000
BYLAYER
1002
{
1002
}
1002
}
1000
PAL2
1070
     9
1000
RAHM2
1002
{
1000
Class
1070
     4
1000
SPZ,SYM
1002
{
1002
}
1000
Color
1070
     1
1070
   256
1002
{
1002
}
1000
LType
1070
     4
1000
BYLAYER
1002
{
1002
}
1002
}
1000
PAL3
1070
     9
1000
RAHM3
1002
{
1000
Class
1070
     4
1000
SPZ,SYM
1002
{
1002
}
1000
Color
1070
     1
1070
   256
1002
{
1002
}
1000
LType
1070
     4
1000
BYLAYER
1002
{
1002
}
1002
}
1000
PAL5
1070
     9
1000
RAHM5
1002
{
1000
Class
1070
     4
1000
SPZ,SYM
1002
{
1002
}
1000
Color
1070
     1
1070
   256
1002
{
1002
}
1000
LType
1070
     4
1000
BYLAYER
1002
{
1002
}
1002
}
1000
PAL7
1070
     9
1000
RAHM5
1002
{
1000
Class
1070
     4
1000
SPZ,SYM
1002
{
1002
}
1000
Color
1070
     1
1070
     7
1002
{
1002
}
1000
LType
1070
     4
1000
CONTINUOUS
1002
{
1002
}
1002
}
1000
PHAN
1070
     9
1000
4A
1002
{
1000
Class
1070
     4
1000

1002
{
1002
}
1000
Color
1070
     1
1070
   256
1002
{
1002
}
1000
LType
1070
     4
1000
BYLAYER
1002
{
1002
}
1002
}
1000
POSL
1070
     9
1000
5
1002
{
1000
Class
1070
     4
1000
SYM
1002
{
1002
}
1000
Color
1070
     1
1070
   256
1002
{
1002
}
1000
LType
1070
     4
1000
BYLAYER
1002
{
1002
}
1002
}
1000
POSN
1070
     9
1000
6
1002
{
1000
Class
1070
     4
1000
SYM
1002
{
1002
}
1000
Color
1070
     1
1070
     7
1002
{
1002
}
1000
LType
1070
     4
1000
BYLAYER
1002
{
1002
}
1002
}
1000
POSREF
1070
     9
1000
6
1002
{
1000
Class
1070
     4
1000
SYM
1002
{
1002
}
1000
Color
1070
     1
1070
     5
1002
{
1002
}
1000
LType
1070
     4
1000
BYLAYER
1002
{
1002
}
1002
}
1000
POSX
1070
     9
1000
5
1002
{
1000
Class
1070
     4
1000
SYM
1002
{
1002
}
1000
Color
1070
     1
1070
     2
1002
{
1002
}
1000
LType
1070
     4
1000
CONTINUOUS
1002
{
1002
}
1002
}
1000
PSEC
1070
     9
1000
4A
1002
{
1000
Class
1070
     4
1000

1002
{
1002
}
1000
Color
1070
     1
1070
   256
1002
{
1002
}
1000
LType
1070
     4
1000
BYLAYER
1002
{
1002
}
1002
}
1000
RCGN
1070
     9
1000
7A
1002
{
1000
Class
1070
     4
1000
CEN
1002
{
1002
}
1000
Color
1070
     1
1070
   256
1002
{
1002
}
1000
LType
1070
     4
1000
BYLAYER
1002
{
1002
}
1002
}
1000
RCGW
1070
     9
1000
7
1002
{
1000
Class
1070
     4
1000
CEN
1002
{
1002
}
1000
Color
1070
     1
1070
   256
1002
{
1002
}
1000
LType
1070
     4
1000
BYLAYER
1002
{
1002
}
1002
}
1000
RFDI
1070
     9
1000
4
1002
{
1000
Class
1070
     4
1000
BGD
1002
{
1002
}
1000
Color
1070
     1
1070
   256
1002
{
1002
}
1000
LType
1070
     4
1000
BYLAYER
1002
{
1002
}
1002
}
1000
RQTR
1070
     9
1000
4
1002
{
1000
Class
1070
     4
1000

1002
{
1002
}
1000
Color
1070
     1
1070
     7
1002
{
1002
}
1000
LType
1070
     4
1000
GEN7A
1002
{
1002
}
1002
}
1000
RSBO
1070
     9
1000
4
1002
{
1000
Class
1070
     4
1000
BGD
1002
{
1002
}
1000
Color
1070
     1
1070
   256
1002
{
1002
}
1000
LType
1070
     4
1000
BYLAYER
1002
{
1002
}
1002
}
1000
SBRK
1070
     9
1000
4
1002
{
1000
Class
1070
     4
1000
BGD
1002
{
1002
}
1000
Color
1070
     1
1070
   256
1002
{
1002
}
1000
LType
1070
     4
1000
BYLAYER
1002
{
1002
}
1002
}
1000
SCEN
1070
     9
1000
7
1002
{
1000
Class
1070
     4
1000

1002
{
1002
}
1000
Color
1070
     1
1070
   256
1002
{
1002
}
1000
LType
1070
     4
1000
CONTINUOUS
1002
{
1002
}
1002
}
1000
SECT
1070
     9
1000
4
1002
{
1000
Class
1070
     4
1000
BGD
1002
{
1002
}
1000
Color
1070
     1
1070
   256
1002
{
1002
}
1000
LType
1070
     4
1000
BYLAYER
1002
{
1002
}
1002
}
1000
SELN
1070
     9
1000
7A
1002
{
1000
Class
1070
     4
1000

1002
{
1002
}
1000
Color
1070
     1
1070
   256
1002
{
1002
}
1000
LType
1070
     4
1000
BYLAYER
1002
{
1002
}
1002
}
1000
SELW
1070
     9
1000
7
1002
{
1000
Class
1070
     4
1000

1002
{
1002
}
1000
Color
1070
     1
1070
   256
1002
{
1002
}
1000
LType
1070
     4
1000
BYLAYER
1002
{
1002
}
1002
}
1000
SSYS
1070
     9
1000
0
1002
{
1000
Class
1070
     4
1000

1002
{
1002
}
1000
Color
1070
     1
1070
   256
1002
{
1002
}
1000
LType
1070
     4
1000
BYLAYER
1002
{
1002
}
1002
}
1000
STLI
1070
     9
1000
4
1002
{
1000
Class
1070
     4
1000

1002
{
1002
}
1000
Color
1070
     1
1070
     7
1002
{
1002
}
1000
LType
1070
     4
1000
GEN3A
1002
{
1002
}
1002
}
1000
SYB1
1070
     9
1000
5
1002
{
1000
Class
1070
     4
1000
SYM
1002
{
1002
}
1000
Color
1070
     1
1070
   256
1002
{
1002
}
1000
LType
1070
     4
1000
BYLAYER
1002
{
1002
}
1002
}
1000
SYB2
1070
     9
1000
5
1002
{
1000
Class
1070
     4
1000
SYM
1002
{
1002
}
1000
Color
1070
     1
1070
   256
1002
{
1002
}
1000
LType
1070
     4
1000
BYLAYER
1002
{
1002
}
1002
}
1000
SYB3
1070
     9
1000
6
1002
{
1000
Class
1070
     4
1000
SYM
1002
{
1002
}
1000
Color
1070
     1
1070
   256
1002
{
1002
}
1000
LType
1070
     4
1000
CONTINUOUS
1002
{
1002
}
1002
}
1000
SYB5
1070
     9
1000
5
1002
{
1000
Class
1070
     4
1000
SYM
1002
{
1002
}
1000
Color
1070
     1
1070
     7
1002
{
1002
}
1000
LType
1070
     4
1000
BYLAYER
1002
{
1002
}
1002
}
1000
SYMN
1070
     9
1000
7A
1002
{
1000
Class
1070
     4
1000
CEN
1002
{
1002
}
1000
Color
1070
     1
1070
   256
1002
{
1002
}
1000
LType
1070
     4
1000
BYLAYER
1002
{
1002
}
1002
}
1000
SYMW
1070
     9
1000
7
1002
{
1000
Class
1070
     4
1000
CEN
1002
{
1002
}
1000
Color
1070
     1
1070
   256
1002
{
1002
}
1000
LType
1070
     4
1000
BYLAYER
1002
{
1002
}
1002
}
1000
TCON
1070
     9
1000
0
1002
{
1000
Class
1070
     4
1000
CON,BGD
1002
{
1002
}
1000
Color
1070
     1
1070
   256
1002
{
1002
}
1000
LType
1070
     4
1000
BYLAYER
1002
{
1002
}
1002
}
1000
THLI
1070
     9
1000
4
1002
{
1000
Class
1070
     4
1000
BGD
1002
{
1002
}
1000
Color
1070
     1
1070
   256
1002
{
1002
}
1000
LType
1070
     4
1000
BYLAYER
1002
{
1002
}
1002
}
1000
TIT2
1070
     9
1000
RAHM2
1002
{
1000
Class
1070
     4
1000
SPZ,SYM
1002
{
1002
}
1000
Color
1070
     1
1070
   256
1002
{
1002
}
1000
LType
1070
     4
1000
BYLAYER
1002
{
1002
}
1002
}
1000
TIT3
1070
     9
1000
RAHM3
1002
{
1000
Class
1070
     4
1000
SPZ,SYM
1002
{
1002
}
1000
Color
1070
     1
1070
   256
1002
{
1002
}
1000
LType
1070
     4
1000
BYLAYER
1002
{
1002
}
1002
}
1000
TIT5
1070
     9
1000
RAHM5
1002
{
1000
Class
1070
     4
1000
SPZ,SYM
1002
{
1002
}
1000
Color
1070
     1
1070
   256
1002
{
1002
}
1000
LType
1070
     4
1000
BYLAYER
1002
{
1002
}
1002
}
1000
TIT7
1070
     9
1000
RAHM5
1002
{
1000
Class
1070
     4
1000
SPZ,SYM
1002
{
1002
}
1000
Color
1070
     1
1070
     7
1002
{
1002
}
1000
LType
1070
     4
1000
CONTINUOUS
1002
{
1002
}
1002
}
1000
TLEN
1070
     9
1000
0
1002
{
1000
Class
1070
     4
1000
CON,BGD
1002
{
1002
}
1000
Color
1070
     1
1070
   256
1002
{
1002
}
1000
LType
1070
     4
1000
BYLAYER
1002
{
1002
}
1002
}
1000
TRKN
1070
     9
1000
7A
1002
{
1000
Class
1070
     4
1000

1002
{
1002
}
1000
Color
1070
     1
1070
   256
1002
{
1002
}
1000
LType
1070
     4
1000
BYLAYER
1002
{
1002
}
1002
}
1000
TRKW
1070
     9
1000
7
1002
{
1000
Class
1070
     4
1000

1002
{
1002
}
1000
Color
1070
     1
1070
   256
1002
{
1002
}
1000
LType
1070
     4
1000
BYLAYER
1002
{
1002
}
1002
}
1000
TRLI
1070
     9
1000
4
1002
{
1000
Class
1070
     4
1000
BGD
1002
{
1002
}
1000
Color
1070
     1
1070
   256
1002
{
1002
}
1000
LType
1070
     4
1000
BYLAYER
1002
{
1002
}
1002
}
1000
TXT1
1070
     9
1000
6
1002
{
1000
Class
1070
     4
1000
SYM
1002
{
1002
}
1000
Color
1070
     1
1070
     2
1002
{
1002
}
1000
LType
1070
     4
1000
BYLAYER
1002
{
1002
}
1002
}
1000
TXT2
1070
     9
1000
6
1002
{
1000
Class
1070
     4
1000
SYM
1002
{
1002
}
1000
Color
1070
     1
1070
     2
1002
{
1002
}
1000
LType
1070
     4
1000
BYLAYER
1002
{
1002
}
1002
}
1000
TXT3
1070
     9
1000
6
1002
{
1000
Class
1070
     4
1000
SYM
1002
{
1002
}
1000
Color
1070
     1
1070
   256
1002
{
1002
}
1000
LType
1070
     4
1000
BYLAYER
1002
{
1002
}
1002
}
1000
TXT5
1070
     9
1000
6
1002
{
1000
Class
1070
     4
1000
SYM
1002
{
1002
}
1000
Color
1070
     1
1070
     7
1002
{
1002
}
1000
LType
1070
     4
1000
BYLAYER
1002
{
1002
}
1002
}
1000
TXT7
1070
     9
1000
6
1002
{
1000
Class
1070
     4
1000
SYM
1002
{
1002
}
1000
Color
1070
     1
1070
     7
1002
{
1002
}
1000
LType
1070
     4
1000
BYLAYER
1002
{
1002
}
1002
}
1000
VIEW
1070
     9
1000
VIEW
1002
{
1000
Class
1070
     4
1000
SPZ
1002
{
1002
}
1000
Color
1070
     1
1070
   256
1002
{
1002
}
1000
LType
1070
     4
1000
BYLAYER
1002
{
1002
}
1002
}
1000
VPLI
1070
     9
1000
2A
1002
{
1000
Class
1070
     4
1000

1002
{
1002
}
1000
Color
1070
     1
1070
   256
1002
{
1002
}
1000
LType
1070
     4
1000
BYLAYER
1002
{
1002
}
1002
}
1000
ZIZA
1070
     9
1000
4
1002
{
1000
Class
1070
     4
1000
BGD
1002
{
1002
}
1000
Color
1070
     1
1070
   256
1002
{
1002
}
1000
LType
1070
     4
1000
GENZIGZAG
1002
{
1002
}
1002
}
  0
APPID
  5
25A
100
AcDbSymbolTableRecord
100
AcDbRegAppTableRecord
  2
GENIUS_GENCFG4_13
 70
     0
1001
GENIUS_GENCFG_13
1071
890904209
1000
25A
1000
GEN
1070
    12
1000
GenCfgObject
1000
GenCfgShort
1000
GenCfgReal
1000
GenCfgBool
1000
GenCfgString
1000
GenCfgDim
1000
GenCfgAttrInf
1000
GenCfgLaySection
1000
GenCfgLayer
1000
GenCfgEntSort
1000
GenCfgLType
1000
GenCfgFilter
1000
Balloon
1070
     0
1002
{
1000
GenIF
1070
     1
1070
     0
1002
{
1002
}
1000
GenPosInc
1070
     1
1070
     1
1002
{
1002
}
1000
GenPosBlk
1070
     1
1070
     8
1002
{
1002
}
1000
GenPosVar
1070
     1
1070
     0
1002
{
1002
}
1000
GenZiCir
1070
     2
1040
1.5
1002
{
1002
}
1000
MaxCharForCenteredText
1070
     1
1070
    30
1002
{
1002
}
1000
Snap
1070
     0
1002
{
1000
ActivationRadius
1070
     2
1040
1.0
1002
{
1002
}
1000
M
1070
     0
1002
{
1000
SnapStepX
1070
     2
1040
20.0
1002
{
1002
}
1000
SnapStepY
1070
     2
1040
10.0
1002
{
1002
}
1002
}
1000
I
1070
     0
1002
{
1000
SnapStepX
1070
     2
1040
1.0
1002
{
1002
}
1000
SnapStepY
1070
     2
1040
0.5
1002
{
1002
}
1002
}
1002
}
1002
}
1000
Centerline
1070
     0
1002
{
1000
ScaleNot
1070
     3
1070
     0
1002
{
1002
}
1000
M
1070
     0
1002
{
1000
GenCenAng
1070
     4
1000
45|90|135
1002
{
1002
}
1000
GenCenDia
1070
     2
1040
10.0
1002
{
1002
}
1000
GenCenDias
1070
     4
1000
10|20|30
1002
{
1002
}
1000
GenCenDist
1070
     2
1040
3.0
1002
{
1002
}
1000
GenCenLen
1070
     2
1040
10.0
1002
{
1002
}
1000
GenCenOff
1070
     2
1040
10.0
1002
{
1002
}
1002
}
1000
I
1070
     0
1002
{
1000
GenCenAng
1070
     4
1000
45|90|135
1002
{
1002
}
1000
GenCenDia
1070
     2
1040
0.5
1002
{
1002
}
1000
GenCenDias
1070
     4
1000
0.5|1.0|1.5
1002
{
1002
}
1000
GenCenDist
1070
     2
1040
0.125
1002
{
1002
}
1000
GenCenLen
1070
     2
1040
0.5
1002
{
1002
}
1000
GenCenOff
1070
     2
1040
0.5
1002
{
1002
}
1002
}
1002
}
1000
CLine
1070
     0
1002
{
1000
CAngArray
1070
     4
1000
30|45|60
1002
{
1002
}
1000
Typ
1070
     4
1000
XLINE
1002
{
1002
}
1000
M
1070
     0
1002
{
1000
CLinArray
1070
     4
1000
10|20|30
1002
{
1002
}
1002
}
1000
I
1070
     0
1002
{
1000
CLinArray
1070
     4
1000
0.125|0.25|0.5
1002
{
1002
}
1002
}
1002
}
1000
Detail
1070
     0
1002
{
1002
}
1000
Dimension
1070
     5
1002
{
1000
DIMALT
1070
     1
1070
     0
1002
{
1002
}
1000
DIMALTD
1070
     1
1070
     2
1002
{
1002
}
1000
DIMALTTD
1070
     1
1070
     4
1002
{
1002
}
1000
DIMALTTZ
1070
     1
1070
     0
1002
{
1002
}
1000
DIMALTU
1070
     1
1070
     2
1002
{
1002
}
1000
DIMALTZ
1070
     1
1070
     0
1002
{
1002
}
1000
DIMAPOST
1070
     4
1000

1002
{
1002
}
1000
DIMAUNIT
1070
     1
1070
     0
1002
{
1002
}
1000
DIMBLK
1070
     4
1000

1002
{
1002
}
1000
DIMBLK1
1070
     4
1000

1002
{
1002
}
1000
DIMBLK2
1070
     4
1000

1002
{
1002
}
1000
DIMDLE
1070
     2
1040
0.0
1002
{
1002
}
1000
DIMFIT
1070
     1
1070
     3
1002
{
1002
}
1000
DIMJUST
1070
     1
1070
     0
1002
{
1002
}
1000
DIMLFAC
1070
     2
1040
1.0
1002
{
1002
}
1000
DIMLIM
1070
     1
1070
     0
1002
{
1002
}
1000
DIMPOST
1070
     4
1000
<>
1002
{
1002
}
1000
DIMRND
1070
     2
1040
0.0
1002
{
1002
}
1000
DIMSAH
1070
     1
1070
     0
1002
{
1002
}
1000
DIMSCALE
1070
     2
1040
1.0
1002
{
1002
}
1000
DIMSD1
1070
     1
1070
     0
1002
{
1002
}
1000
DIMSD2
1070
     1
1070
     0
1002
{
1002
}
1000
DIMSE1
1070
     1
1070
     0
1002
{
1002
}
1000
DIMSE2
1070
     1
1070
     0
1002
{
1002
}
1000
DIMSOXD
1070
     1
1070
     0
1002
{
1002
}
1000
DIMTAD
1070
     1
1070
     0
1002
{
1002
}
1000
DIMTFAC
1070
     2
1040
0.71
1002
{
1002
}
1000
DIMTIH
1070
     1
1070
     0
1002
{
1002
}
1000
DIMTIX
1070
     1
1070
     0
1002
{
1002
}
1000
DIMTM
1070
     2
1040
0.1
1002
{
1002
}
1000
DIMTOFL
1070
     1
1070
     0
1002
{
1002
}
1000
DIMTOH
1070
     1
1070
     0
1002
{
1002
}
1000
DIMTOL
1070
     1
1070
     0
1002
{
1002
}
1000
DIMTOLJ
1070
     1
1070
     1
1002
{
1002
}
1000
DIMTP
1070
     2
1040
0.1
1002
{
1002
}
1000
DIMTSZ
1070
     2
1040
0.0
1002
{
1002
}
1000
DIMTVP
1070
     2
1040
0.0
1002
{
1002
}
1000
DIMTXSTY
1070
     4
1000
STANDARD
1002
{
1002
}
1000
DIMTZIN
1070
     1
1070
     0
1002
{
1002
}
1000
DIMUNIT
1070
     1
1070
     2
1002
{
1002
}
1000
DIMUPT
1070
     1
1070
     0
1002
{
1002
}
1000
M
1070
     0
1002
{
1000
DIMALTF
1070
     2
1040
0.0394
1002
{
1002
}
1000
DIMASZ
1070
     2
1040
3.5
1002
{
1002
}
1000
DIMCEN
1070
     2
1040
0.0
1002
{
1002
}
1000
DIMDEC
1070
     1
1070
     2
1002
{
1002
}
1000
DIMDLI
1070
     2
1040
7.0
1002
{
1002
}
1000
DIMEXE
1070
     2
1040
1.0
1002
{
1002
}
1000
DIMEXO
1070
     2
1040
1.0
1002
{
1002
}
1000
DIMGAP
1070
     2
1040
0.6
1002
{
1002
}
1000
DIMTDEC
1070
     1
1070
     3
1002
{
1002
}
1000
DIMTXT
1070
     2
1040
3.5
1002
{
1002
}
1000
DIMZIN
1070
     1
1070
     8
1002
{
1002
}
1002
}
1000
I
1070
     0
1002
{
1000
DIMALTF
1070
     2
1040
25.4
1002
{
1002
}
1000
DIMASZ
1070
     2
1040
0.1
1002
{
1002
}
1000
DIMCEN
1070
     2
1040
0.0
1002
{
1002
}
1000
DIMDEC
1070
     1
1070
     4
1002
{
1002
}
1000
DIMDLI
1070
     2
1040
0.5
1002
{
1002
}
1000
DIMEXE
1070
     2
1040
0.1
1002
{
1002
}
1000
DIMEXO
1070
     2
1040
0.05
1002
{
1002
}
1000
DIMGAP
1070
     2
1040
0.06
1002
{
1002
}
1000
DIMTDEC
1070
     1
1070
     4
1002
{
1002
}
1000
DIMTXT
1070
     2
1040
0.12
1002
{
1002
}
1000
DIMZIN
1070
     1
1070
     7
1002
{
1002
}
1002
}
1000
GEN-ISO
1070
     5
1002
{
1000
NAME
1070
     4
1000
GEN-ISO
1002
{
1002
}
1000
DIMTAD
1070
     1
1070
     1
1002
{
1002
}
1000
DIMTOLJ
1070
     1
1070
     0
1002
{
1002
}
1000
DIMTOFL
1070
     1
1070
     1
1002
{
1002
}
1000
M
1070
     0
1002
{
1002
}
1000
I
1070
     0
1002
{
1002
}
1000
DIMSCALE
1070
     2
1040
1.0
1002
{
1002
}
1000
DIMPOST
1070
     4
1000
<>
1002
{
1002
}
1000
DIMTIH
1070
     1
1070
     0
1002
{
1002
}
1000
DIMFIT
1070
     1
1070
     3
1002
{
1002
}
1000
DIMTOL
1070
     1
1070
     0
1002
{
1002
}
1000
DIMUPT
1070
     1
1070
     0
1002
{
1002
}
1000
DIMTZIN
1070
     1
1070
     0
1002
{
1002
}
1000
DIMLFAC
1070
     2
1040
1.0
1002
{
1002
}
1000
DIMBLK1
1070
     4
1000

1002
{
1002
}
1000
DIMSAH
1070
     1
1070
     0
1002
{
1002
}
1000
GEN-ISO
1070
     5
1002
{
1002
}
1002
}
1000
GEN-ISO-POS
1070
     5
1002
{
1000
NAME
1070
     4
1000
GEN-ISO-POS
1002
{
1002
}
1000
DIMTOLJ
1070
     1
1070
     0
1002
{
1002
}
1000
M
1070
     0
1002
{
1000
DIMGAP
1070
     2
1040
1.5
1002
{
1002
}
1002
}
1000
I
1070
     0
1002
{
1000
DIMASZ
1070
     2
1040
0.1
1002
{
1002
}
1000
DIMGAP
1070
     2
1040
0.06
1002
{
1002
}
1000
DIMTXT
1070
     2
1040
0.2
1002
{
1002
}
1002
}
1000
DIMTXSTY
1070
     4
1000
STANDARD
1002
{
1002
}
1000
DIMBLK1
1070
     4
1000

1002
{
1002
}
1000
DIMBLK2
1070
     4
1000

1002
{
1002
}
1000
DIMSAH
1070
     1
1070
     0
1002
{
1002
}
1000
DIMPOST
1070
     4
1000
<>
1002
{
1002
}
1000
DIMSCALE
1070
     2
1040
1.0
1002
{
1002
}
1000
DIMTAD
1070
     1
1070
     0
1002
{
1002
}
1002
}
1000
GEN-ISO-CIR
1070
     5
1002
{
1000
NAME
1070
     4
1000
GEN-ISO$3
1002
{
1002
}
1000
DIMFIT
1070
     1
1070
     0
1002
{
1002
}
1000
DIMTAD
1070
     1
1070
     1
1002
{
1002
}
1000
DIMTIH
1070
     1
1070
     0
1002
{
1002
}
1000
DIMTIX
1070
     1
1070
     0
1002
{
1002
}
1000
DIMTOH
1070
     1
1070
     1
1002
{
1002
}
1000
DIMTOLJ
1070
     1
1070
     0
1002
{
1002
}
1000
DIMTOFL
1070
     1
1070
     0
1002
{
1002
}
1000
DIMUPT
1070
     1
1070
     1
1002
{
1002
}
1000
M
1070
     0
1002
{
1002
}
1000
I
1070
     0
1002
{
1002
}
1000
DIMPOST
1070
     4
1000
<>
1002
{
1002
}
1002
}
1000
GEN-ISO-RAD
1070
     5
1002
{
1000
NAME
1070
     4
1000
GEN-ISO$4
1002
{
1002
}
1000
DIMFIT
1070
     1
1070
     0
1002
{
1002
}
1000
DIMTAD
1070
     1
1070
     1
1002
{
1002
}
1000
DIMTIH
1070
     1
1070
     0
1002
{
1002
}
1000
DIMTIX
1070
     1
1070
     0
1002
{
1002
}
1000
DIMTOH
1070
     1
1070
     1
1002
{
1002
}
1000
DIMTOLJ
1070
     1
1070
     0
1002
{
1002
}
1000
DIMTOFL
1070
     1
1070
     0
1002
{
1002
}
1000
DIMUPT
1070
     1
1070
     1
1002
{
1002
}
1000
M
1070
     0
1002
{
1002
}
1000
I
1070
     0
1002
{
1002
}
1000
DIMSCALE
1070
     2
1040
1.0
1002
{
1002
}
1000
DIMSE1
1070
     1
1070
     0
1002
{
1002
}
1000
DIMPOST
1070
     4
1000
<>
1002
{
1002
}
1002
}
1000
GEN-ISO-ORD
1070
     5
1002
{
1000
NAME
1070
     4
1000
GEN-ISO$6
1002
{
1002
}
1000
DIMTOLJ
1070
     1
1070
     0
1002
{
1002
}
1000
M
1070
     0
1002
{
1002
}
1000
I
1070
     0
1002
{
1002
}
1000
DIMSCALE
1070
     2
1040
1.0
1002
{
1002
}
1000
DIMPOST
1070
     4
1000
<>
1002
{
1002
}
1000
DIMTOH
1070
     1
1070
     0
1002
{
1002
}
1000
DIMTOFL
1070
     1
1070
     0
1002
{
1002
}
1000
DIMTAD
1070
     1
1070
     0
1002
{
1002
}
1000
DIMTOL
1070
     1
1070
     0
1002
{
1002
}
1000
DIMJUST
1070
     1
1070
     0
1002
{
1002
}
1000
DIMTIH
1070
     1
1070
     0
1002
{
1002
}
1000
DIMTZIN
1070
     1
1070
     0
1002
{
1002
}
1002
}
1000
GEN-ISO-AXE-F
1070
     5
1002
{
1000
NAME
1070
     4
1000
GEN-ISO-AXE-F
1002
{
1002
}
1000
DIMSE1
1070
     1
1070
     1
1002
{
1002
}
1000
DIMSE2
1070
     1
1070
     1
1002
{
1002
}
1000
DIMTAD
1070
     1
1070
     1
1002
{
1002
}
1000
DIMTOLJ
1070
     1
1070
     0
1002
{
1002
}
1000
DIMTOFL
1070
     1
1070
     1
1002
{
1002
}
1000
M
1070
     0
1002
{
1002
}
1000
I
1070
     0
1002
{
1002
}
1000
DIMPOST
1070
     4
1000
<>
1002
{
1002
}
1002
}
1000
GEN-ISO-AXE-H
1070
     5
1002
{
1000
DIMBLK1
1070
     4
1000
GENAXEH
1002
{
1002
}
1000
DIMLFAC
1070
     2
1040
2.0
1002
{
1002
}
1000
DIMSAH
1070
     1
1070
     1
1002
{
1002
}
1000
DIMSE1
1070
     1
1070
     1
1002
{
1002
}
1000
DIMSE2
1070
     1
1070
     1
1002
{
1002
}
1000
DIMTAD
1070
     1
1070
     1
1002
{
1002
}
1000
DIMTOLJ
1070
     1
1070
     0
1002
{
1002
}
1000
DIMTOFL
1070
     1
1070
     1
1002
{
1002
}
1000
M
1070
     0
1002
{
1002
}
1000
I
1070
     0
1002
{
1002
}
1000
DIMPOST
1070
     4
1000
<>
1002
{
1002
}
1002
}
1000
GEN-ANSI
1070
     5
1002
{
1000
NAME
1070
     4
1000
GEN-ANSI
1002
{
1002
}
1000
DIMTIH
1070
     1
1070
     1
1002
{
1002
}
1000
DIMTOH
1070
     1
1070
     1
1002
{
1002
}
1000
DIMTAD
1070
     1
1070
     0
1002
{
1002
}
1000
DIMTOLJ
1070
     1
1070
     1
1002
{
1002
}
1000
M
1070
     0
1002
{
1002
}
1000
I
1070
     0
1002
{
1002
}
1002
}
1000
GEN-ANSI-POS
1070
     5
1002
{
1000
NAME
1070
     4
1000
GEN-ANSI-POS
1002
{
1002
}
1000
DIMTOLJ
1070
     1
1070
     1
1002
{
1002
}
1000
M
1070
     0
1002
{
1000
DIMASZ
1070
     2
1040
2.5
1002
{
1002
}
1000
DIMGAP
1070
     2
1040
1.5
1002
{
1002
}
1000
DIMTXT
1070
     2
1040
5.0
1002
{
1002
}
1002
}
1000
I
1070
     0
1002
{
1000
DIMASZ
1070
     2
1040
0.1
1002
{
1002
}
1000
DIMGAP
1070
     2
1040
0.06
1002
{
1002
}
1000
DIMTXT
1070
     2
1040
0.2
1002
{
1002
}
1002
}
1000
DIMTXSTY
1070
     4
1000
STANDARD
1002
{
1002
}
1002
}
1000
GEN-ANSI-CIR
1070
     5
1002
{
1000
NAME
1070
     4
1000
GEN-ANSI$3
1002
{
1002
}
1000
DIMFIT
1070
     1
1070
     0
1002
{
1002
}
1000
DIMTAD
1070
     1
1070
     0
1002
{
1002
}
1000
DIMTIH
1070
     1
1070
     1
1002
{
1002
}
1000
DIMTIX
1070
     1
1070
     0
1002
{
1002
}
1000
DIMTOFL
1070
     1
1070
     0
1002
{
1002
}
1000
DIMTOH
1070
     1
1070
     1
1002
{
1002
}
1000
DIMTOLJ
1070
     1
1070
     1
1002
{
1002
}
1000
DIMUPT
1070
     1
1070
     1
1002
{
1002
}
1000
M
1070
     0
1002
{
1002
}
1000
I
1070
     0
1002
{
1002
}
1002
}
1000
GEN-ANSI-RAD
1070
     5
1002
{
1000
NAME
1070
     4
1000
GEN-ANSI$4
1002
{
1002
}
1000
DIMFIT
1070
     1
1070
     0
1002
{
1002
}
1000
DIMTAD
1070
     1
1070
     0
1002
{
1002
}
1000
DIMTIH
1070
     1
1070
     1
1002
{
1002
}
1000
DIMTIX
1070
     1
1070
     0
1002
{
1002
}
1000
DIMTOFL
1070
     1
1070
     0
1002
{
1002
}
1000
DIMTOH
1070
     1
1070
     1
1002
{
1002
}
1000
DIMTOLJ
1070
     1
1070
     1
1002
{
1002
}
1000
DIMUPT
1070
     1
1070
     1
1002
{
1002
}
1000
M
1070
     0
1002
{
1002
}
1000
I
1070
     0
1002
{
1002
}
1002
}
1000
GEN-ANSI-ORD
1070
     5
1002
{
1000
NAME
1070
     4
1000
GEN-ANSI$6
1002
{
1002
}
1000
DIMTAD
1070
     1
1070
     0
1002
{
1002
}
1000
DIMTIH
1070
     1
1070
     1
1002
{
1002
}
1000
DIMTOH
1070
     1
1070
     1
1002
{
1002
}
1000
DIMTOLJ
1070
     1
1070
     1
1002
{
1002
}
1000
M
1070
     0
1002
{
1002
}
1000
I
1070
     0
1002
{
1002
}
1000
DIMBLK1
1070
     4
1000

1002
{
1002
}
1002
}
1000
GEN-ANSI-AXE-F
1070
     5
1002
{
1000
NAME
1070
     4
1000
GEN-ANSI-AXE-F
1002
{
1002
}
1000
DIMBLK1
1070
     4
1000
GENAXEH
1002
{
1002
}
1000
DIMSAH
1070
     1
1070
     1
1002
{
1002
}
1000
DIMSE1
1070
     1
1070
     1
1002
{
1002
}
1000
DIMSE2
1070
     1
1070
     1
1002
{
1002
}
1000
DIMTAD
1070
     1
1070
     0
1002
{
1002
}
1000
DIMTIH
1070
     1
1070
     1
1002
{
1002
}
1000
DIMTOH
1070
     1
1070
     1
1002
{
1002
}
1000
DIMTOLJ
1070
     1
1070
     1
1002
{
1002
}
1000
M
1070
     0
1002
{
1002
}
1000
I
1070
     0
1002
{
1002
}
1002
}
1000
GEN-ANSI-AXE-H
1070
     5
1002
{
1000
NAME
1070
     4
1000
GEN-ANSI-AXE-H
1002
{
1002
}
1000
DIMBLK1
1070
     4
1000
GENAXEH
1002
{
1002
}
1000
DIMLFAC
1070
     2
1040
2.0
1002
{
1002
}
1000
DIMSAH
1070
     1
1070
     1
1002
{
1002
}
1000
DIMSE1
1070
     1
1070
     1
1002
{
1002
}
1000
DIMSE2
1070
     1
1070
     1
1002
{
1002
}
1000
DIMTAD
1070
     1
1070
     0
1002
{
1002
}
1000
DIMTOFL
1070
     1
1070
     1
1002
{
1002
}
1000
DIMTOLJ
1070
     1
1070
     1
1002
{
1002
}
1000
M
1070
     0
1002
{
1002
}
1000
I
1070
     0
1002
{
1002
}
1002
}
1000
DIMZIN
1070
     1
1070
     8
1002
{
1002
}
1002
}
1000
DimSet
1070
     0
1002
{
1000
ChainSum
1070
     3
1070
     0
1002
{
1002
}
1000
DimDclTyp0
1070
     4
1000
dim23
1002
{
1002
}
1000
HorBra
1070
     3
1070
     0
1002
{
1002
}
1000
StrDia
1070
     4
1000
%%c<>
1002
{
1002
}
1000
StrRad
1070
     4
1000
R<>
1002
{
1002
}
1000
TextMinus
1070
     4
1000
<>
1002
{
1002
}
1000
TextPlus
1070
     4
1000
<>
1002
{
1002
}
1000
M
1070
     0
1002
{
1000
DimdliFirst
1070
     2
1040
10.0
1002
{
1002
}
1000
PointMakeDist
1070
     2
1040
10.0
1002
{
1002
}
1002
}
1000
I
1070
     0
1002
{
1000
DimdliFirst
1070
     2
1040
0.5
1002
{
1002
}
1000
PointMakeDist
1070
     2
1040
0.5
1002
{
1002
}
1002
}
1002
}
1000
Drawing
1070
     0
1002
{
1000
ChamferDimMode
1070
     1
1070
     2
1002
{
1002
}
1000
Gen_Fiso
1070
    -3
1040
1.0
1002
{
1002
}
1000
GenDimStil
1070
     4
1000
ISO
1002
{
1002
}
1000
GenDwgUScale
1070
     2
1040
1.0
1002
{
1002
}
1000
GenInch
1070
     4
1000
M
1002
{
1002
}
1000
GenPlotScale
1070
     4
1000
1:1
1002
{
1002
}
1000
Revisi
1070
     4
1000
0
1002
{
1002
}
1000
Version
1070
    -5
1000
13.1/May  9 1996
1002
{
1002
}
1000
Platform
1070
    -5
1000
WINNT
1002
{
1002
}
1002
}
1000
DwgVar
1070
     0
1002
{
1000
M
1070
     0
1002
{
1002
}
1000
I
1070
     0
1002
{
1002
}
1002
}
1000
Hatch
1070
     0
1002
{
1000
GenHtcFlag
1070
     3
1070
     0
1002
{
1002
}
1002
}
1000
Info_Pos
1070
     0
1002
{
1000
>
1002
}
1000
Layer
1070
     7
1002
{
1000
Defs
1070
     0
1002
{
1000
>
1002
}
1000
EntSort
1070
     0
1002
{
1000
>
1002
}
1000
Match
1070
     0
1002
{
1002
}
1000
Settings
1070
     0
1002
{
1000
FocGrNC
1070
     3
1070
     0
1002
{
1002
}
1000
FocGrLo
1070
     3
1070
     0
1002
{
1002
}
1000
FocLoNC
1070
     3
1070
     0
1002
{
1002
}
1000
FocusCol
1070
     1
1070
   253
1002
{
1002
}
1000
GenStdLG
1070
     4
1000

1002
{
1002
}
1000
LayMatch
1070
     3
1070
     0
1002
{
1002
}
1000
LgOff
1070
     3
1070
     0
1002
{
1002
}
1000
CurLG
1070
    -5
1000

1002
{
1002
}
1002
}
1002
}
1000
LType
1070
     0
1002
{
1000
GEN3
1070
    10
1000
genius.lin
1002
{
1002
}
1000
GEN7
1070
    10
1000
genius.lin
1002
{
1002
}
1000
GEN4A
1070
    10
1000
genius.lin
1002
{
1002
}
1000
GEN3A
1070
    10
1000
genius.lin
1002
{
1002
}
1000
GEN7A
1070
    10
1000
genius.lin
1002
{
1002
}
1000
GENZIGZAG
1070
    10
1000
genius.lin
1002
{
1002
}
1002
}
1000
Objecter
1070
     0
1002
{
1000
CreateGroups
1070
     3
1070
     0
1002
{
1002
}
1000
LaySwitch
1070
     3
1070
     1
1002
{
1002
}
1000
LastObj
1070
    -5
1000
0
1002
{
1002
}
1002
}
1000
OSWiz
1070
     0
1002
{
1000
AngleStep
1070
     0
1002
{
1000
M
1070
     2
1040
10.0
1002
{
1002
}
1000
I
1070
     2
1040
0.4
1002
{
1002
}
1002
}
1000
AngleIncr
1070
     2
1040
45.0
1002
{
1002
}
1000
Filter
1070
     0
1002
{
1000
HATCH
1070
    11
1002
{
1000
EntityType
1070
     4
1000
LINE
1002
{
1002
}
1000
Layer
1070
     4
1000
8,8N,*-8,*-8N
1002
{
1002
}
1000
Linetype
1070
     4
1000
*
1002
{
1002
}
1000
Color
1070
     4
1000
*
1002
{
1002
}
1002
}
1002
}
1000
IconSize
1070
     2
1040
1.0
1002
{
1002
}
1000
SnapColor
1070
     1
1070
     3
1002
{
1002
}
1002
}
1000
PaList
1070
     0
1002
{
1000
AutoUpdatePartList
1070
     3
1070
     0
1002
{
1002
}
1000
ReadInfoPoint
1070
     3
1070
     0
1002
{
1002
}
1000
ReadPosNr
1070
     3
1070
     1
1002
{
1002
}
1000
RevStr
1070
     4
1000
0
1002
{
1002
}
1002
}
1000
Paper
1070
     0
1002
{
1002
}
1000
PartDB
1070
     0
1002
{
1000
GenDbOwner
1070
     4
1000

1002
{
1002
}
1002
}
1000
System
1070
     0
1002
{
1000
Menu
1070
     4
1000
GEV
1002
{
1002
}
1002
}
1000
Title
1070
     0
1002
{
1000
MakeView
1070
     1
1070
     2
1002
{
1002
}
1002
}
  0
ENDTAB
  0
TABLE
  2
DIMSTYLE
  5
16
100
AcDbSymbolTable
 70
     1
  0
DIMSTYLE
105
1C
100
AcDbSymbolTableRecord
100
AcDbDimStyleTableRecord
  2
GEN-ISO
 70
     0
  3
<>
  4

  5

  6

  7

 40
1.0
 41
2.5
 42
1.0
 43
7.0
 44
1.0
 45
0.0
 46
0.0
 47
0.1
 48
0.1
 49
0.0
 50
0.0
 71
     0
 72
     0
 73
     0
 74
     0
 75
     0
 76
     0
 77
     1
 78
     8
 79
     0
 90
        0
140
3.5
141
0.0
142
0.0
143
0.0394
144
1.0
145
0.0
146
0.71
147
0.6
148
0.0
170
     0
171
     2
172
     1
173
     0
174
     0
175
     0
176
   256
177
   256
178
     2
179
     0
270
     2
271
     2
272
     3
273
     2
274
     4
275
     0
276
     0
277
     0
278
     0
279
     0
280
     0
281
     0
282
     0
283
     0
284
     0
285
     0
286
     0
287
     3
288
     0
289
     0
290
     0
340
D
371
     0
372
     0
  0
ENDTAB
  0
TABLE
  2
BLOCK_RECORD
  5
1
100
AcDbSymbolTable
 70
    15
  0
BLOCK_RECORD
  5
2
100
AcDbSymbolTableRecord
100
AcDbBlockTableRecord
  2
*MODEL_SPACE
 70
     0
280
     0
281
     0
  0
BLOCK_RECORD
  5
8
100
AcDbSymbolTableRecord
100
AcDbBlockTableRecord
  2
*PAPER_SPACE
 70
     0
280
     0
281
     0
  0
BLOCK_RECORD
  5
D7
100
AcDbSymbolTableRecord
100
AcDbBlockTableRecord
  2
*X0
 70
     0
280
     0
281
     0
  0
BLOCK_RECORD
  5
BC
100
AcDbSymbolTableRecord
100
AcDbBlockTableRecord
  2
*X1
 70
     0
280
     0
281
     0
  0
BLOCK_RECORD
  5
79
100
AcDbSymbolTableRecord
100
AcDbBlockTableRecord
  2
*X2
 70
     0
280
     0
281
     0
  0
BLOCK_RECORD
  5
16A
100
AcDbSymbolTableRecord
100
AcDbBlockTableRecord
  2
*X3
 70
     0
280
     0
281
     0
  0
BLOCK_RECORD
  5
187
100
AcDbSymbolTableRecord
100
AcDbBlockTableRecord
  2
*X4
 70
     0
280
     0
281
     0
  0
BLOCK_RECORD
  5
3D
100
AcDbSymbolTableRecord
100
AcDbBlockTableRecord
  2
SLK0201
 70
     0
280
     0
281
     0
  0
BLOCK_RECORD
  5
5A
100
AcDbSymbolTableRecord
100
AcDbBlockTableRecord
  2
SLK0202
 70
     0
280
     0
281
     0
  0
BLOCK_RECORD
  5
15E
100
AcDbSymbolTableRecord
100
AcDbBlockTableRecord
  2
SLK0204
 70
     0
280
     0
281
     0
  0
BLOCK_RECORD
  5
76
100
AcDbSymbolTableRecord
100
AcDbBlockTableRecord
  2
SLK0205
 70
     0
280
     0
281
     0
  0
BLOCK_RECORD
  5
24C
100
AcDbSymbolTableRecord
100
AcDbBlockTableRecord
  2
SLK0207
 70
     0
280
     0
281
     0
  0
BLOCK_RECORD
  5
3B
100
AcDbSymbolTableRecord
100
AcDbBlockTableRecord
  2
SLK0203
 70
     0
280
     0
281
     0
  0
BLOCK_RECORD
  5
70
100
AcDbSymbolTableRecord
100
AcDbBlockTableRecord
  2
SLK0206
 70
     0
280
     0
281
     0
  0
BLOCK_RECORD
  5
128
100
AcDbSymbolTableRecord
100
AcDbBlockTableRecord
  2
*U12
 70
     0
280
     0
281
     0
  0
BLOCK_RECORD
  5
2E
100
AcDbSymbolTableRecord
100
AcDbBlockTableRecord
  2
*D13
 70
     0
280
     0
281
     0
  0
BLOCK_RECORD
  5
1F
100
AcDbSymbolTableRecord
100
AcDbBlockTableRecord
  2
*D14
 70
     0
280
     0
281
     0
  0
ENDTAB
  0
ENDSEC
  0
SECTION
  2
BLOCKS
  0
BLOCK
  5
3
100
AcDbEntity
  8
0
100
AcDbBlockBegin
  2
*MODEL_SPACE
 70
     0
 10
0.0
 20
0.0
 30
0.0
  3
*MODEL_SPACE
  1

  0
ENDBLK
  5
7
100
AcDbEntity
  8
0
100
AcDbBlockEnd
  0
BLOCK
  5
9
100
AcDbEntity
 67
1
  8
0
100
AcDbBlockBegin
  2
*PAPER_SPACE
 70
     0
 10
0.0
 20
0.0
 30
0.0
  3
*PAPER_SPACE
  1

  0
ENDBLK
  5
A
100
AcDbEntity
 67
1
  8
0
100
AcDbBlockEnd
  0
BLOCK
  5
EF
100
AcDbEntity
  8
0
100
AcDbBlockBegin
  2
*X0
 70
    65
 10
0.0
 20
0.0
 30
0.0
  3
*X0
  1

  0
LINE
  5
D8
100
AcDbEntity
  8
0
  6
CONTINUOUS
 62
     0
100
AcDbLine
 39
0.0
 10
156.8138
 20
-34.6257
 30
0.0
 11
155.8138
 21
-33.6257
 31
0.0
  0
LINE
  5
D9
100
AcDbEntity
  8
0
  6
CONTINUOUS
 62
     0
100
AcDbLine
 39
0.0
 10
152.9954
 20
-34.6257
 30
0.0
 11
151.9954
 21
-33.6257
 31
0.0
  0
LINE
  5
DA
100
AcDbEntity
  8
0
  6
CONTINUOUS
 62
     0
100
AcDbLine
 39
0.0
 10
149.177
 20
-34.6257
 30
0.0
 11
148.177
 21
-33.6257
 31
0.0
  0
LINE
  5
DB
100
AcDbEntity
  8
0
  6
CONTINUOUS
 62
     0
100
AcDbLine
 39
0.0
 10
145.3587
 20
-34.6257
 30
0.0
 11
144.3587
 21
-33.6257
 31
0.0
  0
LINE
  5
DC
100
AcDbEntity
  8
0
  6
CONTINUOUS
 62
     0
100
AcDbLine
 39
0.0
 10
141.5403
 20
-34.6257
 30
0.0
 11
140.5403
 21
-33.6257
 31
0.0
  0
LINE
  5
DD
100
AcDbEntity
  8
0
  6
CONTINUOUS
 62
     0
100
AcDbLine
 39
0.0
 10
137.7219
 20
-34.6257
 30
0.0
 11
136.7219
 21
-33.6257
 31
0.0
  0
LINE
  5
DE
100
AcDbEntity
  8
0
  6
CONTINUOUS
 62
     0
100
AcDbLine
 39
0.0
 10
133.9035
 20
-34.6257
 30
0.0
 11
132.9035
 21
-33.6257
 31
0.0
  0
LINE
  5
DF
100
AcDbEntity
  8
0
  6
CONTINUOUS
 62
     0
100
AcDbLine
 39
0.0
 10
130.0852
 20
-34.6257
 30
0.0
 11
129.0852
 21
-33.6257
 31
0.0
  0
LINE
  5
E0
100
AcDbEntity
  8
0
  6
CONTINUOUS
 62
     0
100
AcDbLine
 39
0.0
 10
126.2726
 20
-34.6316
 30
0.0
 11
125.2668
 21
-33.6257
 31
0.0
  0
LINE
  5
E1
100
AcDbEntity
  8
0
  6
CONTINUOUS
 62
     0
100
AcDbLine
 39
0.0
 10
124.0984
 20
-36.2757
 30
0.0
 11
121.4484
 21
-33.6257
 31
0.0
  0
LINE
  5
E2
100
AcDbEntity
  8
0
  6
CONTINUOUS
 62
     0
100
AcDbLine
 39
0.0
 10
160.6322
 20
-34.6257
 30
0.0
 11
159.6322
 21
-33.6257
 31
0.0
  0
LINE
  5
E3
100
AcDbEntity
  8
0
  6
CONTINUOUS
 62
     0
100
AcDbLine
 39
0.0
 10
164.4505
 20
-34.6257
 30
0.0
 11
163.4505
 21
-33.6257
 31
0.0
  0
LINE
  5
E4
100
AcDbEntity
  8
0
  6
CONTINUOUS
 62
     0
100
AcDbLine
 39
0.0
 10
168.2689
 20
-34.6257
 30
0.0
 11
167.2689
 21
-33.6257
 31
0.0
  0
LINE
  5
E5
100
AcDbEntity
  8
0
  6
CONTINUOUS
 62
     0
100
AcDbLine
 39
0.0
 10
172.0873
 20
-34.6257
 30
0.0
 11
171.0873
 21
-33.6257
 31
0.0
  0
LINE
  5
E6
100
AcDbEntity
  8
0
  6
CONTINUOUS
 62
     0
100
AcDbLine
 39
0.0
 10
175.9057
 20
-34.6257
 30
0.0
 11
174.9057
 21
-33.6257
 31
0.0
  0
LINE
  5
E7
100
AcDbEntity
  8
0
  6
CONTINUOUS
 62
     0
100
AcDbLine
 39
0.0
 10
184.374
 20
-39.2757
 30
0.0
 11
182.2726
 21
-37.1743
 31
0.0
  0
LINE
  5
E8
100
AcDbEntity
  8
0
  6
CONTINUOUS
 62
     0
100
AcDbLine
 39
0.0
 10
179.724
 20
-34.6257
 30
0.0
 11
178.724
 21
-33.6257
 31
0.0
  0
LINE
  5
E9
100
AcDbEntity
  8
0
  6
CONTINUOUS
 62
     0
100
AcDbLine
 39
0.0
 10
188.1924
 20
-39.2757
 30
0.0
 11
182.5424
 21
-33.6257
 31
0.0
  0
LINE
  5
EA
100
AcDbEntity
  8
0
  6
CONTINUOUS
 62
     0
100
AcDbLine
 39
0.0
 10
192.0108
 20
-39.2757
 30
0.0
 11
186.3608
 21
-33.6257
 31
0.0
  0
LINE
  5
EB
100
AcDbEntity
  8
0
  6
CONTINUOUS
 62
     0
100
AcDbLine
 39
0.0
 10
197.1792
 20
-40.6257
 30
0.0
 11
196.2726
 21
-39.7192
 31
0.0
  0
LINE
  5
EC
100
AcDbEntity
  8
0
  6
CONTINUOUS
 62
     0
100
AcDbLine
 39
0.0
 10
195.8292
 20
-39.2757
 30
0.0
 11
190.1792
 21
-33.6257
 31
0.0
  0
LINE
  5
ED
100
AcDbEntity
  8
0
  6
CONTINUOUS
 62
     0
100
AcDbLine
 39
0.0
 10
200.2726
 20
-39.9008
 30
0.0
 11
192.9976
 21
-32.6257
 31
0.0
  0
LINE
  5
EE
100
AcDbEntity
  8
0
  6
CONTINUOUS
 62
     0
100
AcDbLine
 39
0.0
 10
200.2726
 20
-36.0824
 30
0.0
 11
196.8159
 21
-32.6257
 31
0.0
  0
ENDBLK
  5
F0
100
AcDbEntity
  8
0
100
AcDbBlockEnd
  0
BLOCK
  5
D4
100
AcDbEntity
  8
0
100
AcDbBlockBegin
  2
*X1
 70
    65
 10
0.0
 20
0.0
 30
0.0
  3
*X1
  1

  0
LINE
  5
BD
100
AcDbEntity
  8
0
  6
CONTINUOUS
 62
     0
100
AcDbLine
 39
0.0
 10
163.0852
 20
-67.6257
 30
0.0
 11
162.0852
 21
-66.6257
 31
0.0
  0
LINE
  5
BE
100
AcDbEntity
  8
0
  6
CONTINUOUS
 62
     0
100
AcDbLine
 39
0.0
 10
159.2668
 20
-67.6257
 30
0.0
 11
158.2668
 21
-66.6257
 31
0.0
  0
LINE
  5
BF
100
AcDbEntity
  8
0
  6
CONTINUOUS
 62
     0
100
AcDbLine
 39
0.0
 10
155.4484
 20
-67.6257
 30
0.0
 11
154.4484
 21
-66.6257
 31
0.0
  0
LINE
  5
C0
100
AcDbEntity
  8
0
  6
CONTINUOUS
 62
     0
100
AcDbLine
 39
0.0
 10
151.63
 20
-67.6257
 30
0.0
 11
150.63
 21
-66.6257
 31
0.0
  0
LINE
  5
C1
100
AcDbEntity
  8
0
  6
CONTINUOUS
 62
     0
100
AcDbLine
 39
0.0
 10
147.8116
 20
-67.6257
 30
0.0
 11
146.8116
 21
-66.6257
 31
0.0
  0
LINE
  5
C2
100
AcDbEntity
  8
0
  6
CONTINUOUS
 62
     0
100
AcDbLine
 39
0.0
 10
143.9933
 20
-67.6257
 30
0.0
 11
142.9933
 21
-66.6257
 31
0.0
  0
LINE
  5
C3
100
AcDbEntity
  8
0
  6
CONTINUOUS
 62
     0
100
AcDbLine
 39
0.0
 10
140.1749
 20
-67.6257
 30
0.0
 11
139.1749
 21
-66.6257
 31
0.0
  0
LINE
  5
C4
100
AcDbEntity
  8
0
  6
CONTINUOUS
 62
     0
100
AcDbLine
 39
0.0
 10
136.3565
 20
-67.6257
 30
0.0
 11
135.3565
 21
-66.6257
 31
0.0
  0
LINE
  5
C5
100
AcDbEntity
  8
0
  6
CONTINUOUS
 62
     0
100
AcDbLine
 39
0.0
 10
132.5381
 20
-67.6257
 30
0.0
 11
131.5381
 21
-66.6257
 31
0.0
  0
LINE
  5
C6
100
AcDbEntity
  8
0
  6
CONTINUOUS
 62
     0
100
AcDbLine
 39
0.0
 10
128.7198
 20
-67.6257
 30
0.0
 11
127.7198
 21
-66.6257
 31
0.0
  0
LINE
  5
C7
100
AcDbEntity
  8
0
  6
CONTINUOUS
 62
     0
100
AcDbLine
 39
0.0
 10
126.2726
 20
-65.1786
 30
0.0
 11
126.0698
 21
-64.9757
 31
0.0
  0
LINE
  5
C8
100
AcDbEntity
  8
0
  6
CONTINUOUS
 62
     0
100
AcDbLine
 39
0.0
 10
123.6568
 20
-66.3811
 30
0.0
 11
122.2514
 21
-64.9757
 31
0.0
  0
LINE
  5
C9
100
AcDbEntity
  8
0
  6
CONTINUOUS
 62
     0
100
AcDbLine
 39
0.0
 10
166.9035
 20
-67.6257
 30
0.0
 11
165.9035
 21
-66.6257
 31
0.0
  0
LINE
  5
CA
100
AcDbEntity
  8
0
  6
CONTINUOUS
 62
     0
100
AcDbLine
 39
0.0
 10
170.7219
 20
-67.6257
 30
0.0
 11
169.7219
 21
-66.6257
 31
0.0
  0
LINE
  5
CB
100
AcDbEntity
  8
0
  6
CONTINUOUS
 62
     0
100
AcDbLine
 39
0.0
 10
174.5403
 20
-67.6257
 30
0.0
 11
173.5403
 21
-66.6257
 31
0.0
  0
LINE
  5
CC
100
AcDbEntity
  8
0
  6
CONTINUOUS
 62
     0
100
AcDbLine
 39
0.0
 10
178.3587
 20
-67.6257
 30
0.0
 11
177.3587
 21
-66.6257
 31
0.0
  0
LINE
  5
CD
100
AcDbEntity
  8
0
  6
CONTINUOUS
 62
     0
100
AcDbLine
 39
0.0
 10
182.177
 20
-67.6257
 30
0.0
 11
181.177
 21
-66.6257
 31
0.0
  0
LINE
  5
CE
100
AcDbEntity
  8
0
  6
CONTINUOUS
 62
     0
100
AcDbLine
 39
0.0
 10
185.9954
 20
-67.6257
 30
0.0
 11
182.2726
 21
-63.903
 31
0.0
  0
LINE
  5
CF
100
AcDbEntity
  8
0
  6
CONTINUOUS
 62
     0
100
AcDbLine
 39
0.0
 10
189.8138
 20
-67.6257
 30
0.0
 11
184.1638
 21
-61.9757
 31
0.0
  0
LINE
  5
D0
100
AcDbEntity
  8
0
  6
CONTINUOUS
 62
     0
100
AcDbLine
 39
0.0
 10
194.6322
 20
-68.6257
 30
0.0
 11
187.9822
 21
-61.9757
 31
0.0
  0
LINE
  5
D1
100
AcDbEntity
  8
0
  6
CONTINUOUS
 62
     0
100
AcDbLine
 39
0.0
 10
198.4505
 20
-68.6257
 30
0.0
 11
191.8005
 21
-61.9757
 31
0.0
  0
LINE
  5
D2
100
AcDbEntity
  8
0
  6
CONTINUOUS
 62
     0
100
AcDbLine
 39
0.0
 10
200.2726
 20
-66.6294
 30
0.0
 11
195.6189
 21
-61.9757
 31
0.0
  0
LINE
  5
D3
100
AcDbEntity
  8
0
  6
CONTINUOUS
 62
     0
100
AcDbLine
 39
0.0
 10
200.2726
 20
-62.8111
 30
0.0
 11
198.0873
 21
-60.6257
 31
0.0
  0
ENDBLK
  5
D5
100
AcDbEntity
  8
0
100
AcDbBlockEnd
  0
BLOCK
  5
AA
100
AcDbEntity
  8
0
100
AcDbBlockBegin
  2
*X2
 70
    65
 10
0.0
 20
0.0
 30
0.0
  3
*X2
  1

  0
LINE
  5
7A
100
AcDbEntity
  8
0
  6
CONTINUOUS
 62
     0
100
AcDbLine
 39
0.0
 10
157.6484
 20
-68.6257
 30
0.0
 11
158.5984
 21
-67.6757
 31
0.0
  0
LINE
  5
7B
100
AcDbEntity
  8
0
  6
CONTINUOUS
 62
     0
100
AcDbLine
 39
0.0
 10
156.2342
 20
-68.6257
 30
0.0
 11
157.1842
 21
-67.6757
 31
0.0
  0
LINE
  5
7C
100
AcDbEntity
  8
0
  6
CONTINUOUS
 62
     0
100
AcDbLine
 39
0.0
 10
154.82
 20
-68.6257
 30
0.0
 11
155.77
 21
-67.6757
 31
0.0
  0
LINE
  5
7D
100
AcDbEntity
  8
0
  6
CONTINUOUS
 62
     0
100
AcDbLine
 39
0.0
 10
153.4058
 20
-68.6257
 30
0.0
 11
154.3558
 21
-67.6757
 31
0.0
  0
LINE
  5
7E
100
AcDbEntity
  8
0
  6
CONTINUOUS
 62
     0
100
AcDbLine
 39
0.0
 10
151.9916
 20
-68.6257
 30
0.0
 11
152.9416
 21
-67.6757
 31
0.0
  0
LINE
  5
7F
100
AcDbEntity
  8
0
  6
CONTINUOUS
 62
     0
100
AcDbLine
 39
0.0
 10
150.5774
 20
-68.6257
 30
0.0
 11
151.5274
 21
-67.6757
 31
0.0
  0
LINE
  5
80
100
AcDbEntity
  8
0
  6
CONTINUOUS
 62
     0
100
AcDbLine
 39
0.0
 10
149.1632
 20
-68.6257
 30
0.0
 11
150.1132
 21
-67.6757
 31
0.0
  0
LINE
  5
81
100
AcDbEntity
  8
0
  6
CONTINUOUS
 62
     0
100
AcDbLine
 39
0.0
 10
147.7489
 20
-68.6257
 30
0.0
 11
148.6989
 21
-67.6757
 31
0.0
  0
LINE
  5
82
100
AcDbEntity
  8
0
  6
CONTINUOUS
 62
     0
100
AcDbLine
 39
0.0
 10
146.3347
 20
-68.6257
 30
0.0
 11
147.2847
 21
-67.6757
 31
0.0
  0
LINE
  5
83
100
AcDbEntity
  8
0
  6
CONTINUOUS
 62
     0
100
AcDbLine
 39
0.0
 10
144.9205
 20
-68.6257
 30
0.0
 11
145.8705
 21
-67.6757
 31
0.0
  0
LINE
  5
84
100
AcDbEntity
  8
0
  6
CONTINUOUS
 62
     0
100
AcDbLine
 39
0.0
 10
143.5063
 20
-68.6257
 30
0.0
 11
144.4563
 21
-67.6757
 31
0.0
  0
LINE
  5
85
100
AcDbEntity
  8
0
  6
CONTINUOUS
 62
     0
100
AcDbLine
 39
0.0
 10
142.0921
 20
-68.6257
 30
0.0
 11
143.0421
 21
-67.6757
 31
0.0
  0
LINE
  5
86
100
AcDbEntity
  8
0
  6
CONTINUOUS
 62
     0
100
AcDbLine
 39
0.0
 10
140.6779
 20
-68.6257
 30
0.0
 11
141.6279
 21
-67.6757
 31
0.0
  0
LINE
  5
87
100
AcDbEntity
  8
0
  6
CONTINUOUS
 62
     0
100
AcDbLine
 39
0.0
 10
139.2637
 20
-68.6257
 30
0.0
 11
140.2137
 21
-67.6757
 31
0.0
  0
LINE
  5
88
100
AcDbEntity
  8
0
  6
CONTINUOUS
 62
     0
100
AcDbLine
 39
0.0
 10
137.8494
 20
-68.6257
 30
0.0
 11
138.7994
 21
-67.6757
 31
0.0
  0
LINE
  5
89
100
AcDbEntity
  8
0
  6
CONTINUOUS
 62
     0
100
AcDbLine
 39
0.0
 10
136.4352
 20
-68.6257
 30
0.0
 11
137.3852
 21
-67.6757
 31
0.0
  0
LINE
  5
8A
100
AcDbEntity
  8
0
  6
CONTINUOUS
 62
     0
100
AcDbLine
 39
0.0
 10
135.021
 20
-68.6257
 30
0.0
 11
135.971
 21
-67.6757
 31
0.0
  0
LINE
  5
8B
100
AcDbEntity
  8
0
  6
CONTINUOUS
 62
     0
100
AcDbLine
 39
0.0
 10
133.6068
 20
-68.6257
 30
0.0
 11
134.5568
 21
-67.6757
 31
0.0
  0
LINE
  5
8C
100
AcDbEntity
  8
0
  6
CONTINUOUS
 62
     0
100
AcDbLine
 39
0.0
 10
132.1926
 20
-68.6257
 30
0.0
 11
133.1426
 21
-67.6757
 31
0.0
  0
LINE
  5
8D
100
AcDbEntity
  8
0
  6
CONTINUOUS
 62
     0
100
AcDbLine
 39
0.0
 10
130.7784
 20
-68.6257
 30
0.0
 11
131.7284
 21
-67.6757
 31
0.0
  0
LINE
  5
8E
100
AcDbEntity
  8
0
  6
CONTINUOUS
 62
     0
100
AcDbLine
 39
0.0
 10
129.3642
 20
-68.6257
 30
0.0
 11
130.3142
 21
-67.6757
 31
0.0
  0
LINE
  5
8F
100
AcDbEntity
  8
0
  6
CONTINUOUS
 62
     0
100
AcDbLine
 39
0.0
 10
127.95
 20
-68.6257
 30
0.0
 11
128.9
 21
-67.6757
 31
0.0
  0
LINE
  5
90
100
AcDbEntity
  8
0
  6
CONTINUOUS
 62
     0
100
AcDbLine
 39
0.0
 10
126.5357
 20
-68.6257
 30
0.0
 11
127.4857
 21
-67.6757
 31
0.0
  0
LINE
  5
91
100
AcDbEntity
  8
0
  6
CONTINUOUS
 62
     0
100
AcDbLine
 39
0.0
 10
125.1215
 20
-68.6257
 30
0.0
 11
126.0715
 21
-67.6757
 31
0.0
  0
LINE
  5
92
100
AcDbEntity
  8
0
  6
CONTINUOUS
 62
     0
100
AcDbLine
 39
0.0
 10
159.0626
 20
-68.6257
 30
0.0
 11
160.0126
 21
-67.6757
 31
0.0
  0
LINE
  5
93
100
AcDbEntity
  8
0
  6
CONTINUOUS
 62
     0
100
AcDbLine
 39
0.0
 10
160.4769
 20
-68.6257
 30
0.0
 11
161.4269
 21
-67.6757
 31
0.0
  0
LINE
  5
94
100
AcDbEntity
  8
0
  6
CONTINUOUS
 62
     0
100
AcDbLine
 39
0.0
 10
161.8911
 20
-68.6257
 30
0.0
 11
162.8411
 21
-67.6757
 31
0.0
  0
LINE
  5
95
100
AcDbEntity
  8
0
  6
CONTINUOUS
 62
     0
100
AcDbLine
 39
0.0
 10
163.3053
 20
-68.6257
 30
0.0
 11
164.2553
 21
-67.6757
 31
0.0
  0
LINE
  5
96
100
AcDbEntity
  8
0
  6
CONTINUOUS
 62
     0
100
AcDbLine
 39
0.0
 10
164.7195
 20
-68.6257
 30
0.0
 11
165.6695
 21
-67.6757
 31
0.0
  0
LINE
  5
97
100
AcDbEntity
  8
0
  6
CONTINUOUS
 62
     0
100
AcDbLine
 39
0.0
 10
166.1337
 20
-68.6257
 30
0.0
 11
167.0837
 21
-67.6757
 31
0.0
  0
LINE
  5
98
100
AcDbEntity
  8
0
  6
CONTINUOUS
 62
     0
100
AcDbLine
 39
0.0
 10
167.5479
 20
-68.6257
 30
0.0
 11
168.4979
 21
-67.6757
 31
0.0
  0
LINE
  5
99
100
AcDbEntity
  8
0
  6
CONTINUOUS
 62
     0
100
AcDbLine
 39
0.0
 10
168.9621
 20
-68.6257
 30
0.0
 11
169.9121
 21
-67.6757
 31
0.0
  0
LINE
  5
9A
100
AcDbEntity
  8
0
  6
CONTINUOUS
 62
     0
100
AcDbLine
 39
0.0
 10
170.3764
 20
-68.6257
 30
0.0
 11
171.3264
 21
-67.6757
 31
0.0
  0
LINE
  5
9B
100
AcDbEntity
  8
0
  6
CONTINUOUS
 62
     0
100
AcDbLine
 39
0.0
 10
171.7906
 20
-68.6257
 30
0.0
 11
172.7406
 21
-67.6757
 31
0.0
  0
LINE
  5
9C
100
AcDbEntity
  8
0
  6
CONTINUOUS
 62
     0
100
AcDbLine
 39
0.0
 10
173.2048
 20
-68.6257
 30
0.0
 11
174.1548
 21
-67.6757
 31
0.0
  0
LINE
  5
9D
100
AcDbEntity
  8
0
  6
CONTINUOUS
 62
     0
100
AcDbLine
 39
0.0
 10
174.619
 20
-68.6257
 30
0.0
 11
175.569
 21
-67.6757
 31
0.0
  0
LINE
  5
9E
100
AcDbEntity
  8
0
  6
CONTINUOUS
 62
     0
100
AcDbLine
 39
0.0
 10
176.0332
 20
-68.6257
 30
0.0
 11
176.9832
 21
-67.6757
 31
0.0
  0
LINE
  5
9F
100
AcDbEntity
  8
0
  6
CONTINUOUS
 62
     0
100
AcDbLine
 39
0.0
 10
177.4474
 20
-68.6257
 30
0.0
 11
178.3974
 21
-67.6757
 31
0.0
  0
LINE
  5
A0
100
AcDbEntity
  8
0
  6
CONTINUOUS
 62
     0
100
AcDbLine
 39
0.0
 10
178.8616
 20
-68.6257
 30
0.0
 11
179.8116
 21
-67.6757
 31
0.0
  0
LINE
  5
A1
100
AcDbEntity
  8
0
  6
CONTINUOUS
 62
     0
100
AcDbLine
 39
0.0
 10
180.2759
 20
-68.6257
 30
0.0
 11
181.2259
 21
-67.6757
 31
0.0
  0
LINE
  5
A2
100
AcDbEntity
  8
0
  6
CONTINUOUS
 62
     0
100
AcDbLine
 39
0.0
 10
181.6901
 20
-68.6257
 30
0.0
 11
182.6401
 21
-67.6757
 31
0.0
  0
LINE
  5
A3
100
AcDbEntity
  8
0
  6
CONTINUOUS
 62
     0
100
AcDbLine
 39
0.0
 10
183.1043
 20
-68.6257
 30
0.0
 11
184.0543
 21
-67.6757
 31
0.0
  0
LINE
  5
A4
100
AcDbEntity
  8
0
  6
CONTINUOUS
 62
     0
100
AcDbLine
 39
0.0
 10
184.5185
 20
-68.6257
 30
0.0
 11
185.4685
 21
-67.6757
 31
0.0
  0
LINE
  5
A5
100
AcDbEntity
  8
0
  6
CONTINUOUS
 62
     0
100
AcDbLine
 39
0.0
 10
185.9327
 20
-68.6257
 30
0.0
 11
186.8827
 21
-67.6757
 31
0.0
  0
LINE
  5
A6
100
AcDbEntity
  8
0
  6
CONTINUOUS
 62
     0
100
AcDbLine
 39
0.0
 10
187.3469
 20
-68.6257
 30
0.0
 11
188.2969
 21
-67.6757
 31
0.0
  0
LINE
  5
A7
100
AcDbEntity
  8
0
  6
CONTINUOUS
 62
     0
100
AcDbLine
 39
0.0
 10
188.7611
 20
-68.6257
 30
0.0
 11
189.7111
 21
-67.6757
 31
0.0
  0
LINE
  5
A8
100
AcDbEntity
  8
0
  6
CONTINUOUS
 62
     0
100
AcDbLine
 39
0.0
 10
190.1753
 20
-68.6257
 30
0.0
 11
191.1253
 21
-67.6757
 31
0.0
  0
LINE
  5
A9
100
AcDbEntity
  8
0
  6
CONTINUOUS
 62
     0
100
AcDbLine
 39
0.0
 10
191.5896
 20
-68.6257
 30
0.0
 11
192.5226
 21
-67.6927
 31
0.0
  0
ENDBLK
  5
AB
100
AcDbEntity
  8
0
100
AcDbBlockEnd
  0
BLOCK
  5
184
100
AcDbEntity
  8
0
100
AcDbBlockBegin
  2
*X3
 70
    65
 10
0.0
 20
0.0
 30
0.0
  3
*X3
  1

  0
LINE
  5
16B
100
AcDbEntity
  8
0
  6
CONTINUOUS
 62
     0
100
AcDbLine
 39
0.0
 10
89.989
 20
-40.8257
 30
0.0
 11
94.439
 21
-36.3757
 31
0.0
  0
LINE
  5
16C
100
AcDbEntity
  8
0
  6
CONTINUOUS
 62
     0
100
AcDbLine
 39
0.0
 10
86.4535
 20
-40.8257
 30
0.0
 11
90.9035
 21
-36.3757
 31
0.0
  0
LINE
  5
16D
100
AcDbEntity
  8
0
  6
CONTINUOUS
 62
     0
100
AcDbLine
 39
0.0
 10
82.918
 20
-40.8257
 30
0.0
 11
87.368
 21
-36.3757
 31
0.0
  0
LINE
  5
16E
100
AcDbEntity
  8
0
  6
CONTINUOUS
 62
     0
100
AcDbLine
 39
0.0
 10
79.3824
 20
-40.8257
 30
0.0
 11
83.8324
 21
-36.3757
 31
0.0
  0
LINE
  5
16F
100
AcDbEntity
  8
0
  6
CONTINUOUS
 62
     0
100
AcDbLine
 39
0.0
 10
75.8469
 20
-40.8257
 30
0.0
 11
80.2969
 21
-36.3757
 31
0.0
  0
LINE
  5
170
100
AcDbEntity
  8
0
  6
CONTINUOUS
 62
     0
100
AcDbLine
 39
0.0
 10
72.3114
 20
-40.8257
 30
0.0
 11
76.7614
 21
-36.3757
 31
0.0
  0
LINE
  5
171
100
AcDbEntity
  8
0
  6
CONTINUOUS
 62
     0
100
AcDbLine
 39
0.0
 10
68.7758
 20
-40.8257
 30
0.0
 11
73.2258
 21
-36.3757
 31
0.0
  0
LINE
  5
172
100
AcDbEntity
  8
0
  6
CONTINUOUS
 62
     0
100
AcDbLine
 39
0.0
 10
65.2403
 20
-40.8257
 30
0.0
 11
69.6903
 21
-36.3757
 31
0.0
  0
LINE
  5
173
100
AcDbEntity
  8
0
  6
CONTINUOUS
 62
     0
100
AcDbLine
 39
0.0
 10
61.7047
 20
-40.8257
 30
0.0
 11
66.1547
 21
-36.3757
 31
0.0
  0
LINE
  5
174
100
AcDbEntity
  8
0
  6
CONTINUOUS
 62
     0
100
AcDbLine
 39
0.0
 10
53.2951
 20
-45.6999
 30
0.0
 11
55.7726
 21
-43.2223
 31
0.0
  0
LINE
  5
175
100
AcDbEntity
  8
0
  6
CONTINUOUS
 62
     0
100
AcDbLine
 39
0.0
 10
58.1692
 20
-40.8257
 30
0.0
 11
62.6192
 21
-36.3757
 31
0.0
  0
LINE
  5
176
100
AcDbEntity
  8
0
  6
CONTINUOUS
 62
     0
100
AcDbLine
 39
0.0
 10
53.2295
 20
-42.2299
 30
0.0
 11
59.0837
 21
-36.3757
 31
0.0
  0
LINE
  5
177
100
AcDbEntity
  8
0
  6
CONTINUOUS
 62
     0
100
AcDbLine
 39
0.0
 10
53.1498
 20
-38.7741
 30
0.0
 11
55.5481
 21
-36.3757
 31
0.0
  0
LINE
  5
178
100
AcDbEntity
  8
0
  6
CONTINUOUS
 62
     0
100
AcDbLine
 39
0.0
 10
93.5246
 20
-40.8257
 30
0.0
 11
97.9746
 21
-36.3757
 31
0.0
  0
LINE
  5
179
100
AcDbEntity
  8
0
  6
CONTINUOUS
 62
     0
100
AcDbLine
 39
0.0
 10
97.0601
 20
-40.8257
 30
0.0
 11
101.5101
 21
-36.3757
 31
0.0
  0
LINE
  5
17A
100
AcDbEntity
  8
0
  6
CONTINUOUS
 62
     0
100
AcDbLine
 39
0.0
 10
100.5956
 20
-40.8257
 30
0.0
 11
105.0456
 21
-36.3757
 31
0.0
  0
LINE
  5
17B
100
AcDbEntity
  8
0
  6
CONTINUOUS
 62
     0
100
AcDbLine
 39
0.0
 10
104.1312
 20
-40.8257
 30
0.0
 11
108.5812
 21
-36.3757
 31
0.0
  0
LINE
  5
17C
100
AcDbEntity
  8
0
  6
CONTINUOUS
 62
     0
100
AcDbLine
 39
0.0
 10
107.2167
 20
-41.2757
 30
0.0
 11
112.1167
 21
-36.3757
 31
0.0
  0
LINE
  5
17D
100
AcDbEntity
  8
0
  6
CONTINUOUS
 62
     0
100
AcDbLine
 39
0.0
 10
110.7522
 20
-41.2757
 30
0.0
 11
115.6522
 21
-36.3757
 31
0.0
  0
LINE
  5
17E
100
AcDbEntity
  8
0
  6
CONTINUOUS
 62
     0
100
AcDbLine
 39
0.0
 10
114.2878
 20
-41.2757
 30
0.0
 11
119.1878
 21
-36.3757
 31
0.0
  0
LINE
  5
17F
100
AcDbEntity
  8
0
  6
CONTINUOUS
 62
     0
100
AcDbLine
 39
0.0
 10
117.8233
 20
-41.2757
 30
0.0
 11
122.7233
 21
-36.3757
 31
0.0
  0
LINE
  5
180
100
AcDbEntity
  8
0
  6
CONTINUOUS
 62
     0
100
AcDbLine
 39
0.0
 10
121.3588
 20
-41.2757
 30
0.0
 11
126.2588
 21
-36.3757
 31
0.0
  0
LINE
  5
181
100
AcDbEntity
  8
0
  6
CONTINUOUS
 62
     0
100
AcDbLine
 39
0.0
 10
126.7726
 20
-35.8619
 30
0.0
 11
127.7588
 21
-34.8757
 31
0.0
  0
LINE
  5
182
100
AcDbEntity
  8
0
  6
CONTINUOUS
 62
     0
100
AcDbLine
 39
0.0
 10
124.8944
 20
-41.2757
 30
0.0
 11
131.2944
 21
-34.8757
 31
0.0
  0
LINE
  5
183
100
AcDbEntity
  8
0
  6
CONTINUOUS
 62
     0
100
AcDbLine
 39
0.0
 10
128.4299
 20
-41.2757
 30
0.0
 11
131.7726
 21
-37.933
 31
0.0
  0
ENDBLK
  5
185
100
AcDbEntity
  8
0
100
AcDbBlockEnd
  0
BLOCK
  5
1A3
100
AcDbEntity
  8
0
100
AcDbBlockBegin
  2
*X4
 70
    65
 10
0.0
 20
0.0
 30
0.0
  3
*X4
  1

  0
LINE
  5
188
100
AcDbEntity
  8
0
  6
CONTINUOUS
 62
     0
100
AcDbLine
 39
0.0
 10
87.1522
 20
-64.8757
 30
0.0
 11
91.6022
 21
-60.4257
 31
0.0
  0
LINE
  5
189
100
AcDbEntity
  8
0
  6
CONTINUOUS
 62
     0
100
AcDbLine
 39
0.0
 10
83.6167
 20
-64.8757
 30
0.0
 11
88.0667
 21
-60.4257
 31
0.0
  0
LINE
  5
18A
100
AcDbEntity
  8
0
  6
CONTINUOUS
 62
     0
100
AcDbLine
 39
0.0
 10
80.0812
 20
-64.8757
 30
0.0
 11
84.5312
 21
-60.4257
 31
0.0
  0
LINE
  5
18B
100
AcDbEntity
  8
0
  6
CONTINUOUS
 62
     0
100
AcDbLine
 39
0.0
 10
76.5456
 20
-64.8757
 30
0.0
 11
80.9956
 21
-60.4257
 31
0.0
  0
LINE
  5
18C
100
AcDbEntity
  8
0
  6
CONTINUOUS
 62
     0
100
AcDbLine
 39
0.0
 10
73.0101
 20
-64.8757
 30
0.0
 11
77.4601
 21
-60.4257
 31
0.0
  0
LINE
  5
18D
100
AcDbEntity
  8
0
  6
CONTINUOUS
 62
     0
100
AcDbLine
 39
0.0
 10
69.4746
 20
-64.8757
 30
0.0
 11
73.9246
 21
-60.4257
 31
0.0
  0
LINE
  5
18E
100
AcDbEntity
  8
0
  6
CONTINUOUS
 62
     0
100
AcDbLine
 39
0.0
 10
65.939
 20
-64.8757
 30
0.0
 11
70.389
 21
-60.4257
 31
0.0
  0
LINE
  5
18F
100
AcDbEntity
  8
0
  6
CONTINUOUS
 62
     0
100
AcDbLine
 39
0.0
 10
62.4035
 20
-64.8757
 30
0.0
 11
66.8535
 21
-60.4257
 31
0.0
  0
LINE
  5
190
100
AcDbEntity
  8
0
  6
CONTINUOUS
 62
     0
100
AcDbLine
 39
0.0
 10
58.868
 20
-64.8757
 30
0.0
 11
63.318
 21
-60.4257
 31
0.0
  0
LINE
  5
191
100
AcDbEntity
  8
0
  6
CONTINUOUS
 62
     0
100
AcDbLine
 39
0.0
 10
55.3324
 20
-64.8757
 30
0.0
 11
59.7824
 21
-60.4257
 31
0.0
  0
LINE
  5
192
100
AcDbEntity
  8
0
  6
CONTINUOUS
 62
     0
100
AcDbLine
 39
0.0
 10
54.0414
 20
-62.6312
 30
0.0
 11
56.2469
 21
-60.4257
 31
0.0
  0
LINE
  5
193
100
AcDbEntity
  8
0
  6
CONTINUOUS
 62
     0
100
AcDbLine
 39
0.0
 10
54.2574
 20
-58.8797
 30
0.0
 11
55.7726
 21
-57.3645
 31
0.0
  0
LINE
  5
194
100
AcDbEntity
  8
0
  6
CONTINUOUS
 62
     0
100
AcDbLine
 39
0.0
 10
53.8232
 20
-55.7784
 30
0.0
 11
54.7758
 21
-54.8257
 31
0.0
  0
LINE
  5
195
100
AcDbEntity
  8
0
  6
CONTINUOUS
 62
     0
100
AcDbLine
 39
0.0
 10
90.6878
 20
-64.8757
 30
0.0
 11
95.1378
 21
-60.4257
 31
0.0
  0
LINE
  5
196
100
AcDbEntity
  8
0
  6
CONTINUOUS
 62
     0
100
AcDbLine
 39
0.0
 10
94.2233
 20
-64.8757
 30
0.0
 11
98.6733
 21
-60.4257
 31
0.0
  0
LINE
  5
197
100
AcDbEntity
  8
0
  6
CONTINUOUS
 62
     0
100
AcDbLine
 39
0.0
 10
97.7588
 20
-64.8757
 30
0.0
 11
102.2088
 21
-60.4257
 31
0.0
  0
LINE
  5
198
100
AcDbEntity
  8
0
  6
CONTINUOUS
 62
     0
100
AcDbLine
 39
0.0
 10
101.2944
 20
-64.8757
 30
0.0
 11
105.7444
 21
-60.4257
 31
0.0
  0
LINE
  5
199
100
AcDbEntity
  8
0
  6
CONTINUOUS
 62
     0
100
AcDbLine
 39
0.0
 10
105.7726
 20
-60.3975
 30
0.0
 11
106.1944
 21
-59.9757
 31
0.0
  0
LINE
  5
19A
100
AcDbEntity
  8
0
  6
CONTINUOUS
 62
     0
100
AcDbLine
 39
0.0
 10
104.8299
 20
-64.8757
 30
0.0
 11
109.7299
 21
-59.9757
 31
0.0
  0
LINE
  5
19B
100
AcDbEntity
  8
0
  6
CONTINUOUS
 62
     0
100
AcDbLine
 39
0.0
 10
108.3654
 20
-64.8757
 30
0.0
 11
113.2654
 21
-59.9757
 31
0.0
  0
LINE
  5
19C
100
AcDbEntity
  8
0
  6
CONTINUOUS
 62
     0
100
AcDbLine
 39
0.0
 10
111.901
 20
-64.8757
 30
0.0
 11
116.801
 21
-59.9757
 31
0.0
  0
LINE
  5
19D
100
AcDbEntity
  8
0
  6
CONTINUOUS
 62
     0
100
AcDbLine
 39
0.0
 10
115.4365
 20
-64.8757
 30
0.0
 11
120.3365
 21
-59.9757
 31
0.0
  0
LINE
  5
19E
100
AcDbEntity
  8
0
  6
CONTINUOUS
 62
     0
100
AcDbLine
 39
0.0
 10
118.972
 20
-64.8757
 30
0.0
 11
123.872
 21
-59.9757
 31
0.0
  0
LINE
  5
19F
100
AcDbEntity
  8
0
  6
CONTINUOUS
 62
     0
100
AcDbLine
 39
0.0
 10
122.5076
 20
-64.8757
 30
0.0
 11
127.4076
 21
-59.9757
 31
0.0
  0
LINE
  5
1A0
100
AcDbEntity
  8
0
  6
CONTINUOUS
 62
     0
100
AcDbLine
 39
0.0
 10
126.0431
 20
-64.8757
 30
0.0
 11
130.9431
 21
-59.9757
 31
0.0
  0
LINE
  5
1A1
100
AcDbEntity
  8
0
  6
CONTINUOUS
 62
     0
100
AcDbLine
 39
0.0
 10
128.0786
 20
-66.3757
 30
0.0
 11
131.7726
 21
-62.6817
 31
0.0
  0
LINE
  5
1A2
100
AcDbEntity
  8
0
  6
CONTINUOUS
 62
     0
100
AcDbLine
 39
0.0
 10
131.6142
 20
-66.3757
 30
0.0
 11
131.7726
 21
-66.2173
 31
0.0
  0
ENDBLK
  5
1A4
100
AcDbEntity
  8
0
100
AcDbBlockEnd
  0
BLOCK
  5
52
100
AcDbEntity
  8
0
100
AcDbBlockBegin
  2
SLK0201
 70
    64
 10
0.0
 20
0.0
 30
0.0
  3
SLK0201
  1

  0
LINE
  5
3E
100
AcDbEntity
  8
7
100
AcDbLine
 39
0.0
 10
-28.0
 20
0.0
 30
0.0
 11
-124.9895
 21
0.0
 31
0.0
  0
LINE
  5
41
100
AcDbEntity
  8
0
  6
CONTINUOUS
100
AcDbLine
 39
0.0
 10
-30.0
 20
-18.0
 30
0.0
 11
-104.25
 21
-18.0
 31
0.0
  0
LINE
  5
42
100
AcDbEntity
  8
0
  6
CONTINUOUS
100
AcDbLine
 39
0.0
 10
-30.0
 20
18.0
 30
0.0
 11
-104.25
 21
18.0
 31
0.0
  0
LINE
  5
43
100
AcDbEntity
  8
0
  6
CONTINUOUS
100
AcDbLine
 39
0.0
 10
-106.75
 20
17.0
 30
0.0
 11
-106.75
 21
-17.0
 31
0.0
  0
LINE
  5
44
100
AcDbEntity
  8
0
  6
CONTINUOUS
100
AcDbLine
 39
0.0
 10
-104.25
 20
-18.0
 30
0.0
 11
-104.25
 21
18.0
 31
0.0
  0
LINE
  5
45
100
AcDbEntity
  8
0
  6
CONTINUOUS
100
AcDbLine
 39
0.0
 10
-108.0
 20
-17.0
 30
0.0
 11
-108.0
 21
17.0
 31
0.0
  0
ARC
  5
46
100
AcDbEntity
  8
0
  6
CONTINUOUS
100
AcDbCircle
 10
-105.5
 20
-17.0
 30
0.0
 40
1.25
100
AcDbArc
 50
180.0
 51
360.0
  0
LINE
  5
47
100
AcDbEntity
  8
0
  6
CONTINUOUS
100
AcDbLine
 39
0.0
 10
-106.75
 20
-17.0
 30
0.0
 11
-108.0
 21
-17.0
 31
0.0
  0
ARC
  5
48
100
AcDbEntity
  8
0
  6
CONTINUOUS
100
AcDbCircle
 10
-105.5
 20
17.0
 30
0.0
 40
1.25
100
AcDbArc
 50
360.0
 51
180.0
  0
LINE
  5
49
100
AcDbEntity
  8
0
  6
CONTINUOUS
100
AcDbLine
 39
0.0
 10
-106.75
 20
17.0
 30
0.0
 11
-108.0
 21
17.0
 31
0.0
  0
LINE
  5
4A
100
AcDbEntity
  8
0
  6
CONTINUOUS
100
AcDbLine
 39
0.0
 10
-36.75
 20
-18.0
 30
0.0
 11
-36.75
 21
18.0
 31
0.0
  0
LINE
  5
4B
100
AcDbEntity
  8
0
  6
CONTINUOUS
100
AcDbLine
 39
0.0
 10
-30.0
 20
18.0
 30
0.0
 11
-30.0
 21
-18.0
 31
0.0
  0
LINE
  5
4C
100
AcDbEntity
  8
0
  6
CONTINUOUS
100
AcDbLine
 39
0.0
 10
-29.0
 20
-17.0
 30
0.0
 11
-29.0
 21
17.0
 31
0.0
  0
LINE
  5
4D
100
AcDbEntity
  8
0
  6
CONTINUOUS
100
AcDbLine
 39
0.0
 10
-29.0
 20
-17.0
 30
0.0
 11
-30.0
 21
-18.0
 31
0.0
1001
GENIUS_GENFIL_13
1070
     0
1040
1.0
1040
1.0
1040
0.0
1040
0.0
1002
{
1002
}
  0
LINE
  5
4F
100
AcDbEntity
  8
0
100
AcDbLine
 39
0.0
 10
-28.0
 20
-11.0
 30
0.0
 11
-29.0
 21
-11.0
 31
0.0
  0
LINE
  5
50
100
AcDbEntity
  8
0
100
AcDbLine
 39
0.0
 10
-28.0
 20
11.0
 30
0.0
 11
-29.0
 21
11.0
 31
0.0
  0
LINE
  5
51
100
AcDbEntity
  8
0
  6
CONTINUOUS
100
AcDbLine
 39
0.0
 10
-30.0
 20
18.0
 30
0.0
 11
-29.0
 21
17.0
 31
0.0
1001
GENIUS_GENFIL_13
1070
     0
1040
1.0
1040
1.0
1040
0.0
1040
0.0
1002
{
1002
}
  0
ENDBLK
  5
53
100
AcDbEntity
  8
0
100
AcDbBlockEnd
  0
BLOCK
  5
6B
100
AcDbEntity
  8
0
100
AcDbBlockBegin
  2
SLK0202
 70
    64
 10
0.0
 20
0.0
 30
0.0
  3
SLK0202
  1

  0
LINE
  5
5B
100
AcDbEntity
  8
7
100
AcDbLine
 39
0.0
 10
53.1197
 20
0.0
 30
0.0
 11
-18.8485
 21
0.0
 31
0.0
  0
LINE
  5
5C
100
AcDbEntity
  8
0
  6
CONTINUOUS
100
AcDbLine
 39
0.0
 10
71.4
 20
-14.25
 30
0.0
 11
2.5
 21
-14.25
 31
0.0
  0
LINE
  5
5D
100
AcDbEntity
  8
0
  6
CONTINUOUS
100
AcDbLine
 39
0.0
 10
71.4
 20
14.25
 30
0.0
 11
2.5
 21
14.25
 31
0.0
  0
LINE
  5
5E
100
AcDbEntity
  8
0
  6
CONTINUOUS
100
AcDbLine
 39
0.0
 10
-0.5
 20
-12.53
 30
0.0
 11
-0.5
 21
12.53
 31
0.0
  0
LINE
  5
5F
100
AcDbEntity
  8
7
100
AcDbLine
 39
0.0
 10
-8.4
 20
-12.53
 30
0.0
 11
-8.4
 21
12.53
 31
0.0
  0
LINE
  5
60
100
AcDbEntity
  8
3
100
AcDbLine
 39
0.0
 10
-15.75
 20
-6.35
 30
0.0
 11
-15.75
 21
6.35
 31
0.0
  0
LINE
  5
63
100
AcDbEntity
  8
4
100
AcDbLine
 39
0.0
 10
-15.75
 20
-6.35
 30
0.0
 11
-0.5
 21
6.35
 31
0.0
  0
LINE
  5
65
100
AcDbEntity
  8
4
100
AcDbLine
 39
0.0
 10
-15.75
 20
6.35
 30
0.0
 11
-0.5
 21
-6.35
 31
0.0
  0
LINE
  5
66
100
AcDbEntity
  8
0
  6
CONTINUOUS
100
AcDbLine
 39
0.0
 10
2.5
 20
14.25
 30
0.0
 11
2.5
 21
-14.25
 31
0.0
  0
LINE
  5
67
100
AcDbEntity
  8
3
100
AcDbLine
 39
0.0
 10
-0.5
 20
-6.35
 30
0.0
 11
-15.75
 21
-6.35
 31
0.0
  0
LINE
  5
68
100
AcDbEntity
  8
0
100
AcDbLine
 39
0.0
 10
2.5
 20
-14.25
 30
0.0
 11
-0.5
 21
-12.53
 31
0.0
  0
LINE
  5
69
100
AcDbEntity
  8
3
100
AcDbLine
 39
0.0
 10
-0.5
 20
6.35
 30
0.0
 11
-15.75
 21
6.35
 31
0.0
  0
LINE
  5
6A
100
AcDbEntity
  8
0
100
AcDbLine
 39
0.0
 10
2.5
 20
14.25
 30
0.0
 11
-0.5
 21
12.53
 31
0.0
  0
ENDBLK
  5
6C
100
AcDbEntity
  8
0
100
AcDbBlockEnd
  0
BLOCK
  5
247
100
AcDbEntity
  8
0
100
AcDbBlockBegin
  2
SLK0204
 70
    64
 10
0.0
 20
0.0
 30
0.0
  3
SLK0204
  1

  0
LINE
  5
15F
100
AcDbEntity
  8
0
  6
CONTINUOUS
100
AcDbLine
 39
0.0
 10
10.4315
 20
3.5248
 30
0.0
 11
10.0865
 21
2.6
 31
0.0
  0
LINE
  5
160
100
AcDbEntity
  8
0
100
AcDbLine
 39
0.0
 10
8.6538
 20
-2.6
 30
0.0
 11
12.5865
 21
-2.6
 31
0.0
  0
LINE
  5
161
100
AcDbEntity
  8
0
100
AcDbLine
 39
0.0
 10
6.7135
 20
2.6
 30
0.0
 11
10.6462
 21
2.6
 31
0.0
  0
LINE
  5
162
100
AcDbEntity
  8
7
100
AcDbLine
 39
0.0
 10
4.12
 20
3.35
 30
0.0
 11
55.9
 21
3.35
 31
0.0
  0
LINE
  5
163
100
AcDbEntity
  8
7
100
AcDbLine
 39
0.0
 10
53.1197
 20
0.0
 30
0.0
 11
-18.3485
 21
0.0
 31
0.0
  0
LINE
  5
164
100
AcDbEntity
  8
7
100
AcDbLine
 39
0.0
 10
4.12
 20
-3.35
 30
0.0
 11
55.9
 21
-3.35
 31
0.0
  0
LINE
  5
165
100
AcDbEntity
  8
0
  6
CONTINUOUS
100
AcDbLine
 39
0.0
 10
76.9
 20
-14.25
 30
0.0
 11
3.0
 21
-14.25
 31
0.0
  0
LINE
  5
166
100
AcDbEntity
  8
0
  6
CONTINUOUS
100
AcDbLine
 39
0.0
 10
76.9
 20
14.25
 30
0.0
 11
3.0
 21
14.25
 31
0.0
  0
LINE
  5
167
100
AcDbEntity
  8
0
100
AcDbLine
 39
0.0
 10
55.9
 20
9.8
 30
0.0
 11
5.9
 21
9.8
 31
0.0
  0
LINE
  5
168
100
AcDbEntity
  8
0
100
AcDbLine
 39
0.0
 10
55.9
 20
-9.8
 30
0.0
 11
5.9
 21
-9.8
 31
0.0
  0
INSERT
  5
169
100
AcDbEntity
  8
8
100
AcDbBlockReference
  2
*X3
 10
-49.8726
 20
50.6257
 30
0.0
 41
1.0
 42
1.0
 43
1.0
 50
0.0
 70
     0
 71
     0
 44
0.0
 45
0.0
1001
GENIUS_GENODEF_13
1002
{
1000
HIER
1070
     0
1002
}
1002
{
1000
MANEDIT
1070
     0
1002
}
1002
{
1000
NOSEL
1070
     0
1002
}
1002
{
1000
BEHIND
1070
     0
1002
}
1002
{
1000
REACTOR
1002
}
1001
GENIUS_GENOBJ-N-HTC_13
1002
{
1000
OWNER
1000
GEN
1002
}
1001
GENIUS_GENHATCH_13
1002
{
1000
DATA
1040
45.0
1042
2.5
1000
_U
1070
     0
1011
6.7054
1021
12.6647
1031
0.0
1002
}
1002
{
1000
UCS
1010
0.0
1020
0.0
1030
0.0
1010
1.0
1020
0.0
1030
0.0
1010
0.0
1020
1.0
1030
0.0
1002
}
1001
ACAD
1000
HATCH
1002
{
1070
    19
1000
_U
1040
2.5
1040
0.7854
1070
     0
1002
}
  0
INSERT
  5
186
100
AcDbEntity
  8
8
100
AcDbBlockReference
  2
*X4
 10
-49.8726
 20
50.6257
 30
0.0
 41
1.0
 42
1.0
 43
1.0
 50
0.0
 70
     0
 71
     0
 44
0.0
 45
0.0
1001
GENIUS_GENODEF_13
1002
{
1000
HIER
1070
     0
1002
}
1002
{
1000
MANEDIT
1070
     0
1002
}
1002
{
1000
NOSEL
1070
     0
1002
}
1002
{
1000
BEHIND
1070
     0
1002
}
1002
{
1000
REACTOR
1002
}
1001
GENIUS_GENOBJ-N-HTC_13
1002
{
1000
OWNER
1000
GEN
1002
}
1001
GENIUS_GENHATCH_13
1002
{
1000
DATA
1040
45.0
1042
2.5
1000
_U
1070
     0
1011
8.7428
1021
-12.4023
1031
0.0
1002
}
1002
{
1000
UCS
1010
0.0
1020
0.0
1030
0.0
1010
1.0
1020
0.0
1030
0.0
1010
0.0
1020
1.0
1030
0.0
1002
}
1001
ACAD
1000
HATCH
1002
{
1070
    19
1000
_U
1040
2.5
1040
0.7854
1070
     0
1002
}
  0
LINE
  5
1A5
100
AcDbEntity
  8
0
  6
CONTINUOUS
100
AcDbLine
 39
0.0
 10
5.9
 20
-9.8
 30
0.0
 11
5.9
 21
9.8
 31
0.0
  0
LINE
  5
1A6
100
AcDbEntity
  8
3
100
AcDbLine
 39
0.0
 10
-15.25
 20
-6.35
 30
0.0
 11
-15.25
 21
6.35
 31
0.0
  0
LINE
  5
1A7
100
AcDbEntity
  8
0
  6
CONTINUOUS
100
AcDbLine
 39
0.0
 10
0.0
 20
-12.53
 30
0.0
 11
0.0
 21
12.53
 31
0.0
  0
LINE
  5
1A8
100
AcDbEntity
  8
7
100
AcDbLine
 39
0.0
 10
-7.9
 20
-12.53
 30
0.0
 11
-7.9
 21
12.53
 31
0.0
  0
POLYLINE
  5
1A9
100
AcDbEntity
  8
4
100
AcDb2dPolyline
 66
     1
 10
0.0
 20
0.0
 30
0.0
 70
     4
 75
     6
  0
VERTEX
  5
1AA
100
AcDbEntity
  8
4
100
AcDbVertex
100
AcDb2dVertex
 10
3.8713
 20
14.25
 30
0.0
 70
    16
  0
VERTEX
  5
1AB
100
AcDbEntity
  8
4
100
AcDbVertex
100
AcDb2dVertex
 10
3.8713
 20
14.25
 30
0.0
 70
     8
  0
VERTEX
  5
1AC
100
AcDbEntity
  8
4
100
AcDbVertex
100
AcDb2dVertex
 10
3.5744
 20
13.3722
 30
0.0
 70
     8
  0
VERTEX
  5
1AD
100
AcDbEntity
  8
4
100
AcDbVertex
100
AcDb2dVertex
 10
3.3775
 20
12.5408
 30
0.0
 70
     8
  0
VERTEX
  5
1AE
100
AcDbEntity
  8
4
100
AcDbVertex
100
AcDb2dVertex
 10
3.2634
 20
11.7572
 30
0.0
 70
     8
  0
VERTEX
  5
1AF
100
AcDbEntity
  8
4
100
AcDbVertex
100
AcDb2dVertex
 10
3.2154
 20
11.0227
 30
0.0
 70
     8
  0
VERTEX
  5
1B0
100
AcDbEntity
  8
4
100
AcDbVertex
100
AcDb2dVertex
 10
3.2163
 20
10.3385
 30
0.0
 70
     8
  0
VERTEX
  5
1B1
100
AcDbEntity
  8
4
100
AcDbVertex
100
AcDb2dVertex
 10
3.2492
 20
9.7059
 30
0.0
 70
     8
  0
VERTEX
  5
1B2
100
AcDbEntity
  8
4
100
AcDbVertex
100
AcDb2dVertex
 10
3.2973
 20
9.1263
 30
0.0
 70
     8
  0
VERTEX
  5
1B3
100
AcDbEntity
  8
4
100
AcDbVertex
100
AcDb2dVertex
 10
3.3435
 20
8.601
 30
0.0
 70
     8
  0
VERTEX
  5
1B4
100
AcDbEntity
  8
4
100
AcDbVertex
100
AcDb2dVertex
 10
3.3743
 20
8.1294
 30
0.0
 70
     8
  0
VERTEX
  5
1B5
100
AcDbEntity
  8
4
100
AcDbVertex
100
AcDb2dVertex
 10
3.39
 20
7.7047
 30
0.0
 70
     8
  0
VERTEX
  5
1B6
100
AcDbEntity
  8
4
100
AcDbVertex
100
AcDb2dVertex
 10
3.3945
 20
7.3179
 30
0.0
 70
     8
  0
VERTEX
  5
1B7
100
AcDbEntity
  8
4
100
AcDbVertex
100
AcDb2dVertex
 10
3.3916
 20
6.9603
 30
0.0
 70
     8
  0
VERTEX
  5
1B8
100
AcDbEntity
  8
4
100
AcDbVertex
100
AcDb2dVertex
 10
3.3849
 20
6.6231
 30
0.0
 70
     8
  0
VERTEX
  5
1B9
100
AcDbEntity
  8
4
100
AcDbVertex
100
AcDb2dVertex
 10
3.3784
 20
6.2975
 30
0.0
 70
     8
  0
VERTEX
  5
1BA
100
AcDbEntity
  8
4
100
AcDbVertex
100
AcDb2dVertex
 10
3.3758
 20
5.9749
 30
0.0
 70
     8
  0
VERTEX
  5
1BB
100
AcDbEntity
  8
4
100
AcDbVertex
100
AcDb2dVertex
 10
3.3809
 20
5.6463
 30
0.0
 70
     8
  0
VERTEX
  5
1BC
100
AcDbEntity
  8
4
100
AcDbVertex
100
AcDb2dVertex
 10
3.3964
 20
5.3046
 30
0.0
 70
     8
  0
VERTEX
  5
1BD
100
AcDbEntity
  8
4
100
AcDbVertex
100
AcDb2dVertex
 10
3.4206
 20
4.9486
 30
0.0
 70
     8
  0
VERTEX
  5
1BE
100
AcDbEntity
  8
4
100
AcDbVertex
100
AcDb2dVertex
 10
3.4507
 20
4.5787
 30
0.0
 70
     8
  0
VERTEX
  5
1BF
100
AcDbEntity
  8
4
100
AcDbVertex
100
AcDb2dVertex
 10
3.4839
 20
4.1954
 30
0.0
 70
     8
  0
VERTEX
  5
1C0
100
AcDbEntity
  8
4
100
AcDbVertex
100
AcDb2dVertex
 10
3.5175
 20
3.7989
 30
0.0
 70
     8
  0
VERTEX
  5
1C1
100
AcDbEntity
  8
4
100
AcDbVertex
100
AcDb2dVertex
 10
3.5485
 20
3.3898
 30
0.0
 70
     8
  0
VERTEX
  5
1C2
100
AcDbEntity
  8
4
100
AcDbVertex
100
AcDb2dVertex
 10
3.5743
 20
2.9684
 30
0.0
 70
     8
  0
VERTEX
  5
1C3
100
AcDbEntity
  8
4
100
AcDbVertex
100
AcDb2dVertex
 10
3.5921
 20
2.5351
 30
0.0
 70
     8
  0
VERTEX
  5
1C4
100
AcDbEntity
  8
4
100
AcDbVertex
100
AcDb2dVertex
 10
3.5999
 20
2.0913
 30
0.0
 70
     8
  0
VERTEX
  5
1C5
100
AcDbEntity
  8
4
100
AcDbVertex
100
AcDb2dVertex
 10
3.5998
 20
1.6421
 30
0.0
 70
     8
  0
VERTEX
  5
1C6
100
AcDbEntity
  8
4
100
AcDbVertex
100
AcDb2dVertex
 10
3.5948
 20
1.1937
 30
0.0
 70
     8
  0
VERTEX
  5
1C7
100
AcDbEntity
  8
4
100
AcDbVertex
100
AcDb2dVertex
 10
3.5878
 20
0.7523
 30
0.0
 70
     8
  0
VERTEX
  5
1C8
100
AcDbEntity
  8
4
100
AcDbVertex
100
AcDb2dVertex
 10
3.5817
 20
0.3239
 30
0.0
 70
     8
  0
VERTEX
  5
1C9
100
AcDbEntity
  8
4
100
AcDbVertex
100
AcDb2dVertex
 10
3.5796
 20
-0.0852
 30
0.0
 70
     8
  0
VERTEX
  5
1CA
100
AcDbEntity
  8
4
100
AcDbVertex
100
AcDb2dVertex
 10
3.5843
 20
-0.469
 30
0.0
 70
     8
  0
VERTEX
  5
1CB
100
AcDbEntity
  8
4
100
AcDbVertex
100
AcDb2dVertex
 10
3.5989
 20
-0.8212
 30
0.0
 70
     8
  0
VERTEX
  5
1CC
100
AcDbEntity
  8
4
100
AcDbVertex
100
AcDb2dVertex
 10
3.6251
 20
-1.138
 30
0.0
 70
     8
  0
VERTEX
  5
1CD
100
AcDbEntity
  8
4
100
AcDbVertex
100
AcDb2dVertex
 10
3.661
 20
-1.424
 30
0.0
 70
     8
  0
VERTEX
  5
1CE
100
AcDbEntity
  8
4
100
AcDbVertex
100
AcDb2dVertex
 10
3.7033
 20
-1.6863
 30
0.0
 70
     8
  0
VERTEX
  5
1CF
100
AcDbEntity
  8
4
100
AcDbVertex
100
AcDb2dVertex
 10
3.7487
 20
-1.9318
 30
0.0
 70
     8
  0
VERTEX
  5
1D0
100
AcDbEntity
  8
4
100
AcDbVertex
100
AcDb2dVertex
 10
3.7941
 20
-2.1673
 30
0.0
 70
     8
  0
VERTEX
  5
1D1
100
AcDbEntity
  8
4
100
AcDbVertex
100
AcDb2dVertex
 10
3.8364
 20
-2.3999
 30
0.0
 70
     8
  0
VERTEX
  5
1D2
100
AcDbEntity
  8
4
100
AcDbVertex
100
AcDb2dVertex
 10
3.8722
 20
-2.6365
 30
0.0
 70
     8
  0
VERTEX
  5
1D3
100
AcDbEntity
  8
4
100
AcDbVertex
100
AcDb2dVertex
 10
3.8985
 20
-2.884
 30
0.0
 70
     8
  0
VERTEX
  5
1D4
100
AcDbEntity
  8
4
100
AcDbVertex
100
AcDb2dVertex
 10
3.9132
 20
-3.1483
 30
0.0
 70
     8
  0
VERTEX
  5
1D5
100
AcDbEntity
  8
4
100
AcDbVertex
100
AcDb2dVertex
 10
3.9189
 20
-3.4306
 30
0.0
 70
     8
  0
VERTEX
  5
1D6
100
AcDbEntity
  8
4
100
AcDbVertex
100
AcDb2dVertex
 10
3.9196
 20
-3.731
 30
0.0
 70
     8
  0
VERTEX
  5
1D7
100
AcDbEntity
  8
4
100
AcDbVertex
100
AcDb2dVertex
 10
3.9189
 20
-4.0499
 30
0.0
 70
     8
  0
VERTEX
  5
1D8
100
AcDbEntity
  8
4
100
AcDbVertex
100
AcDb2dVertex
 10
3.9209
 20
-4.3872
 30
0.0
 70
     8
  0
VERTEX
  5
1D9
100
AcDbEntity
  8
4
100
AcDbVertex
100
AcDb2dVertex
 10
3.9292
 20
-4.7432
 30
0.0
 70
     8
  0
VERTEX
  5
1DA
100
AcDbEntity
  8
4
100
AcDbVertex
100
AcDb2dVertex
 10
3.9477
 20
-5.1181
 30
0.0
 70
     8
  0
VERTEX
  5
1DB
100
AcDbEntity
  8
4
100
AcDbVertex
100
AcDb2dVertex
 10
3.9802
 20
-5.5119
 30
0.0
 70
     8
  0
VERTEX
  5
1DC
100
AcDbEntity
  8
4
100
AcDbVertex
100
AcDb2dVertex
 10
4.0292
 20
-5.9241
 30
0.0
 70
     8
  0
VERTEX
  5
1DD
100
AcDbEntity
  8
4
100
AcDbVertex
100
AcDb2dVertex
 10
4.0911
 20
-6.3512
 30
0.0
 70
     8
  0
VERTEX
  5
1DE
100
AcDbEntity
  8
4
100
AcDbVertex
100
AcDb2dVertex
 10
4.161
 20
-6.7889
 30
0.0
 70
     8
  0
VERTEX
  5
1DF
100
AcDbEntity
  8
4
100
AcDbVertex
100
AcDb2dVertex
 10
4.2339
 20
-7.233
 30
0.0
 70
     8
  0
VERTEX
  5
1E0
100
AcDbEntity
  8
4
100
AcDbVertex
100
AcDb2dVertex
 10
4.3049
 20
-7.6791
 30
0.0
 70
     8
  0
VERTEX
  5
1E1
100
AcDbEntity
  8
4
100
AcDbVertex
100
AcDb2dVertex
 10
4.3691
 20
-8.1231
 30
0.0
 70
     8
  0
VERTEX
  5
1E2
100
AcDbEntity
  8
4
100
AcDbVertex
100
AcDb2dVertex
 10
4.4214
 20
-8.5606
 30
0.0
 70
     8
  0
VERTEX
  5
1E3
100
AcDbEntity
  8
4
100
AcDbVertex
100
AcDb2dVertex
 10
4.457
 20
-8.9873
 30
0.0
 70
     8
  0
VERTEX
  5
1E4
100
AcDbEntity
  8
4
100
AcDbVertex
100
AcDb2dVertex
 10
4.4712
 20
-9.4044
 30
0.0
 70
     8
  0
VERTEX
  5
1E5
100
AcDbEntity
  8
4
100
AcDbVertex
100
AcDb2dVertex
 10
4.4612
 20
-9.8345
 30
0.0
 70
     8
  0
VERTEX
  5
1E6
100
AcDbEntity
  8
4
100
AcDbVertex
100
AcDb2dVertex
 10
4.4244
 20
-10.3054
 30
0.0
 70
     8
  0
VERTEX
  5
1E7
100
AcDbEntity
  8
4
100
AcDbVertex
100
AcDb2dVertex
 10
4.3582
 20
-10.8451
 30
0.0
 70
     8
  0
VERTEX
  5
1E8
100
AcDbEntity
  8
4
100
AcDbVertex
100
AcDb2dVertex
 10
4.2601
 20
-11.4814
 30
0.0
 70
     8
  0
VERTEX
  5
1E9
100
AcDbEntity
  8
4
100
AcDbVertex
100
AcDb2dVertex
 10
4.1275
 20
-12.2424
 30
0.0
 70
     8
  0
VERTEX
  5
1EA
100
AcDbEntity
  8
4
100
AcDbVertex
100
AcDb2dVertex
 10
3.9579
 20
-13.156
 30
0.0
 70
     8
  0
VERTEX
  5
1EB
100
AcDbEntity
  8
4
100
AcDbVertex
100
AcDb2dVertex
 10
3.7487
 20
-14.25
 30
0.0
 70
     8
  0
VERTEX
  5
1EC
100
AcDbEntity
  8
4
100
AcDbVertex
100
AcDb2dVertex
 10
2.9314
 20
11.8483
 30
0.0
 70
    16
  0
VERTEX
  5
1ED
100
AcDbEntity
  8
4
100
AcDbVertex
100
AcDb2dVertex
 10
3.5444
 20
8.0087
 30
0.0
 70
    16
  0
VERTEX
  5
1EE
100
AcDbEntity
  8
4
100
AcDbVertex
100
AcDb2dVertex
 10
3.2583
 20
5.8029
 30
0.0
 70
    16
  0
VERTEX
  5
1EF
100
AcDbEntity
  8
4
100
AcDbVertex
100
AcDb2dVertex
 10
3.7078
 20
2.6576
 30
0.0
 70
    16
  0
VERTEX
  5
1F0
100
AcDbEntity
  8
4
100
AcDbVertex
100
AcDb2dVertex
 10
3.4627
 20
-1.2229
 30
0.0
 70
    16
  0
VERTEX
  5
1F1
100
AcDbEntity
  8
4
100
AcDbVertex
100
AcDb2dVertex
 10
4.0347
 20
-2.6934
 30
0.0
 70
    16
  0
VERTEX
  5
1F2
100
AcDbEntity
  8
4
100
AcDbVertex
100
AcDb2dVertex
 10
3.7895
 20
-5.3076
 30
0.0
 70
    16
  0
VERTEX
  5
1F3
100
AcDbEntity
  8
4
100
AcDbVertex
100
AcDb2dVertex
 10
4.6885
 20
-9.1473
 30
0.0
 70
    16
  0
VERTEX
  5
1F4
100
AcDbEntity
  8
4
100
AcDbVertex
100
AcDb2dVertex
 10
4.3616
 20
-11.0671
 30
0.0
 70
    16
  0
VERTEX
  5
1F5
100
AcDbEntity
  8
4
100
AcDbVertex
100
AcDb2dVertex
 10
3.7487
 20
-14.25
 30
0.0
 70
    16
  0
SEQEND
  5
1F6
100
AcDbEntity
  8
4
  0
LINE
  5
1F7
100
AcDbEntity
  8
4
100
AcDbLine
 39
0.0
 10
-15.25
 20
-6.35
 30
0.0
 11
0.0
 21
6.35
 31
0.0
  0
LINE
  5
1F8
100
AcDbEntity
  8
4
100
AcDbLine
 39
0.0
 10
-15.25
 20
6.35
 30
0.0
 11
0.0
 21
-6.35
 31
0.0
  0
LINE
  5
1F9
100
AcDbEntity
  8
3
100
AcDbLine
 39
0.0
 10
0.0
 20
-6.35
 30
0.0
 11
-15.25
 21
-6.35
 31
0.0
  0
LINE
  5
1FA
100
AcDbEntity
  8
0
100
AcDbLine
 39
0.0
 10
3.0
 20
-14.25
 30
0.0
 11
0.0
 21
-12.53
 31
0.0
  0
LINE
  5
1FB
100
AcDbEntity
  8
0
  6
CONTINUOUS
100
AcDbLine
 39
0.0
 10
6.3685
 20
3.5248
 30
0.0
 11
8.8685
 21
-3.1752
 31
0.0
  0
LINE
  5
1FC
100
AcDbEntity
  8
0
  6
CONTINUOUS
100
AcDbLine
 39
0.0
 10
5.9
 20
1.9198
 30
0.0
 11
7.9315
 21
-3.5248
 31
0.0
  0
ARC
  5
1FD
100
AcDbEntity
  8
0
  6
CONTINUOUS
100
AcDbCircle
 10
5.9
 20
-3.35
 30
0.0
 40
0.5
100
AcDbArc
 50
270.0
 51
90.0
  0
LINE
  5
1FE
100
AcDbEntity
  8
0
100
AcDbLine
 39
0.0
 10
5.9
 20
-2.6
 30
0.0
 11
7.5865
 21
-2.6
 31
0.0
  0
LINE
  5
1FF
100
AcDbEntity
  8
0
100
AcDbLine
 39
0.0
 10
5.9
 20
-4.2
 30
0.0
 11
3.9198
 21
-4.2
 31
0.0
  0
LINE
  5
200
100
AcDbEntity
  8
0
  6
CONTINUOUS
100
AcDbLine
 39
0.0
 10
9.2135
 20
-2.6
 30
0.0
 11
8.8685
 21
-3.5248
 31
0.0
  0
ARC
  5
201
100
AcDbEntity
  8
0
  6
CONTINUOUS
100
AcDbCircle
 10
8.4
 20
-3.35
 30
0.0
 40
0.5
100
AcDbArc
 50
200.4623
 51
20.4623
  0
LINE
  5
202
100
AcDbEntity
  8
0
  6
CONTINUOUS
100
AcDbLine
 39
0.0
 10
6.4
 20
-3.35
 30
0.0
 11
6.4
 21
-2.6
 31
0.0
  0
ARC
  5
203
100
AcDbEntity
  8
0
  6
CONTINUOUS
100
AcDbCircle
 10
5.9
 20
3.35
 30
0.0
 40
0.5
100
AcDbArc
 50
20.4623
 51
90.0
  0
LINE
  5
204
100
AcDbEntity
  8
0
100
AcDbLine
 39
0.0
 10
5.9
 20
4.2
 30
0.0
 11
3.4835
 21
4.2
 31
0.0
  0
LINE
  5
205
100
AcDbEntity
  8
3
100
AcDbLine
 39
0.0
 10
0.0
 20
6.35
 30
0.0
 11
-15.25
 21
6.35
 31
0.0
  0
LINE
  5
206
100
AcDbEntity
  8
0
100
AcDbLine
 39
0.0
 10
3.0
 20
14.25
 30
0.0
 11
0.0
 21
12.53
 31
0.0
  0
LINE
  5
207
100
AcDbEntity
  8
0
100
AcDbLine
 39
0.0
 10
41.7135
 20
2.6
 30
0.0
 11
53.3
 21
2.6
 31
0.0
  0
LINE
  5
208
100
AcDbEntity
  8
0
100
AcDbLine
 39
0.0
 10
38.6538
 20
-2.6
 30
0.0
 11
53.3
 21
-2.6
 31
0.0
  0
LINE
  5
209
100
AcDbEntity
  8
0
100
AcDbLine
 39
0.0
 10
26.7135
 20
2.6
 30
0.0
 11
30.6462
 21
2.6
 31
0.0
  0
LINE
  5
20A
100
AcDbEntity
  8
0
  6
CONTINUOUS
100
AcDbLine
 39
0.0
 10
25.4315
 20
3.1752
 30
0.0
 11
27.9315
 21
-3.5248
 31
0.0
  0
LINE
  5
20B
100
AcDbEntity
  8
0
  6
CONTINUOUS
100
AcDbLine
 39
0.0
 10
26.3685
 20
3.5248
 30
0.0
 11
28.8685
 21
-3.1752
 31
0.0
  0
LINE
  5
20C
100
AcDbEntity
  8
0
100
AcDbLine
 39
0.0
 10
23.6538
 20
-2.6
 30
0.0
 11
27.5865
 21
-2.6
 31
0.0
  0
ARC
  5
20D
100
AcDbEntity
  8
0
  6
CONTINUOUS
100
AcDbCircle
 10
18.4
 20
-3.35
 30
0.0
 40
0.5
100
AcDbArc
 50
200.4623
 51
20.4623
  0
LINE
  5
20E
100
AcDbEntity
  8
0
100
AcDbLine
 39
0.0
 10
16.7135
 20
2.6
 30
0.0
 11
20.6462
 21
2.6
 31
0.0
  0
LINE
  5
20F
100
AcDbEntity
  8
0
  6
CONTINUOUS
100
AcDbLine
 39
0.0
 10
16.3685
 20
3.5248
 30
0.0
 11
18.8685
 21
-3.1752
 31
0.0
  0
LINE
  5
210
100
AcDbEntity
  8
0
  6
CONTINUOUS
100
AcDbLine
 39
0.0
 10
11.3685
 20
3.5248
 30
0.0
 11
13.8685
 21
-3.1752
 31
0.0
  0
LINE
  5
211
100
AcDbEntity
  8
0
  6
CONTINUOUS
100
AcDbLine
 39
0.0
 10
15.4315
 20
3.1752
 30
0.0
 11
17.9315
 21
-3.5248
 31
0.0
  0
LINE
  5
212
100
AcDbEntity
  8
0
  6
CONTINUOUS
100
AcDbLine
 39
0.0
 10
10.4315
 20
3.1752
 30
0.0
 11
12.9315
 21
-3.5248
 31
0.0
  0
LINE
  5
213
100
AcDbEntity
  8
0
100
AcDbLine
 39
0.0
 10
13.6538
 20
-2.6
 30
0.0
 11
17.5865
 21
-2.6
 31
0.0
  0
ARC
  5
214
100
AcDbEntity
  8
0
  6
CONTINUOUS
100
AcDbCircle
 10
13.4
 20
-3.35
 30
0.0
 40
0.5
100
AcDbArc
 50
200.4623
 51
20.4623
  0
LINE
  5
215
100
AcDbEntity
  8
0
100
AcDbLine
 39
0.0
 10
11.7135
 20
2.6
 30
0.0
 11
15.6462
 21
2.6
 31
0.0
  0
ARC
  5
216
100
AcDbEntity
  8
0
  6
CONTINUOUS
100
AcDbCircle
 10
10.9
 20
3.35
 30
0.0
 40
0.5
100
AcDbArc
 50
20.4623
 51
200.4623
  0
LINE
  5
217
100
AcDbEntity
  8
0
  6
CONTINUOUS
100
AcDbLine
 39
0.0
 10
15.4315
 20
3.5248
 30
0.0
 11
15.0865
 21
2.6
 31
0.0
  0
ARC
  5
218
100
AcDbEntity
  8
0
  6
CONTINUOUS
100
AcDbCircle
 10
15.9
 20
3.35
 30
0.0
 40
0.5
100
AcDbArc
 50
20.4623
 51
200.4623
  0
LINE
  5
219
100
AcDbEntity
  8
0
  6
CONTINUOUS
100
AcDbLine
 39
0.0
 10
21.3685
 20
3.5248
 30
0.0
 11
23.8685
 21
-3.1752
 31
0.0
  0
LINE
  5
21A
100
AcDbEntity
  8
0
  6
CONTINUOUS
100
AcDbLine
 39
0.0
 10
20.4315
 20
3.1752
 30
0.0
 11
22.9315
 21
-3.5248
 31
0.0
  0
LINE
  5
21B
100
AcDbEntity
  8
0
100
AcDbLine
 39
0.0
 10
18.6538
 20
-2.6
 30
0.0
 11
22.5865
 21
-2.6
 31
0.0
  0
ARC
  5
21C
100
AcDbEntity
  8
0
  6
CONTINUOUS
100
AcDbCircle
 10
23.4
 20
-3.35
 30
0.0
 40
0.5
100
AcDbArc
 50
200.4623
 51
20.4623
  0
LINE
  5
21D
100
AcDbEntity
  8
0
100
AcDbLine
 39
0.0
 10
21.7135
 20
2.6
 30
0.0
 11
25.6462
 21
2.6
 31
0.0
  0
ARC
  5
21E
100
AcDbEntity
  8
0
  6
CONTINUOUS
100
AcDbCircle
 10
20.9
 20
3.35
 30
0.0
 40
0.5
100
AcDbArc
 50
20.4623
 51
200.4623
  0
LINE
  5
21F
100
AcDbEntity
  8
0
  6
CONTINUOUS
100
AcDbLine
 39
0.0
 10
20.4315
 20
3.5248
 30
0.0
 11
20.0865
 21
2.6
 31
0.0
  0
ARC
  5
220
100
AcDbEntity
  8
0
  6
CONTINUOUS
100
AcDbCircle
 10
25.9
 20
3.35
 30
0.0
 40
0.5
100
AcDbArc
 50
20.4623
 51
200.4623
  0
LINE
  5
221
100
AcDbEntity
  8
0
  6
CONTINUOUS
100
AcDbLine
 39
0.0
 10
25.4315
 20
3.5248
 30
0.0
 11
25.0865
 21
2.6
 31
0.0
  0
LINE
  5
222
100
AcDbEntity
  8
0
100
AcDbLine
 39
0.0
 10
33.6538
 20
-2.6
 30
0.0
 11
37.5865
 21
-2.6
 31
0.0
  0
LINE
  5
223
100
AcDbEntity
  8
0
100
AcDbLine
 39
0.0
 10
31.7135
 20
2.6
 30
0.0
 11
35.6462
 21
2.6
 31
0.0
  0
LINE
  5
224
100
AcDbEntity
  8
0
  6
CONTINUOUS
100
AcDbLine
 39
0.0
 10
31.3685
 20
3.5248
 30
0.0
 11
33.8685
 21
-3.1752
 31
0.0
  0
LINE
  5
225
100
AcDbEntity
  8
0
  6
CONTINUOUS
100
AcDbLine
 39
0.0
 10
30.4315
 20
3.1752
 30
0.0
 11
32.9315
 21
-3.5248
 31
0.0
  0
LINE
  5
226
100
AcDbEntity
  8
0
100
AcDbLine
 39
0.0
 10
28.6538
 20
-2.6
 30
0.0
 11
32.5865
 21
-2.6
 31
0.0
  0
ARC
  5
227
100
AcDbEntity
  8
0
  6
CONTINUOUS
100
AcDbCircle
 10
28.4
 20
-3.35
 30
0.0
 40
0.5
100
AcDbArc
 50
200.4623
 51
20.4623
  0
ARC
  5
228
100
AcDbEntity
  8
0
  6
CONTINUOUS
100
AcDbCircle
 10
33.4
 20
-3.35
 30
0.0
 40
0.5
100
AcDbArc
 50
200.4623
 51
20.4623
  0
ARC
  5
229
100
AcDbEntity
  8
0
  6
CONTINUOUS
100
AcDbCircle
 10
30.9
 20
3.35
 30
0.0
 40
0.5
100
AcDbArc
 50
20.4623
 51
200.4623
  0
LINE
  5
22A
100
AcDbEntity
  8
0
  6
CONTINUOUS
100
AcDbLine
 39
0.0
 10
30.4315
 20
3.5248
 30
0.0
 11
30.0865
 21
2.6
 31
0.0
  0
LINE
  5
22B
100
AcDbEntity
  8
0
  6
CONTINUOUS
100
AcDbLine
 39
0.0
 10
36.3685
 20
3.5248
 30
0.0
 11
38.8685
 21
-3.1752
 31
0.0
  0
LINE
  5
22C
100
AcDbEntity
  8
0
  6
CONTINUOUS
100
AcDbLine
 39
0.0
 10
35.4315
 20
3.1752
 30
0.0
 11
37.9315
 21
-3.5248
 31
0.0
  0
ARC
  5
22D
100
AcDbEntity
  8
0
  6
CONTINUOUS
100
AcDbCircle
 10
38.4
 20
-3.35
 30
0.0
 40
0.5
100
AcDbArc
 50
200.4623
 51
20.4623
  0
LINE
  5
22E
100
AcDbEntity
  8
0
100
AcDbLine
 39
0.0
 10
36.7135
 20
2.6
 30
0.0
 11
40.6462
 21
2.6
 31
0.0
  0
ARC
  5
22F
100
AcDbEntity
  8
0
  6
CONTINUOUS
100
AcDbCircle
 10
35.9
 20
3.35
 30
0.0
 40
0.5
100
AcDbArc
 50
20.4623
 51
200.4623
  0
LINE
  5
230
100
AcDbEntity
  8
0
  6
CONTINUOUS
100
AcDbLine
 39
0.0
 10
35.4315
 20
3.5248
 30
0.0
 11
35.0865
 21
2.6
 31
0.0
  0
LINE
  5
231
100
AcDbEntity
  8
0
  6
CONTINUOUS
100
AcDbLine
 39
0.0
 10
41.3685
 20
3.5248
 30
0.0
 11
42.2577
 21
1.1416
 31
0.0
  0
LINE
  5
232
100
AcDbEntity
  8
4
100
AcDbLine
 39
0.0
 10
42.2577
 20
1.1416
 30
0.0
 11
42.1912
 21
0.9958
 31
0.0
  0
LINE
  5
233
100
AcDbEntity
  8
4
100
AcDbLine
 39
0.0
 10
42.1912
 20
0.9958
 30
0.0
 11
42.1306
 21
0.8367
 31
0.0
  0
LINE
  5
234
100
AcDbEntity
  8
4
100
AcDbLine
 39
0.0
 10
42.1306
 20
0.8367
 30
0.0
 11
42.0731
 21
0.6655
 31
0.0
  0
LINE
  5
235
100
AcDbEntity
  8
4
100
AcDbLine
 39
0.0
 10
42.0731
 20
0.6655
 30
0.0
 11
42.0162
 21
0.4833
 31
0.0
  0
LINE
  5
236
100
AcDbEntity
  8
4
100
AcDbLine
 39
0.0
 10
42.0162
 20
0.4833
 30
0.0
 11
41.9571
 21
0.2912
 31
0.0
  0
LINE
  5
237
100
AcDbEntity
  8
4
100
AcDbLine
 39
0.0
 10
41.9571
 20
0.2912
 30
0.0
 11
41.8933
 21
0.0905
 31
0.0
  0
LINE
  5
238
100
AcDbEntity
  8
4
100
AcDbLine
 39
0.0
 10
41.8933
 20
0.0905
 30
0.0
 11
41.8219
 21
-0.1178
 31
0.0
  0
LINE
  5
239
100
AcDbEntity
  8
4
100
AcDbLine
 39
0.0
 10
41.8219
 20
-0.1178
 30
0.0
 11
41.7404
 21
-0.3325
 31
0.0
  0
LINE
  5
23A
100
AcDbEntity
  8
0
  6
CONTINUOUS
100
AcDbLine
 39
0.0
 10
40.4315
 20
3.5248
 30
0.0
 11
40.0865
 21
2.6
 31
0.0
  0
LINE
  5
23B
100
AcDbEntity
  8
0
  6
CONTINUOUS
100
AcDbLine
 39
0.0
 10
40.4315
 20
3.1752
 30
0.0
 11
41.7404
 21
-0.3325
 31
0.0
  0
ARC
  5
23C
100
AcDbEntity
  8
0
  6
CONTINUOUS
100
AcDbCircle
 10
40.9
 20
3.35
 30
0.0
 40
0.5
100
AcDbArc
 50
20.4623
 51
200.4623
  0
LINE
  5
23D
100
AcDbEntity
  8
0
100
AcDbLine
 39
0.0
 10
55.9
 20
9.8
 30
0.0
 11
55.9
 21
-9.8
 31
0.0
  0
LINE
  5
23E
100
AcDbEntity
  8
0
  6
CONTINUOUS
100
AcDbLine
 39
0.0
 10
57.9681
 20
-9.35
 30
0.0
 11
55.9
 21
-9.35
 31
0.0
  0
ARC
  5
23F
100
AcDbEntity
  8
0
  6
CONTINUOUS
100
AcDbCircle
 10
53.3
 20
0.0
 30
0.0
 40
2.6
100
AcDbArc
 50
270.0
 51
90.0
  0
LINE
  5
240
100
AcDbEntity
  8
0
  6
CONTINUOUS
100
AcDbLine
 39
0.0
 10
57.9681
 20
9.35
 30
0.0
 11
55.9
 21
9.35
 31
0.0
  0
LINE
  5
241
100
AcDbEntity
  8
0
  6
CONTINUOUS
100
AcDbLine
 39
0.0
 10
81.9
 20
-9.35
 30
0.0
 11
81.9
 21
-15.75
 31
0.0
  0
LINE
  5
242
100
AcDbEntity
  8
0
  6
CONTINUOUS
100
AcDbLine
 39
0.0
 10
81.9
 20
-15.75
 30
0.0
 11
76.9
 21
-15.75
 31
0.0
  0
LINE
  5
243
100
AcDbEntity
  8
0
  6
CONTINUOUS
100
AcDbLine
 39
0.0
 10
76.9
 20
-14.25
 30
0.0
 11
76.9
 21
-15.75
 31
0.0
  0
LINE
  5
244
100
AcDbEntity
  8
0
  6
CONTINUOUS
100
AcDbLine
 39
0.0
 10
81.9
 20
9.35
 30
0.0
 11
81.9
 21
15.75
 31
0.0
  0
LINE
  5
245
100
AcDbEntity
  8
0
  6
CONTINUOUS
100
AcDbLine
 39
0.0
 10
81.9
 20
15.75
 30
0.0
 11
76.9
 21
15.75
 31
0.0
  0
LINE
  5
246
100
AcDbEntity
  8
0
  6
CONTINUOUS
100
AcDbLine
 39
0.0
 10
76.9
 20
14.25
 30
0.0
 11
76.9
 21
15.75
 31
0.0
  0
ENDBLK
  5
248
100
AcDbEntity
  8
0
100
AcDbBlockEnd
  0
BLOCK
  5
15B
100
AcDbEntity
  8
0
100
AcDbBlockBegin
  2
SLK0205
 70
    64
 10
0.0
 20
0.0
 30
0.0
  3
SLK0205
  1

  0
INSERT
  5
77
100
AcDbEntity
  8
8
100
AcDbBlockReference
  2
*X2
 10
-229.2726
 20
50.6257
 30
0.0
 41
1.0
 42
1.0
 43
1.0
 50
0.0
 70
     0
 71
     0
 44
0.0
 45
0.0
1001
GENIUS_GENODEF_13
1002
{
1000
HIER
1070
     0
1002
}
1002
{
1000
MANEDIT
1070
     0
1002
}
1002
{
1000
NOSEL
1070
     0
1002
}
1002
{
1000
BEHIND
1070
     0
1002
}
1002
{
1000
REACTOR
1002
}
1001
GENIUS_GENOBJ-N-HTC_13
1002
{
1000
OWNER
1000
GEN
1002
}
1001
GENIUS_GENHATCH_13
1002
{
1000
DATA
1040
45.0
1042
1.0
1000
_U
1070
     0
1011
-88.89
1021
-17.6116
1031
0.0
1002
}
1002
{
1000
UCS
1010
0.0
1020
0.0
1030
0.0
1010
1.0
1020
0.0
1030
0.0
1010
0.0
1020
1.0
1030
0.0
1002
}
1001
ACAD
1000
HATCH
1002
{
1070
    19
1000
_U
1040
1.0
1040
0.7854
1070
     0
1002
}
  0
INSERT
  5
BB
100
AcDbEntity
  8
8
100
AcDbBlockReference
  2
*X1
 10
-229.2726
 20
50.6257
 30
0.0
 41
1.0
 42
1.0
 43
1.0
 50
0.0
 70
     0
 71
     0
 44
0.0
 45
0.0
1001
GENIUS_GENODEF_13
1002
{
1000
HIER
1070
     0
1002
}
1002
{
1000
MANEDIT
1070
     0
1002
}
1002
{
1000
NOSEL
1070
     0
1002
}
1002
{
1000
BEHIND
1070
     0
1002
}
1002
{
1000
REACTOR
1002
}
1001
GENIUS_GENOBJ-N-HTC_13
1002
{
1000
OWNER
1000
GEN
1002
}
1001
GENIUS_GENHATCH_13
1002
{
1000
DATA
1040
135.0
1042
2.7
1000
_U
1070
     0
1011
-35.8784
1021
-13.8617
1031
0.0
1002
}
1002
{
1000
UCS
1010
0.0
1020
0.0
1030
0.0
1010
1.0
1020
0.0
1030
0.0
1010
0.0
1020
1.0
1030
0.0
1002
}
1001
ACAD
1000
HATCH
1002
{
1070
    19
1000
_U
1040
2.7
1040
2.3562
1070
     0
1002
}
  0
INSERT
  5
D6
100
AcDbEntity
  8
8
100
AcDbBlockReference
  2
*X0
 10
-229.2726
 20
50.6257
 30
0.0
 41
1.0
 42
1.0
 43
1.0
 50
0.0
 70
     0
 71
     0
 44
0.0
 45
0.0
1001
GENIUS_GENODEF_13
1002
{
1000
HIER
1070
     0
1002
}
1002
{
1000
MANEDIT
1070
     0
1002
}
1002
{
1000
NOSEL
1070
     0
1002
}
1002
{
1000
BEHIND
1070
     0
1002
}
1002
{
1000
REACTOR
1002
}
1001
GENIUS_GENOBJ-N-HTC_13
1002
{
1000
OWNER
1000
GEN
1002
}
1001
GENIUS_GENHATCH_13
1002
{
1000
DATA
1040
135.0
1042
2.7
1000
_U
1070
     0
1011
-37.6508
1021
13.7613
1031
0.0
1002
}
1002
{
1000
UCS
1010
0.0
1020
0.0
1030
0.0
1010
1.0
1020
0.0
1030
0.0
1010
0.0
1020
1.0
1030
0.0
1002
}
1001
ACAD
1000
HATCH
1002
{
1070
    19
1000
_U
1040
2.7
1040
2.3562
1070
     0
1002
}
  0
LINE
  5
F1
100
AcDbEntity
  8
0
  6
CONTINUOUS
100
AcDbLine
 39
0.0
 10
-36.75
 20
-17.05
 30
0.0
 11
-104.25
 21
-17.05
 31
0.0
  0
LINE
  5
F2
100
AcDbEntity
  8
0
  6
CONTINUOUS
100
AcDbLine
 39
0.0
 10
-36.75
 20
17.05
 30
0.0
 11
-104.25
 21
17.05
 31
0.0
  0
LINE
  5
F3
100
AcDbEntity
  8
0
  6
CONTINUOUS
100
AcDbLine
 39
0.0
 10
-36.75
 20
17.0
 30
0.0
 11
-104.25
 21
17.0
 31
0.0
  0
LINE
  5
F4
100
AcDbEntity
  8
0
  6
CONTINUOUS
100
AcDbLine
 39
0.0
 10
-36.75
 20
-17.0
 30
0.0
 11
-104.25
 21
-17.0
 31
0.0
  0
LINE
  5
F5
100
AcDbEntity
  8
0
  6
CONTINUOUS
100
AcDbLine
 39
0.0
 10
-47.0
 20
-16.0
 30
0.0
 11
-103.0
 21
-16.0
 31
0.0
  0
LINE
  5
F6
100
AcDbEntity
  8
0
  6
CONTINUOUS
100
AcDbLine
 39
0.0
 10
-47.0
 20
16.0
 30
0.0
 11
-103.0
 21
16.0
 31
0.0
  0
LINE
  5
F7
100
AcDbEntity
  8
0
  6
CONTINUOUS
100
AcDbLine
 39
0.0
 10
-30.0
 20
18.0
 30
0.0
 11
-104.25
 21
18.0
 31
0.0
  0
LINE
  5
F8
100
AcDbEntity
  8
0
  6
CONTINUOUS
100
AcDbLine
 39
0.0
 10
-30.0
 20
-18.0
 30
0.0
 11
-104.25
 21
-18.0
 31
0.0
  0
LINE
  5
F9
100
AcDbEntity
  8
7
100
AcDbLine
 39
0.0
 10
-28.0
 20
0.0
 30
0.0
 11
-124.9895
 21
0.0
 31
0.0
  0
LINE
  5
FA
100
AcDbEntity
  8
0
100
AcDbLine
 39
0.0
 10
-36.9866
 20
9.35
 30
0.0
 11
-121.9319
 21
9.35
 31
0.0
  0
LINE
  5
FB
100
AcDbEntity
  8
7
100
AcDbLine
 39
0.0
 10
-36.1092
 20
8.89
 30
0.0
 11
-124.013
 21
8.89
 31
0.0
  0
LINE
  5
FC
100
AcDbEntity
  8
0
100
AcDbLine
 39
0.0
 10
-44.0
 20
8.08
 30
0.0
 11
-122.6651
 21
8.08
 31
0.0
  0
LINE
  5
FD
100
AcDbEntity
  8
7
100
AcDbLine
 39
0.0
 10
-36.1092
 20
-8.89
 30
0.0
 11
-124.013
 21
-8.89
 31
0.0
  0
LINE
  5
FE
100
AcDbEntity
  8
0
100
AcDbLine
 39
0.0
 10
-44.0
 20
-8.08
 30
0.0
 11
-122.6651
 21
-8.08
 31
0.0
  0
LINE
  5
FF
100
AcDbEntity
  8
0
100
AcDbLine
 39
0.0
 10
-36.9866
 20
-9.35
 30
0.0
 11
-121.9319
 21
-9.35
 31
0.0
  0
LINE
  5
100
100
AcDbEntity
  8
0
  6
CONTINUOUS
100
AcDbLine
 39
0.0
 10
-104.25
 20
-17.0
 30
0.0
 11
-104.25
 21
-18.0
 31
0.0
  0
CIRCLE
  5
101
100
AcDbEntity
  8
0
  6
CONTINUOUS
100
AcDbCircle
 10
-105.5
 20
-17.0
 30
0.0
 40
1.25
  0
LINE
  5
102
100
AcDbEntity
  8
0
100
AcDbLine
 39
0.0
 10
-123.0
 20
7.5
 30
0.0
 11
-123.0
 21
-7.5
 31
0.0
  0
LINE
  5
103
100
AcDbEntity
  8
0
  6
CONTINUOUS
100
AcDbLine
 39
0.0
 10
-123.0
 20
-7.5
 30
0.0
 11
-121.9319
 21
-9.35
 31
0.0
  0
LINE
  5
104
100
AcDbEntity
  8
0
  6
CONTINUOUS
100
AcDbLine
 39
0.0
 10
-103.0
 20
-14.35
 30
0.0
 11
-108.0
 21
-14.35
 31
0.0
  0
LINE
  5
105
100
AcDbEntity
  8
0
  6
CONTINUOUS
100
AcDbLine
 39
0.0
 10
-106.75
 20
-17.0
 30
0.0
 11
-108.0
 21
-17.0
 31
0.0
  0
LINE
  5
106
100
AcDbEntity
  8
0
  6
CONTINUOUS
100
AcDbLine
 39
0.0
 10
-108.0
 20
-14.25
 30
0.0
 11
-108.0
 21
-17.0
 31
0.0
  0
LINE
  5
107
100
AcDbEntity
  8
0
  6
CONTINUOUS
100
AcDbLine
 39
0.0
 10
-103.0
 20
-14.25
 30
0.0
 11
-103.0
 21
-16.0
 31
0.0
  0
LINE
  5
108
100
AcDbEntity
  8
0
  6
CONTINUOUS
100
AcDbLine
 39
0.0
 10
-123.0
 20
7.5
 30
0.0
 11
-121.9319
 21
9.35
 31
0.0
  0
CIRCLE
  5
109
100
AcDbEntity
  8
0
  6
CONTINUOUS
100
AcDbCircle
 10
-105.5
 20
17.0
 30
0.0
 40
1.25
  0
LINE
  5
10A
100
AcDbEntity
  8
0
  6
CONTINUOUS
100
AcDbLine
 39
0.0
 10
-108.0
 20
14.25
 30
0.0
 11
-108.0
 21
17.0
 31
0.0
  0
LINE
  5
10B
100
AcDbEntity
  8
0
  6
CONTINUOUS
100
AcDbLine
 39
0.0
 10
-103.0
 20
14.35
 30
0.0
 11
-108.0
 21
14.35
 31
0.0
  0
LINE
  5
10C
100
AcDbEntity
  8
0
  6
CONTINUOUS
100
AcDbLine
 39
0.0
 10
-103.0
 20
14.25
 30
0.0
 11
-103.0
 21
16.0
 31
0.0
  0
LINE
  5
10D
100
AcDbEntity
  8
0
  6
CONTINUOUS
100
AcDbLine
 39
0.0
 10
-106.75
 20
17.0
 30
0.0
 11
-108.0
 21
17.0
 31
0.0
  0
LINE
  5
10E
100
AcDbEntity
  8
0
  6
CONTINUOUS
100
AcDbLine
 39
0.0
 10
-104.25
 20
17.0
 30
0.0
 11
-104.25
 21
18.0
 31
0.0
  0
LINE
  5
10F
100
AcDbEntity
  8
0
100
AcDbLine
 39
0.0
 10
-29.0
 20
-10.0
 30
0.0
 11
-33.0
 21
-10.0
 31
0.0
  0
LINE
  5
110
100
AcDbEntity
  8
0
100
AcDbLine
 39
0.0
 10
-29.0
 20
10.0
 30
0.0
 11
-33.0
 21
10.0
 31
0.0
  0
LINE
  5
111
100
AcDbEntity
  8
0
  6
CONTINUOUS
100
AcDbLine
 39
0.0
 10
-36.75
 20
-18.0
 30
0.0
 11
-36.75
 21
-17.0
 31
0.0
  0
LINE
  5
112
100
AcDbEntity
  8
0
100
AcDbLine
 39
0.0
 10
-33.0
 20
11.0
 30
0.0
 11
-33.0
 21
-11.0
 31
0.0
  0
LINE
  5
113
100
AcDbEntity
  8
0
100
AcDbLine
 39
0.0
 10
-33.0
 20
-11.35
 30
0.0
 11
-47.0
 21
-11.35
 31
0.0
  0
ARC
  5
114
100
AcDbEntity
  8
0
100
AcDbCircle
 10
-44.0
 20
-28.08
 30
0.0
 40
20.0
100
AcDbArc
 50
58.6494
 51
90.0
  0
LINE
  5
115
100
AcDbEntity
  8
0
  6
CONTINUOUS
100
AcDbLine
 39
0.0
 10
-47.0
 20
-16.0
 30
0.0
 11
-47.0
 21
-9.35
 31
0.0
  0
LINE
  5
116
100
AcDbEntity
  8
0
  6
CONTINUOUS
100
AcDbLine
 39
0.0
 10
-33.0
 20
-10.2
 30
0.0
 11
-33.0
 21
-11.35
 31
0.0
  0
LINE
  5
117
100
AcDbEntity
  8
0
  6
CONTINUOUS
100
AcDbLine
 39
0.0
 10
-33.0
 20
-10.2
 30
0.0
 11
-32.8
 21
-10.0
 31
0.0
1001
GENIUS_GENFIL_13
1070
     0
1040
0.2
1040
0.2
1040
0.0
1040
0.0
1002
{
1002
}
  0
LINE
  5
118
100
AcDbEntity
  8
0
100
AcDbLine
 39
0.0
 10
-33.0
 20
-11.0
 30
0.0
 11
-33.5945
 21
-11.0
 31
0.0
  0
LINE
  5
119
100
AcDbEntity
  8
0
100
AcDbLine
 39
0.0
 10
-33.0
 20
11.35
 30
0.0
 11
-47.0
 21
11.35
 31
0.0
  0
ARC
  5
11A
100
AcDbEntity
  8
0
100
AcDbCircle
 10
-44.0
 20
28.08
 30
0.0
 40
20.0
100
AcDbArc
 50
270.0
 51
301.3506
  0
LINE
  5
11B
100
AcDbEntity
  8
0
  6
CONTINUOUS
100
AcDbLine
 39
0.0
 10
-47.0
 20
9.35
 30
0.0
 11
-47.0
 21
16.0
 31
0.0
  0
LINE
  5
11C
100
AcDbEntity
  8
0
  6
CONTINUOUS
100
AcDbLine
 39
0.0
 10
-33.0
 20
10.2
 30
0.0
 11
-33.0
 21
11.35
 31
0.0
  0
LINE
  5
11D
100
AcDbEntity
  8
0
  6
CONTINUOUS
100
AcDbLine
 39
0.0
 10
-33.0
 20
10.2
 30
0.0
 11
-32.8
 21
10.0
 31
0.0
1001
GENIUS_GENFIL_13
1070
     0
1040
0.2
1040
0.2
1040
0.0
1040
0.0
1002
{
1002
}
  0
LINE
  5
11E
100
AcDbEntity
  8
0
100
AcDbLine
 39
0.0
 10
-33.0
 20
11.0
 30
0.0
 11
-33.5945
 21
11.0
 31
0.0
  0
LINE
  5
11F
100
AcDbEntity
  8
0
  6
CONTINUOUS
100
AcDbLine
 39
0.0
 10
-36.75
 20
17.0
 30
0.0
 11
-36.75
 21
18.0
 31
0.0
  0
LINE
  5
120
100
AcDbEntity
  8
0
  6
CONTINUOUS
100
AcDbLine
 39
0.0
 10
-29.0
 20
-17.0
 30
0.0
 11
-30.0
 21
-18.0
 31
0.0
1001
GENIUS_GENFIL_13
1070
     0
1040
1.0
1040
1.0
1040
0.0
1040
0.0
1002
{
1002
}
  0
LINE
  5
121
100
AcDbEntity
  8
0
  6
CONTINUOUS
100
AcDbLine
 39
0.0
 10
-29.0
 20
-17.0
 30
0.0
 11
-29.0
 21
17.0
 31
0.0
  0
LINE
  5
122
100
AcDbEntity
  8
0
  6
CONTINUOUS
100
AcDbLine
 39
0.0
 10
-29.2
 20
-10.0
 30
0.0
 11
-29.0
 21
-10.2
 31
0.0
1001
GENIUS_GENFIL_13
1070
     0
1040
0.2
1040
0.2
1040
0.0
1040
0.0
1002
{
1002
}
  0
LINE
  5
123
100
AcDbEntity
  8
0
100
AcDbLine
 39
0.0
 10
-28.0
 20
-11.0
 30
0.0
 11
-29.0
 21
-11.0
 31
0.0
  0
LINE
  5
124
100
AcDbEntity
  8
0
  6
CONTINUOUS
100
AcDbLine
 39
0.0
 10
-29.2
 20
10.0
 30
0.0
 11
-29.0
 21
10.2
 31
0.0
1001
GENIUS_GENFIL_13
1070
     0
1040
0.2
1040
0.2
1040
0.0
1040
0.0
1002
{
1002
}
  0
LINE
  5
125
100
AcDbEntity
  8
0
100
AcDbLine
 39
0.0
 10
-28.0
 20
11.0
 30
0.0
 11
-29.0
 21
11.0
 31
0.0
  0
LINE
  5
126
100
AcDbEntity
  8
0
  6
CONTINUOUS
100
AcDbLine
 39
0.0
 10
-30.0
 20
18.0
 30
0.0
 11
-29.0
 21
17.0
 31
0.0
1001
GENIUS_GENFIL_13
1070
     0
1040
1.0
1040
1.0
1040
0.0
1040
0.0
1002
{
1002
}
  0
INSERT
  5
127
100
AcDbEntity
  8
8
  6
CONTINUOUS
100
AcDbBlockReference
  2
*U12
 10
-229.2726
 20
50.6257
 30
0.0
 41
1.0
 42
1.0
 43
1.0
 50
0.0
 70
     0
 71
     0
 44
0.0
 45
0.0
1001
GENIUS_GENODEF_13
1002
{
1000
HIER
1070
     0
1002
}
1002
{
1000
MANEDIT
1070
     0
1002
}
1002
{
1000
NOSEL
1070
     0
1002
}
1002
{
1000
BEHIND
1070
     0
1002
}
1002
{
1000
REACTOR
1002
}
1001
GENIUS_GENOBJ-N-HTC_13
1002
{
1000
OWNER
1000
GEN
1002
}
1001
GENIUS_GENHATCH_13
1002
{
1000
DATA
1040
45.0
1042
1.0
1000
_U
1070
     0
1011
-89.1709
1021
17.5061
1031
0.0
1002
}
1002
{
1000
UCS
1010
0.0
1020
0.0
1030
0.0
1010
1.0
1020
0.0
1030
0.0
1010
0.0
1020
1.0
1030
0.0
1002
}
1001
ACAD
1000
HATCH
1002
{
1070
    19
1000
_U
1040
1.0
1040
0.7854
1070
     0
1002
}
  0
ENDBLK
  5
15C
100
AcDbEntity
  8
0
100
AcDbBlockEnd
  0
BLOCK
  5
250
100
AcDbEntity
  8
0
100
AcDbBlockBegin
  2
SLK0207
 70
    64
 10
0.0
 20
0.0
 30
0.0
  3
SLK0207
  1

  0
TEXT
  5
24D
100
AcDbEntity
  8
6
100
AcDbText
  1
910609
 10
1.2274
 20
0.0
 30
0.0
 40
3.5131
 41
0.9523
100
AcDbText
  0
TEXT
  5
24E
100
AcDbEntity
  8
6
100
AcDbText
  1
Mod.2
 10
1.2274
 20
12.0
 30
0.0
 40
3.5131
 41
0.9523
100
AcDbText
  0
TEXT
  5
24F
100
AcDbEntity
  8
6
100
AcDbText
  1
1/2"
 10
1.2274
 20
6.0
 30
0.0
 40
3.5131
 41
0.9523
100
AcDbText
  0
ENDBLK
  5
251
100
AcDbEntity
  8
0
100
AcDbBlockEnd
  0
BLOCK
  5
6D
100
AcDbEntity
  8
0
100
AcDbBlockBegin
  2
SLK0203
 70
    64
 10
0.0
 20
0.0
 30
0.0
  3
SLK0203
  1

  0
INSERT
  5
3C
100
AcDbEntity
  8
0
100
AcDbBlockReference
  2
SLK0201
 10
0.0
 20
0.0
 30
0.0
 41
1.0
 42
1.0
 43
1.0
 50
0.0
 70
     0
 71
     0
 44
0.0
 45
0.0
  0
TEXT
  5
54
100
AcDbEntity
  8
6
100
AcDbText
  1
910653
 10
-158.6908
 20
0.7463
 30
0.0
 40
3.5131
 41
0.9523
100
AcDbText
  0
TEXT
  5
56
100
AcDbEntity
  8
6
100
AcDbText
  1
923842
 10
-89.3092
 20
0.7463
 30
0.0
 40
3.5131
 41
0.9523
100
AcDbText
  0
LINE
  5
57
100
AcDbEntity
  8
7
100
AcDbLine
 39
0.0
 10
1.0
 20
0.0
 30
0.0
 11
-1.0
 21
0.0
 31
0.0
  0
LINE
  5
58
100
AcDbEntity
  8
7
100
AcDbLine
 39
0.0
 10
0.0
 20
1.0
 30
0.0
 11
0.0
 21
-1.0
 31
0.0
  0
INSERT
  5
59
100
AcDbEntity
  8
0
100
AcDbBlockReference
  2
SLK0202
 10
-179.4
 20
0.0
 30
0.0
 41
1.0
 42
1.0
 43
1.0
 50
0.0
 70
     0
 71
     0
 44
0.0
 45
0.0
  0
ENDBLK
  5
6E
100
AcDbEntity
  8
0
100
AcDbBlockEnd
  0
BLOCK
  5
249
100
AcDbEntity
  8
0
100
AcDbBlockBegin
  2
SLK0206
 70
    64
 10
0.0
 20
0.0
 30
0.0
  3
SLK0206
  1

  0
TEXT
  5
71
100
AcDbEntity
  8
6
100
AcDbText
  1
910653
 10
-158.6908
 20
15.1939
 30
0.0
 40
3.5131
 41
0.9523
100
AcDbText
  0
TEXT
  5
72
100
AcDbEntity
  8
6
100
AcDbText
  1
923842
 10
-89.3092
 20
0.7463
 30
0.0
 40
3.5131
 41
0.9523
100
AcDbText
  0
LINE
  5
73
100
AcDbEntity
  8
7
100
AcDbLine
 39
0.0
 10
1.0
 20
0.0
 30
0.0
 11
-1.0
 21
0.0
 31
0.0
  0
LINE
  5
74
100
AcDbEntity
  8
7
100
AcDbLine
 39
0.0
 10
0.0
 20
1.0
 30
0.0
 11
0.0
 21
-1.0
 31
0.0
  0
INSERT
  5
75
100
AcDbEntity
  8
0
100
AcDbBlockReference
  2
SLK0205
 10
0.0
 20
0.0
 30
0.0
 41
1.0
 42
1.0
 43
1.0
 50
0.0
 70
     0
 71
     0
 44
0.0
 45
0.0
  0
INSERT
  5
15D
100
AcDbEntity
  8
0
100
AcDbBlockReference
  2
SLK0204
 10
-179.9
 20
0.0
 30
0.0
 41
1.0
 42
1.0
 43
1.0
 50
0.0
 70
     0
 71
     0
 44
0.0
 45
0.0
  0
ENDBLK
  5
24A
100
AcDbEntity
  8
0
100
AcDbBlockEnd
  0
BLOCK
  5
159
100
AcDbEntity
  8
0
100
AcDbBlockBegin
  2
*U12
 70
    65
 10
78.3687
 20
170.6095
 30
0.0
  3
*U12
  1
*U
  0
LINE
  5
129
100
AcDbEntity
  8
0
  6
CONTINUOUS
 62
     0
100
AcDbLine
 39
0.0
 10
235.7118
 20
137.0338
 30
0.0
 11
236.6618
 21
137.9838
 31
0.0
  0
LINE
  5
12A
100
AcDbEntity
  8
0
  6
CONTINUOUS
 62
     0
100
AcDbLine
 39
0.0
 10
234.2976
 20
137.0338
 30
0.0
 11
235.2476
 21
137.9838
 31
0.0
  0
LINE
  5
12B
100
AcDbEntity
  8
0
  6
CONTINUOUS
 62
     0
100
AcDbLine
 39
0.0
 10
232.8834
 20
137.0338
 30
0.0
 11
233.8334
 21
137.9838
 31
0.0
  0
LINE
  5
12C
100
AcDbEntity
  8
0
  6
CONTINUOUS
 62
     0
100
AcDbLine
 39
0.0
 10
231.4692
 20
137.0338
 30
0.0
 11
232.4192
 21
137.9838
 31
0.0
  0
LINE
  5
12D
100
AcDbEntity
  8
0
  6
CONTINUOUS
 62
     0
100
AcDbLine
 39
0.0
 10
230.055
 20
137.0338
 30
0.0
 11
231.005
 21
137.9838
 31
0.0
  0
LINE
  5
12E
100
AcDbEntity
  8
0
  6
CONTINUOUS
 62
     0
100
AcDbLine
 39
0.0
 10
228.6408
 20
137.0338
 30
0.0
 11
229.5908
 21
137.9838
 31
0.0
  0
LINE
  5
12F
100
AcDbEntity
  8
0
  6
CONTINUOUS
 62
     0
100
AcDbLine
 39
0.0
 10
227.2265
 20
137.0338
 30
0.0
 11
228.1765
 21
137.9838
 31
0.0
  0
LINE
  5
130
100
AcDbEntity
  8
0
  6
CONTINUOUS
 62
     0
100
AcDbLine
 39
0.0
 10
225.8123
 20
137.0338
 30
0.0
 11
226.7623
 21
137.9838
 31
0.0
  0
LINE
  5
131
100
AcDbEntity
  8
0
  6
CONTINUOUS
 62
     0
100
AcDbLine
 39
0.0
 10
224.3981
 20
137.0338
 30
0.0
 11
225.3481
 21
137.9838
 31
0.0
  0
LINE
  5
132
100
AcDbEntity
  8
0
  6
CONTINUOUS
 62
     0
100
AcDbLine
 39
0.0
 10
222.9839
 20
137.0338
 30
0.0
 11
223.9339
 21
137.9838
 31
0.0
  0
LINE
  5
133
100
AcDbEntity
  8
0
  6
CONTINUOUS
 62
     0
100
AcDbLine
 39
0.0
 10
221.5697
 20
137.0338
 30
0.0
 11
222.5197
 21
137.9838
 31
0.0
  0
LINE
  5
134
100
AcDbEntity
  8
0
  6
CONTINUOUS
 62
     0
100
AcDbLine
 39
0.0
 10
220.1555
 20
137.0338
 30
0.0
 11
221.1055
 21
137.9838
 31
0.0
  0
LINE
  5
135
100
AcDbEntity
  8
0
  6
CONTINUOUS
 62
     0
100
AcDbLine
 39
0.0
 10
218.7413
 20
137.0338
 30
0.0
 11
219.6913
 21
137.9838
 31
0.0
  0
LINE
  5
136
100
AcDbEntity
  8
0
  6
CONTINUOUS
 62
     0
100
AcDbLine
 39
0.0
 10
217.3271
 20
137.0338
 30
0.0
 11
218.2771
 21
137.9838
 31
0.0
  0
LINE
  5
137
100
AcDbEntity
  8
0
  6
CONTINUOUS
 62
     0
100
AcDbLine
 39
0.0
 10
215.9128
 20
137.0338
 30
0.0
 11
216.8628
 21
137.9838
 31
0.0
  0
LINE
  5
138
100
AcDbEntity
  8
0
  6
CONTINUOUS
 62
     0
100
AcDbLine
 39
0.0
 10
214.4986
 20
137.0338
 30
0.0
 11
215.4486
 21
137.9838
 31
0.0
  0
LINE
  5
139
100
AcDbEntity
  8
0
  6
CONTINUOUS
 62
     0
100
AcDbLine
 39
0.0
 10
213.0844
 20
137.0338
 30
0.0
 11
214.0344
 21
137.9838
 31
0.0
  0
LINE
  5
13A
100
AcDbEntity
  8
0
  6
CONTINUOUS
 62
     0
100
AcDbLine
 39
0.0
 10
211.6702
 20
137.0338
 30
0.0
 11
212.6202
 21
137.9838
 31
0.0
  0
LINE
  5
13B
100
AcDbEntity
  8
0
  6
CONTINUOUS
 62
     0
100
AcDbLine
 39
0.0
 10
210.256
 20
137.0338
 30
0.0
 11
211.206
 21
137.9838
 31
0.0
  0
LINE
  5
13C
100
AcDbEntity
  8
0
  6
CONTINUOUS
 62
     0
100
AcDbLine
 39
0.0
 10
208.8418
 20
137.0338
 30
0.0
 11
209.7918
 21
137.9838
 31
0.0
  0
LINE
  5
13D
100
AcDbEntity
  8
0
  6
CONTINUOUS
 62
     0
100
AcDbLine
 39
0.0
 10
207.4276
 20
137.0338
 30
0.0
 11
208.3776
 21
137.9838
 31
0.0
  0
LINE
  5
13E
100
AcDbEntity
  8
0
  6
CONTINUOUS
 62
     0
100
AcDbLine
 39
0.0
 10
206.0133
 20
137.0338
 30
0.0
 11
206.9633
 21
137.9838
 31
0.0
  0
LINE
  5
13F
100
AcDbEntity
  8
0
  6
CONTINUOUS
 62
     0
100
AcDbLine
 39
0.0
 10
204.5991
 20
137.0338
 30
0.0
 11
205.5491
 21
137.9838
 31
0.0
  0
LINE
  5
140
100
AcDbEntity
  8
0
  6
CONTINUOUS
 62
     0
100
AcDbLine
 39
0.0
 10
203.3914
 20
137.2402
 30
0.0
 11
204.1349
 21
137.9838
 31
0.0
  0
LINE
  5
141
100
AcDbEntity
  8
0
  6
CONTINUOUS
 62
     0
100
AcDbLine
 39
0.0
 10
237.126
 20
137.0338
 30
0.0
 11
238.076
 21
137.9838
 31
0.0
  0
LINE
  5
142
100
AcDbEntity
  8
0
  6
CONTINUOUS
 62
     0
100
AcDbLine
 39
0.0
 10
238.5403
 20
137.0338
 30
0.0
 11
239.4903
 21
137.9838
 31
0.0
  0
LINE
  5
143
100
AcDbEntity
  8
0
  6
CONTINUOUS
 62
     0
100
AcDbLine
 39
0.0
 10
239.9545
 20
137.0338
 30
0.0
 11
240.9045
 21
137.9838
 31
0.0
  0
LINE
  5
144
100
AcDbEntity
  8
0
  6
CONTINUOUS
 62
     0
100
AcDbLine
 39
0.0
 10
241.3687
 20
137.0338
 30
0.0
 11
242.3187
 21
137.9838
 31
0.0
  0
LINE
  5
145
100
AcDbEntity
  8
0
  6
CONTINUOUS
 62
     0
100
AcDbLine
 39
0.0
 10
242.7829
 20
137.0338
 30
0.0
 11
243.7329
 21
137.9838
 31
0.0
  0
LINE
  5
146
100
AcDbEntity
  8
0
  6
CONTINUOUS
 62
     0
100
AcDbLine
 39
0.0
 10
244.1971
 20
137.0338
 30
0.0
 11
245.1471
 21
137.9838
 31
0.0
  0
LINE
  5
147
100
AcDbEntity
  8
0
  6
CONTINUOUS
 62
     0
100
AcDbLine
 39
0.0
 10
245.6113
 20
137.0338
 30
0.0
 11
246.5613
 21
137.9838
 31
0.0
  0
LINE
  5
148
100
AcDbEntity
  8
0
  6
CONTINUOUS
 62
     0
100
AcDbLine
 39
0.0
 10
247.0255
 20
137.0338
 30
0.0
 11
247.9755
 21
137.9838
 31
0.0
  0
LINE
  5
149
100
AcDbEntity
  8
0
  6
CONTINUOUS
 62
     0
100
AcDbLine
 39
0.0
 10
248.4398
 20
137.0338
 30
0.0
 11
249.3898
 21
137.9838
 31
0.0
  0
LINE
  5
14A
100
AcDbEntity
  8
0
  6
CONTINUOUS
 62
     0
100
AcDbLine
 39
0.0
 10
249.854
 20
137.0338
 30
0.0
 11
250.804
 21
137.9838
 31
0.0
  0
LINE
  5
14B
100
AcDbEntity
  8
0
  6
CONTINUOUS
 62
     0
100
AcDbLine
 39
0.0
 10
251.2682
 20
137.0338
 30
0.0
 11
252.2182
 21
137.9838
 31
0.0
  0
LINE
  5
14C
100
AcDbEntity
  8
0
  6
CONTINUOUS
 62
     0
100
AcDbLine
 39
0.0
 10
252.6824
 20
137.0338
 30
0.0
 11
253.6324
 21
137.9838
 31
0.0
  0
LINE
  5
14D
100
AcDbEntity
  8
0
  6
CONTINUOUS
 62
     0
100
AcDbLine
 39
0.0
 10
254.0966
 20
137.0338
 30
0.0
 11
255.0466
 21
137.9838
 31
0.0
  0
LINE
  5
14E
100
AcDbEntity
  8
0
  6
CONTINUOUS
 62
     0
100
AcDbLine
 39
0.0
 10
255.5108
 20
137.0338
 30
0.0
 11
256.4608
 21
137.9838
 31
0.0
  0
LINE
  5
14F
100
AcDbEntity
  8
0
  6
CONTINUOUS
 62
     0
100
AcDbLine
 39
0.0
 10
256.925
 20
137.0338
 30
0.0
 11
257.875
 21
137.9838
 31
0.0
  0
LINE
  5
150
100
AcDbEntity
  8
0
  6
CONTINUOUS
 62
     0
100
AcDbLine
 39
0.0
 10
258.3392
 20
137.0338
 30
0.0
 11
259.2892
 21
137.9838
 31
0.0
  0
LINE
  5
151
100
AcDbEntity
  8
0
  6
CONTINUOUS
 62
     0
100
AcDbLine
 39
0.0
 10
259.7535
 20
137.0338
 30
0.0
 11
260.7035
 21
137.9838
 31
0.0
  0
LINE
  5
152
100
AcDbEntity
  8
0
  6
CONTINUOUS
 62
     0
100
AcDbLine
 39
0.0
 10
261.1677
 20
137.0338
 30
0.0
 11
262.1177
 21
137.9838
 31
0.0
  0
LINE
  5
153
100
AcDbEntity
  8
0
  6
CONTINUOUS
 62
     0
100
AcDbLine
 39
0.0
 10
262.5819
 20
137.0338
 30
0.0
 11
263.5319
 21
137.9838
 31
0.0
  0
LINE
  5
154
100
AcDbEntity
  8
0
  6
CONTINUOUS
 62
     0
100
AcDbLine
 39
0.0
 10
263.9961
 20
137.0338
 30
0.0
 11
264.9461
 21
137.9838
 31
0.0
  0
LINE
  5
155
100
AcDbEntity
  8
0
  6
CONTINUOUS
 62
     0
100
AcDbLine
 39
0.0
 10
265.4103
 20
137.0338
 30
0.0
 11
266.3603
 21
137.9838
 31
0.0
  0
LINE
  5
156
100
AcDbEntity
  8
0
  6
CONTINUOUS
 62
     0
100
AcDbLine
 39
0.0
 10
266.8245
 20
137.0338
 30
0.0
 11
267.7745
 21
137.9838
 31
0.0
  0
LINE
  5
157
100
AcDbEntity
  8
0
  6
CONTINUOUS
 62
     0
100
AcDbLine
 39
0.0
 10
268.2387
 20
137.0338
 30
0.0
 11
269.1887
 21
137.9838
 31
0.0
  0
LINE
  5
158
100
AcDbEntity
  8
0
  6
CONTINUOUS
 62
     0
100
AcDbLine
 39
0.0
 10
269.653
 20
137.0338
 30
0.0
 11
270.603
 21
137.9838
 31
0.0
  0
ENDBLK
  5
15A
100
AcDbEntity
  8
0
100
AcDbBlockEnd
  0
BLOCK
  5
38
100
AcDbEntity
  8
0
100
AcDbBlockBegin
  2
*D13
 70
    65
 10
0.0
 20
0.0
 30
0.0
  3
*D13
  1
GEVFRAME
  0
LINE
  5
2F
100
AcDbEntity
  8
0
  6
BYBLOCK
100
AcDbLine
 39
0.0
 10
127.7414
 20
183.5138
 30
0.0
 11
127.7414
 21
204.3376
 31
0.0
  0
LINE
  5
30
100
AcDbEntity
  8
0
  6
BYBLOCK
100
AcDbLine
 39
0.0
 10
307.6414
 20
171.9838
 30
0.0
 11
307.6414
 21
204.3376
 31
0.0
  0
LINE
  5
31
100
AcDbEntity
  8
0
  6
BYBLOCK
100
AcDbLine
 39
0.0
 10
130.2414
 20
203.3376
 30
0.0
 11
305.1414
 21
203.3376
 31
0.0
  0
SOLID
  5
32
100
AcDbEntity
  8
0
  6
BYBLOCK
100
AcDbTrace
 10
130.2414
 20
203.7542
 30
0.0
 11
130.2414
 21
202.9209
 31
0.0
 12
127.7414
 22
203.3376
 32
0.0
 13
127.7414
 23
203.3376
 33
0.0
  0
SOLID
  5
33
100
AcDbEntity
  8
0
  6
BYBLOCK
100
AcDbTrace
 10
305.1414
 20
203.7542
 30
0.0
 11
305.1414
 21
202.9209
 31
0.0
 12
307.6414
 22
203.3376
 32
0.0
 13
307.6414
 23
203.3376
 33
0.0
  0
MTEXT
  5
34
100
AcDbEntity
  8
0
  6
BYBLOCK
 62
     2
100
AcDbMText
 10
217.6914
 20
205.6876
 30
0.0
 40
3.5
 41
0.0
 50
0.0
 71
     5
 72
     1
  1
180
 90
        0
 75
     0
 78
     0
 79
     0
 48
0.0
 49
0.0
  0
POINT
  5
35
100
AcDbEntity
  8
DEFPOINTS
  6
BYBLOCK
 62
     0
100
AcDbPoint
 10
127.7414
 20
182.5138
 30
0.0
  0
POINT
  5
36
100
AcDbEntity
  8
DEFPOINTS
  6
BYBLOCK
 62
     0
100
AcDbPoint
 10
307.6414
 20
170.9838
 30
0.0
  0
POINT
  5
37
100
AcDbEntity
  8
DEFPOINTS
  6
BYBLOCK
 62
     0
100
AcDbPoint
 10
307.6414
 20
203.3376
 30
0.0
  0
ENDBLK
  5
39
100
AcDbEntity
  8
0
100
AcDbBlockEnd
  0
BLOCK
  5
2A
100
AcDbEntity
  8
0
100
AcDbBlockBegin
  2
*D14
 70
    65
 10
0.0
 20
0.0
 30
0.0
  3
*D14
  1
GEVFRAME
  0
LINE
  5
20
100
AcDbEntity
  8
0
  6
BYBLOCK
100
AcDbLine
 39
0.0
 10
209.6414
 20
103.2338
 30
0.0
 11
209.6414
 21
89.5019
 31
0.0
  0
LINE
  5
21
100
AcDbEntity
  8
0
  6
BYBLOCK
100
AcDbLine
 39
0.0
 10
260.6414
 20
102.9838
 30
0.0
 11
260.6414
 21
89.5019
 31
0.0
  0
LINE
  5
22
100
AcDbEntity
  8
0
  6
BYBLOCK
100
AcDbLine
 39
0.0
 10
212.1414
 20
90.5019
 30
0.0
 11
258.1414
 21
90.5019
 31
0.0
  0
SOLID
  5
23
100
AcDbEntity
  8
0
  6
BYBLOCK
100
AcDbTrace
 10
212.1414
 20
90.9186
 30
0.0
 11
212.1414
 21
90.0853
 31
0.0
 12
209.6414
 22
90.5019
 32
0.0
 13
209.6414
 23
90.5019
 33
0.0
  0
SOLID
  5
24
100
AcDbEntity
  8
0
  6
BYBLOCK
100
AcDbTrace
 10
258.1414
 20
90.9186
 30
0.0
 11
258.1414
 21
90.0853
 31
0.0
 12
260.6414
 22
90.5019
 32
0.0
 13
260.6414
 23
90.5019
 33
0.0
  0
MTEXT
  5
25
100
AcDbEntity
  8
0
  6
BYBLOCK
 62
     2
100
AcDbMText
 10
235.1414
 20
92.8519
 30
0.0
 40
3.5
 41
0.0
 50
0.0
 71
     5
 72
     1
  1
50
 90
        0
 75
     0
 78
     0
 79
     0
 48
0.0
 49
0.0
  0
POINT
  5
26
100
AcDbEntity
  8
DEFPOINTS
  6
BYBLOCK
 62
     0
100
AcDbPoint
 10
209.6414
 20
104.2338
 30
0.0
  0
POINT
  5
28
100
AcDbEntity
  8
DEFPOINTS
  6
BYBLOCK
 62
     0
100
AcDbPoint
 10
260.6414
 20
103.9838
 30
0.0
  0
POINT
  5
29
100
AcDbEntity
  8
DEFPOINTS
  6
BYBLOCK
 62
     0
100
AcDbPoint
 10
260.6414
 20
90.5019
 30
0.0
  0
ENDBLK
  5
2B
100
AcDbEntity
  8
0
100
AcDbBlockEnd
  0
ENDSEC
  0
SECTION
  2
ENTITIES
  0
DIMENSION
  5
1D
100
AcDbEntity
  8
5
100
AcDbDimension
  2
*D14
 10
260.6414
 20
90.5019
 30
0.0
 11
235.1414
 21
92.8519
 31
0.0
 70
     0
  1
50
 71
     0
 42
0.0
 53
0.0
  3
GEN-ISO
100
AcDbAlignedDimension
 13
209.6414
 23
104.2338
 33
0.0
 14
260.6414
 24
103.9838
 34
0.0
 50
0.0
100
AcDbRotatedDimension
1001
GENIUS_GENDTOL_13
1000

1000
h9
1000

1040
0.0
  0
DIMENSION
  5
2D
100
AcDbEntity
  8
5
100
AcDbDimension
  2
*D13
 10
307.6414
 20
203.3376
 30
0.0
 11
217.6914
 21
205.6876
 31
0.0
 70
     0
  1
<>
 71
     0
 42
0.0
 53
0.0
  3
GEN-ISO
100
AcDbAlignedDimension
 13
127.7414
 23
182.5138
 33
0.0
 14
307.6414
 24
170.9838
 34
0.0
 50
0.0
100
AcDbRotatedDimension
1001
ACAD
1000
DSTYLE
1002
{
1070
   271
1070
     0
1002
}
1001
GENIUS_GENDTOL_13
1000

1000
h9
1000

1040
0.0
  0
INSERT
  5
3A
100
AcDbEntity
  8
0
100
AcDbBlockReference
  2
SLK0203
 10
307.6414
 20
169.9838
 30
0.0
 41
1.0
 42
1.0
 43
1.0
 50
0.0
 70
     0
 71
     0
 44
0.0
 45
0.0
  0
INSERT
  5
6F
100
AcDbEntity
  8
0
100
AcDbBlockReference
  2
SLK0206
 10
307.6414
 20
119.9838
 30
0.0
 41
1.0
 42
1.0
 43
1.0
 50
0.0
 70
     0
 71
     0
 44
0.0
 45
0.0
  0
INSERT
  5
24B
100
AcDbEntity
  8
0
100
AcDbBlockReference
  2
SLK0207
 10
150.4251
 20
76.7807
 30
0.0
 41
1.0
 42
1.0
 43
1.0
 50
0.0
 70
     0
 71
     0
 44
0.0
 45
0.0
  0
ENDSEC
  0
SECTION
  2
OBJECTS
  0
DICTIONARY
  5
1A
100
AcDbDictionary
280
     0
281
     0
  3
ACAD_GROUP
350
18
  3
ACAD_MLINESTYLE
350
19
  0
DICTIONARY
  5
18
102
{ACAD_REACTORS
330
1A
102
}
100
AcDbDictionary
280
     0
281
     0
  0
DICTIONARY
  5
19
102
{ACAD_REACTORS
330
1A
102
}
100
AcDbDictionary
280
     0
281
     0
  3
STANDARD
350
1B
  0
MLINESTYLE
  5
1B
102
{ACAD_REACTORS
330
19
102
}
100
AcDbMlineStyle
  2
STANDARD
 70
     0
  3

 62
     0
 51
90.0
 52
90.0
 71
     2
 49
0.5
 62
   256
  6
BYLAYER
 49
-0.5
 62
   256
  6
BYLAYER
  0
ENDSEC
  0
EOF
