  0
SECTION
  2
HEADER
  9
$ACADVER
  1
AC1012
  9
$DWGCODEPAGE
  3
ansi_1252
  9
$INSBASE
 10
82.411798
 20
46.425538
 30
0.0
  9
$EXTMIN
 10
109.392877
 20
76.785724
 30
0.0
  9
$EXTMAX
 10
308.641359
 20
207.263934
 30
0.0
  9
$LIMMIN
 10
0.0
 20
0.0
  9
$LIMMAX
 10
420.0
 20
297.0
  9
$ORTHOMODE
 70
     0
  9
$REGENMODE
 70
     1
  9
$FILLMODE
 70
     1
  9
$QTEXTMODE
 70
     0
  9
$MIRRTEXT
 70
     1
  9
$DRAGMODE
 70
     2
  9
$LTSCALE
 40
1.0
  9
$OSMODE
 70
  2551
  9
$ATTMODE
 70
     1
  9
$TEXTSIZE
 40
1.0
  9
$TRACEWID
 40
0.05
  9
$TEXTSTYLE
  7
STANDARD
  9
$CLAYER
  8
0
  9
$CELTYPE
  6
CONTINUOUS
  9
$CECOLOR
 62
   256
  9
$CELTSCALE
 40
1.0
  9
$DELOBJ
 70
     1
  9
$DISPSILH
 70
     0
  9
$DIMSCALE
 40
1.0
  9
$DIMASZ
 40
2.5
  9
$DIMEXO
 40
1.0
  9
$DIMDLI
 40
7.0
  9
$DIMRND
 40
0.0
  9
$DIMDLE
 40
0.0
  9
$DIMEXE
 40
1.0
  9
$DIMTP
 40
0.1
  9
$DIMTM
 40
0.1
  9
$DIMTXT
 40
3.5
  9
$DIMCEN
 40
0.0
  9
$DIMTSZ
 40
0.0
  9
$DIMTOL
 70
     0
  9
$DIMLIM
 70
     0
  9
$DIMTIH
 70
     0
  9
$DIMTOH
 70
     0
  9
$DIMSE1
 70
     0
  9
$DIMSE2
 70
     0
  9
$DIMTAD
 70
     1
  9
$DIMZIN
 70
     0
  9
$DIMBLK
  1

  9
$DIMASO
 70
     1
  9
$DIMSHO
 70
     1
  9
$DIMPOST
  1
<>
  9
$DIMAPOST
  1

  9
$DIMALT
 70
     0
  9
$DIMALTD
 70
     2
  9
$DIMALTF
 40
0.03937
  9
$DIMLFAC
 40
1.0
  9
$DIMTOFL
 70
     1
  9
$DIMTVP
 40
0.0
  9
$DIMTIX
 70
     0
  9
$DIMSOXD
 70
     0
  9
$DIMSAH
 70
     0
  9
$DIMBLK1
  1

  9
$DIMBLK2
  1

  9
$DIMSTYLE
  2
GEN-ISO
  9
$DIMCLRD
 70
   256
  9
$DIMCLRE
 70
   256
  9
$DIMCLRT
 70
     2
  9
$DIMTFAC
 40
0.71
  9
$DIMGAP
 40
0.6
  9
$DIMJUST
 70
     0
  9
$DIMSD1
 70
     0
  9
$DIMSD2
 70
     0
  9
$DIMTOLJ
 70
     0
  9
$DIMTZIN
 70
     0
  9
$DIMALTZ
 70
     0
  9
$DIMALTTZ
 70
     0
  9
$DIMFIT
 70
     3
  9
$DIMUPT
 70
     0
  9
$DIMUNIT
 70
     2
  9
$DIMDEC
 70
     2
  9
$DIMTDEC
 70
     3
  9
$DIMALTU
 70
     2
  9
$DIMALTTD
 70
     4
  9
$DIMTXSTY
  7
STANDARD
  9
$DIMAUNIT
 70
     0
  9
$LUNITS
 70
     2
  9
$LUPREC
 70
     2
  9
$SKETCHINC
 40
0.1
  9
$FILLETRAD
 40
2.5
  9
$AUNITS
 70
     0
  9
$AUPREC
 70
     0
  9
$MENU
  1
.
  9
$ELEVATION
 40
0.0
  9
$PELEVATION
 40
0.0
  9
$THICKNESS
 40
0.0
  9
$LIMCHECK
 70
     0
  9
$BLIPMODE
 70
     0
  9
$CHAMFERA
 40
2.5
  9
$CHAMFERB
 40
2.5
  9
$CHAMFERC
 40
0.0
  9
$CHAMFERD
 40
0.0
  9
$SKPOLY
 70
     0
  9
$TDCREATE
 40
2410739.666667002
  9
$TDUPDATE
 40
2450899.432975810
  9
$TDINDWG
 40
0.0832730671
  9
$TDUSRTIMER
 40
0.0781920718
  9
$USRTIMER
 70
     1
  9
$ANGBASE
 50
0.0
  9
$ANGDIR
 70
     0
  9
$PDMODE
 70
     0
  9
$PDSIZE
 40
0.0
  9
$PLINEWID
 40
0.0
  9
$COORDS
 70
     1
  9
$SPLFRAME
 70
     0
  9
$SPLINETYPE
 70
     6
  9
$SPLINESEGS
 70
     8
  9
$ATTDIA
 70
     1
  9
$ATTREQ
 70
     1
  9
$HANDLING
 70
     1
  9
$HANDSEED
  5
25F
  9
$SURFTAB1
 70
     6
  9
$SURFTAB2
 70
     6
  9
$SURFTYPE
 70
     6
  9
$SURFU
 70
     6
  9
$SURFV
 70
     6
  9
$UCSNAME
  2

  9
$UCSORG
 10
0.0
 20
0.0
 30
0.0
  9
$UCSXDIR
 10
1.0
 20
0.0
 30
0.0
  9
$UCSYDIR
 10
0.0
 20
1.0
 30
0.0
  9
$PUCSNAME
  2

  9
$PUCSORG
 10
0.0
 20
0.0
 30
0.0
  9
$PUCSXDIR
 10
1.0
 20
0.0
 30
0.0
  9
$PUCSYDIR
 10
0.0
 20
1.0
 30
0.0
  9
$USERI1
 70
     0
  9
$USERI2
 70
     0
  9
$USERI3
 70
     0
  9
$USERI4
 70
     0
  9
$USERI5
 70
     0
  9
$USERR1
 40
0.0
  9
$USERR2
 40
0.0
  9
$USERR3
 40
0.0
  9
$USERR4
 40
0.0
  9
$USERR5
 40
0.0
  9
$WORLDVIEW
 70
     1
  9
$SHADEDGE
 70
     3
  9
$SHADEDIF
 70
    70
  9
$TILEMODE
 70
     1
  9
$MAXACTVP
 70
    16
  9
$PINSBASE
 10
0.0
 20
0.0
 30
0.0
  9
$PLIMCHECK
 70
     0
  9
$PEXTMIN
 10
1.000000E+20
 20
1.000000E+20
 30
1.000000E+20
  9
$PEXTMAX
 10
-1.000000E+20
 20
-1.000000E+20
 30
-1.000000E+20
  9
$PLIMMIN
 10
0.0
 20
0.0
  9
$PLIMMAX
 10
12.0
 20
9.0
  9
$UNITMODE
 70
     0
  9
$VISRETAIN
 70
     0
  9
$PLINEGEN
 70
     0
  9
$PSLTSCALE
 70
     1
  9
$TREEDEPTH
 70
  3020
  9
$PICKSTYLE
 70
     1
  9
$CMLSTYLE
  2
STANDARD
  9
$CMLJUST
 70
     0
  9
$CMLSCALE
 40
1.0
  9
$SAVEIMAGES
 70
     0
  0
ENDSEC
  0
SECTION
  2
CLASSES
  0
ENDSEC
  0
SECTION
  2
TABLES
  0
TABLE
  2
VPORT
  5
12
100
AcDbSymbolTable
 70
     2
  0
VPORT
  5
25E
100
AcDbSymbolTableRecord
100
AcDbViewportTableRecord
  2
*ACTIVE
 70
     0
 10
0.0
 20
0.0
 11
1.0
 21
1.0
 12
208.294333
 22
134.578357
 13
0.0
 23
0.0
 14
1.0
 24
1.0
 15
10.0
 25
10.0
 16
0.0
 26
0.0
 36
1.0
 17
0.0
 27
0.0
 37
0.0
 40
183.578245
 41
1.415865
 42
50.0
 43
0.0
 44
0.0
 50
0.0
 51
0.0
 71
     0
 72
   100
 73
     1
 74
     1
 75
     0
 76
     0
 77
     0
 78
     0
  0
ENDTAB
  0
TABLE
  2
LTYPE
  5
E
100
AcDbSymbolTable
 70
     3
  0
LTYPE
  5
F
100
AcDbSymbolTableRecord
100
AcDbLinetypeTableRecord
  2
BYBLOCK
 70
     0
  3

 72
    65
 73
     0
 40
0.0
  0
LTYPE
  5
6
100
AcDbSymbolTableRecord
100
AcDbLinetypeTableRecord
  2
BYLAYER
 70
     0
  3

 72
    65
 73
     0
 40
0.0
  0
LTYPE
  5
5
100
AcDbSymbolTableRecord
100
AcDbLinetypeTableRecord
  2
CONTINUOUS
 70
    64
  3
Solid line
 72
    65
 73
     0
 40
0.0
  0
LTYPE
  5
62
100
AcDbSymbolTableRecord
100
AcDbLinetypeTableRecord
  2
GEN3
 70
    64
  3
-- -- -- -- -- -- -- -- -- -- -- -- -- -- --
 72
    65
 73
     2
 40
6.25
 49
5.0
 74
     0
 49
-1.25
 74
     0
  0
LTYPE
  5
40
100
AcDbSymbolTableRecord
100
AcDbLinetypeTableRecord
  2
GEN7
 70
    64
  3
____ . ____ . ____ . ____ . ____ . ____ . ____
 72
    65
 73
     4
 40
13.75
 49
10.0
 74
     0
 49
-1.25
 74
     0
 49
1.25
 74
     0
 49
-1.25
 74
     0
  0
ENDTAB
  0
TABLE
  2
LAYER
  5
B
100
AcDbSymbolTable
 70
     8
  0
LAYER
  5
4
100
AcDbSymbolTableRecord
100
AcDbLayerTableRecord
  2
0
 70
     0
 62
     7
  6
CONTINUOUS
  0
LAYER
  5
61
100
AcDbSymbolTableRecord
100
AcDbLayerTableRecord
  2
3
 70
    64
 62
     6
  6
GEN3
  0
LAYER
  5
3F
100
AcDbSymbolTableRecord
100
AcDbLayerTableRecord
  2
7
 70
    64
 62
     4
  6
GEN7
  0
LAYER
  5
55
100
AcDbSymbolTableRecord
100
AcDbLayerTableRecord
  2
6
 70
    64
 62
     2
  6
CONTINUOUS
  0
LAYER
  5
64
100
AcDbSymbolTableRecord
100
AcDbLayerTableRecord
  2
4
 70
    64
 62
     3
  6
CONTINUOUS
  0
LAYER
  5
78
100
AcDbSymbolTableRecord
100
AcDbLayerTableRecord
  2
8
 70
    64
 62
     1
  6
CONTINUOUS
  0
LAYER
  5
1E
100
AcDbSymbolTableRecord
100
AcDbLayerTableRecord
  2
5
 70
    64
 62
     3
  6
CONTINUOUS
  0
LAYER
  5
27
100
AcDbSymbolTableRecord
100
AcDbLayerTableRecord
  2
DEFPOINTS
 70
    64
 62
     7
  6
CONTINUOUS
  0
ENDTAB
  0
TABLE
  2
STYLE
  5
C
100
AcDbSymbolTable
 70
     1
  0
STYLE
  5
D
100
AcDbSymbolTableRecord
100
AcDbTextStyleTableRecord
  2
STANDARD
 70
    64
 40
0.0
 41
1.0
 50
0.0
 71
     0
 42
1.0
  3
GENISO.SHX
  4

  0
ENDTAB
  0
TABLE
  2
VIEW
  5
10
100
AcDbSymbolTable
 70
     0
  0
ENDTAB
  0
TABLE
  2
UCS
  5
11
100
AcDbSymbolTable
 70
     0
  0
ENDTAB
  0
TABLE
  2
APPID
  5
14
100
AcDbSymbolTable
 70
    25
  0
APPID
  5
15
100
AcDbSymbolTableRecord
100
AcDbRegAppTableRecord
  2
ACAD
 70
     0
  0
APPID
  5
AE
100
AcDbSymbolTableRecord
100
AcDbRegAppTableRecord
  2
GENIUS_GENOENT_13
 70
     0
  0
APPID
  5
AD
100
AcDbSymbolTableRecord
100
AcDbRegAppTableRecord
  2
GENIUS_GENOBJ_13
 70
     0
1001
GENIUS_GENODEF_13
1000
GENODEF
1001
GENIUS_GENOENT_13
1000
GENOENT
1001
GENIUS_GENOLIS_13
1000
GENOLIS
1001
GENIUS_GENOREF_13
1000
GENOREF
1001
GENIUS_GENOBJ-N-CRS_13
1000
GENOBJ-N-CRS
1001
GENIUS_GENOBJ-N-TIT_13
1070
     0
1001
GENIUS_GENTITLE_13
1070
     0
1001
GENIUS_GENZVEED_13
1070
     1
1001
GENIUS_GENOBJ-F-SPR_13
1070
     0
1001
GENIUS_GENOBJ-N-RSSYM_13
1070
     1
1001
GENIUS_GENSYMENT_13
1070
     1
1001
GENIUS_GEFSPRING_13
1070
     1
  0
APPID
  5
AC
100
AcDbSymbolTableRecord
100
AcDbRegAppTableRecord
  2
GENIUS_GENODEF_13
 70
     0
1001
GENIUS_GENOBJ_13
1000
GENOBJ
  0
APPID
  5
AF
100
AcDbSymbolTableRecord
100
AcDbRegAppTableRecord
  2
GENIUS_GENOLIS_13
 70
     0
1001
GENIUS_GENOBJ_13
1000
GENOBJ
  0
APPID
  5
B0
100
AcDbSymbolTableRecord
100
AcDbRegAppTableRecord
  2
GENIUS_GENOREF_13
 70
     0
1001
GENIUS_GENOBJ_13
1000
GENOBJ
  0
APPID
  5
B1
100
AcDbSymbolTableRecord
100
AcDbRegAppTableRecord
  2
GENIUS_GENOBJ-N-CRS_13
 70
     0
1001
GENIUS_GENOBJ_13
1000
GENOBJ
  0
APPID
  5
B6
100
AcDbSymbolTableRecord
100
AcDbRegAppTableRecord
  2
GENIUS_GENOBJ-N-RSSYM_13
 70
     0
1001
GENIUS_GENOBJ_13
1070
     1
  0
APPID
  5
B7
100
AcDbSymbolTableRecord
100
AcDbRegAppTableRecord
  2
GENIUS_GENSYMENT_13
 70
     0
1001
GENIUS_GENOBJ_13
1070
     1
  0
APPID
  5
B3
100
AcDbSymbolTableRecord
100
AcDbRegAppTableRecord
  2
GENIUS_GENTITLE_13
 70
     0
1001
GENIUS_GENOBJ_13
1000
GENOBJ
  0
APPID
  5
B4
100
AcDbSymbolTableRecord
100
AcDbRegAppTableRecord
  2
GENIUS_GENZVEED_13
 70
     0
1001
GENIUS_GENOBJ_13
1000
GENOBJ
  0
APPID
  5
B2
100
AcDbSymbolTableRecord
100
AcDbRegAppTableRecord
  2
GENIUS_GENOBJ-N-TIT_13
 70
     0
1001
GENIUS_GENOBJ_13
1070
     0
  0
APPID
  5
4E
100
AcDbSymbolTableRecord
100
AcDbRegAppTableRecord
  2
GENIUS_GENFIL_13
 70
     0
  0
APPID
  5
B5
100
AcDbSymbolTableRecord
100
AcDbRegAppTableRecord
  2
GENIUS_GENOBJ-F-SPR_13
 70
     0
1001
GENIUS_GENOBJ_13
1070
     0
  0
APPID
  5
B8
100
AcDbSymbolTableRecord
100
AcDbRegAppTableRecord
  2
GENIUS_GEFSPRING_13
 70
     0
1001
GENIUS_GENOBJ_13
1070
     1
  0
APPID
  5
B9
100
AcDbSymbolTableRecord
100
AcDbRegAppTableRecord
  2
GENIUS_GENOBJ-N-HTC_13
 70
     0
  0
APPID
  5
BA
100
AcDbSymbolTableRecord
100
AcDbRegAppTableRecord
  2
GENIUS_GENHATCH_13
 70
     0
  0
APPID
  5
2C
100
AcDbSymbolTableRecord
100
AcDbRegAppTableRecord
  2
GENIUS_GENDTOL_13
 70
     0
  0
APPID
  5
254
100
AcDbSymbolTableRecord
100
AcDbRegAppTableRecord
  2
GENIUS_GENCFG_13
 70
     0
1001
GENIUS_GEVCFG0_13
1000
GEV
1001
GENIUS_GENCFG0_13
1000
GEN@INFO_POS@XLATE
1001
GENIUS_GENCFG1_13
1000
GEN@INFO_POS
1001
GENIUS_GENCFG2_13
1000
GEN@LAYER@DEFS
1001
GENIUS_GENCFG3_13
1000
GEN@LAYER@ENTSORT
1001
GENIUS_GENCFG4_13
1000
GEN
  0
APPID
  5
255
100
AcDbSymbolTableRecord
100
AcDbRegAppTableRecord
  2
GENIUS_GEVCFG0_13
 70
     0
1001
GENIUS_GENCFG_13
1071
890904209
1000
255
1000
GEV
1070
     1
1000
GenCfgObject
1000
System
1070
     0
1002
{
1002
}
  0
APPID
  5
256
100
AcDbSymbolTableRecord
100
AcDbRegAppTableRecord
  2
GENIUS_GENCFG0_13
 70
     0
1001
GENIUS_GENCFG_13
1071
890904209
1000
256
1000
GEN@INFO_POS@XLATE
1070
     7
1000
GenCfgObject
1000
GenCfgShort
1000
GenCfgReal
1000
GenCfgBool
1000
GenCfgString
1000
GenCfgDim
1000
GenCfgAttrInf
1000
INFOPOINTS
1070
     0
1002
{
1000
GENINF13
1070
     0
1002
{
1000
5GENINF
1070
     4
1000
5
1002
{
1002
}
1000
6GENINF
1070
     4
1000
6
1002
{
1002
}
1000
7GENINF
1070
     4
1000
7
1002
{
1002
}
1000
9GENINF
1070
     4
1000
9
1002
{
1002
}
1000
11GENINF
1070
     4
1000
11
1002
{
1002
}
1000
16GENINF
1070
     4
1000
16
1002
{
1002
}
1000
17GENINF
1070
     4
1000
17
1002
{
1002
}
1000
18GENINF
1070
     4
1000
18
1002
{
1002
}
1000
19GENINF
1070
     4
1000
19
1002
{
1002
}
1000
20GENINF
1070
     4
1000
20
1002
{
1002
}
1000
21GENINF
1070
     4
1000
21
1002
{
1002
}
1000
22GENINF
1070
     4
1000
22
1002
{
1002
}
1000
23GENINF
1070
     4
1000
23
1002
{
1002
}
1000
0GENINF
1070
     4
1000
0
1002
{
1002
}
1002
}
1000
GENINFO
1070
     0
1002
{
1000
3GENINF
1070
     4
1000
3
1002
{
1002
}
1000
4GENINF
1070
     4
1000
4
1002
{
1002
}
1000
5GENINF
1070
     4
1000
5
1002
{
1002
}
1000
6GENINF
1070
     4
1000
6
1002
{
1002
}
1000
7GENINF
1070
     4
1000
7
1002
{
1002
}
1000
8GENINF
1070
     4
1000
8
1002
{
1002
}
1000
9GENINF
1070
     4
1000
9
1002
{
1002
}
1000
10GENINF
1070
     4
1000
10
1002
{
1002
}
1000
11GENINF
1070
     4
1000
11
1002
{
1002
}
1000
12GENINF
1070
     4
1000
12
1002
{
1002
}
1000
13GENINF
1070
     4
1000
13
1002
{
1002
}
1000
14GENINF
1070
     4
1000
14
1002
{
1002
}
1000
15GENINF
1070
     4
1000
15
1002
{
1002
}
1000
16GENINF
1070
     4
1000
16
1002
{
1002
}
1000
17GENINF
1070
     4
1000
17
1002
{
1002
}
1000
18GENINF
1070
     4
1000
18
1002
{
1002
}
1000
19GENINF
1070
     4
1000
19
1002
{
1002
}
1000
20GENINF
1070
     4
1000
20
1002
{
1002
}
1000
21GENINF
1070
     4
1000
21
1002
{
1002
}
1000
22GENINF
1070
     4
1000
22
1002
{
1002
}
1002
}
1000
DININFO
1070
     0
1002
{
1000
ST-NAME1
1070
     4
1000
5
1002
{
1002
}
1000
ST-NAME2
1070
     4
1000
6
1002
{
1002
}
1000
ST-NORM1
1070
     4
1000
7
1002
{
1002
}
1000
ST-NORM2
1070
     4
1000
8
1002
{
1002
}
1000
ST-MAT1
1070
     4
1000
9
1002
{
1002
}
1000
ST-MAT2
1070
     4
1000
10
1002
{
1002
}
1002
}
1002
}
1000
POS_NUMBERS
1070
     0
1002
{
1000
GENPOS13
1070
     0
1002
{
1000
1GENPOS
1070
     4
1000
1
1002
{
1002
}
1000
2GENPOS
1070
     4
1000
2
1002
{
1002
}
1000
5GENPOS
1070
     4
1000
5
1002
{
1002
}
1000
6GENPOS
1070
     4
1000
6
1002
{
1002
}
1000
7GENPOS
1070
     4
1000
7
1002
{
1002
}
1000
9GENPOS
1070
     4
1000
9
1002
{
1002
}
1000
11GENPOS
1070
     4
1000
11
1002
{
1002
}
1000
16GENPOS
1070
     4
1000
16
1002
{
1002
}
1000
17GENPOS
1070
     4
1000
17
1002
{
1002
}
1000
18GENPOS
1070
     4
1000
18
1002
{
1002
}
1000
19GENPOS
1070
     4
1000
19
1002
{
1002
}
1000
20GENPOS
1070
     4
1000
20
1002
{
1002
}
1000
21GENPOS
1070
     4
1000
21
1002
{
1002
}
1000
22GENPOS
1070
     4
1000
22
1002
{
1002
}
1000
23GENPOS
1070
     4
1000
23
1002
{
1002
}
1000
0GENPOS
1070
     4
1000
0
1002
{
1002
}
1002
}
1000
GENPOS
1070
     0
1002
{
1000
1GENPOS
1070
     4
1000
1
1002
{
1002
}
1000
2GENPOS
1070
     4
1000
2
1002
{
1002
}
1000
3GENPOS
1070
     4
1000
3
1002
{
1002
}
1000
4GENPOS
1070
     4
1000
4
1002
{
1002
}
1000
5GENPOS
1070
     4
1000
5
1002
{
1002
}
1000
6GENPOS
1070
     4
1000
6
1002
{
1002
}
1000
7GENPOS
1070
     4
1000
7
1002
{
1002
}
1000
8GENPOS
1070
     4
1000
8
1002
{
1002
}
1000
9GENPOS
1070
     4
1000
9
1002
{
1002
}
1000
10GENPOS
1070
     4
1000
10
1002
{
1002
}
1000
11GENPOS
1070
     4
1000
11
1002
{
1002
}
1000
12GENPOS
1070
     4
1000
12
1002
{
1002
}
1000
13GENPOS
1070
     4
1000
13
1002
{
1002
}
1000
14GENPOS
1070
     4
1000
14
1002
{
1002
}
1000
15GENPOS
1070
     4
1000
15
1002
{
1002
}
1000
16GENPOS
1070
     4
1000
16
1002
{
1002
}
1000
17GENPOS
1070
     4
1000
17
1002
{
1002
}
1000
18GENPOS
1070
     4
1000
18
1002
{
1002
}
1000
19GENPOS
1070
     4
1000
19
1002
{
1002
}
1000
20GENPOS
1070
     4
1000
20
1002
{
1002
}
1000
21GENPOS
1070
     4
1000
21
1002
{
1002
}
1000
22GENPOS
1070
     4
1000
22
1002
{
1002
}
1000
23GENPOS
1070
     4
1000
23
1002
{
1002
}
1002
}
1000
DIN985
1070
     0
1002
{
1000
POSITION
1070
     4
1000
1
1002
{
1002
}
1000
MENGE
1070
     4
1000
2
1002
{
1002
}
1000
BLATT
1070
     4
1000
3
1002
{
1002
}
1000
BENENN
1070
     4
1000
5
1002
{
1002
}
1000
BENENN2
1070
     4
1000
6
1002
{
1002
}
1000
NORM
1070
     4
1000
7
1002
{
1002
}
1000
NORM2
1070
     4
1000
8
1002
{
1002
}
1000
WERKSTOFF
1070
     4
1000
9
1002
{
1002
}
1000
WERKSTOFF2
1070
     4
1000
10
1002
{
1002
}
1002
}
1000
DIN986
1070
     0
1002
{
1000
POSITION
1070
     4
1000
1
1002
{
1002
}
1000
MENGE
1070
     4
1000
2
1002
{
1002
}
1000
BLATT
1070
     4
1000
3
1002
{
1002
}
1000
BENENN
1070
     4
1000
5
1002
{
1002
}
1000
BENENN2
1070
     4
1000
6
1002
{
1002
}
1000
NORM
1070
     4
1000
7
1002
{
1002
}
1000
NORM2
1070
     4
1000
8
1002
{
1002
}
1000
WERKSTOFF
1070
     4
1000
9
1002
{
1002
}
1000
WERKSTOFF2
1070
     4
1000
10
1002
{
1002
}
1002
}
1000
DIN987
1070
     0
1002
{
1000
POSITION
1070
     4
1000
1
1002
{
1002
}
1000
BLATT
1070
     4
1000
3
1002
{
1002
}
1000
BENENN
1070
     4
1000
5
1002
{
1002
}
1000
BENENN2
1070
     4
1000
6
1002
{
1002
}
1000
NORM
1070
     4
1000
7
1002
{
1002
}
1000
NORM2
1070
     4
1000
8
1002
{
1002
}
1000
WERKSTOFF
1070
     4
1000
9
1002
{
1002
}
1002
}
1002
}
  0
APPID
  5
257
100
AcDbSymbolTableRecord
100
AcDbRegAppTableRecord
  2
GENIUS_GENCFG1_13
 70
     0
1001
GENIUS_GENCFG_13
1071
890904209
1000
257
1000
GEN@INFO_POS
1070
     7
1000
GenCfgObject
1000
GenCfgShort
1000
GenCfgReal
1000
GenCfgBool
1000
GenCfgString
1000
GenCfgDim
1000
GenCfgAttrInf
1000
DescrText
1070
     4
1000
5,6,7,8
1002
{
1002
}
1000
Attrib
1070
     0
1002
{
1000
0
1070
     6
1002
{
1000
Prompt
1070
     4
1000
(genmsg gendwg 103)
1002
{
1002
}
1000
Value
1070
     4
1000

1002
{
1002
}
1000
EditFlag
1070
     1
1070
     0
1002
{
1002
}
1002
}
1000
1
1070
     6
1002
{
1000
Prompt
1070
     4
1000
(genmsg gendwg 31)
1002
{
1002
}
1000
Value
1070
     4
1000
1
1002
{
1002
}
1000
EditFlag
1070
     1
1070
     1
1002
{
1002
}
1002
}
1000
2
1070
     6
1002
{
1000
Prompt
1070
     4
1000
(genmsg gendwg 32)
1002
{
1002
}
1000
Value
1070
     4
1000
1
1002
{
1002
}
1000
EditFlag
1070
     1
1070
     1
1002
{
1002
}
1002
}
1000
3
1070
     6
1002
{
1000
Prompt
1070
     4
1000
(genmsg gendwg 33)
1002
{
1002
}
1000
Value
1070
     4
1000

1002
{
1002
}
1000
EditFlag
1070
     1
1070
     1
1002
{
1002
}
1002
}
1000
4
1070
     6
1002
{
1000
Prompt
1070
     4
1000
(genmsg gendwg 34)
1002
{
1002
}
1000
Value
1070
     4
1000

1002
{
1002
}
1000
EditFlag
1070
     1
1070
     1
1002
{
1002
}
1002
}
1000
5
1070
     6
1002
{
1000
Prompt
1070
     4
1000
(genmsg gendwg 35)
1002
{
1002
}
1000
Value
1070
     4
1000

1002
{
1002
}
1000
EditFlag
1070
     1
1070
     1
1002
{
1002
}
1002
}
1000
6
1070
     6
1002
{
1000
Prompt
1070
     4
1000
(genmsg gendwg 36)
1002
{
1002
}
1000
Value
1070
     4
1000

1002
{
1002
}
1000
EditFlag
1070
     1
1070
     1
1002
{
1002
}
1002
}
1000
7
1070
     6
1002
{
1000
Prompt
1070
     4
1000
(genmsg gendwg 37)
1002
{
1002
}
1000
Value
1070
     4
1000

1002
{
1002
}
1000
EditFlag
1070
     1
1070
     1
1002
{
1002
}
1002
}
1000
8
1070
     6
1002
{
1000
Prompt
1070
     4
1000
(genmsg gendwg 38)
1002
{
1002
}
1000
Value
1070
     4
1000

1002
{
1002
}
1000
EditFlag
1070
     1
1070
     1
1002
{
1002
}
1002
}
1000
9
1070
     6
1002
{
1000
Prompt
1070
     4
1000
(genmsg gendwg 39)
1002
{
1002
}
1000
Value
1070
     4
1000

1002
{
1002
}
1000
EditFlag
1070
     1
1070
     1
1002
{
1002
}
1002
}
1000
10
1070
     6
1002
{
1000
Prompt
1070
     4
1000
(genmsg gendwg 40)
1002
{
1002
}
1000
Value
1070
     4
1000

1002
{
1002
}
1000
EditFlag
1070
     1
1070
     1
1002
{
1002
}
1002
}
1000
11
1070
     6
1002
{
1000
Prompt
1070
     4
1000
(genmsg gendwg 41)
1002
{
1002
}
1000
Value
1070
     4
1000

1002
{
1002
}
1000
EditFlag
1070
     1
1070
     1
1002
{
1002
}
1002
}
1000
12
1070
     6
1002
{
1000
Prompt
1070
     4
1000
(genmsg gendwg 42)
1002
{
1002
}
1000
Value
1070
     4
1000

1002
{
1002
}
1000
EditFlag
1070
     1
1070
     1
1002
{
1002
}
1002
}
1000
13
1070
     6
1002
{
1000
Prompt
1070
     4
1000
(genmsg gendwg 43)
1002
{
1002
}
1000
Value
1070
     4
1000

1002
{
1002
}
1000
EditFlag
1070
     1
1070
     1
1002
{
1002
}
1002
}
1000
14
1070
     6
1002
{
1000
Prompt
1070
     4
1000
(genmsg gendwg 44)
1002
{
1002
}
1000
Value
1070
     4
1000

1002
{
1002
}
1000
EditFlag
1070
     1
1070
     1
1002
{
1002
}
1002
}
1000
15
1070
     6
1002
{
1000
Prompt
1070
     4
1000
(genmsg gendwg 45)
1002
{
1002
}
1000
Value
1070
     4
1000

1002
{
1002
}
1000
EditFlag
1070
     1
1070
     1
1002
{
1002
}
1002
}
1000
16
1070
     6
1002
{
1000
Prompt
1070
     4
1000
(genmsg gendwg 46)
1002
{
1002
}
1000
Value
1070
     4
1000

1002
{
1002
}
1000
EditFlag
1070
     1
1070
     1
1002
{
1002
}
1002
}
1000
17
1070
     6
1002
{
1000
Prompt
1070
     4
1000
(genmsg gendwg 47)
1002
{
1002
}
1000
Value
1070
     4
1000

1002
{
1002
}
1000
EditFlag
1070
     1
1070
     1
1002
{
1002
}
1002
}
1000
18
1070
     6
1002
{
1000
Prompt
1070
     4
1000
(genmsg gendwg 48)
1002
{
1002
}
1000
Value
1070
     4
1000

1002
{
1002
}
1000
EditFlag
1070
     1
1070
     1
1002
{
1002
}
1002
}
1000
19
1070
     6
1002
{
1000
Prompt
1070
     4
1000
(genmsg gendwg 99)
1002
{
1002
}
1000
Value
1070
     4
1000

1002
{
1002
}
1000
EditFlag
1070
     1
1070
     1
1002
{
1002
}
1002
}
1000
20
1070
     6
1002
{
1000
Prompt
1070
     4
1000
(genmsg gendwg 100)
1002
{
1002
}
1000
Value
1070
     4
1000

1002
{
1002
}
1000
EditFlag
1070
     1
1070
     1
1002
{
1002
}
1002
}
1000
21
1070
     6
1002
{
1000
Prompt
1070
     4
1000
(genmsg gendwg 101)
1002
{
1002
}
1000
Value
1070
     4
1000

1002
{
1002
}
1000
EditFlag
1070
     1
1070
     1
1002
{
1002
}
1002
}
1000
22
1070
     6
1002
{
1000
Prompt
1070
     4
1000
(genmsg gendwg 102)
1002
{
1002
}
1000
Value
1070
     4
1000

1002
{
1002
}
1000
EditFlag
1070
     1
1070
     1
1002
{
1002
}
1002
}
1000
23
1070
     6
1002
{
1000
Prompt
1070
     4
1000
(genmsg gendwg 30)
1002
{
1002
}
1000
Value
1070
     4
1000

1002
{
1002
}
1000
EditFlag
1070
     1
1070
     1
1002
{
1002
}
1002
}
1000
24
1070
     6
1002
{
1000
Prompt
1070
     4
1000
(genmsg gendwg 104)
1002
{
1002
}
1000
Value
1070
     4
1000

1002
{
1002
}
1000
EditFlag
1070
     1
1070
     1
1002
{
1002
}
1002
}
1002
}
1000
Xlate
1070
     0
1002
{
1000
>
1002
}
  0
APPID
  5
258
100
AcDbSymbolTableRecord
100
AcDbRegAppTableRecord
  2
GENIUS_GENCFG2_13
 70
     0
1001
GENIUS_GENCFG_13
1071
890904209
1000
258
1000
GEN@LAYER@DEFS
1070
     9
1000
GenCfgObject
1000
GenCfgShort
1000
GenCfgReal
1000
GenCfgBool
1000
GenCfgString
1000
GenCfgDim
1000
GenCfgAttrInf
1000
GenCfgLaySection
1000
GenCfgLayer
1000
Basic
1070
     0
1002
{
1000
0
1070
     8
1000
0
1002
{
1000
Color
1070
     1
1070
     7
1002
{
1002
}
1000
LType
1070
     4
1000
CONTINUOUS
1002
{
1002
}
1000
Base
1070
     3
1070
     0
1002
{
1002
}
1002
}
1000
1
1070
     8
1000
1
1002
{
1000
Color
1070
     1
1070
    14
1002
{
1002
}
1000
LType
1070
     4
1000
CONTINUOUS
1002
{
1002
}
1000
Base
1070
     3
1070
     0
1002
{
1002
}
1002
}
1000
2
1070
     8
1000
2
1002
{
1000
Color
1070
     1
1070
     5
1002
{
1002
}
1000
LType
1070
     4
1000
CONTINUOUS
1002
{
1002
}
1000
Base
1070
     3
1070
     0
1002
{
1002
}
1002
}
1000
3
1070
     8
1000
3
1002
{
1000
Color
1070
     1
1070
     6
1002
{
1002
}
1000
LType
1070
     4
1000
GEN3
1002
{
1002
}
1000
Base
1070
     3
1070
     0
1002
{
1002
}
1002
}
1000
4
1070
     8
1000
4
1002
{
1000
Color
1070
     1
1070
     3
1002
{
1002
}
1000
LType
1070
     4
1000
CONTINUOUS
1002
{
1002
}
1000
Base
1070
     3
1070
     0
1002
{
1002
}
1002
}
1000
5
1070
     8
1000
5
1002
{
1000
Color
1070
     1
1070
     3
1002
{
1002
}
1000
LType
1070
     4
1000
CONTINUOUS
1002
{
1002
}
1000
Base
1070
     3
1070
     0
1002
{
1002
}
1002
}
1000
6
1070
     8
1000
6
1002
{
1000
Color
1070
     1
1070
     2
1002
{
1002
}
1000
LType
1070
     4
1000
CONTINUOUS
1002
{
1002
}
1000
Base
1070
     3
1070
     0
1002
{
1002
}
1002
}
1000
7
1070
     8
1000
7
1002
{
1000
Color
1070
     1
1070
     4
1002
{
1002
}
1000
LType
1070
     4
1000
GEN7
1002
{
1002
}
1000
Base
1070
     3
1070
     0
1002
{
1002
}
1002
}
1000
8
1070
     8
1000
8
1002
{
1000
Color
1070
     1
1070
     1
1002
{
1002
}
1000
LType
1070
     4
1000
CONTINUOUS
1002
{
1002
}
1000
Base
1070
     3
1070
     0
1002
{
1002
}
1002
}
1000
3A
1070
     8
1000
3A
1002
{
1000
Color
1070
     1
1070
     6
1002
{
1002
}
1000
LType
1070
     4
1000
GEN3A
1002
{
1002
}
1000
Base
1070
     3
1070
     0
1002
{
1002
}
1002
}
1000
7A
1070
     8
1000
7A
1002
{
1000
Color
1070
     1
1070
     4
1002
{
1002
}
1000
LType
1070
     4
1000
GEN7A
1002
{
1002
}
1000
Base
1070
     3
1070
     0
1002
{
1002
}
1002
}
1000
2A
1070
     8
1000
2A
1002
{
1000
Color
1070
     1
1070
     7
1002
{
1002
}
1000
LType
1070
     4
1000
GEN7
1002
{
1002
}
1000
Base
1070
     3
1070
     0
1002
{
1002
}
1002
}
1000
4A
1070
     8
1000
4A
1002
{
1000
Color
1070
     1
1070
     3
1002
{
1002
}
1000
LType
1070
     4
1000
GEN4A
1002
{
1002
}
1000
Base
1070
     3
1070
     0
1002
{
1002
}
1002
}
1000
9
1070
     8
1000
9
1002
{
1000
Color
1070
     1
1070
   253
1002
{
1002
}
1000
LType
1070
     4
1000
CONTINUOUS
1002
{
1002
}
1000
Base
1070
     3
1070
     0
1002
{
1002
}
1002
}
1002
}
1000
Standard
1070
     0
1002
{
1000
0N
1070
     8
1000
0N
1002
{
1000
Color
1070
     1
1070
     7
1002
{
1002
}
1000
LType
1070
     4
1000
CONTINUOUS
1002
{
1002
}
1000
Base
1070
     3
1070
     0
1002
{
1002
}
1002
}
1000
1N
1070
     8
1000
1N
1002
{
1000
Color
1070
     1
1070
    14
1002
{
1002
}
1000
LType
1070
     4
1000
CONTINUOUS
1002
{
1002
}
1000
Base
1070
     3
1070
     0
1002
{
1002
}
1002
}
1000
2N
1070
     8
1000
2N
1002
{
1000
Color
1070
     1
1070
     5
1002
{
1002
}
1000
LType
1070
     4
1000
CONTINUOUS
1002
{
1002
}
1000
Base
1070
     3
1070
     0
1002
{
1002
}
1002
}
1000
3N
1070
     8
1000
3N
1002
{
1000
Color
1070
     1
1070
     6
1002
{
1002
}
1000
LType
1070
     4
1000
GEN3
1002
{
1002
}
1000
Base
1070
     3
1070
     0
1002
{
1002
}
1002
}
1000
4N
1070
     8
1000
4N
1002
{
1000
Color
1070
     1
1070
     3
1002
{
1002
}
1000
LType
1070
     4
1000
CONTINUOUS
1002
{
1002
}
1000
Base
1070
     3
1070
     0
1002
{
1002
}
1002
}
1000
5N
1070
     8
1000
5N
1002
{
1000
Color
1070
     1
1070
     3
1002
{
1002
}
1000
LType
1070
     4
1000
CONTINUOUS
1002
{
1002
}
1000
Base
1070
     3
1070
     0
1002
{
1002
}
1002
}
1000
6N
1070
     8
1000
6N
1002
{
1000
Color
1070
     1
1070
     2
1002
{
1002
}
1000
LType
1070
     4
1000
CONTINUOUS
1002
{
1002
}
1000
Base
1070
     3
1070
     0
1002
{
1002
}
1002
}
1000
7N
1070
     8
1000
7N
1002
{
1000
Color
1070
     1
1070
     4
1002
{
1002
}
1000
LType
1070
     4
1000
GEN7
1002
{
1002
}
1000
Base
1070
     3
1070
     0
1002
{
1002
}
1002
}
1000
8N
1070
     8
1000
8N
1002
{
1000
Color
1070
     1
1070
     1
1002
{
1002
}
1000
LType
1070
     4
1000
CONTINUOUS
1002
{
1002
}
1000
Base
1070
     3
1070
     0
1002
{
1002
}
1002
}
1000
3AN
1070
     8
1000
3AN
1002
{
1000
Color
1070
     1
1070
     6
1002
{
1002
}
1000
LType
1070
     4
1000
GEN3A
1002
{
1002
}
1000
Base
1070
     3
1070
     0
1002
{
1002
}
1002
}
1000
7AN
1070
     8
1000
7AN
1002
{
1000
Color
1070
     1
1070
     4
1002
{
1002
}
1000
LType
1070
     4
1000
GEN7A
1002
{
1002
}
1000
Base
1070
     3
1070
     0
1002
{
1002
}
1002
}
1000
2AN
1070
     8
1000
2AN
1002
{
1000
Color
1070
     1
1070
     7
1002
{
1002
}
1000
LType
1070
     4
1000
GEN7
1002
{
1002
}
1000
Base
1070
     3
1070
     0
1002
{
1002
}
1002
}
1000
4AN
1070
     8
1000
4AN
1002
{
1000
Color
1070
     1
1070
     3
1002
{
1002
}
1000
LType
1070
     4
1000
GEN4A
1002
{
1002
}
1000
Base
1070
     3
1070
     0
1002
{
1002
}
1002
}
1000
9N
1070
     8
1000
9N
1002
{
1000
Color
1070
     1
1070
   253
1002
{
1002
}
1000
LType
1070
     4
1000
CONTINUOUS
1002
{
1002
}
1000
Base
1070
     3
1070
     0
1002
{
1002
}
1002
}
1002
}
1000
Extra
1070
     0
1002
{
1000
Klin
1070
     8
1000
KLIN
1002
{
1000
Color
1070
     1
1070
     1
1002
{
1002
}
1000
LType
1070
     4
1000
CONTINUOUS
1002
{
1002
}
1000
Base
1070
     3
1070
     1
1002
{
1002
}
1002
}
1000
Info
1070
     8
1000
INFO
1002
{
1000
Color
1070
     1
1070
     4
1002
{
1002
}
1000
LType
1070
     4
1000
CONTINUOUS
1002
{
1002
}
1000
Base
1070
     3
1070
     1
1002
{
1002
}
1002
}
1000
Rahm2
1070
     8
1000
RAHM2
1002
{
1000
Color
1070
     1
1070
     1
1002
{
1002
}
1000
LType
1070
     4
1000
CONTINUOUS
1002
{
1002
}
1000
Base
1070
     3
1070
     1
1002
{
1002
}
1002
}
1000
Rahm3
1070
     8
1000
RAHM3
1002
{
1000
Color
1070
     1
1070
     2
1002
{
1002
}
1000
LType
1070
     4
1000
CONTINUOUS
1002
{
1002
}
1000
Base
1070
     3
1070
     1
1002
{
1002
}
1002
}
1000
Rahm5
1070
     8
1000
RAHM5
1002
{
1000
Color
1070
     1
1070
     7
1002
{
1002
}
1000
LType
1070
     4
1000
CONTINUOUS
1002
{
1002
}
1000
Base
1070
     3
1070
     1
1002
{
1002
}
1002
}
1000
View
1070
     8
1000
VIEW
1002
{
1000
Color
1070
     1
1070
     1
1002
{
1002
}
1000
LType
1070
     4
1000
CONTINUOUS
1002
{
1002
}
1000
Base
1070
     3
1070
     1
1002
{
1002
}
1002
}
1000
Behind
1070
     8
1000
BEHIND
1002
{
1000
Color
1070
     1
1070
   253
1002
{
1002
}
1000
LType
1070
     4
1000
CONTINUOUS
1002
{
1002
}
1000
Base
1070
     3
1070
     1
1002
{
1002
}
1002
}
1002
}
  0
APPID
  5
259
100
AcDbSymbolTableRecord
100
AcDbRegAppTableRecord
  2
GENIUS_GENCFG3_13
 70
     0
1001
GENIUS_GENCFG_13
1071
890904209
1000
259
1000
GEN@LAYER@ENTSORT
1070
    10
1000
GenCfgObject
1000
GenCfgShort
1000
GenCfgReal
1000
GenCfgBool
1000
GenCfgString
1000
GenCfgDim
1000
GenCfgAttrInf
1000
GenCfgLaySection
1000
GenCfgLayer
1000
GenCfgEntSort
1000
ALTR
1070
     9
1000
4
1002
{
1000
Class
1070
     4
1000

1002
{
1002
}
1000
Color
1070
     1
1070
     7
1002
{
1002
}
1000
LType
1070
     4
1000
GEN3A
1002
{
1002
}
1002
}
1000
BELI
1070
     9
1000
4
1002
{
1000
Class
1070
     4
1000

1002
{
1002
}
1000
Color
1070
     1
1070
   256
1002
{
1002
}
1000
LType
1070
     4
1000
BYLAYER
1002
{
1002
}
1002
}
1000
BHNV
1070
     9
1000
9
1002
{
1000
Class
1070
     4
1000
INV
1002
{
1002
}
1000
Color
1070
     1
1070
   256
1002
{
1002
}
1000
LType
1070
     4
1000
BYLAYER
1002
{
1002
}
1002
}
1000
BHNVS
1070
     9
1000
BEHIND
1002
{
1000
Class
1070
     4
1000
INV
1002
{
1002
}
1000
Color
1070
     1
1070
   256
1002
{
1002
}
1000
LType
1070
     4
1000
BYLAYER
1002
{
1002
}
1002
}
1000
BLID
1070
     9
1000
4A
1002
{
1000
Class
1070
     4
1000

1002
{
1002
}
1000
Color
1070
     1
1070
   256
1002
{
1002
}
1000
LType
1070
     4
1000
BYLAYER
1002
{
1002
}
1002
}
1000
BOAP
1070
     9
1000
4A
1002
{
1000
Class
1070
     4
1000

1002
{
1002
}
1000
Color
1070
     1
1070
   256
1002
{
1002
}
1000
LType
1070
     4
1000
BYLAYER
1002
{
1002
}
1002
}
1000
BOR2
1070
     9
1000
RAHM2
1002
{
1000
Class
1070
     4
1000
SPZ,SYM
1002
{
1002
}
1000
Color
1070
     1
1070
   256
1002
{
1002
}
1000
LType
1070
     4
1000
BYLAYER
1002
{
1002
}
1002
}
1000
BOR3
1070
     9
1000
RAHM3
1002
{
1000
Class
1070
     4
1000
SPZ,SYM
1002
{
1002
}
1000
Color
1070
     1
1070
   256
1002
{
1002
}
1000
LType
1070
     4
1000
BYLAYER
1002
{
1002
}
1002
}
1000
BOR5
1070
     9
1000
RAHM5
1002
{
1000
Class
1070
     4
1000
SPZ,SYM
1002
{
1002
}
1000
Color
1070
     1
1070
   256
1002
{
1002
}
1000
LType
1070
     4
1000
BYLAYER
1002
{
1002
}
1002
}
1000
BOR7
1070
     9
1000
RAHM5
1002
{
1000
Class
1070
     4
1000
SPZ,SYM
1002
{
1002
}
1000
Color
1070
     1
1070
     7
1002
{
1002
}
1000
LType
1070
     4
1000
CONTINUOUS
1002
{
1002
}
1002
}
1000
BPAP
1070
     9
1000
4A
1002
{
1000
Class
1070
     4
1000

1002
{
1002
}
1000
Color
1070
     1
1070
   256
1002
{
1002
}
1000
LType
1070
     4
1000
BYLAYER
1002
{
1002
}
1002
}
1000
BPEX
1070
     9
1000
4A
1002
{
1000
Class
1070
     4
1000

1002
{
1002
}
1000
Color
1070
     1
1070
   256
1002
{
1002
}
1000
LType
1070
     4
1000
BYLAYER
1002
{
1002
}
1002
}
1000
BTDI
1070
     9
1000
5
1002
{
1000
Class
1070
     4
1000
DIM,SYM
1002
{
1002
}
1000
Color
1070
     1
1070
   256
1002
{
1002
}
1000
LType
1070
     4
1000
BYLAYER
1002
{
1002
}
1002
}
1000
CAL2
1070
     9
1000
4
1002
{
1000
Class
1070
     4
1000
SYM
1002
{
1002
}
1000
Color
1070
     1
1070
   256
1002
{
1002
}
1000
LType
1070
     4
1000
BYLAYER
1002
{
1002
}
1002
}
1000
CAL3
1070
     9
1000
4
1002
{
1000
Class
1070
     4
1000
SYM
1002
{
1002
}
1000
Color
1070
     1
1070
     2
1002
{
1002
}
1000
LType
1070
     4
1000
BYLAYER
1002
{
1002
}
1002
}
1000
CAL5
1070
     9
1000
4
1002
{
1000
Class
1070
     4
1000
SYM
1002
{
1002
}
1000
Color
1070
     1
1070
     7
1002
{
1002
}
1000
LType
1070
     4
1000
BYLAYER
1002
{
1002
}
1002
}
1000
CAL7
1070
     9
1000
4
1002
{
1000
Class
1070
     4
1000
SYM
1002
{
1002
}
1000
Color
1070
     1
1070
     5
1002
{
1002
}
1000
LType
1070
     4
1000
BYLAYER
1002
{
1002
}
1002
}
1000
CENN
1070
     9
1000
7A
1002
{
1000
Class
1070
     4
1000
CEN
1002
{
1002
}
1000
Color
1070
     1
1070
   256
1002
{
1002
}
1000
LType
1070
     4
1000
BYLAYER
1002
{
1002
}
1002
}
1000
CENW
1070
     9
1000
7
1002
{
1000
Class
1070
     4
1000
CEN
1002
{
1002
}
1000
Color
1070
     1
1070
   256
1002
{
1002
}
1000
LType
1070
     4
1000
BYLAYER
1002
{
1002
}
1002
}
1000
CLIN
1070
     9
1000
KLIN
1002
{
1000
Class
1070
     4
1000
SPZ
1002
{
1002
}
1000
Color
1070
     1
1070
   256
1002
{
1002
}
1000
LType
1070
     4
1000
BYLAYER
1002
{
1002
}
1002
}
1000
CON1
1070
     9
1000
0
1002
{
1000
Class
1070
     4
1000
CON,BGD
1002
{
1002
}
1000
Color
1070
     1
1070
   256
1002
{
1002
}
1000
LType
1070
     4
1000
BYLAYER
1002
{
1002
}
1002
}
1000
CON2
1070
     9
1000
1
1002
{
1000
Class
1070
     4
1000
CON,BGD
1002
{
1002
}
1000
Color
1070
     1
1070
   256
1002
{
1002
}
1000
LType
1070
     4
1000
BYLAYER
1002
{
1002
}
1002
}
1000
CON3
1070
     9
1000
2
1002
{
1000
Class
1070
     4
1000
CON,BGD
1002
{
1002
}
1000
Color
1070
     1
1070
   256
1002
{
1002
}
1000
LType
1070
     4
1000
BYLAYER
1002
{
1002
}
1002
}
1000
CON4
1070
     9
1000
2
1002
{
1000
Class
1070
     4
1000
CON,BGD
1002
{
1002
}
1000
Color
1070
     1
1070
   256
1002
{
1002
}
1000
LType
1070
     4
1000
BYLAYER
1002
{
1002
}
1002
}
1000
DERP
1070
     9
1000
4
1002
{
1000
Class
1070
     4
1000

1002
{
1002
}
1000
Color
1070
     1
1070
   256
1002
{
1002
}
1000
LType
1070
     4
1000
BYLAYER
1002
{
1002
}
1002
}
1000
DETA
1070
     9
1000
4
1002
{
1000
Class
1070
     4
1000

1002
{
1002
}
1000
Color
1070
     1
1070
   256
1002
{
1002
}
1000
LType
1070
     4
1000
BYLAYER
1002
{
1002
}
1002
}
1000
DIAG
1070
     9
1000
5
1002
{
1000
Class
1070
     4
1000
SYM
1002
{
1002
}
1000
Color
1070
     1
1070
   256
1002
{
1002
}
1000
LType
1070
     4
1000
BYLAYER
1002
{
1002
}
1002
}
1000
DILI
1070
     9
1000
5
1002
{
1000
Class
1070
     4
1000
DIM,SYM
1002
{
1002
}
1000
Color
1070
     1
1070
   256
1002
{
1002
}
1000
LType
1070
     4
1000
BYLAYER
1002
{
1002
}
1002
}
1000
DITX
1070
     9
1000
5
1002
{
1000
Class
1070
     4
1000
DIM,SYM
1002
{
1002
}
1000
Color
1070
     1
1070
     2
1002
{
1002
}
1000
LType
1070
     4
1000
CONTINUOUS
1002
{
1002
}
1002
}
1000
DITO2
1070
     9
1000
5
1002
{
1000
Class
1070
     4
1000
DIM,SYM
1002
{
1002
}
1000
Color
1070
     1
1070
     3
1002
{
1002
}
1000
LType
1070
     4
1000
BYLAYER
1002
{
1002
}
1002
}
1000
DITO3
1070
     9
1000
5
1002
{
1000
Class
1070
     4
1000
DIM,SYM
1002
{
1002
}
1000
Color
1070
     1
1070
     2
1002
{
1002
}
1000
LType
1070
     4
1000
BYLAYER
1002
{
1002
}
1002
}
1000
DIXL
1070
     9
1000
5
1002
{
1000
Class
1070
     4
1000
DIM,SYM
1002
{
1002
}
1000
Color
1070
     1
1070
   256
1002
{
1002
}
1000
LType
1070
     4
1000
BYLAYER
1002
{
1002
}
1002
}
1000
EXMP
1070
     9
1000
4A
1002
{
1000
Class
1070
     4
1000

1002
{
1002
}
1000
Color
1070
     1
1070
   256
1002
{
1002
}
1000
LType
1070
     4
1000
BYLAYER
1002
{
1002
}
1002
}
1000
FEMN
1070
     9
1000
8
1002
{
1000
Class
1070
     4
1000

1002
{
1002
}
1000
Color
1070
     1
1070
   256
1002
{
1002
}
1000
LType
1070
     4
1000
BYLAYER
1002
{
1002
}
1002
}
1000
FEMPN
1070
     9
1000
8
1002
{
1000
Class
1070
     4
1000
SYM
1002
{
1002
}
1000
Color
1070
     1
1070
     3
1002
{
1002
}
1000
LType
1070
     4
1000
BYLAYER
1002
{
1002
}
1002
}
1000
FEMSP
1070
     9
1000
4A
1002
{
1000
Class
1070
     4
1000

1002
{
1002
}
1000
Color
1070
     1
1070
   256
1002
{
1002
}
1000
LType
1070
     4
1000
CONTINUOUS
1002
{
1002
}
1002
}
1000
FEMST
1070
     9
1000
4A
1002
{
1000
Class
1070
     4
1000
SYM
1002
{
1002
}
1000
Color
1070
     1
1070
     3
1002
{
1002
}
1000
LType
1070
     4
1000
BYLAYER
1002
{
1002
}
1002
}
1000
FEMVN
1070
     9
1000
2
1002
{
1000
Class
1070
     4
1000
CON
1002
{
1002
}
1000
Color
1070
     1
1070
   256
1002
{
1002
}
1000
LType
1070
     4
1000
BYLAYER
1002
{
1002
}
1002
}
1000
FEMVT
1070
     9
1000
2
1002
{
1000
Class
1070
     4
1000
SYM
1002
{
1002
}
1000
Color
1070
     1
1070
     3
1002
{
1002
}
1000
LType
1070
     4
1000
BYLAYER
1002
{
1002
}
1002
}
1000
FLAT
1070
     9
1000
0
1002
{
1000
Class
1070
     4
1000

1002
{
1002
}
1000
Color
1070
     1
1070
   256
1002
{
1002
}
1000
LType
1070
     4
1000
BYLAYER
1002
{
1002
}
1002
}
1000
FRAR
1070
     9
1000
4A
1002
{
1000
Class
1070
     4
1000

1002
{
1002
}
1000
Color
1070
     1
1070
   256
1002
{
1002
}
1000
LType
1070
     4
1000
BYLAYER
1002
{
1002
}
1002
}
1000
GRLI
1070
     9
1000
5
1002
{
1000
Class
1070
     4
1000
SYM
1002
{
1002
}
1000
Color
1070
     1
1070
   256
1002
{
1002
}
1000
LType
1070
     4
1000
BYLAYER
1002
{
1002
}
1002
}
1000
GVLI
1070
     9
1000
4A
1002
{
1000
Class
1070
     4
1000

1002
{
1002
}
1000
Color
1070
     1
1070
   256
1002
{
1002
}
1000
LType
1070
     4
1000
BYLAYER
1002
{
1002
}
1002
}
1000
HATC
1070
     9
1000
8
1002
{
1000
Class
1070
     4
1000
HTC,BGD
1002
{
1002
}
1000
Color
1070
     1
1070
   256
1002
{
1002
}
1000
LType
1070
     4
1000
BYLAYER
1002
{
1002
}
1002
}
1000
HIDN
1070
     9
1000
3A
1002
{
1000
Class
1070
     4
1000
HID,BGD
1002
{
1002
}
1000
Color
1070
     1
1070
   256
1002
{
1002
}
1000
LType
1070
     4
1000
BYLAYER
1002
{
1002
}
1002
}
1000
HIDW
1070
     9
1000
3
1002
{
1000
Class
1070
     4
1000
HID,BGD
1002
{
1002
}
1000
Color
1070
     1
1070
   256
1002
{
1002
}
1000
LType
1070
     4
1000
BYLAYER
1002
{
1002
}
1002
}
1000
HLIN
1070
     9
1000
4
1002
{
1000
Class
1070
     4
1000
BGD
1002
{
1002
}
1000
Color
1070
     1
1070
   256
1002
{
1002
}
1000
LType
1070
     4
1000
BYLAYER
1002
{
1002
}
1002
}
1000
HOCN
1070
     9
1000
7A
1002
{
1000
Class
1070
     4
1000
CEN
1002
{
1002
}
1000
Color
1070
     1
1070
   256
1002
{
1002
}
1000
LType
1070
     4
1000
BYLAYER
1002
{
1002
}
1002
}
1000
HOCW
1070
     9
1000
7
1002
{
1000
Class
1070
     4
1000
CEN
1002
{
1002
}
1000
Color
1070
     1
1070
   256
1002
{
1002
}
1000
LType
1070
     4
1000
BYLAYER
1002
{
1002
}
1002
}
1000
INFO
1070
     9
1000
INFO
1002
{
1000
Class
1070
     4
1000
SPZ,SYM
1002
{
1002
}
1000
Color
1070
     1
1070
   256
1002
{
1002
}
1000
LType
1070
     4
1000
BYLAYER
1002
{
1002
}
1002
}
1000
LADI
1070
     9
1000
4
1002
{
1000
Class
1070
     4
1000
BGD
1002
{
1002
}
1000
Color
1070
     1
1070
   256
1002
{
1002
}
1000
LType
1070
     4
1000
BYLAYER
1002
{
1002
}
1002
}
1000
LEAD
1070
     9
1000
5
1002
{
1000
Class
1070
     4
1000
SYM
1002
{
1002
}
1000
Color
1070
     1
1070
   256
1002
{
1002
}
1000
LType
1070
     4
1000
BYLAYER
1002
{
1002
}
1002
}
1000
N_BHNV
1070
     9
1000
9N
1002
{
1000
Class
1070
     4
1000
INV
1002
{
1002
}
1000
Color
1070
     1
1070
   256
1002
{
1002
}
1000
LType
1070
     4
1000
BYLAYER
1002
{
1002
}
1002
}
1000
N_CON1
1070
     9
1000
0N
1002
{
1000
Class
1070
     4
1000
CON,BGD
1002
{
1002
}
1000
Color
1070
     1
1070
   256
1002
{
1002
}
1000
LType
1070
     4
1000
BYLAYER
1002
{
1002
}
1002
}
1000
N_CON2
1070
     9
1000
1N
1002
{
1000
Class
1070
     4
1000
CON,BGD
1002
{
1002
}
1000
Color
1070
     1
1070
   256
1002
{
1002
}
1000
LType
1070
     4
1000
BYLAYER
1002
{
1002
}
1002
}
1000
N_CON3
1070
     9
1000
2N
1002
{
1000
Class
1070
     4
1000
CON,BGD
1002
{
1002
}
1000
Color
1070
     1
1070
   256
1002
{
1002
}
1000
LType
1070
     4
1000
BYLAYER
1002
{
1002
}
1002
}
1000
N_CON4
1070
     9
1000
2N
1002
{
1000
Class
1070
     4
1000
CON,BGD
1002
{
1002
}
1000
Color
1070
     1
1070
   256
1002
{
1002
}
1000
LType
1070
     4
1000
BYLAYER
1002
{
1002
}
1002
}
1000
N_CENN
1070
     9
1000
7AN
1002
{
1000
Class
1070
     4
1000
CEN
1002
{
1002
}
1000
Color
1070
     1
1070
   256
1002
{
1002
}
1000
LType
1070
     4
1000
BYLAYER
1002
{
1002
}
1002
}
1000
N_CENW
1070
     9
1000
7N
1002
{
1000
Class
1070
     4
1000
CEN
1002
{
1002
}
1000
Color
1070
     1
1070
   256
1002
{
1002
}
1000
LType
1070
     4
1000
BYLAYER
1002
{
1002
}
1002
}
1000
N_DILI
1070
     9
1000
5N
1002
{
1000
Class
1070
     4
1000
DIM,SYM
1002
{
1002
}
1000
Color
1070
     1
1070
   256
1002
{
1002
}
1000
LType
1070
     4
1000
BYLAYER
1002
{
1002
}
1002
}
1000
N_DITX
1070
     9
1000
5N
1002
{
1000
Class
1070
     4
1000
DIM,SYM
1002
{
1002
}
1000
Color
1070
     1
1070
     2
1002
{
1002
}
1000
LType
1070
     4
1000
CONTINUOUS
1002
{
1002
}
1002
}
1000
N_DIXL
1070
     9
1000
5N
1002
{
1000
Class
1070
     4
1000
DIM,SYM
1002
{
1002
}
1000
Color
1070
     1
1070
   256
1002
{
1002
}
1000
LType
1070
     4
1000
BYLAYER
1002
{
1002
}
1002
}
1000
N_HATC
1070
     9
1000
8N
1002
{
1000
Class
1070
     4
1000
HTC,BGD
1002
{
1002
}
1000
Color
1070
     1
1070
   256
1002
{
1002
}
1000
LType
1070
     4
1000
BYLAYER
1002
{
1002
}
1002
}
1000
N_HIDN
1070
     9
1000
3AN
1002
{
1000
Class
1070
     4
1000
HID,BGD
1002
{
1002
}
1000
Color
1070
     1
1070
   256
1002
{
1002
}
1000
LType
1070
     4
1000
BYLAYER
1002
{
1002
}
1002
}
1000
N_HIDW
1070
     9
1000
3N
1002
{
1000
Class
1070
     4
1000
HID,BGD
1002
{
1002
}
1000
Color
1070
     1
1070
   256
1002
{
1002
}
1000
LType
1070
     4
1000
BYLAYER
1002
{
1002
}
1002
}
1000
N_PHAN
1070
     9
1000
4AN
1002
{
1000
Class
1070
     4
1000

1002
{
1002
}
1000
Color
1070
     1
1070
   256
1002
{
1002
}
1000
LType
1070
     4
1000
BYLAYER
1002
{
1002
}
1002
}
1000
N_POSL
1070
     9
1000
5N
1002
{
1000
Class
1070
     4
1000
SYM
1002
{
1002
}
1000
Color
1070
     1
1070
   256
1002
{
1002
}
1000
LType
1070
     4
1000
BYLAYER
1002
{
1002
}
1002
}
1000
N_TCON
1070
     9
1000
0N
1002
{
1000
Class
1070
     4
1000
CON,BGD
1002
{
1002
}
1000
Color
1070
     1
1070
   256
1002
{
1002
}
1000
LType
1070
     4
1000
BYLAYER
1002
{
1002
}
1002
}
1000
N_THLI
1070
     9
1000
4N
1002
{
1000
Class
1070
     4
1000
BGD
1002
{
1002
}
1000
Color
1070
     1
1070
   256
1002
{
1002
}
1000
LType
1070
     4
1000
BYLAYER
1002
{
1002
}
1002
}
1000
N_TLEN
1070
     9
1000
0N
1002
{
1000
Class
1070
     4
1000
CON,BGD
1002
{
1002
}
1000
Color
1070
     1
1070
   256
1002
{
1002
}
1000
LType
1070
     4
1000
BYLAYER
1002
{
1002
}
1002
}
1000
N_TXT3
1070
     9
1000
6N
1002
{
1000
Class
1070
     4
1000
SYM
1002
{
1002
}
1000
Color
1070
     1
1070
   256
1002
{
1002
}
1000
LType
1070
     4
1000
BYLAYER
1002
{
1002
}
1002
}
1000
N_VPLI
1070
     9
1000
2AN
1002
{
1000
Class
1070
     4
1000

1002
{
1002
}
1000
Color
1070
     1
1070
   256
1002
{
1002
}
1000
LType
1070
     4
1000
BYLAYER
1002
{
1002
}
1002
}
1000
PAL2
1070
     9
1000
RAHM2
1002
{
1000
Class
1070
     4
1000
SPZ,SYM
1002
{
1002
}
1000
Color
1070
     1
1070
   256
1002
{
1002
}
1000
LType
1070
     4
1000
BYLAYER
1002
{
1002
}
1002
}
1000
PAL3
1070
     9
1000
RAHM3
1002
{
1000
Class
1070
     4
1000
SPZ,SYM
1002
{
1002
}
1000
Color
1070
     1
1070
   256
1002
{
1002
}
1000
LType
1070
     4
1000
BYLAYER
1002
{
1002
}
1002
}
1000
PAL5
1070
     9
1000
RAHM5
1002
{
1000
Class
1070
     4
1000
SPZ,SYM
1002
{
1002
}
1000
Color
1070
     1
1070
   256
1002
{
1002
}
1000
LType
1070
     4
1000
BYLAYER
1002
{
1002
}
1002
}
1000
PAL7
1070
     9
1000
RAHM5
1002
{
1000
Class
1070
     4
1000
SPZ,SYM
1002
{
1002
}
1000
Color
1070
     1
1070
     7
1002
{
1002
}
1000
LType
1070
     4
1000
CONTINUOUS
1002
{
1002
}
1002
}
1000
PHAN
1070
     9
1000
4A
1002
{
1000
Class
1070
     4
1000

1002
{
1002
}
1000
Color
1070
     1
1070
   256
1002
{
1002
}
1000
LType
1070
     4
1000
BYLAYER
1002
{
1002
}
1002
}
1000
POSL
1070
     9
1000
5
1002
{
1000
Class
1070
     4
1000
SYM
1002
{
1002
}
1000
Color
1070
     1
1070
   256
1002
{
1002
}
1000
LType
1070
     4
1000
BYLAYER
1002
{
1002
}
1002
}
1000
POSN
1070
     9
1000
6
1002
{
1000
Class
1070
     4
1000
SYM
1002
{
1002
}
1000
Color
1070
     1
1070
     7
1002
{
1002
}
1000
LType
1070
     4
1000
BYLAYER
1002
{
1002
}
1002
}
1000
POSREF
1070
     9
1000
6
1002
{
1000
Class
1070
     4
1000
SYM
1002
{
1002
}
1000
Color
1070
     1
1070
     5
1002
{
1002
}
1000
LType
1070
     4
1000
BYLAYER
1002
{
1002
}
1002
}
1000
POSX
1070
     9
1000
5
1002
{
1000
Class
1070
     4
1000
SYM
1002
{
1002
}
1000
Color
1070
     1
1070
     2
1002
{
1002
}
1000
LType
1070
     4
1000
CONTINUOUS
1002
{
1002
}
1002
}
1000
PSEC
1070
     9
1000
4A
1002
{
1000
Class
1070
     4
1000

1002
{
1002
}
1000
Color
1070
     1
1070
   256
1002
{
1002
}
1000
LType
1070
     4
1000
BYLAYER
1002
{
1002
}
1002
}
1000
RCGN
1070
     9
1000
7A
1002
{
1000
Class
1070
     4
1000
CEN
1002
{
1002
}
1000
Color
1070
     1
1070
   256
1002
{
1002
}
1000
LType
1070
     4
1000
BYLAYER
1002
{
1002
}
1002
}
1000
RCGW
1070
     9
1000
7
1002
{
1000
Class
1070
     4
1000
CEN
1002
{
1002
}
1000
Color
1070
     1
1070
   256
1002
{
1002
}
1000
LType
1070
     4
1000
BYLAYER
1002
{
1002
}
1002
}
1000
RFDI
1070
     9
1000
4
1002
{
1000
Class
1070
     4
1000
BGD
1002
{
1002
}
1000
Color
1070
     1
1070
   256
1002
{
1002
}
1000
LType
1070
     4
1000
BYLAYER
1002
{
1002
}
1002
}
1000
RQTR
1070
     9
1000
4
1002
{
1000
Class
1070
     4
1000

1002
{
1002
}
1000
Color
1070
     1
1070
     7
1002
{
1002
}
1000
LType
1070
     4
1000
GEN7A
1002
{
1002
}
1002
}
1000
RSBO
1070
     9
1000
4
1002
{
1000
Class
1070
     4
1000
BGD
1002
{
1002
}
1000
Color
1070
     1
1070
   256
1002
{
1002
}
1000
LType
1070
     4
1000
BYLAYER
1002
{
1002
}
1002
}
1000
SBRK
1070
     9
1000
4
1002
{
1000
Class
1070
     4
1000
BGD
1002
{
1002
}
1000
Color
1070
     1
1070
   256
1002
{
1002
}
1000
LType
1070
     4
1000
BYLAYER
1002
{
1002
}
1002
}
1000
SCEN
1070
     9
1000
7
1002
{
1000
Class
1070
     4
1000

1002
{
1002
}
1000
Color
1070
     1
1070
   256
1002
{
1002
}
1000
LType
1070
     4
1000
CONTINUOUS
1002
{
1002
}
1002
}
1000
SECT
1070
     9
1000
4
1002
{
1000
Class
1070
     4
1000
BGD
1002
{
1002
}
1000
Color
1070
     1
1070
   256
1002
{
1002
}
1000
LType
1070
     4
1000
BYLAYER
1002
{
1002
}
1002
}
1000
SELN
1070
     9
1000
7A
1002
{
1000
Class
1070
     4
1000

1002
{
1002
}
1000
Color
1070
     1
1070
   256
1002
{
1002
}
1000
LType
1070
     4
1000
BYLAYER
1002
{
1002
}
1002
}
1000
SELW
1070
     9
1000
7
1002
{
1000
Class
1070
     4
1000

1002
{
1002
}
1000
Color
1070
     1
1070
   256
1002
{
1002
}
1000
LType
1070
     4
1000
BYLAYER
1002
{
1002
}
1002
}
1000
SSYS
1070
     9
1000
0
1002
{
1000
Class
1070
     4
1000

1002
{
1002
}
1000
Color
1070
     1
1070
   256
1002
{
1002
}
1000
LType
1070
     4
1000
BYLAYER
1002
{
1002
}
1002
}
1000
STLI
1070
     9
1000
4
1002
{
1000
Class
1070
     4
1000

1002
{
1002
}
1000
Color
1070
     1
1070
     7
1002
{
1002
}
1000
LType
1070
     4
1000
GEN3A
1002
{
1002
}
1002
}
1000
SYB1
1070
     9
1000
5
1002
{
1000
Class
1070
     4
1000
SYM
1002
{
1002
}
1000
Color
1070
     1
1070
   256
1002
{
1002
}
1000
LType
1070
     4
1000
BYLAYER
1002
{
1002
}
1002
}
1000
SYB2
1070
     9
1000
5
1002
{
1000
Class
1070
     4
1000
SYM
1002
{
1002
}
1000
Color
1070
     1
1070
   256
1002
{
1002
}
1000
LType
1070
     4
1000
BYLAYER
1002
{
1002
}
1002
}
1000
SYB3
1070
     9
1000
6
1002
{
1000
Class
1070
     4
1000
SYM
1002
{
1002
}
1000
Color
1070
     1
1070
   256
1002
{
1002
}
1000
LType
1070
     4
1000
CONTINUOUS
1002
{
1002
}
1002
}
1000
SYB5
1070
     9
1000
5
1002
{
1000
Class
1070
     4
1000
SYM
1002
{
1002
}
1000
Color
1070
     1
1070
     7
1002
{
1002
}
1000
LType
1070
     4
1000
BYLAYER
1002
{
1002
}
1002
}
1000
SYMN
1070
     9
1000
7A
1002
{
1000
Class
1070
     4
1000
CEN
1002
{
1002
}
1000
Color
1070
     1
1070
   256
1002
{
1002
}
1000
LType
1070
     4
1000
BYLAYER
1002
{
1002
}
1002
}
1000
SYMW
1070
     9
1000
7
1002
{
1000
Class
1070
     4
1000
CEN
1002
{
1002
}
1000
Color
1070
     1
1070
   256
1002
{
1002
}
1000
LType
1070
     4
1000
BYLAYER
1002
{
1002
}
1002
}
1000
TCON
1070
     9
1000
0
1002
{
1000
Class
1070
     4
1000
CON,BGD
1002
{
1002
}
1000
Color
1070
     1
1070
   256
1002
{
1002
}
1000
LType
1070
     4
1000
BYLAYER
1002
{
1002
}
1002
}
1000
THLI
1070
     9
1000
4
1002
{
1000
Class
1070
     4
1000
BGD
1002
{
1002
}
1000
Color
1070
     1
1070
   256
1002
{
1002
}
1000
LType
1070
     4
1000
BYLAYER
1002
{
1002
}
1002
}
1000
TIT2
1070
     9
1000
RAHM2
1002
{
1000
Class
1070
     4
1000
SPZ,SYM
1002
{
1002
}
1000
Color
1070
     1
1070
   256
1002
{
1002
}
1000
LType
1070
     4
1000
BYLAYER
1002
{
1002
}
1002
}
1000
TIT3
1070
     9
1000
RAHM3
1002
{
1000
Class
1070
     4
1000
SPZ,SYM
1002
{
1002
}
1000
Color
1070
     1
1070
   256
1002
{
1002
}
1000
LType
1070
     4
1000
BYLAYER
1002
{
1002
}
1002
}
1000
TIT5
1070
     9
1000
RAHM5
1002
{
1000
Class
1070
     4
1000
SPZ,SYM
1002
{
1002
}
1000
Color
1070
     1
1070
   256
1002
{
1002
}
1000
LType
1070
     4
1000
BYLAYER
1002
{
1002
}
1002
}
1000
TIT7
1070
     9
1000
RAHM5
1002
{
1000
Class
1070
     4
1000
SPZ,SYM
1002
{
1002
}
1000
Color
1070
     1
1070
     7
1002
{
1002
}
1000
LType
1070
     4
1000
CONTINUOUS
1002
{
1002
}
1002
}
1000
TLEN
1070
     9
1000
0
1002
{
1000
Class
1070
     4
1000
CON,BGD
1002
{
1002
}
1000
Color
1070
     1
1070
   256
1002
{
1002
}
1000
LType
1070
     4
1000
BYLAYER
1002
{
1002
}
1002
}
1000
TRKN
1070
     9
1000
7A
1002
{
1000
Class
1070
     4
1000

1002
{
1002
}
1000
Color
1070
     1
1070
   256
1002
{
1002
}
1000
LType
1070
     4
1000
BYLAYER
1002
{
1002
}
1002
}
1000
TRKW
1070
     9
1000
7
1002
{
1000
Class
1070
     4
1000

1002
{
1002
}
1000
Color
1070
     1
1070
   256
1002
{
1002
}
1000
LType
1070
     4
1000
BYLAYER
1002
{
1002
}
1002
}
1000
TRLI
1070
     9
1000
4
1002
{
1000
Class
1070
     4
1000
BGD
1002
{
1002
}
1000
Color
1070
     1
1070
   256
1002
{
1002
}
1000
LType
1070
     4
1000
BYLAYER
1002
{
1002
}
1002
}
1000
TXT1
1070
     9
1000
6
1002
{
1000
Class
1070
     4
1000
SYM
1002
{
1002
}
1000
Color
1070
     1
1070
     2
1002
{
1002
}
1000
LType
1070
     4
1000
BYLAYER
1002
{
1002
}
1002
}
1000
TXT2
1070
     9
1000
6
1002
{
1000
Class
1070
     4
1000
SYM
1002
{
1002
}
1000
Color
1070
     1
1070
     2
1002
{
1002
}
1000
LType
1070
     4
1000
BYLAYER
1002
{
1002
}
1002
}
1000
TXT3
1070
     9
1000
6
1002
{
1000
Class
1070
     4
1000
SYM
1002
{
1002
}
1000
Color
1070
     1
1070
   256
1002
{
1002
}
1000
LType
1070
     4
1000
BYLAYER
1002
{
1002
}
1002
}
1000
TXT5
1070
     9
1000
6
1002
{
1000
Class
1070
     4
1000
SYM
1002
{
1002
}
1000
Color
1070
     1
1070
     7
1002
{
1002
}
1000
LType
1070
     4
1000
BYLAYER
1002
{
1002
}
1002
}
1000
TXT7
1070
     9
1000
6
1002
{
1000
Class
1070
     4
1000
SYM
1002
{
1002
}
1000
Color
1070
     1
1070
     7
1002
{
1002
}
1000
LType
1070
     4
1000
BYLAYER
1002
{
1002
}
1002
}
1000
VIEW
1070
     9
1000
VIEW
1002
{
1000
Class
1070
     4
1000
SPZ
1002
{
1002
}
1000
Color
1070
     1
1070
   256
1002
{
1002
}
1000
LType
1070
     4
1000
BYLAYER
1002
{
1002
}
1002
}
1000
VPLI
1070
     9
1000
2A
1002
{
1000
Class
1070
     4
1000

1002
{
1002
}
1000
Color
1070
     1
1070
   256
1002
{
1002
}
1000
LType
1070
     4
1000
BYLAYER
1002
{
1002
}
1002
}
1000
ZIZA
1070
     9
1000
4
1002
{
1000
Class
1070
     4
1000
BGD
1002
{
1002
}
1000
Color
1070
     1
1070
   256
1002
{
1002
}
1000
LType
1070
     4
1000
GENZIGZAG
1002
{
1002
}
1002
}
  0
APPID
  5
25A
100
AcDbSymbolTableRecord
100
AcDbRegAppTableRecord
  2
GENIUS_GENCFG4_13
 70
     0
1001
GENIUS_GENCFG_13
1071
890904209
1000
25A
1000
GEN
1070
    12
1000
GenCfgObject
1000
GenCfgShort
1000
GenCfgReal
1000
GenCfgBool
1000
GenCfgString
1000
GenCfgDim
1000
GenCfgAttrInf
1000
GenCfgLaySection
1000
GenCfgLayer
1000
GenCfgEntSort
1000
GenCfgLType
1000
GenCfgFilter
1000
Balloon
1070
     0
1002
{
1000
GenIF
1070
     1
1070
     0
1002
{
1002
}
1000
GenPosInc
1070
     1
1070
     1
1002
{
1002
}
1000
GenPosBlk
1070
     1
1070
     8
1002
{
1002
}
1000
GenPosVar
1070
     1
1070
     0
1002
{
1002
}
1000
GenZiCir
1070
     2
1040
1.5
1002
{
1002
}
1000
MaxCharForCenteredText
1070
     1
1070
    30
1002
{
1002
}
1000
Snap
1070
     0
1002
{
1000
ActivationRadius
1070
     2
1040
1.0
1002
{
1002
}
1000
M
1070
     0
1002
{
1000
SnapStepX
1070
     2
1040
20.0
1002
{
1002
}
1000
SnapStepY
1070
     2
1040
10.0
1002
{
1002
}
1002
}
1000
I
1070
     0
1002
{
1000
SnapStepX
1070
     2
1040
1.0
1002
{
1002
}
1000
SnapStepY
1070
     2
1040
0.5
1002
{
1002
}
1002
}
1002
}
1002
}
1000
Centerline
1070
     0
1002
{
1000
ScaleNot
1070
     3
1070
     0
1002
{
1002
}
1000
M
1070
     0
1002
{
1000
GenCenAng
1070
     4
1000
45|90|135
1002
{
1002
}
1000
GenCenDia
1070
     2
1040
10.0
1002
{
1002
}
1000
GenCenDias
1070
     4
1000
10|20|30
1002
{
1002
}
1000
GenCenDist
1070
     2
1040
3.0
1002
{
1002
}
1000
GenCenLen
1070
     2
1040
10.0
1002
{
1002
}
1000
GenCenOff
1070
     2
1040
10.0
1002
{
1002
}
1002
}
1000
I
1070
     0
1002
{
1000
GenCenAng
1070
     4
1000
45|90|135
1002
{
1002
}
1000
GenCenDia
1070
     2
1040
0.5
1002
{
1002
}
1000
GenCenDias
1070
     4
1000
0.5|1.0|1.5
1002
{
1002
}
1000
GenCenDist
1070
     2
1040
0.125
1002
{
1002
}
1000
GenCenLen
1070
     2
1040
0.5
1002
{
1002
}
1000
GenCenOff
1070
     2
1040
0.5
1002
{
1002
}
1002
}
1002
}
1000
CLine
1070
     0
1002
{
1000
CAngArray
1070
     4
1000
30|45|60
1002
{
1002
}
1000
Typ
1070
     4
1000
XLINE
1002
{
1002
}
1000
M
1070
     0
1002
{
1000
CLinArray
1070
     4
1000
10|20|30
1002
{
1002
}
1002
}
1000
I
1070
     0
1002
{
1000
CLinArray
1070
     4
1000
0.125|0.25|0.5
1002
{
1002
}
1002
}
1002
}
1000
Detail
1070
     0
1002
{
1002
}
1000
Dimension
1070
     5
1002
{
1000
DIMALT
1070
     1
1070
     0
1002
{
1002
}
1000
DIMALTD
1070
     1
1070
     2
1002
{
1002
}
1000
DIMALTTD
1070
     1
1070
     4
1002
{
1002
}
1000
DIMALTTZ
1070
     1
1070
     0
1002
{
1002
}
1000
DIMALTU
1070
     1
1070
     2
1002
{
1002
}
1000
DIMALTZ
1070
     1
1070
     0
1002
{
1002
}
1000
DIMAPOST
1070
     4
1000

1002
{
1002
}
1000
DIMAUNIT
1070
     1
1070
     0
1002
{
1002
}
1000
DIMBLK
1070
     4
1000

1002
{
1002
}
1000
DIMBLK1
1070
     4
1000

1002
{
1002
}
1000
DIMBLK2
1070
     4
1000

1002
{
1002
}
1000
DIMDLE
1070
     2
1040
0.0
1002
{
1002
}
1000
DIMFIT
1070
     1
1070
     3
1002
{
1002
}
1000
DIMJUST
1070
     1
1070
     0
1002
{
1002
}
1000
DIMLFAC
1070
     2
1040
1.0
1002
{
1002
}
1000
DIMLIM
1070
     1
1070
     0
1002
{
1002
}
1000
DIMPOST
1070
     4
1000
<>
1002
{
1002
}
1000
DIMRND
1070
     2
1040
0.0
1002
{
1002
}
1000
DIMSAH
1070
     1
1070
     0
1002
{
1002
}
1000
DIMSCALE
1070
     2
1040
1.0
1002
{
1002
}
1000
DIMSD1
1070
     1
1070
     0
1002
{
1002
}
1000
DIMSD2
1070
     1
1070
     0
1002
{
1002
}
1000
DIMSE1
1070
     1
1070
     0
1002
{
1002
}
1000
DIMSE2
1070
     1
1070
     0
1002
{
1002
}
1000
DIMSOXD
1070
     1
1070
     0
1002
{
1002
}
1000
DIMTAD
1070
     1
1070
     0
1002
{
1002
}
1000
DIMTFAC
1070
     2
1040
0.71
1002
{
1002
}
1000
DIMTIH
1070
     1
1070
     0
1002
{
1002
}
1000
DIMTIX
1070
     1
1070
     0
1002
{
1002
}
1000
DIMTM
1070
     2
1040
0.1
1002
{
1002
}
1000
DIMTOFL
1070
     1
1070
     0
1002
{
1002
}
1000
DIMTOH
1070
     1
1070
     0
1002
{
1002
}
1000
DIMTOL
1070
     1
1070
     0
1002
{
1002
}
1000
DIMTOLJ
1070
     1
1070
     1
1002
{
1002
}
1000
DIMTP
1070
     2
1040
0.1
1002
{
1002
}
1000
DIMTSZ
1070
     2
1040
0.0
1002
{
1002
}
1000
DIMTVP
1070
     2
1040
0.0
1002
{
1002
}
1000
DIMTXSTY
1070
     4
1000
STANDARD
1002
{
1002
}
1000
DIMTZIN
1070
     1
1070
     0
1002
{
1002
}
1000
DIMUNIT
1070
     1
1070
     2
1002
{
1002
}
1000
DIMUPT
1070
     1
1070
     0
1002
{
1002
}
1000
M
1070
     0
1002
{
1000
DIMALTF
1070
     2
1040
0.03937
1002
{
1002
}
1000
DIMASZ
1070
     2
1040
3.5
1002
{
1002
}
1000
DIMCEN
1070
     2
1040
0.0
1002
{
1002
}
1000
DIMDEC
1070
     1
1070
     2
1002
{
1002
}
1000
DIMDLI
1070
     2
1040
7.0
1002
{
1002
}
1000
DIMEXE
1070
     2
1040
1.0
1002
{
1002
}
1000
DIMEXO
1070
     2
1040
1.0
1002
{
1002
}
1000
DIMGAP
1070
     2
1040
0.6
1002
{
1002
}
1000
DIMTDEC
1070
     1
1070
     3
1002
{
1002
}
1000
DIMTXT
1070
     2
1040
3.5
1002
{
1002
}
1000
DIMZIN
1070
     1
1070
     8
1002
{
1002
}
1002
}
1000
I
1070
     0
1002
{
1000
DIMALTF
1070
     2
1040
25.4
1002
{
1002
}
1000
DIMASZ
1070
     2
1040
0.1
1002
{
1002
}
1000
DIMCEN
1070
     2
1040
0.0
1002
{
1002
}
1000
DIMDEC
1070
     1
1070
     4
1002
{
1002
}
1000
DIMDLI
1070
     2
1040
0.5
1002
{
1002
}
1000
DIMEXE
1070
     2
1040
0.1
1002
{
1002
}
1000
DIMEXO
1070
     2
1040
0.05
1002
{
1002
}
1000
DIMGAP
1070
     2
1040
0.06
1002
{
1002
}
1000
DIMTDEC
1070
     1
1070
     4
1002
{
1002
}
1000
DIMTXT
1070
     2
1040
0.12
1002
{
1002
}
1000
DIMZIN
1070
     1
1070
     7
1002
{
1002
}
1002
}
1000
GEN-ISO
1070
     5
1002
{
1000
NAME
1070
     4
1000
GEN-ISO
1002
{
1002
}
1000
DIMTAD
1070
     1
1070
     1
1002
{
1002
}
1000
DIMTOLJ
1070
     1
1070
     0
1002
{
1002
}
1000
DIMTOFL
1070
     1
1070
     1
1002
{
1002
}
1000
M
1070
     0
1002
{
1002
}
1000
I
1070
     0
1002
{
1002
}
1000
DIMSCALE
1070
     2
1040
1.0
1002
{
1002
}
1000
DIMPOST
1070
     4
1000
<>
1002
{
1002
}
1000
DIMTIH
1070
     1
1070
     0
1002
{
1002
}
1000
DIMFIT
1070
     1
1070
     3
1002
{
1002
}
1000
DIMTOL
1070
     1
1070
     0
1002
{
1002
}
1000
DIMUPT
1070
     1
1070
     0
1002
{
1002
}
1000
DIMTZIN
1070
     1
1070
     0
1002
{
1002
}
1000
DIMLFAC
1070
     2
1040
1.0
1002
{
1002
}
1000
DIMBLK1
1070
     4
1000

1002
{
1002
}
1000
DIMSAH
1070
     1
1070
     0
1002
{
1002
}
1000
GEN-ISO
1070
     5
1002
{
1002
}
1002
}
1000
GEN-ISO-POS
1070
     5
1002
{
1000
NAME
1070
     4
1000
GEN-ISO-POS
1002
{
1002
}
1000
DIMTOLJ
1070
     1
1070
     0
1002
{
1002
}
1000
M
1070
     0
1002
{
1000
DIMGAP
1070
     2
1040
1.5
1002
{
1002
}
1002
}
1000
I
1070
     0
1002
{
1000
DIMASZ
1070
     2
1040
0.1
1002
{
1002
}
1000
DIMGAP
1070
     2
1040
0.06
1002
{
1002
}
1000
DIMTXT
1070
     2
1040
0.2
1002
{
1002
}
1002
}
1000
DIMTXSTY
1070
     4
1000
STANDARD
1002
{
1002
}
1000
DIMBLK1
1070
     4
1000

1002
{
1002
}
1000
DIMBLK2
1070
     4
1000

1002
{
1002
}
1000
DIMSAH
1070
     1
1070
     0
1002
{
1002
}
1000
DIMPOST
1070
     4
1000
<>
1002
{
1002
}
1000
DIMSCALE
1070
     2
1040
1.0
1002
{
1002
}
1000
DIMTAD
1070
     1
1070
     0
1002
{
1002
}
1002
}
1000
GEN-ISO-CIR
1070
     5
1002
{
1000
NAME
1070
     4
1000
GEN-ISO$3
1002
{
1002
}
1000
DIMFIT
1070
     1
1070
     0
1002
{
1002
}
1000
DIMTAD
1070
     1
1070
     1
1002
{
1002
}
1000
DIMTIH
1070
     1
1070
     0
1002
{
1002
}
1000
DIMTIX
1070
     1
1070
     0
1002
{
1002
}
1000
DIMTOH
1070
     1
1070
     1
1002
{
1002
}
1000
DIMTOLJ
1070
     1
1070
     0
1002
{
1002
}
1000
DIMTOFL
1070
     1
1070
     0
1002
{
1002
}
1000
DIMUPT
1070
     1
1070
     1
1002
{
1002
}
1000
M
1070
     0
1002
{
1002
}
1000
I
1070
     0
1002
{
1002
}
1000
DIMPOST
1070
     4
1000
<>
1002
{
1002
}
1002
}
1000
GEN-ISO-RAD
1070
     5
1002
{
1000
NAME
1070
     4
1000
GEN-ISO$4
1002
{
1002
}
1000
DIMFIT
1070
     1
1070
     0
1002
{
1002
}
1000
DIMTAD
1070
     1
1070
     1
1002
{
1002
}
1000
DIMTIH
1070
     1
1070
     0
1002
{
1002
}
1000
DIMTIX
1070
     1
1070
     0
1002
{
1002
}
1000
DIMTOH
1070
     1
1070
     1
1002
{
1002
}
1000
DIMTOLJ
1070
     1
1070
     0
1002
{
1002
}
1000
DIMTOFL
1070
     1
1070
     0
1002
{
1002
}
1000
DIMUPT
1070
     1
1070
     1
1002
{
1002
}
1000
M
1070
     0
1002
{
1002
}
1000
I
1070
     0
1002
{
1002
}
1000
DIMSCALE
1070
     2
1040
1.0
1002
{
1002
}
1000
DIMSE1
1070
     1
1070
     0
1002
{
1002
}
1000
DIMPOST
1070
     4
1000
<>
1002
{
1002
}
1002
}
1000
GEN-ISO-ORD
1070
     5
1002
{
1000
NAME
1070
     4
1000
GEN-ISO$6
1002
{
1002
}
1000
DIMTOLJ
1070
     1
1070
     0
1002
{
1002
}
1000
M
1070
     0
1002
{
1002
}
1000
I
1070
     0
1002
{
1002
}
1000
DIMSCALE
1070
     2
1040
1.0
1002
{
1002
}
1000
DIMPOST
1070
     4
1000
<>
1002
{
1002
}
1000
DIMTOH
1070
     1
1070
     0
1002
{
1002
}
1000
DIMTOFL
1070
     1
1070
     0
1002
{
1002
}
1000
DIMTAD
1070
     1
1070
     0
1002
{
1002
}
1000
DIMTOL
1070
     1
1070
     0
1002
{
1002
}
1000
DIMJUST
1070
     1
1070
     0
1002
{
1002
}
1000
DIMTIH
1070
     1
1070
     0
1002
{
1002
}
1000
DIMTZIN
1070
     1
1070
     0
1002
{
1002
}
1002
}
1000
GEN-ISO-AXE-F
1070
     5
1002
{
1000
NAME
1070
     4
1000
GEN-ISO-AXE-F
1002
{
1002
}
1000
DIMSE1
1070
     1
1070
     1
1002
{
1002
}
1000
DIMSE2
1070
     1
1070
     1
1002
{
1002
}
1000
DIMTAD
1070
     1
1070
     1
1002
{
1002
}
1000
DIMTOLJ
1070
     1
1070
     0
1002
{
1002
}
1000
DIMTOFL
1070
     1
1070
     1
1002
{
1002
}
1000
M
1070
     0
1002
{
1002
}
1000
I
1070
     0
1002
{
1002
}
1000
DIMPOST
1070
     4
1000
<>
1002
{
1002
}
1002
}
1000
GEN-ISO-AXE-H
1070
     5
1002
{
1000
DIMBLK1
1070
     4
1000
GENAXEH
1002
{
1002
}
1000
DIMLFAC
1070
     2
1040
2.0
1002
{
1002
}
1000
DIMSAH
1070
     1
1070
     1
1002
{
1002
}
1000
DIMSE1
1070
     1
1070
     1
1002
{
1002
}
1000
DIMSE2
1070
     1
1070
     1
1002
{
1002
}
1000
DIMTAD
1070
     1
1070
     1
1002
{
1002
}
1000
DIMTOLJ
1070
     1
1070
     0
1002
{
1002
}
1000
DIMTOFL
1070
     1
1070
     1
1002
{
1002
}
1000
M
1070
     0
1002
{
1002
}
1000
I
1070
     0
1002
{
1002
}
1000
DIMPOST
1070
     4
1000
<>
1002
{
1002
}
1002
}
1000
GEN-ANSI
1070
     5
1002
{
1000
NAME
1070
     4
1000
GEN-ANSI
1002
{
1002
}
1000
DIMTIH
1070
     1
1070
     1
1002
{
1002
}
1000
DIMTOH
1070
     1
1070
     1
1002
{
1002
}
1000
DIMTAD
1070
     1
1070
     0
1002
{
1002
}
1000
DIMTOLJ
1070
     1
1070
     1
1002
{
1002
}
1000
M
1070
     0
1002
{
1002
}
1000
I
1070
     0
1002
{
1002
}
1002
}
1000
GEN-ANSI-POS
1070
     5
1002
{
1000
NAME
1070
     4
1000
GEN-ANSI-POS
1002
{
1002
}
1000
DIMTOLJ
1070
     1
1070
     1
1002
{
1002
}
1000
M
1070
     0
1002
{
1000
DIMASZ
1070
     2
1040
2.5
1002
{
1002
}
1000
DIMGAP
1070
     2
1040
1.5
1002
{
1002
}
1000
DIMTXT
1070
     2
1040
5.0
1002
{
1002
}
1002
}
1000
I
1070
     0
1002
{
1000
DIMASZ
1070
     2
1040
0.1
1002
{
1002
}
1000
DIMGAP
1070
     2
1040
0.06
1002
{
1002
}
1000
DIMTXT
1070
     2
1040
0.2
1002
{
1002
}
1002
}
1000
DIMTXSTY
1070
     4
1000
STANDARD
1002
{
1002
}
1002
}
1000
GEN-ANSI-CIR
1070
     5
1002
{
1000
NAME
1070
     4
1000
GEN-ANSI$3
1002
{
1002
}
1000
DIMFIT
1070
     1
1070
     0
1002
{
1002
}
1000
DIMTAD
1070
     1
1070
     0
1002
{
1002
}
1000
DIMTIH
1070
     1
1070
     1
1002
{
1002
}
1000
DIMTIX
1070
     1
1070
     0
1002
{
1002
}
1000
DIMTOFL
1070
     1
1070
     0
1002
{
1002
}
1000
DIMTOH
1070
     1
1070
     1
1002
{
1002
}
1000
DIMTOLJ
1070
     1
1070
     1
1002
{
1002
}
1000
DIMUPT
1070
     1
1070
     1
1002
{
1002
}
1000
M
1070
     0
1002
{
1002
}
1000
I
1070
     0
1002
{
1002
}
1002
}
1000
GEN-ANSI-RAD
1070
     5
1002
{
1000
NAME
1070
     4
1000
GEN-ANSI$4
1002
{
1002
}
1000
DIMFIT
1070
     1
1070
     0
1002
{
1002
}
1000
DIMTAD
1070
     1
1070
     0
1002
{
1002
}
1000
DIMTIH
1070
     1
1070
     1
1002
{
1002
}
1000
DIMTIX
1070
     1
1070
     0
1002
{
1002
}
1000
DIMTOFL
1070
     1
1070
     0
1002
{
1002
}
1000
DIMTOH
1070
     1
1070
     1
1002
{
1002
}
1000
DIMTOLJ
1070
     1
1070
     1
1002
{
1002
}
1000
DIMUPT
1070
     1
1070
     1
1002
{
1002
}
1000
M
1070
     0
1002
{
1002
}
1000
I
1070
     0
1002
{
1002
}
1002
}
1000
GEN-ANSI-ORD
1070
     5
1002
{
1000
NAME
1070
     4
1000
GEN-ANSI$6
1002
{
1002
}
1000
DIMTAD
1070
     1
1070
     0
1002
{
1002
}
1000
DIMTIH
1070
     1
1070
     1
1002
{
1002
}
1000
DIMTOH
1070
     1
1070
     1
1002
{
1002
}
1000
DIMTOLJ
1070
     1
1070
     1
1002
{
1002
}
1000
M
1070
     0
1002
{
1002
}
1000
I
1070
     0
1002
{
1002
}
1000
DIMBLK1
1070
     4
1000

1002
{
1002
}
1002
}
1000
GEN-ANSI-AXE-F
1070
     5
1002
{
1000
NAME
1070
     4
1000
GEN-ANSI-AXE-F
1002
{
1002
}
1000
DIMBLK1
1070
     4
1000
GENAXEH
1002
{
1002
}
1000
DIMSAH
1070
     1
1070
     1
1002
{
1002
}
1000
DIMSE1
1070
     1
1070
     1
1002
{
1002
}
1000
DIMSE2
1070
     1
1070
     1
1002
{
1002
}
1000
DIMTAD
1070
     1
1070
     0
1002
{
1002
}
1000
DIMTIH
1070
     1
1070
     1
1002
{
1002
}
1000
DIMTOH
1070
     1
1070
     1
1002
{
1002
}
1000
DIMTOLJ
1070
     1
1070
     1
1002
{
1002
}
1000
M
1070
     0
1002
{
1002
}
1000
I
1070
     0
1002
{
1002
}
1002
}
1000
GEN-ANSI-AXE-H
1070
     5
1002
{
1000
NAME
1070
     4
1000
GEN-ANSI-AXE-H
1002
{
1002
}
1000
DIMBLK1
1070
     4
1000
GENAXEH
1002
{
1002
}
1000
DIMLFAC
1070
     2
1040
2.0
1002
{
1002
}
1000
DIMSAH
1070
     1
1070
     1
1002
{
1002
}
1000
DIMSE1
1070
     1
1070
     1
1002
{
1002
}
1000
DIMSE2
1070
     1
1070
     1
1002
{
1002
}
1000
DIMTAD
1070
     1
1070
     0
1002
{
1002
}
1000
DIMTOFL
1070
     1
1070
     1
1002
{
1002
}
1000
DIMTOLJ
1070
     1
1070
     1
1002
{
1002
}
1000
M
1070
     0
1002
{
1002
}
1000
I
1070
     0
1002
{
1002
}
1002
}
1000
DIMZIN
1070
     1
1070
     8
1002
{
1002
}
1002
}
1000
DimSet
1070
     0
1002
{
1000
ChainSum
1070
     3
1070
     0
1002
{
1002
}
1000
DimDclTyp0
1070
     4
1000
dim23
1002
{
1002
}
1000
HorBra
1070
     3
1070
     0
1002
{
1002
}
1000
StrDia
1070
     4
1000
%%c<>
1002
{
1002
}
1000
StrRad
1070
     4
1000
R<>
1002
{
1002
}
1000
TextMinus
1070
     4
1000
<>
1002
{
1002
}
1000
TextPlus
1070
     4
1000
<>
1002
{
1002
}
1000
M
1070
     0
1002
{
1000
DimdliFirst
1070
     2
1040
10.0
1002
{
1002
}
1000
PointMakeDist
1070
     2
1040
10.0
1002
{
1002
}
1002
}
1000
I
1070
     0
1002
{
1000
DimdliFirst
1070
     2
1040
0.5
1002
{
1002
}
1000
PointMakeDist
1070
     2
1040
0.5
1002
{
1002
}
1002
}
1002
}
1000
Drawing
1070
     0
1002
{
1000
ChamferDimMode
1070
     1
1070
     2
1002
{
1002
}
1000
Gen_Fiso
1070
    -3
1040
1.0
1002
{
1002
}
1000
GenDimStil
1070
     4
1000
ISO
1002
{
1002
}
1000
GenDwgUScale
1070
     2
1040
1.0
1002
{
1002
}
1000
GenInch
1070
     4
1000
M
1002
{
1002
}
1000
GenPlotScale
1070
     4
1000
1:1
1002
{
1002
}
1000
Revisi
1070
     4
1000
0
1002
{
1002
}
1000
Version
1070
    -5
1000
13.1/May  9 1996
1002
{
1002
}
1000
Platform
1070
    -5
1000
WINNT
1002
{
1002
}
1002
}
1000
DwgVar
1070
     0
1002
{
1000
M
1070
     0
1002
{
1002
}
1000
I
1070
     0
1002
{
1002
}
1002
}
1000
Hatch
1070
     0
1002
{
1000
GenHtcFlag
1070
     3
1070
     0
1002
{
1002
}
1002
}
1000
Info_Pos
1070
     0
1002
{
1000
>
1002
}
1000
Layer
1070
     7
1002
{
1000
Defs
1070
     0
1002
{
1000
>
1002
}
1000
EntSort
1070
     0
1002
{
1000
>
1002
}
1000
Match
1070
     0
1002
{
1002
}
1000
Settings
1070
     0
1002
{
1000
FocGrNC
1070
     3
1070
     0
1002
{
1002
}
1000
FocGrLo
1070
     3
1070
     0
1002
{
1002
}
1000
FocLoNC
1070
     3
1070
     0
1002
{
1002
}
1000
FocusCol
1070
     1
1070
   253
1002
{
1002
}
1000
GenStdLG
1070
     4
1000

1002
{
1002
}
1000
LayMatch
1070
     3
1070
     0
1002
{
1002
}
1000
LgOff
1070
     3
1070
     0
1002
{
1002
}
1000
CurLG
1070
    -5
1000

1002
{
1002
}
1002
}
1002
}
1000
LType
1070
     0
1002
{
1000
GEN3
1070
    10
1000
genius.lin
1002
{
1002
}
1000
GEN7
1070
    10
1000
genius.lin
1002
{
1002
}
1000
GEN4A
1070
    10
1000
genius.lin
1002
{
1002
}
1000
GEN3A
1070
    10
1000
genius.lin
1002
{
1002
}
1000
GEN7A
1070
    10
1000
genius.lin
1002
{
1002
}
1000
GENZIGZAG
1070
    10
1000
genius.lin
1002
{
1002
}
1002
}
1000
Objecter
1070
     0
1002
{
1000
CreateGroups
1070
     3
1070
     0
1002
{
1002
}
1000
LaySwitch
1070
     3
1070
     1
1002
{
1002
}
1000
LastObj
1070
    -5
1000
0
1002
{
1002
}
1002
}
1000
OSWiz
1070
     0
1002
{
1000
AngleStep
1070
     0
1002
{
1000
M
1070
     2
1040
10.0
1002
{
1002
}
1000
I
1070
     2
1040
0.4
1002
{
1002
}
1002
}
1000
AngleIncr
1070
     2
1040
45.0
1002
{
1002
}
1000
Filter
1070
     0
1002
{
1000
HATCH
1070
    11
1002
{
1000
EntityType
1070
     4
1000
LINE
1002
{
1002
}
1000
Layer
1070
     4
1000
8,8N,*-8,*-8N
1002
{
1002
}
1000
Linetype
1070
     4
1000
*
1002
{
1002
}
1000
Color
1070
     4
1000
*
1002
{
1002
}
1002
}
1002
}
1000
IconSize
1070
     2
1040
1.0
1002
{
1002
}
1000
SnapColor
1070
     1
1070
     3
1002
{
1002
}
1002
}
1000
PaList
1070
     0
1002
{
1000
AutoUpdatePartList
1070
     3
1070
     0
1002
{
1002
}
1000
ReadInfoPoint
1070
     3
1070
     0
1002
{
1002
}
1000
ReadPosNr
1070
     3
1070
     1
1002
{
1002
}
1000
RevStr
1070
     4
1000
0
1002
{
1002
}
1002
}
1000
Paper
1070
     0
1002
{
1002
}
1000
PartDB
1070
     0
1002
{
1000
GenDbOwner
1070
     4
1000

1002
{
1002
}
1002
}
1000
System
1070
     0
1002
{
1000
Menu
1070
     4
1000
GEV
1002
{
1002
}
1002
}
1000
Title
1070
     0
1002
{
1000
MakeView
1070
     1
1070
     2
1002
{
1002
}
1002
}
  0
ENDTAB
  0
TABLE
  2
DIMSTYLE
  5
16
100
AcDbSymbolTable
 70
     1
  0
DIMSTYLE
105
1C
100
AcDbSymbolTableRecord
100
AcDbDimStyleTableRecord
  2
GEN-ISO
 70
     0
  3
<>
  4

  5

  6

  7

 40
1.0
 41
2.5
 42
1.0
 43
7.0
 44
1.0
 45
0.0
 46
0.0
 47
0.1
 48
0.1
140
3.5
141
0.0
142
0.0
143
0.03937
144
1.0
145
0.0
146
0.71
147
0.6
 71
     0
 72
     0
 73
     0
 74
     0
 75
     0
 76
     0
 77
     1
 78
     8
170
     0
171
     2
172
     1
173
     0
174
     0
175
     0
176
   256
177
   256
178
     2
270
     2
271
     2
272
     3
273
     2
274
     4
340
D
275
     0
280
     0
281
     0
282
     0
283
     0
284
     0
285
     0
286
     0
287
     3
288
     0
  0
ENDTAB
  0
TABLE
  2
BLOCK_RECORD
  5
1
100
AcDbSymbolTable
 70
    15
  0
BLOCK_RECORD
  5
2
100
AcDbSymbolTableRecord
100
AcDbBlockTableRecord
  2
*MODEL_SPACE
  0
BLOCK_RECORD
  5
8
100
AcDbSymbolTableRecord
100
AcDbBlockTableRecord
  2
*PAPER_SPACE
  0
BLOCK_RECORD
  5
D7
100
AcDbSymbolTableRecord
100
AcDbBlockTableRecord
  2
*X0
  0
BLOCK_RECORD
  5
BC
100
AcDbSymbolTableRecord
100
AcDbBlockTableRecord
  2
*X1
  0
BLOCK_RECORD
  5
79
100
AcDbSymbolTableRecord
100
AcDbBlockTableRecord
  2
*X2
  0
BLOCK_RECORD
  5
16A
100
AcDbSymbolTableRecord
100
AcDbBlockTableRecord
  2
*X3
  0
BLOCK_RECORD
  5
187
100
AcDbSymbolTableRecord
100
AcDbBlockTableRecord
  2
*X4
  0
BLOCK_RECORD
  5
3D
100
AcDbSymbolTableRecord
100
AcDbBlockTableRecord
  2
SLK0201
  0
BLOCK_RECORD
  5
5A
100
AcDbSymbolTableRecord
100
AcDbBlockTableRecord
  2
SLK0202
  0
BLOCK_RECORD
  5
15E
100
AcDbSymbolTableRecord
100
AcDbBlockTableRecord
  2
SLK0204
  0
BLOCK_RECORD
  5
76
100
AcDbSymbolTableRecord
100
AcDbBlockTableRecord
  2
SLK0205
  0
BLOCK_RECORD
  5
24C
100
AcDbSymbolTableRecord
100
AcDbBlockTableRecord
  2
SLK0207
  0
BLOCK_RECORD
  5
3B
100
AcDbSymbolTableRecord
100
AcDbBlockTableRecord
  2
SLK0203
  0
BLOCK_RECORD
  5
70
100
AcDbSymbolTableRecord
100
AcDbBlockTableRecord
  2
SLK0206
  0
BLOCK_RECORD
  5
128
100
AcDbSymbolTableRecord
100
AcDbBlockTableRecord
  2
*U12
  0
BLOCK_RECORD
  5
2E
100
AcDbSymbolTableRecord
100
AcDbBlockTableRecord
  2
*D13
  0
BLOCK_RECORD
  5
1F
100
AcDbSymbolTableRecord
100
AcDbBlockTableRecord
  2
*D14
  0
ENDTAB
  0
ENDSEC
  0
SECTION
  2
BLOCKS
  0
BLOCK
  5
3
100
AcDbEntity
  8
0
100
AcDbBlockBegin
  2
*MODEL_SPACE
 70
     0
 10
0.0
 20
0.0
 30
0.0
  3
*MODEL_SPACE
  1

  0
ENDBLK
  5
7
100
AcDbEntity
  8
0
100
AcDbBlockEnd
  0
BLOCK
  5
9
100
AcDbEntity
 67
     1
  8
0
100
AcDbBlockBegin
  2
*PAPER_SPACE
 70
     0
 10
0.0
 20
0.0
 30
0.0
  3
*PAPER_SPACE
  1

  0
ENDBLK
  5
A
100
AcDbEntity
 67
     1
  8
0
100
AcDbBlockEnd
  0
BLOCK
  5
EF
100
AcDbEntity
  8
0
100
AcDbBlockBegin
  2
*X0
 70
    65
 10
0.0
 20
0.0
 30
0.0
  3
*X0
  1

  0
LINE
  5
D8
100
AcDbEntity
  8
0
  6
CONTINUOUS
 62
     0
100
AcDbLine
 10
156.813786
 20
-34.625734
 30
0.0
 11
155.813786
 21
-33.625734
 31
0.0
  0
LINE
  5
D9
100
AcDbEntity
  8
0
  6
CONTINUOUS
 62
     0
100
AcDbLine
 10
152.995409
 20
-34.625734
 30
0.0
 11
151.995409
 21
-33.625734
 31
0.0
  0
LINE
  5
DA
100
AcDbEntity
  8
0
  6
CONTINUOUS
 62
     0
100
AcDbLine
 10
149.177033
 20
-34.625734
 30
0.0
 11
148.177033
 21
-33.625734
 31
0.0
  0
LINE
  5
DB
100
AcDbEntity
  8
0
  6
CONTINUOUS
 62
     0
100
AcDbLine
 10
145.358656
 20
-34.625734
 30
0.0
 11
144.358656
 21
-33.625734
 31
0.0
  0
LINE
  5
DC
100
AcDbEntity
  8
0
  6
CONTINUOUS
 62
     0
100
AcDbLine
 10
141.540279
 20
-34.625734
 30
0.0
 11
140.540279
 21
-33.625734
 31
0.0
  0
LINE
  5
DD
100
AcDbEntity
  8
0
  6
CONTINUOUS
 62
     0
100
AcDbLine
 10
137.721903
 20
-34.625734
 30
0.0
 11
136.721903
 21
-33.625734
 31
0.0
  0
LINE
  5
DE
100
AcDbEntity
  8
0
  6
CONTINUOUS
 62
     0
100
AcDbLine
 10
133.903526
 20
-34.625734
 30
0.0
 11
132.903526
 21
-33.625734
 31
0.0
  0
LINE
  5
DF
100
AcDbEntity
  8
0
  6
CONTINUOUS
 62
     0
100
AcDbLine
 10
130.08515
 20
-34.625734
 30
0.0
 11
129.08515
 21
-33.625734
 31
0.0
  0
LINE
  5
E0
100
AcDbEntity
  8
0
  6
CONTINUOUS
 62
     0
100
AcDbLine
 10
126.272625
 20
-34.631586
 30
0.0
 11
125.266773
 21
-33.625734
 31
0.0
  0
LINE
  5
E1
100
AcDbEntity
  8
0
  6
CONTINUOUS
 62
     0
100
AcDbLine
 10
124.098396
 20
-36.275734
 30
0.0
 11
121.448396
 21
-33.625734
 31
0.0
  0
LINE
  5
E2
100
AcDbEntity
  8
0
  6
CONTINUOUS
 62
     0
100
AcDbLine
 10
160.632163
 20
-34.625734
 30
0.0
 11
159.632163
 21
-33.625734
 31
0.0
  0
LINE
  5
E3
100
AcDbEntity
  8
0
  6
CONTINUOUS
 62
     0
100
AcDbLine
 10
164.450539
 20
-34.625734
 30
0.0
 11
163.450539
 21
-33.625734
 31
0.0
  0
LINE
  5
E4
100
AcDbEntity
  8
0
  6
CONTINUOUS
 62
     0
100
AcDbLine
 10
168.268916
 20
-34.625734
 30
0.0
 11
167.268916
 21
-33.625734
 31
0.0
  0
LINE
  5
E5
100
AcDbEntity
  8
0
  6
CONTINUOUS
 62
     0
100
AcDbLine
 10
172.087292
 20
-34.625734
 30
0.0
 11
171.087292
 21
-33.625734
 31
0.0
  0
LINE
  5
E6
100
AcDbEntity
  8
0
  6
CONTINUOUS
 62
     0
100
AcDbLine
 10
175.905669
 20
-34.625734
 30
0.0
 11
174.905669
 21
-33.625734
 31
0.0
  0
LINE
  5
E7
100
AcDbEntity
  8
0
  6
CONTINUOUS
 62
     0
100
AcDbLine
 10
184.374046
 20
-39.275734
 30
0.0
 11
182.272625
 21
-37.174313
 31
0.0
  0
LINE
  5
E8
100
AcDbEntity
  8
0
  6
CONTINUOUS
 62
     0
100
AcDbLine
 10
179.724046
 20
-34.625734
 30
0.0
 11
178.724046
 21
-33.625734
 31
0.0
  0
LINE
  5
E9
100
AcDbEntity
  8
0
  6
CONTINUOUS
 62
     0
100
AcDbLine
 10
188.192422
 20
-39.275734
 30
0.0
 11
182.542422
 21
-33.625734
 31
0.0
  0
LINE
  5
EA
100
AcDbEntity
  8
0
  6
CONTINUOUS
 62
     0
100
AcDbLine
 10
192.010799
 20
-39.275734
 30
0.0
 11
186.360799
 21
-33.625734
 31
0.0
  0
LINE
  5
EB
100
AcDbEntity
  8
0
  6
CONTINUOUS
 62
     0
100
AcDbLine
 10
197.179176
 20
-40.625734
 30
0.0
 11
196.272625
 21
-39.719184
 31
0.0
  0
LINE
  5
EC
100
AcDbEntity
  8
0
  6
CONTINUOUS
 62
     0
100
AcDbLine
 10
195.829176
 20
-39.275734
 30
0.0
 11
190.179176
 21
-33.625734
 31
0.0
  0
LINE
  5
ED
100
AcDbEntity
  8
0
  6
CONTINUOUS
 62
     0
100
AcDbLine
 10
200.272625
 20
-39.900807
 30
0.0
 11
192.997552
 21
-32.625734
 31
0.0
  0
LINE
  5
EE
100
AcDbEntity
  8
0
  6
CONTINUOUS
 62
     0
100
AcDbLine
 10
200.272625
 20
-36.08243
 30
0.0
 11
196.815929
 21
-32.625734
 31
0.0
  0
ENDBLK
  5
F0
100
AcDbEntity
  8
0
100
AcDbBlockEnd
  0
BLOCK
  5
D4
100
AcDbEntity
  8
0
100
AcDbBlockBegin
  2
*X1
 70
    65
 10
0.0
 20
0.0
 30
0.0
  3
*X1
  1

  0
LINE
  5
BD
100
AcDbEntity
  8
0
  6
CONTINUOUS
 62
     0
100
AcDbLine
 10
163.08515
 20
-67.625734
 30
0.0
 11
162.08515
 21
-66.625734
 31
0.0
  0
LINE
  5
BE
100
AcDbEntity
  8
0
  6
CONTINUOUS
 62
     0
100
AcDbLine
 10
159.266773
 20
-67.625734
 30
0.0
 11
158.266773
 21
-66.625734
 31
0.0
  0
LINE
  5
BF
100
AcDbEntity
  8
0
  6
CONTINUOUS
 62
     0
100
AcDbLine
 10
155.448396
 20
-67.625734
 30
0.0
 11
154.448396
 21
-66.625734
 31
0.0
  0
LINE
  5
C0
100
AcDbEntity
  8
0
  6
CONTINUOUS
 62
     0
100
AcDbLine
 10
151.63002
 20
-67.625734
 30
0.0
 11
150.63002
 21
-66.625734
 31
0.0
  0
LINE
  5
C1
100
AcDbEntity
  8
0
  6
CONTINUOUS
 62
     0
100
AcDbLine
 10
147.811643
 20
-67.625734
 30
0.0
 11
146.811643
 21
-66.625734
 31
0.0
  0
LINE
  5
C2
100
AcDbEntity
  8
0
  6
CONTINUOUS
 62
     0
100
AcDbLine
 10
143.993267
 20
-67.625734
 30
0.0
 11
142.993267
 21
-66.625734
 31
0.0
  0
LINE
  5
C3
100
AcDbEntity
  8
0
  6
CONTINUOUS
 62
     0
100
AcDbLine
 10
140.17489
 20
-67.625734
 30
0.0
 11
139.17489
 21
-66.625734
 31
0.0
  0
LINE
  5
C4
100
AcDbEntity
  8
0
  6
CONTINUOUS
 62
     0
100
AcDbLine
 10
136.356513
 20
-67.625734
 30
0.0
 11
135.356513
 21
-66.625734
 31
0.0
  0
LINE
  5
C5
100
AcDbEntity
  8
0
  6
CONTINUOUS
 62
     0
100
AcDbLine
 10
132.538137
 20
-67.625734
 30
0.0
 11
131.538137
 21
-66.625734
 31
0.0
  0
LINE
  5
C6
100
AcDbEntity
  8
0
  6
CONTINUOUS
 62
     0
100
AcDbLine
 10
128.71976
 20
-67.625734
 30
0.0
 11
127.71976
 21
-66.625734
 31
0.0
  0
LINE
  5
C7
100
AcDbEntity
  8
0
  6
CONTINUOUS
 62
     0
100
AcDbLine
 10
126.272625
 20
-65.178599
 30
0.0
 11
126.06976
 21
-64.975734
 31
0.0
  0
LINE
  5
C8
100
AcDbEntity
  8
0
  6
CONTINUOUS
 62
     0
100
AcDbLine
 10
123.656764
 20
-66.381115
 30
0.0
 11
122.251383
 21
-64.975734
 31
0.0
  0
LINE
  5
C9
100
AcDbEntity
  8
0
  6
CONTINUOUS
 62
     0
100
AcDbLine
 10
166.903526
 20
-67.625734
 30
0.0
 11
165.903526
 21
-66.625734
 31
0.0
  0
LINE
  5
CA
100
AcDbEntity
  8
0
  6
CONTINUOUS
 62
     0
100
AcDbLine
 10
170.721903
 20
-67.625734
 30
0.0
 11
169.721903
 21
-66.625734
 31
0.0
  0
LINE
  5
CB
100
AcDbEntity
  8
0
  6
CONTINUOUS
 62
     0
100
AcDbLine
 10
174.540279
 20
-67.625734
 30
0.0
 11
173.540279
 21
-66.625734
 31
0.0
  0
LINE
  5
CC
100
AcDbEntity
  8
0
  6
CONTINUOUS
 62
     0
100
AcDbLine
 10
178.358656
 20
-67.625734
 30
0.0
 11
177.358656
 21
-66.625734
 31
0.0
  0
LINE
  5
CD
100
AcDbEntity
  8
0
  6
CONTINUOUS
 62
     0
100
AcDbLine
 10
182.177033
 20
-67.625734
 30
0.0
 11
181.177033
 21
-66.625734
 31
0.0
  0
LINE
  5
CE
100
AcDbEntity
  8
0
  6
CONTINUOUS
 62
     0
100
AcDbLine
 10
185.995409
 20
-67.625734
 30
0.0
 11
182.272625
 21
-63.90295
 31
0.0
  0
LINE
  5
CF
100
AcDbEntity
  8
0
  6
CONTINUOUS
 62
     0
100
AcDbLine
 10
189.813786
 20
-67.625734
 30
0.0
 11
184.163786
 21
-61.975734
 31
0.0
  0
LINE
  5
D0
100
AcDbEntity
  8
0
  6
CONTINUOUS
 62
     0
100
AcDbLine
 10
194.632163
 20
-68.625734
 30
0.0
 11
187.982163
 21
-61.975734
 31
0.0
  0
LINE
  5
D1
100
AcDbEntity
  8
0
  6
CONTINUOUS
 62
     0
100
AcDbLine
 10
198.450539
 20
-68.625734
 30
0.0
 11
191.800539
 21
-61.975734
 31
0.0
  0
LINE
  5
D2
100
AcDbEntity
  8
0
  6
CONTINUOUS
 62
     0
100
AcDbLine
 10
200.272625
 20
-66.629443
 30
0.0
 11
195.618916
 21
-61.975734
 31
0.0
  0
LINE
  5
D3
100
AcDbEntity
  8
0
  6
CONTINUOUS
 62
     0
100
AcDbLine
 10
200.272625
 20
-62.811067
 30
0.0
 11
198.087292
 21
-60.625734
 31
0.0
  0
ENDBLK
  5
D5
100
AcDbEntity
  8
0
100
AcDbBlockEnd
  0
BLOCK
  5
AA
100
AcDbEntity
  8
0
100
AcDbBlockBegin
  2
*X2
 70
    65
 10
0.0
 20
0.0
 30
0.0
  3
*X2
  1

  0
LINE
  5
7A
100
AcDbEntity
  8
0
  6
CONTINUOUS
 62
     0
100
AcDbLine
 10
157.648436
 20
-68.625734
 30
0.0
 11
158.598436
 21
-67.675734
 31
0.0
  0
LINE
  5
7B
100
AcDbEntity
  8
0
  6
CONTINUOUS
 62
     0
100
AcDbLine
 10
156.234222
 20
-68.625734
 30
0.0
 11
157.184222
 21
-67.675734
 31
0.0
  0
LINE
  5
7C
100
AcDbEntity
  8
0
  6
CONTINUOUS
 62
     0
100
AcDbLine
 10
154.820009
 20
-68.625734
 30
0.0
 11
155.770009
 21
-67.675734
 31
0.0
  0
LINE
  5
7D
100
AcDbEntity
  8
0
  6
CONTINUOUS
 62
     0
100
AcDbLine
 10
153.405795
 20
-68.625734
 30
0.0
 11
154.355795
 21
-67.675734
 31
0.0
  0
LINE
  5
7E
100
AcDbEntity
  8
0
  6
CONTINUOUS
 62
     0
100
AcDbLine
 10
151.991582
 20
-68.625734
 30
0.0
 11
152.941582
 21
-67.675734
 31
0.0
  0
LINE
  5
7F
100
AcDbEntity
  8
0
  6
CONTINUOUS
 62
     0
100
AcDbLine
 10
150.577368
 20
-68.625734
 30
0.0
 11
151.527368
 21
-67.675734
 31
0.0
  0
LINE
  5
80
100
AcDbEntity
  8
0
  6
CONTINUOUS
 62
     0
100
AcDbLine
 10
149.163154
 20
-68.625734
 30
0.0
 11
150.113154
 21
-67.675734
 31
0.0
  0
LINE
  5
81
100
AcDbEntity
  8
0
  6
CONTINUOUS
 62
     0
100
AcDbLine
 10
147.748941
 20
-68.625734
 30
0.0
 11
148.698941
 21
-67.675734
 31
0.0
  0
LINE
  5
82
100
AcDbEntity
  8
0
  6
CONTINUOUS
 62
     0
100
AcDbLine
 10
146.334727
 20
-68.625734
 30
0.0
 11
147.284727
 21
-67.675734
 31
0.0
  0
LINE
  5
83
100
AcDbEntity
  8
0
  6
CONTINUOUS
 62
     0
100
AcDbLine
 10
144.920514
 20
-68.625734
 30
0.0
 11
145.870514
 21
-67.675734
 31
0.0
  0
LINE
  5
84
100
AcDbEntity
  8
0
  6
CONTINUOUS
 62
     0
100
AcDbLine
 10
143.5063
 20
-68.625734
 30
0.0
 11
144.4563
 21
-67.675734
 31
0.0
  0
LINE
  5
85
100
AcDbEntity
  8
0
  6
CONTINUOUS
 62
     0
100
AcDbLine
 10
142.092087
 20
-68.625734
 30
0.0
 11
143.042087
 21
-67.675734
 31
0.0
  0
LINE
  5
86
100
AcDbEntity
  8
0
  6
CONTINUOUS
 62
     0
100
AcDbLine
 10
140.677873
 20
-68.625734
 30
0.0
 11
141.627873
 21
-67.675734
 31
0.0
  0
LINE
  5
87
100
AcDbEntity
  8
0
  6
CONTINUOUS
 62
     0
100
AcDbLine
 10
139.26366
 20
-68.625734
 30
0.0
 11
140.21366
 21
-67.675734
 31
0.0
  0
LINE
  5
88
100
AcDbEntity
  8
0
  6
CONTINUOUS
 62
     0
100
AcDbLine
 10
137.849446
 20
-68.625734
 30
0.0
 11
138.799446
 21
-67.675734
 31
0.0
  0
LINE
  5
89
100
AcDbEntity
  8
0
  6
CONTINUOUS
 62
     0
100
AcDbLine
 10
136.435232
 20
-68.625734
 30
0.0
 11
137.385232
 21
-67.675734
 31
0.0
  0
LINE
  5
8A
100
AcDbEntity
  8
0
  6
CONTINUOUS
 62
     0
100
AcDbLine
 10
135.021019
 20
-68.625734
 30
0.0
 11
135.971019
 21
-67.675734
 31
0.0
  0
LINE
  5
8B
100
AcDbEntity
  8
0
  6
CONTINUOUS
 62
     0
100
AcDbLine
 10
133.606805
 20
-68.625734
 30
0.0
 11
134.556805
 21
-67.675734
 31
0.0
  0
LINE
  5
8C
100
AcDbEntity
  8
0
  6
CONTINUOUS
 62
     0
100
AcDbLine
 10
132.192592
 20
-68.625734
 30
0.0
 11
133.142592
 21
-67.675734
 31
0.0
  0
LINE
  5
8D
100
AcDbEntity
  8
0
  6
CONTINUOUS
 62
     0
100
AcDbLine
 10
130.778378
 20
-68.625734
 30
0.0
 11
131.728378
 21
-67.675734
 31
0.0
  0
LINE
  5
8E
100
AcDbEntity
  8
0
  6
CONTINUOUS
 62
     0
100
AcDbLine
 10
129.364165
 20
-68.625734
 30
0.0
 11
130.314165
 21
-67.675734
 31
0.0
  0
LINE
  5
8F
100
AcDbEntity
  8
0
  6
CONTINUOUS
 62
     0
100
AcDbLine
 10
127.949951
 20
-68.625734
 30
0.0
 11
128.899951
 21
-67.675734
 31
0.0
  0
LINE
  5
90
100
AcDbEntity
  8
0
  6
CONTINUOUS
 62
     0
100
AcDbLine
 10
126.535737
 20
-68.625734
 30
0.0
 11
127.485737
 21
-67.675734
 31
0.0
  0
LINE
  5
91
100
AcDbEntity
  8
0
  6
CONTINUOUS
 62
     0
100
AcDbLine
 10
125.121524
 20
-68.625734
 30
0.0
 11
126.071524
 21
-67.675734
 31
0.0
  0
LINE
  5
92
100
AcDbEntity
  8
0
  6
CONTINUOUS
 62
     0
100
AcDbLine
 10
159.062649
 20
-68.625734
 30
0.0
 11
160.012649
 21
-67.675734
 31
0.0
  0
LINE
  5
93
100
AcDbEntity
  8
0
  6
CONTINUOUS
 62
     0
100
AcDbLine
 10
160.476863
 20
-68.625734
 30
0.0
 11
161.426863
 21
-67.675734
 31
0.0
  0
LINE
  5
94
100
AcDbEntity
  8
0
  6
CONTINUOUS
 62
     0
100
AcDbLine
 10
161.891077
 20
-68.625734
 30
0.0
 11
162.841077
 21
-67.675734
 31
0.0
  0
LINE
  5
95
100
AcDbEntity
  8
0
  6
CONTINUOUS
 62
     0
100
AcDbLine
 10
163.30529
 20
-68.625734
 30
0.0
 11
164.25529
 21
-67.675734
 31
0.0
  0
LINE
  5
96
100
AcDbEntity
  8
0
  6
CONTINUOUS
 62
     0
100
AcDbLine
 10
164.719504
 20
-68.625734
 30
0.0
 11
165.669504
 21
-67.675734
 31
0.0
  0
LINE
  5
97
100
AcDbEntity
  8
0
  6
CONTINUOUS
 62
     0
100
AcDbLine
 10
166.133717
 20
-68.625734
 30
0.0
 11
167.083717
 21
-67.675734
 31
0.0
  0
LINE
  5
98
100
AcDbEntity
  8
0
  6
CONTINUOUS
 62
     0
100
AcDbLine
 10
167.547931
 20
-68.625734
 30
0.0
 11
168.497931
 21
-67.675734
 31
0.0
  0
LINE
  5
99
100
AcDbEntity
  8
0
  6
CONTINUOUS
 62
     0
100
AcDbLine
 10
168.962144
 20
-68.625734
 30
0.0
 11
169.912144
 21
-67.675734
 31
0.0
  0
LINE
  5
9A
100
AcDbEntity
  8
0
  6
CONTINUOUS
 62
     0
100
AcDbLine
 10
170.376358
 20
-68.625734
 30
0.0
 11
171.326358
 21
-67.675734
 31
0.0
  0
LINE
  5
9B
100
AcDbEntity
  8
0
  6
CONTINUOUS
 62
     0
100
AcDbLine
 10
171.790571
 20
-68.625734
 30
0.0
 11
172.740571
 21
-67.675734
 31
0.0
  0
LINE
  5
9C
100
AcDbEntity
  8
0
  6
CONTINUOUS
 62
     0
100
AcDbLine
 10
173.204785
 20
-68.625734
 30
0.0
 11
174.154785
 21
-67.675734
 31
0.0
  0
LINE
  5
9D
100
AcDbEntity
  8
0
  6
CONTINUOUS
 62
     0
100
AcDbLine
 10
174.618999
 20
-68.625734
 30
0.0
 11
175.568999
 21
-67.675734
 31
0.0
  0
LINE
  5
9E
100
AcDbEntity
  8
0
  6
CONTINUOUS
 62
     0
100
AcDbLine
 10
176.033212
 20
-68.625734
 30
0.0
 11
176.983212
 21
-67.675734
 31
0.0
  0
LINE
  5
9F
100
AcDbEntity
  8
0
  6
CONTINUOUS
 62
     0
100
AcDbLine
 10
177.447426
 20
-68.625734
 30
0.0
 11
178.397426
 21
-67.675734
 31
0.0
  0
LINE
  5
A0
100
AcDbEntity
  8
0
  6
CONTINUOUS
 62
     0
100
AcDbLine
 10
178.861639
 20
-68.625734
 30
0.0
 11
179.811639
 21
-67.675734
 31
0.0
  0
LINE
  5
A1
100
AcDbEntity
  8
0
  6
CONTINUOUS
 62
     0
100
AcDbLine
 10
180.275853
 20
-68.625734
 30
0.0
 11
181.225853
 21
-67.675734
 31
0.0
  0
LINE
  5
A2
100
AcDbEntity
  8
0
  6
CONTINUOUS
 62
     0
100
AcDbLine
 10
181.690066
 20
-68.625734
 30
0.0
 11
182.640066
 21
-67.675734
 31
0.0
  0
LINE
  5
A3
100
AcDbEntity
  8
0
  6
CONTINUOUS
 62
     0
100
AcDbLine
 10
183.10428
 20
-68.625734
 30
0.0
 11
184.05428
 21
-67.675734
 31
0.0
  0
LINE
  5
A4
100
AcDbEntity
  8
0
  6
CONTINUOUS
 62
     0
100
AcDbLine
 10
184.518494
 20
-68.625734
 30
0.0
 11
185.468494
 21
-67.675734
 31
0.0
  0
LINE
  5
A5
100
AcDbEntity
  8
0
  6
CONTINUOUS
 62
     0
100
AcDbLine
 10
185.932707
 20
-68.625734
 30
0.0
 11
186.882707
 21
-67.675734
 31
0.0
  0
LINE
  5
A6
100
AcDbEntity
  8
0
  6
CONTINUOUS
 62
     0
100
AcDbLine
 10
187.346921
 20
-68.625734
 30
0.0
 11
188.296921
 21
-67.675734
 31
0.0
  0
LINE
  5
A7
100
AcDbEntity
  8
0
  6
CONTINUOUS
 62
     0
100
AcDbLine
 10
188.761134
 20
-68.625734
 30
0.0
 11
189.711134
 21
-67.675734
 31
0.0
  0
LINE
  5
A8
100
AcDbEntity
  8
0
  6
CONTINUOUS
 62
     0
100
AcDbLine
 10
190.175348
 20
-68.625734
 30
0.0
 11
191.125348
 21
-67.675734
 31
0.0
  0
LINE
  5
A9
100
AcDbEntity
  8
0
  6
CONTINUOUS
 62
     0
100
AcDbLine
 10
191.589561
 20
-68.625734
 30
0.0
 11
192.522625
 21
-67.692671
 31
0.0
  0
ENDBLK
  5
AB
100
AcDbEntity
  8
0
100
AcDbBlockEnd
  0
BLOCK
  5
184
100
AcDbEntity
  8
0
100
AcDbBlockBegin
  2
*X3
 70
    65
 10
0.0
 20
0.0
 30
0.0
  3
*X3
  1

  0
LINE
  5
16B
100
AcDbEntity
  8
0
  6
CONTINUOUS
 62
     0
100
AcDbLine
 10
89.98902
 20
-40.825734
 30
0.0
 11
94.43902
 21
-36.375734
 31
0.0
  0
LINE
  5
16C
100
AcDbEntity
  8
0
  6
CONTINUOUS
 62
     0
100
AcDbLine
 10
86.453486
 20
-40.825734
 30
0.0
 11
90.903486
 21
-36.375734
 31
0.0
  0
LINE
  5
16D
100
AcDbEntity
  8
0
  6
CONTINUOUS
 62
     0
100
AcDbLine
 10
82.917953
 20
-40.825734
 30
0.0
 11
87.367953
 21
-36.375734
 31
0.0
  0
LINE
  5
16E
100
AcDbEntity
  8
0
  6
CONTINUOUS
 62
     0
100
AcDbLine
 10
79.382419
 20
-40.825734
 30
0.0
 11
83.832419
 21
-36.375734
 31
0.0
  0
LINE
  5
16F
100
AcDbEntity
  8
0
  6
CONTINUOUS
 62
     0
100
AcDbLine
 10
75.846885
 20
-40.825734
 30
0.0
 11
80.296885
 21
-36.375734
 31
0.0
  0
LINE
  5
170
100
AcDbEntity
  8
0
  6
CONTINUOUS
 62
     0
100
AcDbLine
 10
72.311351
 20
-40.825734
 30
0.0
 11
76.761351
 21
-36.375734
 31
0.0
  0
LINE
  5
171
100
AcDbEntity
  8
0
  6
CONTINUOUS
 62
     0
100
AcDbLine
 10
68.775817
 20
-40.825734
 30
0.0
 11
73.225817
 21
-36.375734
 31
0.0
  0
LINE
  5
172
100
AcDbEntity
  8
0
  6
CONTINUOUS
 62
     0
100
AcDbLine
 10
65.240283
 20
-40.825734
 30
0.0
 11
69.690283
 21
-36.375734
 31
0.0
  0
LINE
  5
173
100
AcDbEntity
  8
0
  6
CONTINUOUS
 62
     0
100
AcDbLine
 10
61.704749
 20
-40.825734
 30
0.0
 11
66.154749
 21
-36.375734
 31
0.0
  0
LINE
  5
174
100
AcDbEntity
  8
0
  6
CONTINUOUS
 62
     0
100
AcDbLine
 10
53.295096
 20
-45.699853
 30
0.0
 11
55.772625
 21
-43.222324
 31
0.0
  0
LINE
  5
175
100
AcDbEntity
  8
0
  6
CONTINUOUS
 62
     0
100
AcDbLine
 10
58.169215
 20
-40.825734
 30
0.0
 11
62.619215
 21
-36.375734
 31
0.0
  0
LINE
  5
176
100
AcDbEntity
  8
0
  6
CONTINUOUS
 62
     0
100
AcDbLine
 10
53.229497
 20
-42.229918
 30
0.0
 11
59.083681
 21
-36.375734
 31
0.0
  0
LINE
  5
177
100
AcDbEntity
  8
0
  6
CONTINUOUS
 62
     0
100
AcDbLine
 10
53.149798
 20
-38.774084
 30
0.0
 11
55.548147
 21
-36.375734
 31
0.0
  0
LINE
  5
178
100
AcDbEntity
  8
0
  6
CONTINUOUS
 62
     0
100
AcDbLine
 10
93.524554
 20
-40.825734
 30
0.0
 11
97.974554
 21
-36.375734
 31
0.0
  0
LINE
  5
179
100
AcDbEntity
  8
0
  6
CONTINUOUS
 62
     0
100
AcDbLine
 10
97.060088
 20
-40.825734
 30
0.0
 11
101.510088
 21
-36.375734
 31
0.0
  0
LINE
  5
17A
100
AcDbEntity
  8
0
  6
CONTINUOUS
 62
     0
100
AcDbLine
 10
100.595622
 20
-40.825734
 30
0.0
 11
105.045622
 21
-36.375734
 31
0.0
  0
LINE
  5
17B
100
AcDbEntity
  8
0
  6
CONTINUOUS
 62
     0
100
AcDbLine
 10
104.131156
 20
-40.825734
 30
0.0
 11
108.581156
 21
-36.375734
 31
0.0
  0
LINE
  5
17C
100
AcDbEntity
  8
0
  6
CONTINUOUS
 62
     0
100
AcDbLine
 10
107.21669
 20
-41.275734
 30
0.0
 11
112.11669
 21
-36.375734
 31
0.0
  0
LINE
  5
17D
100
AcDbEntity
  8
0
  6
CONTINUOUS
 62
     0
100
AcDbLine
 10
110.752224
 20
-41.275734
 30
0.0
 11
115.652224
 21
-36.375734
 31
0.0
  0
LINE
  5
17E
100
AcDbEntity
  8
0
  6
CONTINUOUS
 62
     0
100
AcDbLine
 10
114.287758
 20
-41.275734
 30
0.0
 11
119.187758
 21
-36.375734
 31
0.0
  0
LINE
  5
17F
100
AcDbEntity
  8
0
  6
CONTINUOUS
 62
     0
100
AcDbLine
 10
117.823292
 20
-41.275734
 30
0.0
 11
122.723292
 21
-36.375734
 31
0.0
  0
LINE
  5
180
100
AcDbEntity
  8
0
  6
CONTINUOUS
 62
     0
100
AcDbLine
 10
121.358826
 20
-41.275734
 30
0.0
 11
126.258826
 21
-36.375734
 31
0.0
  0
LINE
  5
181
100
AcDbEntity
  8
0
  6
CONTINUOUS
 62
     0
100
AcDbLine
 10
126.772625
 20
-35.861935
 30
0.0
 11
127.758826
 21
-34.875734
 31
0.0
  0
LINE
  5
182
100
AcDbEntity
  8
0
  6
CONTINUOUS
 62
     0
100
AcDbLine
 10
124.894359
 20
-41.275734
 30
0.0
 11
131.294359
 21
-34.875734
 31
0.0
  0
LINE
  5
183
100
AcDbEntity
  8
0
  6
CONTINUOUS
 62
     0
100
AcDbLine
 10
128.429893
 20
-41.275734
 30
0.0
 11
131.772625
 21
-37.933003
 31
0.0
  0
ENDBLK
  5
185
100
AcDbEntity
  8
0
100
AcDbBlockEnd
  0
BLOCK
  5
1A3
100
AcDbEntity
  8
0
100
AcDbBlockBegin
  2
*X4
 70
    65
 10
0.0
 20
0.0
 30
0.0
  3
*X4
  1

  0
LINE
  5
188
100
AcDbEntity
  8
0
  6
CONTINUOUS
 62
     0
100
AcDbLine
 10
87.152224
 20
-64.875734
 30
0.0
 11
91.602224
 21
-60.425734
 31
0.0
  0
LINE
  5
189
100
AcDbEntity
  8
0
  6
CONTINUOUS
 62
     0
100
AcDbLine
 10
83.61669
 20
-64.875734
 30
0.0
 11
88.06669
 21
-60.425734
 31
0.0
  0
LINE
  5
18A
100
AcDbEntity
  8
0
  6
CONTINUOUS
 62
     0
100
AcDbLine
 10
80.081156
 20
-64.875734
 30
0.0
 11
84.531156
 21
-60.425734
 31
0.0
  0
LINE
  5
18B
100
AcDbEntity
  8
0
  6
CONTINUOUS
 62
     0
100
AcDbLine
 10
76.545622
 20
-64.875734
 30
0.0
 11
80.995622
 21
-60.425734
 31
0.0
  0
LINE
  5
18C
100
AcDbEntity
  8
0
  6
CONTINUOUS
 62
     0
100
AcDbLine
 10
73.010088
 20
-64.875734
 30
0.0
 11
77.460088
 21
-60.425734
 31
0.0
  0
LINE
  5
18D
100
AcDbEntity
  8
0
  6
CONTINUOUS
 62
     0
100
AcDbLine
 10
69.474554
 20
-64.875734
 30
0.0
 11
73.924554
 21
-60.425734
 31
0.0
  0
LINE
  5
18E
100
AcDbEntity
  8
0
  6
CONTINUOUS
 62
     0
100
AcDbLine
 10
65.93902
 20
-64.875734
 30
0.0
 11
70.38902
 21
-60.425734
 31
0.0
  0
LINE
  5
18F
100
AcDbEntity
  8
0
  6
CONTINUOUS
 62
     0
100
AcDbLine
 10
62.403486
 20
-64.875734
 30
0.0
 11
66.853486
 21
-60.425734
 31
0.0
  0
LINE
  5
190
100
AcDbEntity
  8
0
  6
CONTINUOUS
 62
     0
100
AcDbLine
 10
58.867953
 20
-64.875734
 30
0.0
 11
63.317953
 21
-60.425734
 31
0.0
  0
LINE
  5
191
100
AcDbEntity
  8
0
  6
CONTINUOUS
 62
     0
100
AcDbLine
 10
55.332419
 20
-64.875734
 30
0.0
 11
59.782419
 21
-60.425734
 31
0.0
  0
LINE
  5
192
100
AcDbEntity
  8
0
  6
CONTINUOUS
 62
     0
100
AcDbLine
 10
54.041423
 20
-62.631196
 30
0.0
 11
56.246885
 21
-60.425734
 31
0.0
  0
LINE
  5
193
100
AcDbEntity
  8
0
  6
CONTINUOUS
 62
     0
100
AcDbLine
 10
54.25735
 20
-58.879735
 30
0.0
 11
55.772625
 21
-57.36446
 31
0.0
  0
LINE
  5
194
100
AcDbEntity
  8
0
  6
CONTINUOUS
 62
     0
100
AcDbLine
 10
53.823163
 20
-55.778388
 30
0.0
 11
54.775817
 21
-54.825734
 31
0.0
  0
LINE
  5
195
100
AcDbEntity
  8
0
  6
CONTINUOUS
 62
     0
100
AcDbLine
 10
90.687758
 20
-64.875734
 30
0.0
 11
95.137758
 21
-60.425734
 31
0.0
  0
LINE
  5
196
100
AcDbEntity
  8
0
  6
CONTINUOUS
 62
     0
100
AcDbLine
 10
94.223292
 20
-64.875734
 30
0.0
 11
98.673292
 21
-60.425734
 31
0.0
  0
LINE
  5
197
100
AcDbEntity
  8
0
  6
CONTINUOUS
 62
     0
100
AcDbLine
 10
97.758826
 20
-64.875734
 30
0.0
 11
102.208826
 21
-60.425734
 31
0.0
  0
LINE
  5
198
100
AcDbEntity
  8
0
  6
CONTINUOUS
 62
     0
100
AcDbLine
 10
101.294359
 20
-64.875734
 30
0.0
 11
105.744359
 21
-60.425734
 31
0.0
  0
LINE
  5
199
100
AcDbEntity
  8
0
  6
CONTINUOUS
 62
     0
100
AcDbLine
 10
105.772625
 20
-60.397469
 30
0.0
 11
106.194359
 21
-59.975734
 31
0.0
  0
LINE
  5
19A
100
AcDbEntity
  8
0
  6
CONTINUOUS
 62
     0
100
AcDbLine
 10
104.829893
 20
-64.875734
 30
0.0
 11
109.729893
 21
-59.975734
 31
0.0
  0
LINE
  5
19B
100
AcDbEntity
  8
0
  6
CONTINUOUS
 62
     0
100
AcDbLine
 10
108.365427
 20
-64.875734
 30
0.0
 11
113.265427
 21
-59.975734
 31
0.0
  0
LINE
  5
19C
100
AcDbEntity
  8
0
  6
CONTINUOUS
 62
     0
100
AcDbLine
 10
111.900961
 20
-64.875734
 30
0.0
 11
116.800961
 21
-59.975734
 31
0.0
  0
LINE
  5
19D
100
AcDbEntity
  8
0
  6
CONTINUOUS
 62
     0
100
AcDbLine
 10
115.436495
 20
-64.875734
 30
0.0
 11
120.336495
 21
-59.975734
 31
0.0
  0
LINE
  5
19E
100
AcDbEntity
  8
0
  6
CONTINUOUS
 62
     0
100
AcDbLine
 10
118.972029
 20
-64.875734
 30
0.0
 11
123.872029
 21
-59.975734
 31
0.0
  0
LINE
  5
19F
100
AcDbEntity
  8
0
  6
CONTINUOUS
 62
     0
100
AcDbLine
 10
122.507563
 20
-64.875734
 30
0.0
 11
127.407563
 21
-59.975734
 31
0.0
  0
LINE
  5
1A0
100
AcDbEntity
  8
0
  6
CONTINUOUS
 62
     0
100
AcDbLine
 10
126.043097
 20
-64.875734
 30
0.0
 11
130.943097
 21
-59.975734
 31
0.0
  0
LINE
  5
1A1
100
AcDbEntity
  8
0
  6
CONTINUOUS
 62
     0
100
AcDbLine
 10
128.078631
 20
-66.375734
 30
0.0
 11
131.772625
 21
-62.68174
 31
0.0
  0
LINE
  5
1A2
100
AcDbEntity
  8
0
  6
CONTINUOUS
 62
     0
100
AcDbLine
 10
131.614165
 20
-66.375734
 30
0.0
 11
131.772625
 21
-66.217274
 31
0.0
  0
ENDBLK
  5
1A4
100
AcDbEntity
  8
0
100
AcDbBlockEnd
  0
BLOCK
  5
52
100
AcDbEntity
  8
0
100
AcDbBlockBegin
  2
SLK0201
 70
    64
 10
0.0
 20
0.0
 30
0.0
  3
SLK0201
  1

  0
LINE
  5
3E
100
AcDbEntity
  8
7
100
AcDbLine
 10
-28.0
 20
0.0
 30
0.0
 11
-124.989513
 21
0.0
 31
0.0
  0
LINE
  5
41
100
AcDbEntity
  8
0
  6
CONTINUOUS
100
AcDbLine
 10
-30.0
 20
-18.0
 30
0.0
 11
-104.25
 21
-18.0
 31
0.0
  0
LINE
  5
42
100
AcDbEntity
  8
0
  6
CONTINUOUS
100
AcDbLine
 10
-30.0
 20
18.0
 30
0.0
 11
-104.25
 21
18.0
 31
0.0
  0
LINE
  5
43
100
AcDbEntity
  8
0
  6
CONTINUOUS
100
AcDbLine
 10
-106.75
 20
17.0
 30
0.0
 11
-106.75
 21
-17.0
 31
0.0
  0
LINE
  5
44
100
AcDbEntity
  8
0
  6
CONTINUOUS
100
AcDbLine
 10
-104.25
 20
-18.0
 30
0.0
 11
-104.25
 21
18.0
 31
0.0
  0
LINE
  5
45
100
AcDbEntity
  8
0
  6
CONTINUOUS
100
AcDbLine
 10
-108.0
 20
-17.0
 30
0.0
 11
-108.0
 21
17.0
 31
0.0
  0
ARC
  5
46
100
AcDbEntity
  8
0
  6
CONTINUOUS
100
AcDbCircle
 10
-105.5
 20
-17.0
 30
0.0
 40
1.25
100
AcDbArc
 50
180.0
 51
360.0
  0
LINE
  5
47
100
AcDbEntity
  8
0
  6
CONTINUOUS
100
AcDbLine
 10
-106.75
 20
-17.0
 30
0.0
 11
-108.0
 21
-17.0
 31
0.0
  0
ARC
  5
48
100
AcDbEntity
  8
0
  6
CONTINUOUS
100
AcDbCircle
 10
-105.5
 20
17.0
 30
0.0
 40
1.25
100
AcDbArc
 50
360.0
 51
180.0
  0
LINE
  5
49
100
AcDbEntity
  8
0
  6
CONTINUOUS
100
AcDbLine
 10
-106.75
 20
17.0
 30
0.0
 11
-108.0
 21
17.0
 31
0.0
  0
LINE
  5
4A
100
AcDbEntity
  8
0
  6
CONTINUOUS
100
AcDbLine
 10
-36.75
 20
-18.0
 30
0.0
 11
-36.75
 21
18.0
 31
0.0
  0
LINE
  5
4B
100
AcDbEntity
  8
0
  6
CONTINUOUS
100
AcDbLine
 10
-30.0
 20
18.0
 30
0.0
 11
-30.0
 21
-18.0
 31
0.0
  0
LINE
  5
4C
100
AcDbEntity
  8
0
  6
CONTINUOUS
100
AcDbLine
 10
-29.0
 20
-17.0
 30
0.0
 11
-29.0
 21
17.0
 31
0.0
  0
LINE
  5
4D
100
AcDbEntity
  8
0
  6
CONTINUOUS
100
AcDbLine
 10
-29.0
 20
-17.0
 30
0.0
 11
-30.0
 21
-18.0
 31
0.0
1001
GENIUS_GENFIL_13
1070
     0
1040
1.0
1040
1.0
1040
0.0
1040
0.0
1002
{
1002
}
  0
LINE
  5
4F
100
AcDbEntity
  8
0
100
AcDbLine
 10
-28.0
 20
-11.0
 30
0.0
 11
-29.0
 21
-11.0
 31
0.0
  0
LINE
  5
50
100
AcDbEntity
  8
0
100
AcDbLine
 10
-28.0
 20
11.0
 30
0.0
 11
-29.0
 21
11.0
 31
0.0
  0
LINE
  5
51
100
AcDbEntity
  8
0
  6
CONTINUOUS
100
AcDbLine
 10
-30.0
 20
18.0
 30
0.0
 11
-29.0
 21
17.0
 31
0.0
1001
GENIUS_GENFIL_13
1070
     0
1040
1.0
1040
1.0
1040
0.0
1040
0.0
1002
{
1002
}
  0
ENDBLK
  5
53
100
AcDbEntity
  8
0
100
AcDbBlockEnd
  0
BLOCK
  5
6B
100
AcDbEntity
  8
0
100
AcDbBlockBegin
  2
SLK0202
 70
    64
 10
0.0
 20
0.0
 30
0.0
  3
SLK0202
  1

  0
LINE
  5
5B
100
AcDbEntity
  8
7
100
AcDbLine
 10
53.119725
 20
0.0
 30
0.0
 11
-18.848482
 21
0.0
 31
0.0
  0
LINE
  5
5C
100
AcDbEntity
  8
0
  6
CONTINUOUS
100
AcDbLine
 10
71.4
 20
-14.25
 30
0.0
 11
2.5
 21
-14.25
 31
0.0
  0
LINE
  5
5D
100
AcDbEntity
  8
0
  6
CONTINUOUS
100
AcDbLine
 10
71.4
 20
14.25
 30
0.0
 11
2.5
 21
14.25
 31
0.0
  0
LINE
  5
5E
100
AcDbEntity
  8
0
  6
CONTINUOUS
100
AcDbLine
 10
-0.5
 20
-12.53
 30
0.0
 11
-0.5
 21
12.53
 31
0.0
  0
LINE
  5
5F
100
AcDbEntity
  8
7
100
AcDbLine
 10
-8.4
 20
-12.53
 30
0.0
 11
-8.4
 21
12.53
 31
0.0
  0
LINE
  5
60
100
AcDbEntity
  8
3
100
AcDbLine
 10
-15.75
 20
-6.35
 30
0.0
 11
-15.75
 21
6.35
 31
0.0
  0
LINE
  5
63
100
AcDbEntity
  8
4
100
AcDbLine
 10
-15.75
 20
-6.35
 30
0.0
 11
-0.5
 21
6.35
 31
0.0
  0
LINE
  5
65
100
AcDbEntity
  8
4
100
AcDbLine
 10
-15.75
 20
6.35
 30
0.0
 11
-0.5
 21
-6.35
 31
0.0
  0
LINE
  5
66
100
AcDbEntity
  8
0
  6
CONTINUOUS
100
AcDbLine
 10
2.5
 20
14.25
 30
0.0
 11
2.5
 21
-14.25
 31
0.0
  0
LINE
  5
67
100
AcDbEntity
  8
3
100
AcDbLine
 10
-0.5
 20
-6.35
 30
0.0
 11
-15.75
 21
-6.35
 31
0.0
  0
LINE
  5
68
100
AcDbEntity
  8
0
100
AcDbLine
 10
2.5
 20
-14.25
 30
0.0
 11
-0.5
 21
-12.53
 31
0.0
  0
LINE
  5
69
100
AcDbEntity
  8
3
100
AcDbLine
 10
-0.5
 20
6.35
 30
0.0
 11
-15.75
 21
6.35
 31
0.0
  0
LINE
  5
6A
100
AcDbEntity
  8
0
100
AcDbLine
 10
2.5
 20
14.25
 30
0.0
 11
-0.5
 21
12.53
 31
0.0
  0
ENDBLK
  5
6C
100
AcDbEntity
  8
0
100
AcDbBlockEnd
  0
BLOCK
  5
247
100
AcDbEntity
  8
0
100
AcDbBlockBegin
  2
SLK0204
 70
    64
 10
0.0
 20
0.0
 30
0.0
  3
SLK0204
  1

  0
LINE
  5
15F
100
AcDbEntity
  8
0
  6
CONTINUOUS
100
AcDbLine
 10
10.431549
 20
3.524795
 30
0.0
 11
10.086476
 21
2.6
 31
0.0
  0
LINE
  5
160
100
AcDbEntity
  8
0
100
AcDbLine
 10
8.653823
 20
-2.6
 30
0.0
 11
12.586476
 21
-2.6
 31
0.0
  0
LINE
  5
161
100
AcDbEntity
  8
0
100
AcDbLine
 10
6.713524
 20
2.6
 30
0.0
 11
10.646177
 21
2.6
 31
0.0
  0
LINE
  5
162
100
AcDbEntity
  8
7
100
AcDbLine
 10
4.12
 20
3.35
 30
0.0
 11
55.9
 21
3.35
 31
0.0
  0
LINE
  5
163
100
AcDbEntity
  8
7
100
AcDbLine
 10
53.119725
 20
0.0
 30
0.0
 11
-18.348482
 21
0.0
 31
0.0
  0
LINE
  5
164
100
AcDbEntity
  8
7
100
AcDbLine
 10
4.12
 20
-3.35
 30
0.0
 11
55.9
 21
-3.35
 31
0.0
  0
LINE
  5
165
100
AcDbEntity
  8
0
  6
CONTINUOUS
100
AcDbLine
 10
76.9
 20
-14.25
 30
0.0
 11
3.0
 21
-14.25
 31
0.0
  0
LINE
  5
166
100
AcDbEntity
  8
0
  6
CONTINUOUS
100
AcDbLine
 10
76.9
 20
14.25
 30
0.0
 11
3.0
 21
14.25
 31
0.0
  0
LINE
  5
167
100
AcDbEntity
  8
0
100
AcDbLine
 10
55.9
 20
9.8
 30
0.0
 11
5.9
 21
9.8
 31
0.0
  0
LINE
  5
168
100
AcDbEntity
  8
0
100
AcDbLine
 10
55.9
 20
-9.8
 30
0.0
 11
5.9
 21
-9.8
 31
0.0
  0
INSERT
  5
169
100
AcDbEntity
  8
8
100
AcDbBlockReference
  2
*X3
 10
-49.872625
 20
50.625734
 30
0.0
1001
GENIUS_GENODEF_13
1002
{
1000
HIER
1070
     0
1002
}
1002
{
1000
MANEDIT
1070
     0
1002
}
1002
{
1000
NOSEL
1070
     0
1002
}
1002
{
1000
BEHIND
1070
     0
1002
}
1002
{
1000
REACTOR
1002
}
1001
GENIUS_GENOBJ-N-HTC_13
1002
{
1000
OWNER
1000
GEN
1002
}
1001
GENIUS_GENHATCH_13
1002
{
1000
DATA
1040
45.0
1042
2.5
1000
_U
1070
     0
1011
6.70535
1021
12.66472
1031
0.0
1002
}
1002
{
1000
UCS
1010
0.0
1020
0.0
1030
0.0
1010
1.0
1020
0.0
1030
0.0
1010
0.0
1020
1.0
1030
0.0
1002
}
1001
ACAD
1000
HATCH
1002
{
1070
    19
1000
_U
1040
2.5
1040
0.785398
1070
     0
1002
}
  0
INSERT
  5
186
100
AcDbEntity
  8
8
100
AcDbBlockReference
  2
*X4
 10
-49.872625
 20
50.625734
 30
0.0
1001
GENIUS_GENODEF_13
1002
{
1000
HIER
1070
     0
1002
}
1002
{
1000
MANEDIT
1070
     0
1002
}
1002
{
1000
NOSEL
1070
     0
1002
}
1002
{
1000
BEHIND
1070
     0
1002
}
1002
{
1000
REACTOR
1002
}
1001
GENIUS_GENOBJ-N-HTC_13
1002
{
1000
OWNER
1000
GEN
1002
}
1001
GENIUS_GENHATCH_13
1002
{
1000
DATA
1040
45.0
1042
2.5
1000
_U
1070
     0
1011
8.742765
1021
-12.402311
1031
0.0
1002
}
1002
{
1000
UCS
1010
0.0
1020
0.0
1030
0.0
1010
1.0
1020
0.0
1030
0.0
1010
0.0
1020
1.0
1030
0.0
1002
}
1001
ACAD
1000
HATCH
1002
{
1070
    19
1000
_U
1040
2.5
1040
0.785398
1070
     0
1002
}
  0
LINE
  5
1A5
100
AcDbEntity
  8
0
  6
CONTINUOUS
100
AcDbLine
 10
5.9
 20
-9.8
 30
0.0
 11
5.9
 21
9.8
 31
0.0
  0
LINE
  5
1A6
100
AcDbEntity
  8
3
100
AcDbLine
 10
-15.25
 20
-6.35
 30
0.0
 11
-15.25
 21
6.35
 31
0.0
  0
LINE
  5
1A7
100
AcDbEntity
  8
0
  6
CONTINUOUS
100
AcDbLine
 10
0.0
 20
-12.53
 30
0.0
 11
0.0
 21
12.53
 31
0.0
  0
LINE
  5
1A8
100
AcDbEntity
  8
7
100
AcDbLine
 10
-7.9
 20
-12.53
 30
0.0
 11
-7.9
 21
12.53
 31
0.0
  0
POLYLINE
  5
1A9
100
AcDbEntity
  8
4
100
AcDb2dPolyline
 66
     1
 10
0.0
 20
0.0
 30
0.0
 70
     4
 75
     6
  0
VERTEX
  5
1AA
100
AcDbEntity
  8
4
100
AcDbVertex
100
AcDb2dVertex
 10
3.871273
 20
14.25
 30
0.0
 70
    16
  0
VERTEX
  5
1AB
100
AcDbEntity
  8
4
100
AcDbVertex
100
AcDb2dVertex
 10
3.871273
 20
14.25
 30
0.0
 70
     8
  0
VERTEX
  5
1AC
100
AcDbEntity
  8
4
100
AcDbVertex
100
AcDb2dVertex
 10
3.574432
 20
13.372179
 30
0.0
 70
     8
  0
VERTEX
  5
1AD
100
AcDbEntity
  8
4
100
AcDbVertex
100
AcDb2dVertex
 10
3.377471
 20
12.540824
 30
0.0
 70
     8
  0
VERTEX
  5
1AE
100
AcDbEntity
  8
4
100
AcDbVertex
100
AcDb2dVertex
 10
3.263431
 20
11.757229
 30
0.0
 70
     8
  0
VERTEX
  5
1AF
100
AcDbEntity
  8
4
100
AcDbVertex
100
AcDb2dVertex
 10
3.215353
 20
11.022688
 30
0.0
 70
     8
  0
VERTEX
  5
1B0
100
AcDbEntity
  8
4
100
AcDbVertex
100
AcDb2dVertex
 10
3.216278
 20
10.338496
 30
0.0
 70
     8
  0
VERTEX
  5
1B1
100
AcDbEntity
  8
4
100
AcDbVertex
100
AcDb2dVertex
 10
3.249245
 20
9.705948
 30
0.0
 70
     8
  0
VERTEX
  5
1B2
100
AcDbEntity
  8
4
100
AcDbVertex
100
AcDb2dVertex
 10
3.297297
 20
9.126338
 30
0.0
 70
     8
  0
VERTEX
  5
1B3
100
AcDbEntity
  8
4
100
AcDbVertex
100
AcDb2dVertex
 10
3.343473
 20
8.60096
 30
0.0
 70
     8
  0
VERTEX
  5
1B4
100
AcDbEntity
  8
4
100
AcDbVertex
100
AcDb2dVertex
 10
3.374272
 20
8.129432
 30
0.0
 70
     8
  0
VERTEX
  5
1B5
100
AcDbEntity
  8
4
100
AcDbVertex
100
AcDb2dVertex
 10
3.390028
 20
7.704654
 30
0.0
 70
     8
  0
VERTEX
  5
1B6
100
AcDbEntity
  8
4
100
AcDbVertex
100
AcDb2dVertex
 10
3.39453
 20
7.317852
 30
0.0
 70
     8
  0
VERTEX
  5
1B7
100
AcDbEntity
  8
4
100
AcDbVertex
100
AcDb2dVertex
 10
3.391571
 20
6.96025
 30
0.0
 70
     8
  0
VERTEX
  5
1B8
100
AcDbEntity
  8
4
100
AcDbVertex
100
AcDb2dVertex
 10
3.38494
 20
6.623071
 30
0.0
 70
     8
  0
VERTEX
  5
1B9
100
AcDbEntity
  8
4
100
AcDbVertex
100
AcDb2dVertex
 10
3.378429
 20
6.297541
 30
0.0
 70
     8
  0
VERTEX
  5
1BA
100
AcDbEntity
  8
4
100
AcDbVertex
100
AcDb2dVertex
 10
3.375828
 20
5.974882
 30
0.0
 70
     8
  0
VERTEX
  5
1BB
100
AcDbEntity
  8
4
100
AcDbVertex
100
AcDb2dVertex
 10
3.38093
 20
5.64632
 30
0.0
 70
     8
  0
VERTEX
  5
1BC
100
AcDbEntity
  8
4
100
AcDbVertex
100
AcDb2dVertex
 10
3.396426
 20
5.304607
 30
0.0
 70
     8
  0
VERTEX
  5
1BD
100
AcDbEntity
  8
4
100
AcDbVertex
100
AcDb2dVertex
 10
3.420621
 20
4.948613
 30
0.0
 70
     8
  0
VERTEX
  5
1BE
100
AcDbEntity
  8
4
100
AcDbVertex
100
AcDb2dVertex
 10
3.450722
 20
4.578738
 30
0.0
 70
     8
  0
VERTEX
  5
1BF
100
AcDbEntity
  8
4
100
AcDbVertex
100
AcDb2dVertex
 10
3.483936
 20
4.19538
 30
0.0
 70
     8
  0
VERTEX
  5
1C0
100
AcDbEntity
  8
4
100
AcDbVertex
100
AcDb2dVertex
 10
3.517469
 20
3.798938
 30
0.0
 70
     8
  0
VERTEX
  5
1C1
100
AcDbEntity
  8
4
100
AcDbVertex
100
AcDb2dVertex
 10
3.548528
 20
3.389811
 30
0.0
 70
     8
  0
VERTEX
  5
1C2
100
AcDbEntity
  8
4
100
AcDbVertex
100
AcDb2dVertex
 10
3.574319
 20
2.968397
 30
0.0
 70
     8
  0
VERTEX
  5
1C3
100
AcDbEntity
  8
4
100
AcDbVertex
100
AcDb2dVertex
 10
3.59205
 20
2.535097
 30
0.0
 70
     8
  0
VERTEX
  5
1C4
100
AcDbEntity
  8
4
100
AcDbVertex
100
AcDb2dVertex
 10
3.599884
 20
2.091265
 30
0.0
 70
     8
  0
VERTEX
  5
1C5
100
AcDbEntity
  8
4
100
AcDbVertex
100
AcDb2dVertex
 10
3.599818
 20
1.642088
 30
0.0
 70
     8
  0
VERTEX
  5
1C6
100
AcDbEntity
  8
4
100
AcDbVertex
100
AcDb2dVertex
 10
3.594803
 20
1.193709
 30
0.0
 70
     8
  0
VERTEX
  5
1C7
100
AcDbEntity
  8
4
100
AcDbVertex
100
AcDb2dVertex
 10
3.587793
 20
0.752271
 30
0.0
 70
     8
  0
VERTEX
  5
1C8
100
AcDbEntity
  8
4
100
AcDbVertex
100
AcDb2dVertex
 10
3.581741
 20
0.323916
 30
0.0
 70
     8
  0
VERTEX
  5
1C9
100
AcDbEntity
  8
4
100
AcDbVertex
100
AcDb2dVertex
 10
3.5796
 20
-0.085211
 30
0.0
 70
     8
  0
VERTEX
  5
1CA
100
AcDbEntity
  8
4
100
AcDbVertex
100
AcDb2dVertex
 10
3.584322
 20
-0.468968
 30
0.0
 70
     8
  0
VERTEX
  5
1CB
100
AcDbEntity
  8
4
100
AcDbVertex
100
AcDb2dVertex
 10
3.59886
 20
-0.821212
 30
0.0
 70
     8
  0
VERTEX
  5
1CC
100
AcDbEntity
  8
4
100
AcDbVertex
100
AcDb2dVertex
 10
3.625144
 20
-1.13798
 30
0.0
 70
     8
  0
VERTEX
  5
1CD
100
AcDbEntity
  8
4
100
AcDbVertex
100
AcDb2dVertex
 10
3.661004
 20
-1.424032
 30
0.0
 70
     8
  0
VERTEX
  5
1CE
100
AcDbEntity
  8
4
100
AcDbVertex
100
AcDb2dVertex
 10
3.70325
 20
-1.68631
 30
0.0
 70
     8
  0
VERTEX
  5
1CF
100
AcDbEntity
  8
4
100
AcDbVertex
100
AcDb2dVertex
 10
3.748687
 20
-1.931755
 30
0.0
 70
     8
  0
VERTEX
  5
1D0
100
AcDbEntity
  8
4
100
AcDbVertex
100
AcDb2dVertex
 10
3.794125
 20
-2.167306
 30
0.0
 70
     8
  0
VERTEX
  5
1D1
100
AcDbEntity
  8
4
100
AcDbVertex
100
AcDb2dVertex
 10
3.836371
 20
-2.399906
 30
0.0
 70
     8
  0
VERTEX
  5
1D2
100
AcDbEntity
  8
4
100
AcDbVertex
100
AcDb2dVertex
 10
3.872231
 20
-2.636495
 30
0.0
 70
     8
  0
VERTEX
  5
1D3
100
AcDbEntity
  8
4
100
AcDbVertex
100
AcDb2dVertex
 10
3.898515
 20
-2.884014
 30
0.0
 70
     8
  0
VERTEX
  5
1D4
100
AcDbEntity
  8
4
100
AcDbVertex
100
AcDb2dVertex
 10
3.9132
 20
-3.148273
 30
0.0
 70
     8
  0
VERTEX
  5
1D5
100
AcDbEntity
  8
4
100
AcDbVertex
100
AcDb2dVertex
 10
3.918946
 20
-3.430563
 30
0.0
 70
     8
  0
VERTEX
  5
1D6
100
AcDbEntity
  8
4
100
AcDbVertex
100
AcDb2dVertex
 10
3.919584
 20
-3.731042
 30
0.0
 70
     8
  0
VERTEX
  5
1D7
100
AcDbEntity
  8
4
100
AcDbVertex
100
AcDb2dVertex
 10
3.918946
 20
-4.049871
 30
0.0
 70
     8
  0
VERTEX
  5
1D8
100
AcDbEntity
  8
4
100
AcDbVertex
100
AcDb2dVertex
 10
3.920861
 20
-4.387209
 30
0.0
 70
     8
  0
VERTEX
  5
1D9
100
AcDbEntity
  8
4
100
AcDbVertex
100
AcDb2dVertex
 10
3.929161
 20
-4.743216
 30
0.0
 70
     8
  0
VERTEX
  5
1DA
100
AcDbEntity
  8
4
100
AcDbVertex
100
AcDb2dVertex
 10
3.947677
 20
-5.118051
 30
0.0
 70
     8
  0
VERTEX
  5
1DB
100
AcDbEntity
  8
4
100
AcDbVertex
100
AcDb2dVertex
 10
3.980239
 20
-5.511874
 30
0.0
 70
     8
  0
VERTEX
  5
1DC
100
AcDbEntity
  8
4
100
AcDbVertex
100
AcDb2dVertex
 10
4.029215
 20
-5.924106
 30
0.0
 70
     8
  0
VERTEX
  5
1DD
100
AcDbEntity
  8
4
100
AcDbVertex
100
AcDb2dVertex
 10
4.091119
 20
-6.351217
 30
0.0
 70
     8
  0
VERTEX
  5
1DE
100
AcDbEntity
  8
4
100
AcDbVertex
100
AcDb2dVertex
 10
4.161005
 20
-6.788939
 30
0.0
 70
     8
  0
VERTEX
  5
1DF
100
AcDbEntity
  8
4
100
AcDbVertex
100
AcDb2dVertex
 10
4.233923
 20
-7.233003
 30
0.0
 70
     8
  0
VERTEX
  5
1E0
100
AcDbEntity
  8
4
100
AcDbVertex
100
AcDb2dVertex
 10
4.304926
 20
-7.679142
 30
0.0
 70
     8
  0
VERTEX
  5
1E1
100
AcDbEntity
  8
4
100
AcDbVertex
100
AcDb2dVertex
 10
4.369066
 20
-8.123086
 30
0.0
 70
     8
  0
VERTEX
  5
1E2
100
AcDbEntity
  8
4
100
AcDbVertex
100
AcDb2dVertex
 10
4.421394
 20
-8.560569
 30
0.0
 70
     8
  0
VERTEX
  5
1E3
100
AcDbEntity
  8
4
100
AcDbVertex
100
AcDb2dVertex
 10
4.456962
 20
-8.987321
 30
0.0
 70
     8
  0
VERTEX
  5
1E4
100
AcDbEntity
  8
4
100
AcDbVertex
100
AcDb2dVertex
 10
4.471221
 20
-9.40444
 30
0.0
 70
     8
  0
VERTEX
  5
1E5
100
AcDbEntity
  8
4
100
AcDbVertex
100
AcDb2dVertex
 10
4.461218
 20
-9.834485
 30
0.0
 70
     8
  0
VERTEX
  5
1E6
100
AcDbEntity
  8
4
100
AcDbVertex
100
AcDb2dVertex
 10
4.4244
 20
-10.305381
 30
0.0
 70
     8
  0
VERTEX
  5
1E7
100
AcDbEntity
  8
4
100
AcDbVertex
100
AcDb2dVertex
 10
4.358212
 20
-10.845053
 30
0.0
 70
     8
  0
VERTEX
  5
1E8
100
AcDbEntity
  8
4
100
AcDbVertex
100
AcDb2dVertex
 10
4.2601
 20
-11.481426
 30
0.0
 70
     8
  0
VERTEX
  5
1E9
100
AcDbEntity
  8
4
100
AcDbVertex
100
AcDb2dVertex
 10
4.127512
 20
-12.242425
 30
0.0
 70
     8
  0
VERTEX
  5
1EA
100
AcDbEntity
  8
4
100
AcDbVertex
100
AcDb2dVertex
 10
3.957892
 20
-13.155975
 30
0.0
 70
     8
  0
VERTEX
  5
1EB
100
AcDbEntity
  8
4
100
AcDbVertex
100
AcDb2dVertex
 10
3.748687
 20
-14.25
 30
0.0
 70
     8
  0
VERTEX
  5
1EC
100
AcDbEntity
  8
4
100
AcDbVertex
100
AcDb2dVertex
 10
2.931448
 20
11.848342
 30
0.0
 70
    16
  0
VERTEX
  5
1ED
100
AcDbEntity
  8
4
100
AcDbVertex
100
AcDb2dVertex
 10
3.544377
 20
8.008671
 30
0.0
 70
    16
  0
VERTEX
  5
1EE
100
AcDbEntity
  8
4
100
AcDbVertex
100
AcDb2dVertex
 10
3.258344
 20
5.802902
 30
0.0
 70
    16
  0
VERTEX
  5
1EF
100
AcDbEntity
  8
4
100
AcDbVertex
100
AcDb2dVertex
 10
3.707825
 20
2.65764
 30
0.0
 70
    16
  0
VERTEX
  5
1F0
100
AcDbEntity
  8
4
100
AcDbVertex
100
AcDb2dVertex
 10
3.462653
 20
-1.222879
 30
0.0
 70
    16
  0
VERTEX
  5
1F1
100
AcDbEntity
  8
4
100
AcDbVertex
100
AcDb2dVertex
 10
4.034722
 20
-2.693392
 30
0.0
 70
    16
  0
VERTEX
  5
1F2
100
AcDbEntity
  8
4
100
AcDbVertex
100
AcDb2dVertex
 10
3.789549
 20
-5.307636
 30
0.0
 70
    16
  0
VERTEX
  5
1F3
100
AcDbEntity
  8
4
100
AcDbVertex
100
AcDb2dVertex
 10
4.688513
 20
-9.147307
 30
0.0
 70
    16
  0
VERTEX
  5
1F4
100
AcDbEntity
  8
4
100
AcDbVertex
100
AcDb2dVertex
 10
4.361617
 20
-11.067143
 30
0.0
 70
    16
  0
VERTEX
  5
1F5
100
AcDbEntity
  8
4
100
AcDbVertex
100
AcDb2dVertex
 10
3.748687
 20
-14.25
 30
0.0
 70
    16
  0
SEQEND
  5
1F6
100
AcDbEntity
  8
4
  0
LINE
  5
1F7
100
AcDbEntity
  8
4
100
AcDbLine
 10
-15.25
 20
-6.35
 30
0.0
 11
0.0
 21
6.35
 31
0.0
  0
LINE
  5
1F8
100
AcDbEntity
  8
4
100
AcDbLine
 10
-15.25
 20
6.35
 30
0.0
 11
0.0
 21
-6.35
 31
0.0
  0
LINE
  5
1F9
100
AcDbEntity
  8
3
100
AcDbLine
 10
0.0
 20
-6.35
 30
0.0
 11
-15.25
 21
-6.35
 31
0.0
  0
LINE
  5
1FA
100
AcDbEntity
  8
0
100
AcDbLine
 10
3.0
 20
-14.25
 30
0.0
 11
0.0
 21
-12.53
 31
0.0
  0
LINE
  5
1FB
100
AcDbEntity
  8
0
  6
CONTINUOUS
100
AcDbLine
 10
6.368451
 20
3.524795
 30
0.0
 11
8.868451
 21
-3.175205
 31
0.0
  0
LINE
  5
1FC
100
AcDbEntity
  8
0
  6
CONTINUOUS
100
AcDbLine
 10
5.9
 20
1.919755
 30
0.0
 11
7.931549
 21
-3.524795
 31
0.0
  0
ARC
  5
1FD
100
AcDbEntity
  8
0
  6
CONTINUOUS
100
AcDbCircle
 10
5.9
 20
-3.35
 30
0.0
 40
0.5
100
AcDbArc
 50
270.0
 51
90.0
  0
LINE
  5
1FE
100
AcDbEntity
  8
0
100
AcDbLine
 10
5.9
 20
-2.6
 30
0.0
 11
7.586476
 21
-2.6
 31
0.0
  0
LINE
  5
1FF
100
AcDbEntity
  8
0
100
AcDbLine
 10
5.9
 20
-4.2
 30
0.0
 11
3.919798
 21
-4.2
 31
0.0
  0
LINE
  5
200
100
AcDbEntity
  8
0
  6
CONTINUOUS
100
AcDbLine
 10
9.213524
 20
-2.6
 30
0.0
 11
8.868451
 21
-3.524795
 31
0.0
  0
ARC
  5
201
100
AcDbEntity
  8
0
  6
CONTINUOUS
100
AcDbCircle
 10
8.4
 20
-3.35
 30
0.0
 40
0.5
100
AcDbArc
 50
200.462272
 51
20.462272
  0
LINE
  5
202
100
AcDbEntity
  8
0
  6
CONTINUOUS
100
AcDbLine
 10
6.4
 20
-3.35
 30
0.0
 11
6.4
 21
-2.6
 31
0.0
  0
ARC
  5
203
100
AcDbEntity
  8
0
  6
CONTINUOUS
100
AcDbCircle
 10
5.9
 20
3.35
 30
0.0
 40
0.5
100
AcDbArc
 50
20.462272
 51
90.0
  0
LINE
  5
204
100
AcDbEntity
  8
0
100
AcDbLine
 10
5.9
 20
4.2
 30
0.0
 11
3.483536
 21
4.2
 31
0.0
  0
LINE
  5
205
100
AcDbEntity
  8
3
100
AcDbLine
 10
0.0
 20
6.35
 30
0.0
 11
-15.25
 21
6.35
 31
0.0
  0
LINE
  5
206
100
AcDbEntity
  8
0
100
AcDbLine
 10
3.0
 20
14.25
 30
0.0
 11
0.0
 21
12.53
 31
0.0
  0
LINE
  5
207
100
AcDbEntity
  8
0
100
AcDbLine
 10
41.713524
 20
2.6
 30
0.0
 11
53.3
 21
2.6
 31
0.0
  0
LINE
  5
208
100
AcDbEntity
  8
0
100
AcDbLine
 10
38.653823
 20
-2.6
 30
0.0
 11
53.3
 21
-2.6
 31
0.0
  0
LINE
  5
209
100
AcDbEntity
  8
0
100
AcDbLine
 10
26.713524
 20
2.6
 30
0.0
 11
30.646177
 21
2.6
 31
0.0
  0
LINE
  5
20A
100
AcDbEntity
  8
0
  6
CONTINUOUS
100
AcDbLine
 10
25.431549
 20
3.175205
 30
0.0
 11
27.931549
 21
-3.524795
 31
0.0
  0
LINE
  5
20B
100
AcDbEntity
  8
0
  6
CONTINUOUS
100
AcDbLine
 10
26.368451
 20
3.524795
 30
0.0
 11
28.868451
 21
-3.175205
 31
0.0
  0
LINE
  5
20C
100
AcDbEntity
  8
0
100
AcDbLine
 10
23.653823
 20
-2.6
 30
0.0
 11
27.586476
 21
-2.6
 31
0.0
  0
ARC
  5
20D
100
AcDbEntity
  8
0
  6
CONTINUOUS
100
AcDbCircle
 10
18.4
 20
-3.35
 30
0.0
 40
0.5
100
AcDbArc
 50
200.462272
 51
20.462272
  0
LINE
  5
20E
100
AcDbEntity
  8
0
100
AcDbLine
 10
16.713524
 20
2.6
 30
0.0
 11
20.646177
 21
2.6
 31
0.0
  0
LINE
  5
20F
100
AcDbEntity
  8
0
  6
CONTINUOUS
100
AcDbLine
 10
16.368451
 20
3.524795
 30
0.0
 11
18.868451
 21
-3.175205
 31
0.0
  0
LINE
  5
210
100
AcDbEntity
  8
0
  6
CONTINUOUS
100
AcDbLine
 10
11.368451
 20
3.524795
 30
0.0
 11
13.868451
 21
-3.175205
 31
0.0
  0
LINE
  5
211
100
AcDbEntity
  8
0
  6
CONTINUOUS
100
AcDbLine
 10
15.431549
 20
3.175205
 30
0.0
 11
17.931549
 21
-3.524795
 31
0.0
  0
LINE
  5
212
100
AcDbEntity
  8
0
  6
CONTINUOUS
100
AcDbLine
 10
10.431549
 20
3.175205
 30
0.0
 11
12.931549
 21
-3.524795
 31
0.0
  0
LINE
  5
213
100
AcDbEntity
  8
0
100
AcDbLine
 10
13.653823
 20
-2.6
 30
0.0
 11
17.586476
 21
-2.6
 31
0.0
  0
ARC
  5
214
100
AcDbEntity
  8
0
  6
CONTINUOUS
100
AcDbCircle
 10
13.4
 20
-3.35
 30
0.0
 40
0.5
100
AcDbArc
 50
200.462272
 51
20.462272
  0
LINE
  5
215
100
AcDbEntity
  8
0
100
AcDbLine
 10
11.713524
 20
2.6
 30
0.0
 11
15.646177
 21
2.6
 31
0.0
  0
ARC
  5
216
100
AcDbEntity
  8
0
  6
CONTINUOUS
100
AcDbCircle
 10
10.9
 20
3.35
 30
0.0
 40
0.5
100
AcDbArc
 50
20.462272
 51
200.462272
  0
LINE
  5
217
100
AcDbEntity
  8
0
  6
CONTINUOUS
100
AcDbLine
 10
15.431549
 20
3.524795
 30
0.0
 11
15.086476
 21
2.6
 31
0.0
  0
ARC
  5
218
100
AcDbEntity
  8
0
  6
CONTINUOUS
100
AcDbCircle
 10
15.9
 20
3.35
 30
0.0
 40
0.5
100
AcDbArc
 50
20.462272
 51
200.462272
  0
LINE
  5
219
100
AcDbEntity
  8
0
  6
CONTINUOUS
100
AcDbLine
 10
21.368451
 20
3.524795
 30
0.0
 11
23.868451
 21
-3.175205
 31
0.0
  0
LINE
  5
21A
100
AcDbEntity
  8
0
  6
CONTINUOUS
100
AcDbLine
 10
20.431549
 20
3.175205
 30
0.0
 11
22.931549
 21
-3.524795
 31
0.0
  0
LINE
  5
21B
100
AcDbEntity
  8
0
100
AcDbLine
 10
18.653823
 20
-2.6
 30
0.0
 11
22.586476
 21
-2.6
 31
0.0
  0
ARC
  5
21C
100
AcDbEntity
  8
0
  6
CONTINUOUS
100
AcDbCircle
 10
23.4
 20
-3.35
 30
0.0
 40
0.5
100
AcDbArc
 50
200.462272
 51
20.462272
  0
LINE
  5
21D
100
AcDbEntity
  8
0
100
AcDbLine
 10
21.713524
 20
2.6
 30
0.0
 11
25.646177
 21
2.6
 31
0.0
  0
ARC
  5
21E
100
AcDbEntity
  8
0
  6
CONTINUOUS
100
AcDbCircle
 10
20.9
 20
3.35
 30
0.0
 40
0.5
100
AcDbArc
 50
20.462272
 51
200.462272
  0
LINE
  5
21F
100
AcDbEntity
  8
0
  6
CONTINUOUS
100
AcDbLine
 10
20.431549
 20
3.524795
 30
0.0
 11
20.086476
 21
2.6
 31
0.0
  0
ARC
  5
220
100
AcDbEntity
  8
0
  6
CONTINUOUS
100
AcDbCircle
 10
25.9
 20
3.35
 30
0.0
 40
0.5
100
AcDbArc
 50
20.462272
 51
200.462272
  0
LINE
  5
221
100
AcDbEntity
  8
0
  6
CONTINUOUS
100
AcDbLine
 10
25.431549
 20
3.524795
 30
0.0
 11
25.086476
 21
2.6
 31
0.0
  0
LINE
  5
222
100
AcDbEntity
  8
0
100
AcDbLine
 10
33.653823
 20
-2.6
 30
0.0
 11
37.586476
 21
-2.6
 31
0.0
  0
LINE
  5
223
100
AcDbEntity
  8
0
100
AcDbLine
 10
31.713524
 20
2.6
 30
0.0
 11
35.646177
 21
2.6
 31
0.0
  0
LINE
  5
224
100
AcDbEntity
  8
0
  6
CONTINUOUS
100
AcDbLine
 10
31.368451
 20
3.524795
 30
0.0
 11
33.868451
 21
-3.175205
 31
0.0
  0
LINE
  5
225
100
AcDbEntity
  8
0
  6
CONTINUOUS
100
AcDbLine
 10
30.431549
 20
3.175205
 30
0.0
 11
32.931549
 21
-3.524795
 31
0.0
  0
LINE
  5
226
100
AcDbEntity
  8
0
100
AcDbLine
 10
28.653823
 20
-2.6
 30
0.0
 11
32.586476
 21
-2.6
 31
0.0
  0
ARC
  5
227
100
AcDbEntity
  8
0
  6
CONTINUOUS
100
AcDbCircle
 10
28.4
 20
-3.35
 30
0.0
 40
0.5
100
AcDbArc
 50
200.462272
 51
20.462272
  0
ARC
  5
228
100
AcDbEntity
  8
0
  6
CONTINUOUS
100
AcDbCircle
 10
33.4
 20
-3.35
 30
0.0
 40
0.5
100
AcDbArc
 50
200.462272
 51
20.462272
  0
ARC
  5
229
100
AcDbEntity
  8
0
  6
CONTINUOUS
100
AcDbCircle
 10
30.9
 20
3.35
 30
0.0
 40
0.5
100
AcDbArc
 50
20.462272
 51
200.462272
  0
LINE
  5
22A
100
AcDbEntity
  8
0
  6
CONTINUOUS
100
AcDbLine
 10
30.431549
 20
3.524795
 30
0.0
 11
30.086476
 21
2.6
 31
0.0
  0
LINE
  5
22B
100
AcDbEntity
  8
0
  6
CONTINUOUS
100
AcDbLine
 10
36.368451
 20
3.524795
 30
0.0
 11
38.868451
 21
-3.175205
 31
0.0
  0
LINE
  5
22C
100
AcDbEntity
  8
0
  6
CONTINUOUS
100
AcDbLine
 10
35.431549
 20
3.175205
 30
0.0
 11
37.931549
 21
-3.524795
 31
0.0
  0
ARC
  5
22D
100
AcDbEntity
  8
0
  6
CONTINUOUS
100
AcDbCircle
 10
38.4
 20
-3.35
 30
0.0
 40
0.5
100
AcDbArc
 50
200.462272
 51
20.462272
  0
LINE
  5
22E
100
AcDbEntity
  8
0
100
AcDbLine
 10
36.713524
 20
2.6
 30
0.0
 11
40.646177
 21
2.6
 31
0.0
  0
ARC
  5
22F
100
AcDbEntity
  8
0
  6
CONTINUOUS
100
AcDbCircle
 10
35.9
 20
3.35
 30
0.0
 40
0.5
100
AcDbArc
 50
20.462272
 51
200.462272
  0
LINE
  5
230
100
AcDbEntity
  8
0
  6
CONTINUOUS
100
AcDbLine
 10
35.431549
 20
3.524795
 30
0.0
 11
35.086476
 21
2.6
 31
0.0
  0
LINE
  5
231
100
AcDbEntity
  8
0
  6
CONTINUOUS
100
AcDbLine
 10
41.368451
 20
3.524795
 30
0.0
 11
42.257713
 21
1.141574
 31
0.0
  0
LINE
  5
232
100
AcDbEntity
  8
4
100
AcDbLine
 10
42.257713
 20
1.141574
 30
0.0
 11
42.19121
 21
0.995762
 31
0.0
  0
LINE
  5
233
100
AcDbEntity
  8
4
100
AcDbLine
 10
42.19121
 20
0.995762
 30
0.0
 11
42.130571
 21
0.836682
 31
0.0
  0
LINE
  5
234
100
AcDbEntity
  8
4
100
AcDbLine
 10
42.130571
 20
0.836682
 30
0.0
 11
42.073125
 21
0.665474
 31
0.0
  0
LINE
  5
235
100
AcDbEntity
  8
4
100
AcDbLine
 10
42.073125
 20
0.665474
 30
0.0
 11
42.016206
 21
0.48328
 31
0.0
  0
LINE
  5
236
100
AcDbEntity
  8
4
100
AcDbLine
 10
42.016206
 20
0.48328
 30
0.0
 11
41.957143
 21
0.29124
 31
0.0
  0
LINE
  5
237
100
AcDbEntity
  8
4
100
AcDbLine
 10
41.957143
 20
0.29124
 30
0.0
 11
41.893269
 21
0.090495
 31
0.0
  0
LINE
  5
238
100
AcDbEntity
  8
4
100
AcDbLine
 10
41.893269
 20
0.090495
 30
0.0
 11
41.821915
 21
-0.117814
 31
0.0
  0
LINE
  5
239
100
AcDbEntity
  8
4
100
AcDbLine
 10
41.821915
 20
-0.117814
 30
0.0
 11
41.740411
 21
-0.332547
 31
0.0
  0
LINE
  5
23A
100
AcDbEntity
  8
0
  6
CONTINUOUS
100
AcDbLine
 10
40.431549
 20
3.524795
 30
0.0
 11
40.086476
 21
2.6
 31
0.0
  0
LINE
  5
23B
100
AcDbEntity
  8
0
  6
CONTINUOUS
100
AcDbLine
 10
40.431549
 20
3.175205
 30
0.0
 11
41.740411
 21
-0.332547
 31
0.0
  0
ARC
  5
23C
100
AcDbEntity
  8
0
  6
CONTINUOUS
100
AcDbCircle
 10
40.9
 20
3.35
 30
0.0
 40
0.5
100
AcDbArc
 50
20.462272
 51
200.462272
  0
LINE
  5
23D
100
AcDbEntity
  8
0
100
AcDbLine
 10
55.9
 20
9.8
 30
0.0
 11
55.9
 21
-9.8
 31
0.0
  0
LINE
  5
23E
100
AcDbEntity
  8
0
  6
CONTINUOUS
100
AcDbLine
 10
57.968098
 20
-9.35
 30
0.0
 11
55.9
 21
-9.35
 31
0.0
  0
ARC
  5
23F
100
AcDbEntity
  8
0
  6
CONTINUOUS
100
AcDbCircle
 10
53.3
 20
0.0
 30
0.0
 40
2.6
100
AcDbArc
 50
270.0
 51
90.0
  0
LINE
  5
240
100
AcDbEntity
  8
0
  6
CONTINUOUS
100
AcDbLine
 10
57.968098
 20
9.35
 30
0.0
 11
55.9
 21
9.35
 31
0.0
  0
LINE
  5
241
100
AcDbEntity
  8
0
  6
CONTINUOUS
100
AcDbLine
 10
81.9
 20
-9.35
 30
0.0
 11
81.9
 21
-15.75
 31
0.0
  0
LINE
  5
242
100
AcDbEntity
  8
0
  6
CONTINUOUS
100
AcDbLine
 10
81.9
 20
-15.75
 30
0.0
 11
76.9
 21
-15.75
 31
0.0
  0
LINE
  5
243
100
AcDbEntity
  8
0
  6
CONTINUOUS
100
AcDbLine
 10
76.9
 20
-14.25
 30
0.0
 11
76.9
 21
-15.75
 31
0.0
  0
LINE
  5
244
100
AcDbEntity
  8
0
  6
CONTINUOUS
100
AcDbLine
 10
81.9
 20
9.35
 30
0.0
 11
81.9
 21
15.75
 31
0.0
  0
LINE
  5
245
100
AcDbEntity
  8
0
  6
CONTINUOUS
100
AcDbLine
 10
81.9
 20
15.75
 30
0.0
 11
76.9
 21
15.75
 31
0.0
  0
LINE
  5
246
100
AcDbEntity
  8
0
  6
CONTINUOUS
100
AcDbLine
 10
76.9
 20
14.25
 30
0.0
 11
76.9
 21
15.75
 31
0.0
  0
ENDBLK
  5
248
100
AcDbEntity
  8
0
100
AcDbBlockEnd
  0
BLOCK
  5
15B
100
AcDbEntity
  8
0
100
AcDbBlockBegin
  2
SLK0205
 70
    64
 10
0.0
 20
0.0
 30
0.0
  3
SLK0205
  1

  0
INSERT
  5
77
100
AcDbEntity
  8
8
100
AcDbBlockReference
  2
*X2
 10
-229.272625
 20
50.625734
 30
0.0
1001
GENIUS_GENODEF_13
1002
{
1000
HIER
1070
     0
1002
}
1002
{
1000
MANEDIT
1070
     0
1002
}
1002
{
1000
NOSEL
1070
     0
1002
}
1002
{
1000
BEHIND
1070
     0
1002
}
1002
{
1000
REACTOR
1002
}
1001
GENIUS_GENOBJ-N-HTC_13
1002
{
1000
OWNER
1000
GEN
1002
}
1001
GENIUS_GENHATCH_13
1002
{
1000
DATA
1040
45.0
1042
1.0
1000
_U
1070
     0
1011
-88.889976
1021
-17.611591
1031
0.0
1002
}
1002
{
1000
UCS
1010
0.0
1020
0.0
1030
0.0
1010
1.0
1020
0.0
1030
0.0
1010
0.0
1020
1.0
1030
0.0
1002
}
1001
ACAD
1000
HATCH
1002
{
1070
    19
1000
_U
1040
1.0
1040
0.785398
1070
     0
1002
}
  0
INSERT
  5
BB
100
AcDbEntity
  8
8
100
AcDbBlockReference
  2
*X1
 10
-229.272625
 20
50.625734
 30
0.0
1001
GENIUS_GENODEF_13
1002
{
1000
HIER
1070
     0
1002
}
1002
{
1000
MANEDIT
1070
     0
1002
}
1002
{
1000
NOSEL
1070
     0
1002
}
1002
{
1000
BEHIND
1070
     0
1002
}
1002
{
1000
REACTOR
1002
}
1001
GENIUS_GENOBJ-N-HTC_13
1002
{
1000
OWNER
1000
GEN
1002
}
1001
GENIUS_GENHATCH_13
1002
{
1000
DATA
1040
135.0
1042
2.7
1000
_U
1070
     0
1011
-35.878403
1021
-13.861668
1031
0.0
1002
}
1002
{
1000
UCS
1010
0.0
1020
0.0
1030
0.0
1010
1.0
1020
0.0
1030
0.0
1010
0.0
1020
1.0
1030
0.0
1002
}
1001
ACAD
1000
HATCH
1002
{
1070
    19
1000
_U
1040
2.7
1040
2.356194
1070
     0
1002
}
  0
INSERT
  5
D6
100
AcDbEntity
  8
8
100
AcDbBlockReference
  2
*X0
 10
-229.272625
 20
50.625734
 30
0.0
1001
GENIUS_GENODEF_13
1002
{
1000
HIER
1070
     0
1002
}
1002
{
1000
MANEDIT
1070
     0
1002
}
1002
{
1000
NOSEL
1070
     0
1002
}
1002
{
1000
BEHIND
1070
     0
1002
}
1002
{
1000
REACTOR
1002
}
1001
GENIUS_GENOBJ-N-HTC_13
1002
{
1000
OWNER
1000
GEN
1002
}
1001
GENIUS_GENHATCH_13
1002
{
1000
DATA
1040
135.0
1042
2.7
1000
_U
1070
     0
1011
-37.650761
1021
13.761266
1031
0.0
1002
}
1002
{
1000
UCS
1010
0.0
1020
0.0
1030
0.0
1010
1.0
1020
0.0
1030
0.0
1010
0.0
1020
1.0
1030
0.0
1002
}
1001
ACAD
1000
HATCH
1002
{
1070
    19
1000
_U
1040
2.7
1040
2.356194
1070
     0
1002
}
  0
LINE
  5
F1
100
AcDbEntity
  8
0
  6
CONTINUOUS
100
AcDbLine
 10
-36.75
 20
-17.05
 30
0.0
 11
-104.25
 21
-17.05
 31
0.0
  0
LINE
  5
F2
100
AcDbEntity
  8
0
  6
CONTINUOUS
100
AcDbLine
 10
-36.75
 20
17.05
 30
0.0
 11
-104.25
 21
17.05
 31
0.0
  0
LINE
  5
F3
100
AcDbEntity
  8
0
  6
CONTINUOUS
100
AcDbLine
 10
-36.75
 20
17.0
 30
0.0
 11
-104.25
 21
17.0
 31
0.0
  0
LINE
  5
F4
100
AcDbEntity
  8
0
  6
CONTINUOUS
100
AcDbLine
 10
-36.75
 20
-17.0
 30
0.0
 11
-104.25
 21
-17.0
 31
0.0
  0
LINE
  5
F5
100
AcDbEntity
  8
0
  6
CONTINUOUS
100
AcDbLine
 10
-47.0
 20
-16.0
 30
0.0
 11
-103.0
 21
-16.0
 31
0.0
  0
LINE
  5
F6
100
AcDbEntity
  8
0
  6
CONTINUOUS
100
AcDbLine
 10
-47.0
 20
16.0
 30
0.0
 11
-103.0
 21
16.0
 31
0.0
  0
LINE
  5
F7
100
AcDbEntity
  8
0
  6
CONTINUOUS
100
AcDbLine
 10
-30.0
 20
18.0
 30
0.0
 11
-104.25
 21
18.0
 31
0.0
  0
LINE
  5
F8
100
AcDbEntity
  8
0
  6
CONTINUOUS
100
AcDbLine
 10
-30.0
 20
-18.0
 30
0.0
 11
-104.25
 21
-18.0
 31
0.0
  0
LINE
  5
F9
100
AcDbEntity
  8
7
100
AcDbLine
 10
-28.0
 20
0.0
 30
0.0
 11
-124.989513
 21
0.0
 31
0.0
  0
LINE
  5
FA
100
AcDbEntity
  8
0
100
AcDbLine
 10
-36.986648
 20
9.35
 30
0.0
 11
-121.931902
 21
9.35
 31
0.0
  0
LINE
  5
FB
100
AcDbEntity
  8
7
100
AcDbLine
 10
-36.109241
 20
8.89
 30
0.0
 11
-124.012958
 21
8.89
 31
0.0
  0
LINE
  5
FC
100
AcDbEntity
  8
0
100
AcDbLine
 10
-44.0
 20
8.08
 30
0.0
 11
-122.665137
 21
8.08
 31
0.0
  0
LINE
  5
FD
100
AcDbEntity
  8
7
100
AcDbLine
 10
-36.109241
 20
-8.89
 30
0.0
 11
-124.012958
 21
-8.89
 31
0.0
  0
LINE
  5
FE
100
AcDbEntity
  8
0
100
AcDbLine
 10
-44.0
 20
-8.08
 30
0.0
 11
-122.665137
 21
-8.08
 31
0.0
  0
LINE
  5
FF
100
AcDbEntity
  8
0
100
AcDbLine
 10
-36.986648
 20
-9.35
 30
0.0
 11
-121.931902
 21
-9.35
 31
0.0
  0
LINE
  5
100
100
AcDbEntity
  8
0
  6
CONTINUOUS
100
AcDbLine
 10
-104.25
 20
-17.0
 30
0.0
 11
-104.25
 21
-18.0
 31
0.0
  0
CIRCLE
  5
101
100
AcDbEntity
  8
0
  6
CONTINUOUS
100
AcDbCircle
 10
-105.5
 20
-17.0
 30
0.0
 40
1.25
  0
LINE
  5
102
100
AcDbEntity
  8
0
100
AcDbLine
 10
-123.0
 20
7.5
 30
0.0
 11
-123.0
 21
-7.5
 31
0.0
  0
LINE
  5
103
100
AcDbEntity
  8
0
  6
CONTINUOUS
100
AcDbLine
 10
-123.0
 20
-7.5
 30
0.0
 11
-121.931902
 21
-9.35
 31
0.0
  0
LINE
  5
104
100
AcDbEntity
  8
0
  6
CONTINUOUS
100
AcDbLine
 10
-103.0
 20
-14.35
 30
0.0
 11
-108.0
 21
-14.35
 31
0.0
  0
LINE
  5
105
100
AcDbEntity
  8
0
  6
CONTINUOUS
100
AcDbLine
 10
-106.75
 20
-17.0
 30
0.0
 11
-108.0
 21
-17.0
 31
0.0
  0
LINE
  5
106
100
AcDbEntity
  8
0
  6
CONTINUOUS
100
AcDbLine
 10
-108.0
 20
-14.25
 30
0.0
 11
-108.0
 21
-17.0
 31
0.0
  0
LINE
  5
107
100
AcDbEntity
  8
0
  6
CONTINUOUS
100
AcDbLine
 10
-103.0
 20
-14.25
 30
0.0
 11
-103.0
 21
-16.0
 31
0.0
  0
LINE
  5
108
100
AcDbEntity
  8
0
  6
CONTINUOUS
100
AcDbLine
 10
-123.0
 20
7.5
 30
0.0
 11
-121.931902
 21
9.35
 31
0.0
  0
CIRCLE
  5
109
100
AcDbEntity
  8
0
  6
CONTINUOUS
100
AcDbCircle
 10
-105.5
 20
17.0
 30
0.0
 40
1.25
  0
LINE
  5
10A
100
AcDbEntity
  8
0
  6
CONTINUOUS
100
AcDbLine
 10
-108.0
 20
14.25
 30
0.0
 11
-108.0
 21
17.0
 31
0.0
  0
LINE
  5
10B
100
AcDbEntity
  8
0
  6
CONTINUOUS
100
AcDbLine
 10
-103.0
 20
14.35
 30
0.0
 11
-108.0
 21
14.35
 31
0.0
  0
LINE
  5
10C
100
AcDbEntity
  8
0
  6
CONTINUOUS
100
AcDbLine
 10
-103.0
 20
14.25
 30
0.0
 11
-103.0
 21
16.0
 31
0.0
  0
LINE
  5
10D
100
AcDbEntity
  8
0
  6
CONTINUOUS
100
AcDbLine
 10
-106.75
 20
17.0
 30
0.0
 11
-108.0
 21
17.0
 31
0.0
  0
LINE
  5
10E
100
AcDbEntity
  8
0
  6
CONTINUOUS
100
AcDbLine
 10
-104.25
 20
17.0
 30
0.0
 11
-104.25
 21
18.0
 31
0.0
  0
LINE
  5
10F
100
AcDbEntity
  8
0
100
AcDbLine
 10
-29.0
 20
-10.0
 30
0.0
 11
-33.0
 21
-10.0
 31
0.0
  0
LINE
  5
110
100
AcDbEntity
  8
0
100
AcDbLine
 10
-29.0
 20
10.0
 30
0.0
 11
-33.0
 21
10.0
 31
0.0
  0
LINE
  5
111
100
AcDbEntity
  8
0
  6
CONTINUOUS
100
AcDbLine
 10
-36.75
 20
-18.0
 30
0.0
 11
-36.75
 21
-17.0
 31
0.0
  0
LINE
  5
112
100
AcDbEntity
  8
0
100
AcDbLine
 10
-33.0
 20
11.0
 30
0.0
 11
-33.0
 21
-11.0
 31
0.0
  0
LINE
  5
113
100
AcDbEntity
  8
0
100
AcDbLine
 10
-33.0
 20
-11.35
 30
0.0
 11
-47.0
 21
-11.35
 31
0.0
  0
ARC
  5
114
100
AcDbEntity
  8
0
100
AcDbCircle
 10
-44.0
 20
-28.08
 30
0.0
 40
20.0
100
AcDbArc
 50
58.649434
 51
90.0
  0
LINE
  5
115
100
AcDbEntity
  8
0
  6
CONTINUOUS
100
AcDbLine
 10
-47.0
 20
-16.0
 30
0.0
 11
-47.0
 21
-9.35
 31
0.0
  0
LINE
  5
116
100
AcDbEntity
  8
0
  6
CONTINUOUS
100
AcDbLine
 10
-33.0
 20
-10.2
 30
0.0
 11
-33.0
 21
-11.35
 31
0.0
  0
LINE
  5
117
100
AcDbEntity
  8
0
  6
CONTINUOUS
100
AcDbLine
 10
-33.0
 20
-10.2
 30
0.0
 11
-32.8
 21
-10.0
 31
0.0
1001
GENIUS_GENFIL_13
1070
     0
1040
0.2
1040
0.2
1040
0.0
1040
0.0
1002
{
1002
}
  0
LINE
  5
118
100
AcDbEntity
  8
0
100
AcDbLine
 10
-33.0
 20
-11.0
 30
0.0
 11
-33.59454
 21
-11.0
 31
0.0
  0
LINE
  5
119
100
AcDbEntity
  8
0
100
AcDbLine
 10
-33.0
 20
11.35
 30
0.0
 11
-47.0
 21
11.35
 31
0.0
  0
ARC
  5
11A
100
AcDbEntity
  8
0
100
AcDbCircle
 10
-44.0
 20
28.08
 30
0.0
 40
20.0
100
AcDbArc
 50
270.0
 51
301.350566
  0
LINE
  5
11B
100
AcDbEntity
  8
0
  6
CONTINUOUS
100
AcDbLine
 10
-47.0
 20
9.35
 30
0.0
 11
-47.0
 21
16.0
 31
0.0
  0
LINE
  5
11C
100
AcDbEntity
  8
0
  6
CONTINUOUS
100
AcDbLine
 10
-33.0
 20
10.2
 30
0.0
 11
-33.0
 21
11.35
 31
0.0
  0
LINE
  5
11D
100
AcDbEntity
  8
0
  6
CONTINUOUS
100
AcDbLine
 10
-33.0
 20
10.2
 30
0.0
 11
-32.8
 21
10.0
 31
0.0
1001
GENIUS_GENFIL_13
1070
     0
1040
0.2
1040
0.2
1040
0.0
1040
0.0
1002
{
1002
}
  0
LINE
  5
11E
100
AcDbEntity
  8
0
100
AcDbLine
 10
-33.0
 20
11.0
 30
0.0
 11
-33.59454
 21
11.0
 31
0.0
  0
LINE
  5
11F
100
AcDbEntity
  8
0
  6
CONTINUOUS
100
AcDbLine
 10
-36.75
 20
17.0
 30
0.0
 11
-36.75
 21
18.0
 31
0.0
  0
LINE
  5
120
100
AcDbEntity
  8
0
  6
CONTINUOUS
100
AcDbLine
 10
-29.0
 20
-17.0
 30
0.0
 11
-30.0
 21
-18.0
 31
0.0
1001
GENIUS_GENFIL_13
1070
     0
1040
1.0
1040
1.0
1040
0.0
1040
0.0
1002
{
1002
}
  0
LINE
  5
121
100
AcDbEntity
  8
0
  6
CONTINUOUS
100
AcDbLine
 10
-29.0
 20
-17.0
 30
0.0
 11
-29.0
 21
17.0
 31
0.0
  0
LINE
  5
122
100
AcDbEntity
  8
0
  6
CONTINUOUS
100
AcDbLine
 10
-29.2
 20
-10.0
 30
0.0
 11
-29.0
 21
-10.2
 31
0.0
1001
GENIUS_GENFIL_13
1070
     0
1040
0.2
1040
0.2
1040
0.0
1040
0.0
1002
{
1002
}
  0
LINE
  5
123
100
AcDbEntity
  8
0
100
AcDbLine
 10
-28.0
 20
-11.0
 30
0.0
 11
-29.0
 21
-11.0
 31
0.0
  0
LINE
  5
124
100
AcDbEntity
  8
0
  6
CONTINUOUS
100
AcDbLine
 10
-29.2
 20
10.0
 30
0.0
 11
-29.0
 21
10.2
 31
0.0
1001
GENIUS_GENFIL_13
1070
     0
1040
0.2
1040
0.2
1040
0.0
1040
0.0
1002
{
1002
}
  0
LINE
  5
125
100
AcDbEntity
  8
0
100
AcDbLine
 10
-28.0
 20
11.0
 30
0.0
 11
-29.0
 21
11.0
 31
0.0
  0
LINE
  5
126
100
AcDbEntity
  8
0
  6
CONTINUOUS
100
AcDbLine
 10
-30.0
 20
18.0
 30
0.0
 11
-29.0
 21
17.0
 31
0.0
1001
GENIUS_GENFIL_13
1070
     0
1040
1.0
1040
1.0
1040
0.0
1040
0.0
1002
{
1002
}
  0
INSERT
  5
127
100
AcDbEntity
  8
8
  6
CONTINUOUS
100
AcDbBlockReference
  2
*U12
 10
-229.272625
 20
50.625734
 30
0.0
1001
GENIUS_GENODEF_13
1002
{
1000
HIER
1070
     0
1002
}
1002
{
1000
MANEDIT
1070
     0
1002
}
1002
{
1000
NOSEL
1070
     0
1002
}
1002
{
1000
BEHIND
1070
     0
1002
}
1002
{
1000
REACTOR
1002
}
1001
GENIUS_GENOBJ-N-HTC_13
1002
{
1000
OWNER
1000
GEN
1002
}
1001
GENIUS_GENHATCH_13
1002
{
1000
DATA
1040
45.0
1042
1.0
1000
_U
1070
     0
1011
-89.170866
1021
17.506067
1031
0.0
1002
}
1002
{
1000
UCS
1010
0.0
1020
0.0
1030
0.0
1010
1.0
1020
0.0
1030
0.0
1010
0.0
1020
1.0
1030
0.0
1002
}
1001
ACAD
1000
HATCH
1002
{
1070
    19
1000
_U
1040
1.0
1040
0.785398
1070
     0
1002
}
  0
ENDBLK
  5
15C
100
AcDbEntity
  8
0
100
AcDbBlockEnd
  0
BLOCK
  5
250
100
AcDbEntity
  8
0
100
AcDbBlockBegin
  2
SLK0207
 70
    64
 10
0.0
 20
0.0
 30
0.0
  3
SLK0207
  1

  0
TEXT
  5
24D
100
AcDbEntity
  8
6
100
AcDbText
 10
1.227423
 20
0.0
 30
0.0
 40
3.513125
  1
910609
 41
0.952347
100
AcDbText
  0
TEXT
  5
24E
100
AcDbEntity
  8
6
100
AcDbText
 10
1.227423
 20
12.0
 30
0.0
 40
3.513125
  1
Mod.2
 41
0.952347
100
AcDbText
  0
TEXT
  5
24F
100
AcDbEntity
  8
6
100
AcDbText
 10
1.227423
 20
6.0
 30
0.0
 40
3.513125
  1
1/2"
 41
0.952347
100
AcDbText
  0
ENDBLK
  5
251
100
AcDbEntity
  8
0
100
AcDbBlockEnd
  0
BLOCK
  5
6D
100
AcDbEntity
  8
0
100
AcDbBlockBegin
  2
SLK0203
 70
    64
 10
0.0
 20
0.0
 30
0.0
  3
SLK0203
  1

  0
INSERT
  5
3C
100
AcDbEntity
  8
0
100
AcDbBlockReference
  2
SLK0201
 10
0.0
 20
0.0
 30
0.0
  0
TEXT
  5
54
100
AcDbEntity
  8
6
100
AcDbText
 10
-158.690762
 20
0.74632
 30
0.0
 40
3.513125
  1
910653
 41
0.952347
100
AcDbText
  0
TEXT
  5
56
100
AcDbEntity
  8
6
100
AcDbText
 10
-89.309238
 20
0.74632
 30
0.0
 40
3.513125
  1
923842
 41
0.952347
100
AcDbText
  0
LINE
  5
57
100
AcDbEntity
  8
7
100
AcDbLine
 10
1.0
 20
0.0
 30
0.0
 11
-1.0
 21
0.0
 31
0.0
  0
LINE
  5
58
100
AcDbEntity
  8
7
100
AcDbLine
 10
0.0
 20
1.0
 30
0.0
 11
0.0
 21
-1.0
 31
0.0
  0
INSERT
  5
59
100
AcDbEntity
  8
0
100
AcDbBlockReference
  2
SLK0202
 10
-179.4
 20
0.0
 30
0.0
  0
ENDBLK
  5
6E
100
AcDbEntity
  8
0
100
AcDbBlockEnd
  0
BLOCK
  5
249
100
AcDbEntity
  8
0
100
AcDbBlockBegin
  2
SLK0206
 70
    64
 10
0.0
 20
0.0
 30
0.0
  3
SLK0206
  1

  0
TEXT
  5
71
100
AcDbEntity
  8
6
100
AcDbText
 10
-158.690762
 20
15.193906
 30
0.0
 40
3.513125
  1
910653
 41
0.952347
100
AcDbText
  0
TEXT
  5
72
100
AcDbEntity
  8
6
100
AcDbText
 10
-89.309238
 20
0.74632
 30
0.0
 40
3.513125
  1
923842
 41
0.952347
100
AcDbText
  0
LINE
  5
73
100
AcDbEntity
  8
7
100
AcDbLine
 10
1.0
 20
0.0
 30
0.0
 11
-1.0
 21
0.0
 31
0.0
  0
LINE
  5
74
100
AcDbEntity
  8
7
100
AcDbLine
 10
0.0
 20
1.0
 30
0.0
 11
0.0
 21
-1.0
 31
0.0
  0
INSERT
  5
75
100
AcDbEntity
  8
0
100
AcDbBlockReference
  2
SLK0205
 10
0.0
 20
0.0
 30
0.0
  0
INSERT
  5
15D
100
AcDbEntity
  8
0
100
AcDbBlockReference
  2
SLK0204
 10
-179.9
 20
0.0
 30
0.0
  0
ENDBLK
  5
24A
100
AcDbEntity
  8
0
100
AcDbBlockEnd
  0
BLOCK
  5
159
100
AcDbEntity
  8
0
100
AcDbBlockBegin
  2
*U12
 70
    65
 10
78.368734
 20
170.609507
 30
0.0
  3
*U12
  1
*U
  0
LINE
  5
129
100
AcDbEntity
  8
0
  6
CONTINUOUS
 62
     0
100
AcDbLine
 10
235.711831
 20
137.033773
 30
0.0
 11
236.661831
 21
137.983773
 31
0.0
  0
LINE
  5
12A
100
AcDbEntity
  8
0
  6
CONTINUOUS
 62
     0
100
AcDbLine
 10
234.297617
 20
137.033773
 30
0.0
 11
235.247617
 21
137.983773
 31
0.0
  0
LINE
  5
12B
100
AcDbEntity
  8
0
  6
CONTINUOUS
 62
     0
100
AcDbLine
 10
232.883404
 20
137.033773
 30
0.0
 11
233.833404
 21
137.983773
 31
0.0
  0
LINE
  5
12C
100
AcDbEntity
  8
0
  6
CONTINUOUS
 62
     0
100
AcDbLine
 10
231.46919
 20
137.033773
 30
0.0
 11
232.41919
 21
137.983773
 31
0.0
  0
LINE
  5
12D
100
AcDbEntity
  8
0
  6
CONTINUOUS
 62
     0
100
AcDbLine
 10
230.054977
 20
137.033773
 30
0.0
 11
231.004977
 21
137.983773
 31
0.0
  0
LINE
  5
12E
100
AcDbEntity
  8
0
  6
CONTINUOUS
 62
     0
100
AcDbLine
 10
228.640763
 20
137.033773
 30
0.0
 11
229.590763
 21
137.983773
 31
0.0
  0
LINE
  5
12F
100
AcDbEntity
  8
0
  6
CONTINUOUS
 62
     0
100
AcDbLine
 10
227.226549
 20
137.033773
 30
0.0
 11
228.176549
 21
137.983773
 31
0.0
  0
LINE
  5
130
100
AcDbEntity
  8
0
  6
CONTINUOUS
 62
     0
100
AcDbLine
 10
225.812336
 20
137.033773
 30
0.0
 11
226.762336
 21
137.983773
 31
0.0
  0
LINE
  5
131
100
AcDbEntity
  8
0
  6
CONTINUOUS
 62
     0
100
AcDbLine
 10
224.398122
 20
137.033773
 30
0.0
 11
225.348122
 21
137.983773
 31
0.0
  0
LINE
  5
132
100
AcDbEntity
  8
0
  6
CONTINUOUS
 62
     0
100
AcDbLine
 10
222.983909
 20
137.033773
 30
0.0
 11
223.933909
 21
137.983773
 31
0.0
  0
LINE
  5
133
100
AcDbEntity
  8
0
  6
CONTINUOUS
 62
     0
100
AcDbLine
 10
221.569695
 20
137.033773
 30
0.0
 11
222.519695
 21
137.983773
 31
0.0
  0
LINE
  5
134
100
AcDbEntity
  8
0
  6
CONTINUOUS
 62
     0
100
AcDbLine
 10
220.155482
 20
137.033773
 30
0.0
 11
221.105482
 21
137.983773
 31
0.0
  0
LINE
  5
135
100
AcDbEntity
  8
0
  6
CONTINUOUS
 62
     0
100
AcDbLine
 10
218.741268
 20
137.033773
 30
0.0
 11
219.691268
 21
137.983773
 31
0.0
  0
LINE
  5
136
100
AcDbEntity
  8
0
  6
CONTINUOUS
 62
     0
100
AcDbLine
 10
217.327055
 20
137.033773
 30
0.0
 11
218.277055
 21
137.983773
 31
0.0
  0
LINE
  5
137
100
AcDbEntity
  8
0
  6
CONTINUOUS
 62
     0
100
AcDbLine
 10
215.912841
 20
137.033773
 30
0.0
 11
216.862841
 21
137.983773
 31
0.0
  0
LINE
  5
138
100
AcDbEntity
  8
0
  6
CONTINUOUS
 62
     0
100
AcDbLine
 10
214.498627
 20
137.033773
 30
0.0
 11
215.448627
 21
137.983773
 31
0.0
  0
LINE
  5
139
100
AcDbEntity
  8
0
  6
CONTINUOUS
 62
     0
100
AcDbLine
 10
213.084414
 20
137.033773
 30
0.0
 11
214.034414
 21
137.983773
 31
0.0
  0
LINE
  5
13A
100
AcDbEntity
  8
0
  6
CONTINUOUS
 62
     0
100
AcDbLine
 10
211.6702
 20
137.033773
 30
0.0
 11
212.6202
 21
137.983773
 31
0.0
  0
LINE
  5
13B
100
AcDbEntity
  8
0
  6
CONTINUOUS
 62
     0
100
AcDbLine
 10
210.255987
 20
137.033773
 30
0.0
 11
211.205987
 21
137.983773
 31
0.0
  0
LINE
  5
13C
100
AcDbEntity
  8
0
  6
CONTINUOUS
 62
     0
100
AcDbLine
 10
208.841773
 20
137.033773
 30
0.0
 11
209.791773
 21
137.983773
 31
0.0
  0
LINE
  5
13D
100
AcDbEntity
  8
0
  6
CONTINUOUS
 62
     0
100
AcDbLine
 10
207.42756
 20
137.033773
 30
0.0
 11
208.37756
 21
137.983773
 31
0.0
  0
LINE
  5
13E
100
AcDbEntity
  8
0
  6
CONTINUOUS
 62
     0
100
AcDbLine
 10
206.013346
 20
137.033773
 30
0.0
 11
206.963346
 21
137.983773
 31
0.0
  0
LINE
  5
13F
100
AcDbEntity
  8
0
  6
CONTINUOUS
 62
     0
100
AcDbLine
 10
204.599132
 20
137.033773
 30
0.0
 11
205.549132
 21
137.983773
 31
0.0
  0
LINE
  5
140
100
AcDbEntity
  8
0
  6
CONTINUOUS
 62
     0
100
AcDbLine
 10
203.391359
 20
137.240213
 30
0.0
 11
204.134919
 21
137.983773
 31
0.0
  0
LINE
  5
141
100
AcDbEntity
  8
0
  6
CONTINUOUS
 62
     0
100
AcDbLine
 10
237.126044
 20
137.033773
 30
0.0
 11
238.076044
 21
137.983773
 31
0.0
  0
LINE
  5
142
100
AcDbEntity
  8
0
  6
CONTINUOUS
 62
     0
100
AcDbLine
 10
238.540258
 20
137.033773
 30
0.0
 11
239.490258
 21
137.983773
 31
0.0
  0
LINE
  5
143
100
AcDbEntity
  8
0
  6
CONTINUOUS
 62
     0
100
AcDbLine
 10
239.954472
 20
137.033773
 30
0.0
 11
240.904472
 21
137.983773
 31
0.0
  0
LINE
  5
144
100
AcDbEntity
  8
0
  6
CONTINUOUS
 62
     0
100
AcDbLine
 10
241.368685
 20
137.033773
 30
0.0
 11
242.318685
 21
137.983773
 31
0.0
  0
LINE
  5
145
100
AcDbEntity
  8
0
  6
CONTINUOUS
 62
     0
100
AcDbLine
 10
242.782899
 20
137.033773
 30
0.0
 11
243.732899
 21
137.983773
 31
0.0
  0
LINE
  5
146
100
AcDbEntity
  8
0
  6
CONTINUOUS
 62
     0
100
AcDbLine
 10
244.197112
 20
137.033773
 30
0.0
 11
245.147112
 21
137.983773
 31
0.0
  0
LINE
  5
147
100
AcDbEntity
  8
0
  6
CONTINUOUS
 62
     0
100
AcDbLine
 10
245.611326
 20
137.033773
 30
0.0
 11
246.561326
 21
137.983773
 31
0.0
  0
LINE
  5
148
100
AcDbEntity
  8
0
  6
CONTINUOUS
 62
     0
100
AcDbLine
 10
247.025539
 20
137.033773
 30
0.0
 11
247.975539
 21
137.983773
 31
0.0
  0
LINE
  5
149
100
AcDbEntity
  8
0
  6
CONTINUOUS
 62
     0
100
AcDbLine
 10
248.439753
 20
137.033773
 30
0.0
 11
249.389753
 21
137.983773
 31
0.0
  0
LINE
  5
14A
100
AcDbEntity
  8
0
  6
CONTINUOUS
 62
     0
100
AcDbLine
 10
249.853966
 20
137.033773
 30
0.0
 11
250.803966
 21
137.983773
 31
0.0
  0
LINE
  5
14B
100
AcDbEntity
  8
0
  6
CONTINUOUS
 62
     0
100
AcDbLine
 10
251.26818
 20
137.033773
 30
0.0
 11
252.21818
 21
137.983773
 31
0.0
  0
LINE
  5
14C
100
AcDbEntity
  8
0
  6
CONTINUOUS
 62
     0
100
AcDbLine
 10
252.682394
 20
137.033773
 30
0.0
 11
253.632394
 21
137.983773
 31
0.0
  0
LINE
  5
14D
100
AcDbEntity
  8
0
  6
CONTINUOUS
 62
     0
100
AcDbLine
 10
254.096607
 20
137.033773
 30
0.0
 11
255.046607
 21
137.983773
 31
0.0
  0
LINE
  5
14E
100
AcDbEntity
  8
0
  6
CONTINUOUS
 62
     0
100
AcDbLine
 10
255.510821
 20
137.033773
 30
0.0
 11
256.460821
 21
137.983773
 31
0.0
  0
LINE
  5
14F
100
AcDbEntity
  8
0
  6
CONTINUOUS
 62
     0
100
AcDbLine
 10
256.925034
 20
137.033773
 30
0.0
 11
257.875034
 21
137.983773
 31
0.0
  0
LINE
  5
150
100
AcDbEntity
  8
0
  6
CONTINUOUS
 62
     0
100
AcDbLine
 10
258.339248
 20
137.033773
 30
0.0
 11
259.289248
 21
137.983773
 31
0.0
  0
LINE
  5
151
100
AcDbEntity
  8
0
  6
CONTINUOUS
 62
     0
100
AcDbLine
 10
259.753461
 20
137.033773
 30
0.0
 11
260.703461
 21
137.983773
 31
0.0
  0
LINE
  5
152
100
AcDbEntity
  8
0
  6
CONTINUOUS
 62
     0
100
AcDbLine
 10
261.167675
 20
137.033773
 30
0.0
 11
262.117675
 21
137.983773
 31
0.0
  0
LINE
  5
153
100
AcDbEntity
  8
0
  6
CONTINUOUS
 62
     0
100
AcDbLine
 10
262.581889
 20
137.033773
 30
0.0
 11
263.531889
 21
137.983773
 31
0.0
  0
LINE
  5
154
100
AcDbEntity
  8
0
  6
CONTINUOUS
 62
     0
100
AcDbLine
 10
263.996102
 20
137.033773
 30
0.0
 11
264.946102
 21
137.983773
 31
0.0
  0
LINE
  5
155
100
AcDbEntity
  8
0
  6
CONTINUOUS
 62
     0
100
AcDbLine
 10
265.410316
 20
137.033773
 30
0.0
 11
266.360316
 21
137.983773
 31
0.0
  0
LINE
  5
156
100
AcDbEntity
  8
0
  6
CONTINUOUS
 62
     0
100
AcDbLine
 10
266.824529
 20
137.033773
 30
0.0
 11
267.774529
 21
137.983773
 31
0.0
  0
LINE
  5
157
100
AcDbEntity
  8
0
  6
CONTINUOUS
 62
     0
100
AcDbLine
 10
268.238743
 20
137.033773
 30
0.0
 11
269.188743
 21
137.983773
 31
0.0
  0
LINE
  5
158
100
AcDbEntity
  8
0
  6
CONTINUOUS
 62
     0
100
AcDbLine
 10
269.652956
 20
137.033773
 30
0.0
 11
270.602956
 21
137.983773
 31
0.0
  0
ENDBLK
  5
15A
100
AcDbEntity
  8
0
100
AcDbBlockEnd
  0
BLOCK
  5
38
100
AcDbEntity
  8
0
100
AcDbBlockBegin
  2
*D13
 70
    65
 10
0.0
 20
0.0
 30
0.0
  3
*D13
  1
GEVFRAME
  0
LINE
  5
2F
100
AcDbEntity
  8
0
  6
BYBLOCK
100
AcDbLine
 10
127.741359
 20
183.513773
 30
0.0
 11
127.741359
 21
204.337556
 31
0.0
  0
LINE
  5
30
100
AcDbEntity
  8
0
  6
BYBLOCK
100
AcDbLine
 10
307.641359
 20
171.983773
 30
0.0
 11
307.641359
 21
204.337556
 31
0.0
  0
LINE
  5
31
100
AcDbEntity
  8
0
  6
BYBLOCK
100
AcDbLine
 10
130.241359
 20
203.337556
 30
0.0
 11
305.141359
 21
203.337556
 31
0.0
  0
SOLID
  5
32
100
AcDbEntity
  8
0
  6
BYBLOCK
100
AcDbTrace
 10
130.241359
 20
203.754222
 30
0.0
 11
130.241359
 21
202.920889
 31
0.0
 12
127.741359
 22
203.337556
 32
0.0
 13
127.741359
 23
203.337556
 33
0.0
  0
SOLID
  5
33
100
AcDbEntity
  8
0
  6
BYBLOCK
100
AcDbTrace
 10
305.141359
 20
203.754222
 30
0.0
 11
305.141359
 21
202.920889
 31
0.0
 12
307.641359
 22
203.337556
 32
0.0
 13
307.641359
 23
203.337556
 33
0.0
  0
MTEXT
  5
34
100
AcDbEntity
  8
0
  6
BYBLOCK
 62
     2
100
AcDbMText
 10
217.691359
 20
205.687556
 30
0.0
 40
3.5
 41
0.0
 71
     5
 72
     1
  1
180
  0
POINT
  5
35
100
AcDbEntity
  8
DEFPOINTS
  6
BYBLOCK
 62
     0
100
AcDbPoint
 10
127.741359
 20
182.513773
 30
0.0
  0
POINT
  5
36
100
AcDbEntity
  8
DEFPOINTS
  6
BYBLOCK
 62
     0
100
AcDbPoint
 10
307.641359
 20
170.983773
 30
0.0
  0
POINT
  5
37
100
AcDbEntity
  8
DEFPOINTS
  6
BYBLOCK
 62
     0
100
AcDbPoint
 10
307.641359
 20
203.337556
 30
0.0
  0
ENDBLK
  5
39
100
AcDbEntity
  8
0
100
AcDbBlockEnd
  0
BLOCK
  5
2A
100
AcDbEntity
  8
0
100
AcDbBlockBegin
  2
*D14
 70
    65
 10
0.0
 20
0.0
 30
0.0
  3
*D14
  1
GEVFRAME
  0
LINE
  5
20
100
AcDbEntity
  8
0
  6
BYBLOCK
100
AcDbLine
 10
209.641359
 20
103.233773
 30
0.0
 11
209.641359
 21
89.501947
 31
0.0
  0
LINE
  5
21
100
AcDbEntity
  8
0
  6
BYBLOCK
100
AcDbLine
 10
260.641359
 20
102.983773
 30
0.0
 11
260.641359
 21
89.501947
 31
0.0
  0
LINE
  5
22
100
AcDbEntity
  8
0
  6
BYBLOCK
100
AcDbLine
 10
212.141359
 20
90.501947
 30
0.0
 11
258.141359
 21
90.501947
 31
0.0
  0
SOLID
  5
23
100
AcDbEntity
  8
0
  6
BYBLOCK
100
AcDbTrace
 10
212.141359
 20
90.918614
 30
0.0
 11
212.141359
 21
90.085281
 31
0.0
 12
209.641359
 22
90.501947
 32
0.0
 13
209.641359
 23
90.501947
 33
0.0
  0
SOLID
  5
24
100
AcDbEntity
  8
0
  6
BYBLOCK
100
AcDbTrace
 10
258.141359
 20
90.918614
 30
0.0
 11
258.141359
 21
90.085281
 31
0.0
 12
260.641359
 22
90.501947
 32
0.0
 13
260.641359
 23
90.501947
 33
0.0
  0
MTEXT
  5
25
100
AcDbEntity
  8
0
  6
BYBLOCK
 62
     2
100
AcDbMText
 10
235.141359
 20
92.851947
 30
0.0
 40
3.5
 41
0.0
 71
     5
 72
     1
  1
50
  0
POINT
  5
26
100
AcDbEntity
  8
DEFPOINTS
  6
BYBLOCK
 62
     0
100
AcDbPoint
 10
209.641359
 20
104.233773
 30
0.0
  0
POINT
  5
28
100
AcDbEntity
  8
DEFPOINTS
  6
BYBLOCK
 62
     0
100
AcDbPoint
 10
260.641359
 20
103.983773
 30
0.0
  0
POINT
  5
29
100
AcDbEntity
  8
DEFPOINTS
  6
BYBLOCK
 62
     0
100
AcDbPoint
 10
260.641359
 20
90.501947
 30
0.0
  0
ENDBLK
  5
2B
100
AcDbEntity
  8
0
100
AcDbBlockEnd
  0
ENDSEC
  0
SECTION
  2
ENTITIES
  0
DIMENSION
  5
1D
100
AcDbEntity
  8
5
100
AcDbDimension
  2
*D14
 10
260.641359
 20
90.501947
 30
0.0
 11
235.141359
 21
92.851947
 31
0.0
  1
50
  3
GEN-ISO
100
AcDbAlignedDimension
 13
209.641359
 23
104.233773
 33
0.0
 14
260.641359
 24
103.983773
 34
0.0
100
AcDbRotatedDimension
1001
GENIUS_GENDTOL_13
1000

1000
h9
1000

1040
0.0
  0
DIMENSION
  5
2D
100
AcDbEntity
  8
5
100
AcDbDimension
  2
*D13
 10
307.641359
 20
203.337556
 30
0.0
 11
217.691359
 21
205.687556
 31
0.0
  1
<>
  3
GEN-ISO
100
AcDbAlignedDimension
 13
127.741359
 23
182.513773
 33
0.0
 14
307.641359
 24
170.983773
 34
0.0
100
AcDbRotatedDimension
1001
ACAD
1000
DSTYLE
1002
{
1070
   271
1070
     0
1002
}
1001
GENIUS_GENDTOL_13
1000

1000
h9
1000

1040
0.0
  0
INSERT
  5
3A
100
AcDbEntity
  8
0
100
AcDbBlockReference
  2
SLK0203
 10
307.641359
 20
169.983773
 30
0.0
  0
INSERT
  5
6F
100
AcDbEntity
  8
0
100
AcDbBlockReference
  2
SLK0206
 10
307.641359
 20
119.983773
 30
0.0
  0
INSERT
  5
24B
100
AcDbEntity
  8
0
100
AcDbBlockReference
  2
SLK0207
 10
150.425052
 20
76.780717
 30
0.0
  0
ENDSEC
  0
SECTION
  2
OBJECTS
  0
DICTIONARY
  5
1A
100
AcDbDictionary
  3
ACAD_GROUP
350
18
  3
ACAD_MLINESTYLE
350
19
  0
DICTIONARY
  5
18
102
{ACAD_REACTORS
330
1A
102
}
100
AcDbDictionary
  0
DICTIONARY
  5
19
102
{ACAD_REACTORS
330
1A
102
}
100
AcDbDictionary
  3
STANDARD
350
1B
  0
MLINESTYLE
  5
1B
102
{ACAD_REACTORS
330
19
102
}
100
AcDbMlineStyle
  2
STANDARD
 70
     0
  3

 62
     0
 51
90.0
 52
90.0
 71
     2
 49
0.5
 62
   256
  6
BYLAYER
 49
-0.5
 62
   256
  6
BYLAYER
  0
ENDSEC
  0
EOF
